<svg width="207" height="127" viewBox="0 0 207 127" fill="none" xmlns="http://www.w3.org/2000/svg">
<g id="&#208;&#186;&#208;&#190;&#209;&#128;&#208;&#176;&#208;&#177;&#208;&#181;&#208;&#187;&#209;&#140; 1">
<g id="Group">
<g id="Group_2">
<g id="F_-_530_x2C__Boat_x2C__marine_x2C__sea_x2C__vehicles">
<g id="Group_3">
<path id="Vector" d="M177.7 114.7H165.9C166.2 113.2 180.2 51.3999 180.7 49.3999C181.2 47.3999 179.7 45.5999 177.7 45.5999H171.4V29.7999C171.4 27.9999 169.9 26.4999 168.1 26.4999H111.6C109.8 26.4999 108.3 27.9999 108.3 29.7999V45.5999H102V29.7999C102 27.9999 100.5 26.4999 98.7 26.4999H89.2V4.6999C89.2 2.8999 87.7 1.3999 85.9 1.3999H55.1C53.3 1.3999 51.8 2.8999 51.8 4.6999V26.7999H42.3C40.5 26.7999 39 28.2999 39 30.0999V45.8999H32.7C30.7 45.8999 29.2 47.6999 29.7 49.6999C30.2 52.1999 44 112.7 44.5 115H32.8C31 115 29.5 116.5 29.5 118.3C29.5 120.1 31 121.6 32.8 121.6C38.8 121.6 170.1 121.6 177.2 121.6C179 121.6 180.5 120.1 180.5 118.3C180.7 115.9 179.2 114.7 177.7 114.7ZM114.9 33.0999H165.1V45.6999H114.9V33.0999ZM45.9 33.0999H55.4C57.2 33.0999 58.7 31.5999 58.7 29.7999V7.6999H83.8V29.7999C83.8 31.5999 85.3 33.0999 87.1 33.0999H96.6V45.6999H46.4V33.0999H45.9ZM173.6 51.8999L170.3 66.4999H40.3L37 51.8999C39.8 51.8999 165.9 51.8999 173.6 51.8999ZM51.4 114.7L41.9 72.4999H168.9L159.4 114.7H51.4Z" fill="white"/>
<path id="Vector_2" d="M75.5 83.2998C69.5 83.2998 64.5 88.2998 64.5 94.2998C64.5 100.3 69.5 105.3 75.5 105.3C81.5 105.3 86.5 100.3 86.5 94.2998C86.5 88.2998 81.5 83.2998 75.5 83.2998ZM75.5 98.8998C73 98.8998 70.7 96.8998 70.7 94.0998C70.7 91.2998 72.7 89.2998 75.5 89.2998C78.3 89.2998 80.3 91.2998 80.3 94.0998C80.2 96.8998 78.2 98.8998 75.5 98.8998Z" fill="white"/>
<path id="Vector_3" d="M106.9 83.2998C100.9 83.2998 95.8999 88.2998 95.8999 94.2998C95.8999 100.3 100.9 105.3 106.9 105.3C112.9 105.3 117.9 100.3 117.9 94.2998C117.9 88.2998 112.9 83.2998 106.9 83.2998ZM106.9 98.8998C104.4 98.8998 102.1 96.8998 102.1 94.0998C102.1 91.2998 104.1 89.2998 106.9 89.2998C109.7 89.2998 111.7 91.2998 111.7 94.0998C111.6 96.8998 109.6 98.8998 106.9 98.8998Z" fill="white"/>
<path id="Vector_4" d="M138.2 83.2998C132.2 83.2998 127.2 88.2998 127.2 94.2998C127.2 100.3 132.2 105.3 138.2 105.3C144.2 105.3 149.2 100.3 149.2 94.2998C149.3 88.2998 144.3 83.2998 138.2 83.2998ZM138.2 98.8998C135.7 98.8998 133.4 96.8998 133.4 94.0998C133.4 91.2998 135.4 89.2998 138.2 89.2998C141 89.2998 143 91.2998 143 94.0998C143 96.8998 141 98.8998 138.2 98.8998Z" fill="white"/>
</g>
</g>
</g>
</g>
</g>
</svg>
