<svg width="66" height="55" viewBox="0 0 66 55" fill="none" xmlns="http://www.w3.org/2000/svg">
<g id="china 1" clip-path="url(#clip0_478_25247)">
<g id="Group">
<g id="Group_2">
<path id="Vector" d="M49.5868 5.56904C49.5868 5.56904 49.2405 5.77529 49.2405 6.05029C49.2405 6.32529 49.2405 6.60029 49.4483 6.60029C49.656 6.66904 49.656 6.32529 49.7945 6.46279C50.0023 6.60029 49.9331 6.94404 49.7253 7.28779C49.5175 7.63154 49.2405 8.18154 48.8942 8.73154C48.548 9.21279 48.825 9.96904 48.6865 10.1753C48.548 10.3815 47.9939 10.7253 47.7862 10.794C47.5784 10.8628 47.3706 10.794 47.2321 10.7253C47.0936 10.6565 46.8858 10.6565 46.6781 10.794C46.4703 10.9315 46.4703 11.4815 46.1933 11.7565C45.9163 12.0315 45.847 12.3065 45.847 12.5815C45.847 12.8565 45.9855 12.994 45.6393 13.1315C45.3622 13.269 45.7085 13.819 46.0548 13.819C46.4011 13.819 46.0548 13.6128 46.6781 13.6815C47.3014 13.7503 47.6476 13.7503 47.8554 13.6128C48.0632 13.4065 48.2017 12.994 48.6172 13.2003C49.0327 13.4065 48.7557 14.7815 48.6172 14.7815C48.4787 14.7815 47.9247 14.9878 47.7862 15.1253C47.6476 15.2628 47.0243 15.5378 46.9551 15.744C46.8858 15.9503 46.8166 16.4315 46.6781 16.4315C46.4703 16.4315 46.4011 16.4315 46.2625 16.569C46.1933 16.7065 45.4315 16.844 45.2237 16.9815C44.9467 17.119 44.8082 18.1503 44.3234 18.1503C43.8386 18.1503 42.7998 17.8753 42.592 18.0815C42.3843 18.2878 42.315 18.4253 42.315 18.9065C42.315 19.3878 42.3843 20.3503 41.6225 20.8315C40.9299 21.3128 40.7914 21.1753 40.4451 21.3815C40.0989 21.5878 40.0296 21.6565 39.6141 21.5878C39.1985 21.5878 38.9215 21.4503 38.1597 21.794C37.4672 22.069 36.1513 22.8253 35.7358 22.7565C35.3895 22.6878 35.3203 22.4815 34.7662 22.4128C34.2122 22.2753 33.8659 22.4815 33.5889 22.2753C33.3119 22.069 33.0348 21.6565 32.5501 21.5878C32.0653 21.519 31.442 21.4503 30.8187 21.3128C30.2646 21.244 29.9876 21.3815 29.8491 21.3815C29.7106 21.3815 28.1177 21.519 27.5637 21.3128C27.0097 21.1065 26.8019 20.8315 26.5249 20.2815C26.2479 19.7315 26.0401 19.6628 26.0401 19.5253C26.0401 19.319 25.9708 18.8378 25.7631 18.769C25.4861 18.7003 25.3475 18.769 24.7935 18.3565C24.2395 17.8753 24.101 17.7378 23.7547 17.7378C23.4084 17.7378 22.9236 17.8065 22.1618 17.4628C21.4 17.119 21.3308 16.844 21.4 16.7065C21.4693 16.569 21.8155 16.4315 21.8155 16.294C21.8155 16.1565 21.6078 16.0878 21.7463 15.8128C21.8155 15.469 22.0926 15.2628 21.954 15.0565C21.8155 14.919 21.5385 14.919 21.4693 14.644C21.4 14.369 21.6078 14.3003 21.3307 13.9565C21.0537 13.6128 20.9152 13.7503 20.7075 13.6128C20.5689 13.4753 20.6382 13.3378 20.2919 13.269C19.9457 13.2003 19.8071 13.4065 19.7379 13.1315C19.5994 12.8565 19.8764 12.719 19.6686 12.5128C19.4609 12.3065 19.3916 12.444 19.2531 12.169C19.1146 11.8253 19.3224 11.894 18.9068 11.6878C18.4913 11.4815 18.422 11.4128 18.2143 11.6878C18.0065 11.894 18.0065 12.2378 17.4525 12.2378C16.8984 12.169 16.9677 12.6503 16.8292 12.9253C16.6214 13.2003 16.9677 13.544 16.8292 13.7503C16.6907 13.9565 16.3444 14.369 16.1366 14.1628C15.9289 14.0253 16.1366 13.7503 15.9289 13.7503C15.7211 13.7503 15.1671 13.8878 15.0285 13.6815C14.89 13.4753 14.9593 13.3378 14.6823 13.3378C14.4053 13.4065 14.1975 13.819 14.059 14.1628C13.8512 14.5065 14.059 14.5753 13.8512 14.8503C13.5742 15.1253 13.3664 15.194 13.4357 15.469C13.5049 15.744 13.782 15.744 13.7127 15.9503C13.6434 16.1565 13.6434 16.2253 13.0894 15.8815C12.5354 15.6065 12.5354 15.4003 12.3276 15.5378C12.1198 15.6753 12.2583 15.6753 11.7043 15.6753C11.1503 15.6753 10.6655 15.6753 10.6655 15.8815C10.6655 16.0878 11.0118 16.019 11.081 16.2253C11.1503 16.4315 11.081 16.7753 11.081 17.1878C11.081 17.6003 11.2888 17.944 11.2195 18.219C11.1503 18.494 10.804 18.6315 10.5962 18.9065C10.3885 19.1815 10.7347 19.319 10.3885 19.5253C10.0422 19.7315 10.1807 19.8003 9.69591 19.869C9.21113 19.9378 9.21113 19.7315 8.93411 19.9378C8.65709 20.144 8.58783 20.3503 8.31081 20.3503C8.03379 20.3503 7.75677 20.144 7.61827 20.3503C7.47975 20.4878 7.61827 20.5565 7.27199 20.5565C6.92571 20.5565 6.6487 20.2815 6.23317 20.6253C5.74838 20.9003 5.95615 21.1065 5.60987 21.1753C5.2636 21.244 4.91732 21.4503 4.98658 21.1065C5.05583 20.8315 4.98658 20.9003 4.57105 20.7628C4.22477 20.6253 4.22477 20.8315 4.01701 20.8315C3.80924 20.8315 3.73999 21.1753 3.46297 21.1065C3.2552 20.9003 2.77042 21.3128 2.35489 21.3128C1.93936 21.3128 1.93936 21.794 1.73159 21.8628C1.45457 21.9315 1.45457 22.7565 1.52383 23.0315C1.59308 23.3065 1.80085 23.0315 2.14712 23.1003C2.4934 23.169 2.77042 24.6128 2.4934 24.819C2.14712 25.0253 1.8701 24.9565 1.93936 25.1628C2.00861 25.369 2.28563 25.369 2.63191 25.7128C2.97818 26.0565 3.18595 26.0565 3.18595 26.4003C3.18595 26.744 2.90893 26.8815 3.04744 27.0878C3.18595 27.3628 3.39371 27.2253 3.80924 27.5003C4.29403 27.7753 4.22477 27.9815 4.6403 28.119C5.12509 28.1878 5.2636 28.1878 5.2636 28.1878C5.2636 28.1878 5.12509 28.669 5.33285 29.0128C5.54062 29.3565 6.0254 29.494 6.09466 29.7003C6.16391 29.9065 5.88689 29.8378 5.88689 30.1128C5.88689 30.3878 5.95615 30.6628 5.74838 30.8003C5.60987 30.9378 5.67913 30.869 5.81764 31.2815C5.95615 31.7628 6.09466 32.244 5.67913 32.3815C5.2636 32.4503 5.05583 32.244 5.05583 32.1065C4.98658 32.0378 4.70956 32.0378 4.77881 32.3128C4.84807 32.5878 4.98658 32.519 4.98658 32.9315C4.91732 33.344 4.84807 33.619 4.98658 33.7565C5.12509 33.894 5.33285 33.9628 5.47136 34.3065C5.60987 34.5815 6.0254 35.1315 6.30242 35.269C6.51019 35.4065 6.71795 35.2003 6.85646 35.4753C6.99497 35.7503 7.06423 36.2315 7.27199 36.1628C7.47975 36.094 7.61826 35.4753 7.89528 35.819C8.1723 36.094 7.96454 36.1628 8.31081 36.369C8.65709 36.5753 8.72634 36.4378 8.93411 36.7128C9.14187 36.9878 9.00336 36.8503 9.21113 36.9878C9.41889 37.1253 9.5574 36.919 9.69591 37.194C9.76517 37.469 9.69591 37.8128 10.0422 37.8128C10.3885 37.8128 10.3885 38.1565 10.6655 38.3628C10.9425 38.569 10.9425 38.7753 11.1503 38.7753C11.4273 38.844 11.2195 38.5003 11.4965 38.9128C11.7736 39.3253 11.7736 39.3253 12.0506 39.4628C12.3276 39.6003 12.3276 39.7378 12.4661 39.8065C12.6046 39.8753 12.6046 39.669 12.8816 39.7378C13.1587 39.8065 12.9509 39.7378 13.9897 40.0815C14.9593 40.4253 15.3748 40.1503 15.5826 40.2878C15.7904 40.4253 15.9981 40.7003 15.9289 40.9753C15.8596 41.2503 15.7211 41.3878 15.8596 41.4565C15.9981 41.5253 16.8984 40.5628 17.1755 40.2878C17.5217 40.0815 18.0065 40.0815 18.0065 40.1503C18.0065 40.219 18.0065 40.769 18.0758 40.769C18.145 40.769 18.9068 40.7003 19.1838 40.9753C19.4609 41.2503 19.3916 41.4565 19.5301 41.4565C19.6686 41.4565 20.4997 41.3878 20.7767 41.1128C21.0537 40.8378 21.3308 40.769 21.4 40.6315C21.4693 40.494 21.3308 40.4253 21.5385 40.4253C21.7463 40.4253 21.7463 40.7003 21.954 40.5628C22.1618 40.4253 22.5773 39.8753 22.8544 39.7378C23.1314 39.6003 23.1314 39.669 23.4777 39.944C23.8239 40.219 23.8932 40.4253 24.0317 40.3565C24.1702 40.219 24.101 40.0128 24.3087 39.8065C24.5165 39.669 24.7935 39.6003 25.0013 39.8065C25.1398 40.0128 24.932 40.219 25.0013 40.2878C25.0705 40.3565 25.2783 40.219 25.3475 40.494C25.3475 40.769 24.932 41.1128 25.0705 41.2503C25.1398 41.3878 25.9708 41.594 26.2479 41.594C26.5249 41.594 26.4556 41.319 26.5941 41.1128C26.7326 40.9065 26.7326 40.9753 27.0097 41.1128C27.2867 41.2503 27.2867 41.044 27.3559 41.319C27.4252 41.5253 27.2867 41.8003 27.633 42.0065C27.91 42.2128 28.2563 43.794 28.187 43.8628C28.1177 43.9315 28.187 44.069 28.0485 44.344C27.91 44.619 27.91 44.6878 27.633 44.6878C27.3559 44.7565 27.633 44.9628 27.3559 45.169C26.1093 45.7878 26.3864 47.0253 26.6634 47.094C26.9404 47.094 27.0789 47.2315 27.4252 46.9565C27.7715 46.6815 27.9792 46.4753 27.9792 46.6128C28.0485 46.7503 27.7715 46.8878 27.8407 47.0253C27.91 47.1628 28.0485 47.2315 28.1177 47.644C28.187 48.0565 28.2562 48.1253 28.464 48.194C28.6718 48.194 28.6025 48.469 28.5333 48.8128C28.464 49.0878 28.3948 49.4315 28.6025 49.5003C28.8103 49.569 29.4336 50.2565 29.6413 50.394C29.8491 50.4628 29.8491 50.6003 30.1261 50.4628C30.4032 50.3253 30.5417 49.9815 30.7494 50.119C30.9572 50.1878 30.8187 50.4628 31.0957 50.669C31.3727 50.8753 31.3727 50.8065 31.5805 50.944C31.7883 51.0815 31.7883 51.0815 31.7883 50.8753C31.7883 50.669 31.6497 49.9128 31.719 49.6378C31.7883 49.3628 31.8575 49.1565 32.0653 49.1565C32.273 49.1565 32.0653 49.2253 32.4115 49.294C32.7578 49.3628 32.6193 49.0878 32.8963 49.2253C33.1734 49.3628 33.1734 49.5003 33.3811 49.4315C33.5889 49.3628 33.9352 49.1565 34.0044 49.1565C34.0737 49.2253 34.2122 49.3628 34.3507 49.3628C34.4892 49.3628 34.4199 49.5003 34.697 49.4315C34.974 49.3628 34.7662 49.294 35.1817 49.2253C35.5973 49.1565 36.2898 48.3315 36.4283 48.4003C36.6361 48.469 36.5668 48.469 36.7746 48.6065C36.9824 48.6753 37.3979 48.9503 37.7442 48.8815C38.0905 48.8128 37.9519 49.0878 37.9519 49.4315C37.9519 49.7753 38.5752 50.3253 38.783 50.5315C38.9908 50.669 39.4063 50.7378 39.8911 50.7378C40.3759 50.7378 40.0296 50.6003 40.5144 50.6003C40.9992 50.6003 40.9992 50.6003 41.3454 50.7378C41.6917 50.8753 41.8302 50.6003 42.038 50.7378C42.2458 50.8753 42.038 51.0815 42.1072 51.4253C42.1765 51.8378 42.2458 52.2503 42.592 52.319C42.9383 52.3878 43.0768 52.1815 43.1461 51.9065C43.2153 51.6315 43.2153 51.0128 43.2846 50.8753C43.4231 50.7378 43.4923 50.6003 43.9079 50.669C44.3234 50.7378 44.1849 50.669 44.3927 50.5315C44.6004 50.4628 44.4619 50.2565 44.9467 50.1878C45.5007 50.119 45.57 49.9128 45.9855 49.844C46.4011 49.7753 46.3318 49.294 46.5396 49.2253C46.7473 49.2253 46.6781 48.8815 46.8166 48.744C46.8858 48.6753 47.1629 48.8128 47.3014 48.8815C47.5091 48.9503 47.5784 48.9503 47.7169 48.8815C47.8554 48.8128 48.548 48.469 49.0327 48.469C49.5175 48.469 49.7253 48.469 49.8638 48.3315C49.9331 48.194 50.1408 47.919 50.4178 47.919C50.6949 47.919 50.6949 47.7815 50.6949 47.644C50.6949 47.5065 50.6949 47.1628 51.1104 46.9565C51.5259 46.819 51.6644 47.0253 51.9415 46.819C52.1492 46.6128 52.1492 45.5815 52.2877 45.444C52.4955 45.3065 52.634 45.5128 52.8418 45.444C53.0495 45.3753 53.5343 44.2753 53.8113 44.2065C54.0191 44.1378 54.0884 44.0003 54.0884 43.8628C54.0884 43.7253 54.1576 42.4878 54.0884 42.419C54.0191 42.3503 54.2961 42.419 54.3654 42.3503C54.5039 42.2815 54.5731 42.0065 54.7117 41.8003C54.9194 41.594 54.8502 41.319 54.8502 41.319C54.8502 41.319 54.8502 40.9065 54.8502 40.6315C54.8502 40.3565 55.0579 40.0128 55.2657 39.8753C55.4042 39.7378 55.612 39.8753 55.6812 39.8065C55.7505 39.7378 55.612 38.7753 55.889 38.6378C56.166 38.5003 56.2353 38.5003 56.3045 38.4315C56.3045 38.3628 56.3045 37.6753 56.0968 37.469C55.889 37.2628 55.612 37.0565 55.2657 37.0565C54.9194 37.0565 54.7117 36.7815 54.9887 36.5753C55.1964 36.4378 55.4735 36.3003 55.5427 36.094C55.612 35.8878 55.8197 35.819 55.4735 35.6815C55.1272 35.544 55.0579 35.4065 54.8502 35.3378C54.6424 35.269 54.3654 35.269 54.2269 35.1315C54.0884 34.994 54.2269 34.8565 54.3654 34.8565C54.4346 34.8565 54.8502 34.8565 55.0579 34.9253C55.2657 34.994 55.3349 35.0628 55.4735 35.0628C55.612 35.0628 55.612 34.8565 55.4735 34.719C55.3349 34.5815 55.0579 34.444 54.9194 34.2378C54.7809 34.0315 54.6424 34.0315 54.4346 33.9628C54.1576 33.894 53.9498 33.4815 53.8806 33.1378C53.8806 32.794 53.8806 32.6565 53.6036 32.519C53.3266 32.3815 53.2573 32.3815 53.2573 32.1753C53.2573 31.969 53.3958 31.8315 53.2573 31.694C53.1188 31.5565 52.8418 31.7628 52.5647 31.5565C52.2877 31.3503 52.08 31.2815 51.9415 31.0753C51.8029 30.9378 51.7337 30.9378 51.8029 30.8003C51.8722 30.6628 52.0107 30.594 52.1492 30.4565C52.2877 30.319 52.357 30.2503 52.357 29.9753C52.357 29.7003 52.1492 29.7003 52.5647 29.4253C52.911 29.1503 53.1188 29.3565 53.188 29.0815C53.2573 28.8065 53.7421 28.2565 54.0191 28.0503C54.2961 27.844 54.2961 27.7753 54.5039 27.7065C54.7117 27.7065 54.5731 27.9815 54.9194 27.7065C55.1964 27.4315 55.1964 27.1565 55.0579 27.019C54.8502 26.8815 54.6424 26.744 54.2269 26.8128C53.8806 26.8815 53.8113 27.0878 53.6728 26.8815C53.5343 26.6753 53.6728 26.6753 53.2573 26.6065C52.8418 26.5378 52.7033 26.6065 52.5647 26.6753C52.4955 26.8128 52.634 26.9503 52.4262 27.0878C52.1492 27.2253 52.1492 27.294 51.8722 27.5003C51.6644 27.7065 51.8029 27.7065 51.4567 27.6378C51.1104 27.569 51.2489 27.3628 51.1796 27.0878C51.1104 26.8128 51.0411 26.744 50.9026 26.6753C50.6949 26.6065 50.5564 26.469 50.4178 26.6065C50.2793 26.744 50.1408 27.0878 50.0023 26.9503C49.8638 26.8128 49.8638 26.744 49.7253 26.5378C49.5868 26.3315 49.379 26.2628 49.4483 26.0565C49.5175 25.919 49.5175 25.4378 49.656 25.369C49.7945 25.3003 49.7253 25.3003 50.1408 25.3003C50.5564 25.3003 50.5564 25.1628 50.7641 24.9565C50.9719 24.7503 51.1104 24.9565 51.1104 24.6815C51.1104 24.4065 50.9719 24.269 51.2489 24.0628C51.5259 23.9253 51.6644 23.719 51.8722 23.444C52.1492 23.169 52.08 22.7565 52.634 22.619C53.2573 22.4815 53.2573 22.5503 53.3958 22.344C53.5343 22.2065 53.9498 22.344 53.9498 22.6878C53.9498 23.0315 53.8113 22.894 53.7421 23.3065C53.6728 23.719 53.188 23.7878 53.3266 24.2003C53.3958 24.269 52.9803 25.094 52.9803 25.1628C53.0495 25.2315 53.1188 25.4378 53.2573 25.3003C53.4651 25.1628 53.8113 25.1628 53.9498 24.9565C54.0884 24.7503 55.2657 23.6503 55.889 23.444C56.443 23.169 56.3738 22.9628 56.443 22.6878C56.5815 22.4128 57.9666 21.3128 58.1744 21.1753C58.3822 20.969 58.2437 20.7628 58.4514 20.4878C58.6592 20.2128 58.9362 20.3503 59.0055 20.4878C59.0747 20.6253 59.2132 20.6253 59.3517 20.5565C59.4902 20.4878 59.9058 20.144 60.0443 20.0065C60.1828 19.869 60.5291 19.1128 60.7368 18.9753C60.9446 18.8378 61.0831 18.9753 61.0831 18.7003C61.1524 18.494 61.0139 18.0128 61.2216 17.944C61.4294 17.8753 61.5679 17.944 61.6371 18.0815C61.7064 18.219 61.8449 18.5628 61.9834 18.494C62.1912 18.494 62.4682 17.7378 62.4682 17.4628C62.4682 17.1878 62.676 17.1878 62.5375 17.0503C62.399 16.9128 62.4682 16.294 62.3297 15.8128C62.1912 15.4003 61.8449 15.4003 61.8449 15.0565C61.8449 14.7128 62.0527 14.4378 62.2604 14.369C62.4682 14.3003 62.8837 14.2315 63.0222 14.3003C63.1608 14.369 63.2993 14.5753 63.4378 14.369C63.5763 14.2315 63.7148 13.819 63.7148 13.4753C63.7148 13.1315 63.784 12.719 63.8533 12.3065C63.9226 11.9628 63.8533 11.6878 63.9918 11.5503C64.1303 11.344 64.4766 10.794 64.4073 10.519C64.3381 10.244 64.3381 9.28154 64.1303 9.14404C63.9226 9.07529 63.7841 9.21279 63.4378 9.48779C63.0915 9.76279 63.0915 9.83154 62.7452 9.96904C62.399 10.0378 62.399 9.90029 62.1912 10.1065C61.9834 10.3128 61.9142 10.7253 61.7064 10.794C61.6371 11.0003 61.0139 11.2065 60.6676 11.0003C60.3213 10.8628 60.6676 10.3128 59.9058 9.83154C59.144 9.28154 58.5899 9.28154 58.1744 9.35029C57.7589 9.41904 57.3433 9.69404 57.0663 9.55654C56.7893 9.41904 55.8197 7.97529 55.8197 7.70029C55.8197 7.42529 55.9582 7.08154 55.8197 6.80654C55.6812 6.53154 55.3349 6.32529 55.0579 5.84404C54.7809 5.36279 54.8502 5.15654 54.2269 5.08779C53.6036 5.01904 53.4651 5.15654 53.0495 4.95029C52.634 4.81279 52.634 4.67529 52.2877 4.67529C51.9415 4.74404 52.2877 5.01904 51.5952 4.95029C50.9026 4.95029 50.5564 5.08779 50.4178 5.22529C50.2793 5.36279 49.7945 5.43154 49.5868 5.56904Z" fill="#171756"/>
<path id="Vector_2" d="M42.7306 52.4566C42.7306 52.4566 42.7306 52.5253 42.2458 52.5941C41.761 52.6628 41.6917 52.5941 41.4147 52.9378C41.1377 53.2816 40.7222 53.4878 40.7222 53.6941C40.7222 53.9691 40.8607 53.9691 40.9992 54.3128C41.1377 54.6566 41.207 54.5191 41.6917 54.7253C42.1765 54.9316 42.038 55.0691 42.2458 55.0003C42.4535 54.9316 42.2458 54.7253 42.5228 54.7253C42.7998 54.7253 43.0768 54.3128 43.1461 54.0378C43.2153 53.7628 43.0768 53.9003 43.2153 53.6253C43.3539 53.3503 43.7001 53.0753 43.7694 52.8691C43.7694 52.6628 43.7694 52.5253 43.4924 52.4566C43.2846 52.3878 42.9383 52.2503 42.7306 52.4566Z" fill="#171756"/>
</g>
<g id="Group_3">
<g id="Group_4">
<g id="Group_5">
<path id="Vector_3" d="M49.5869 3.64393C49.5869 3.64393 49.2406 3.85018 49.2406 4.12518C49.2406 4.40018 49.2406 4.67518 49.4484 4.67518C49.6561 4.67518 49.6561 4.40018 49.7946 4.53768C50.0024 4.67518 49.9331 5.01893 49.7254 5.36268C49.5176 5.70643 49.2406 6.25643 48.8943 6.80643C48.548 7.28768 48.8251 8.04393 48.6866 8.25018C48.548 8.45643 47.994 8.80018 47.7862 8.86893C47.5785 8.93768 47.3707 8.86893 47.2322 8.80018C47.0937 8.73143 46.8859 8.73143 46.6782 8.86893C46.4704 9.00643 46.4704 9.55643 46.1934 9.83143C45.9163 10.1064 45.8471 10.3814 45.8471 10.6564C45.8471 10.9314 45.9856 11.0689 45.6393 11.2064C45.3623 11.3439 45.7086 11.8939 46.0549 11.8939C46.4011 11.8939 46.0549 11.6877 46.6782 11.7564C47.3015 11.8252 47.6477 11.8252 47.8555 11.6877C48.0633 11.4814 48.2018 11.0689 48.6173 11.2752C49.0328 11.4814 48.7558 12.8564 48.6173 12.8564C48.4788 12.8564 47.9247 13.0627 47.7862 13.2002C47.6477 13.3377 47.0937 13.5439 47.0244 13.7502C46.9552 13.9564 46.8859 14.4377 46.7474 14.4377C46.5396 14.4377 46.4704 14.4377 46.3319 14.5752C46.2626 14.7127 45.5008 14.8502 45.2931 14.9877C45.016 15.1252 44.8775 16.1564 44.3927 16.1564C43.908 16.1564 42.8691 15.8814 42.6614 16.0877C42.4536 16.2939 42.3843 16.4314 42.3843 16.9127C42.3843 17.3939 42.4536 18.3564 41.6918 18.8377C40.9992 19.3189 40.8607 19.1814 40.5145 19.3877C40.1682 19.5939 40.0989 19.6627 39.6834 19.5939C39.2679 19.5939 38.9909 19.4564 38.229 19.8002C37.5365 20.0752 36.2207 20.8314 35.8051 20.7627C35.4588 20.6939 35.3896 20.4877 34.8356 20.4189C34.2815 20.2814 33.9352 20.4877 33.6582 20.2814C33.3812 20.0752 33.1042 19.6627 32.6194 19.5939C32.1346 19.5252 31.5113 19.4564 30.888 19.3189C30.334 19.2502 30.057 19.3877 29.9184 19.3877C29.7799 19.3877 28.1871 19.5252 27.633 19.3189C27.079 19.1127 26.8712 18.8377 26.5942 18.2877C26.3172 17.7377 26.1094 17.6689 26.1094 17.5314C26.1094 17.3252 26.0402 16.8439 25.8324 16.7752C25.5554 16.7064 25.4169 16.7752 24.8628 16.3627C24.3088 15.8814 24.1703 15.7439 23.824 15.7439C23.4777 15.7439 22.993 15.8127 22.2311 15.4689C21.4693 15.1252 21.4001 14.8502 21.4693 14.7127C21.5386 14.5752 21.8849 14.4377 21.8849 14.3002C21.8849 14.1627 21.6771 14.0939 21.8156 13.8189C21.8849 13.4752 22.1619 13.2689 22.0234 13.0627C21.8849 12.9252 21.6079 12.9252 21.5386 12.6502C21.4693 12.3752 21.6771 12.3064 21.4001 11.9627C21.1231 11.6189 20.9846 11.7564 20.7768 11.6189C20.6383 11.4814 20.7075 11.3439 20.3613 11.2752C20.015 11.2064 19.8765 11.4127 19.8072 11.1377C19.6687 10.8627 19.9457 10.7252 19.738 10.5189C19.5302 10.3127 19.4609 10.4502 19.3224 10.1752C19.1839 9.83143 19.3917 9.90018 18.9762 9.69393C18.5606 9.48768 18.4914 9.41893 18.2836 9.69393C18.0758 9.90018 18.0758 10.2439 17.5218 10.2439C16.9678 10.1752 17.037 10.6564 16.8985 10.9314C16.6907 11.2064 17.037 11.5502 16.8985 11.7564C16.76 11.9627 16.4137 12.3752 16.206 12.1689C15.9982 12.0314 16.206 11.7564 15.9982 11.7564C15.7904 11.7564 15.2364 11.8939 15.0979 11.6877C14.9594 11.4814 15.0286 11.3439 14.7516 11.3439C14.4746 11.4127 14.2668 11.8252 14.1283 12.1689C13.9205 12.5127 14.1283 12.5814 13.9206 12.8564C13.6435 13.1314 13.4358 13.2002 13.505 13.4752C13.5743 13.7502 13.8513 13.7502 13.782 13.9564C13.7128 14.1627 13.7128 14.2314 13.1587 13.8877C12.6047 13.6127 12.6047 13.4064 12.3969 13.5439C12.1892 13.6814 12.3277 13.6814 11.7736 13.6814C11.2196 13.6814 10.7348 13.6814 10.7348 13.8877C10.7348 14.0939 11.0811 14.0252 11.1503 14.2314C11.2196 14.4377 11.1503 14.7814 11.1503 15.1939C11.1503 15.6064 11.3581 15.9502 11.2889 16.2252C11.2196 16.5002 10.8733 16.6377 10.6656 16.9127C10.4578 17.1877 10.8041 17.3252 10.4578 17.5314C10.1115 17.7377 10.25 17.8064 9.76525 17.8752C9.28047 17.9439 9.28047 17.7377 9.00345 17.9439C8.72643 18.1502 8.65717 18.3564 8.38015 18.3564C8.10313 18.3564 7.82611 18.1502 7.6876 18.3564C7.54909 18.5627 7.6876 18.5627 7.34133 18.5627C6.99505 18.5627 6.71803 18.2877 6.3025 18.6314C5.81772 18.9064 6.02548 19.1127 5.67921 19.1814C5.33293 19.2502 4.98666 19.4564 5.05591 19.1127C5.12517 18.8377 5.05591 18.9064 4.64038 18.7689C4.29411 18.6314 4.29411 18.8377 4.08634 18.8377C3.87858 18.8377 3.80932 19.1814 3.5323 19.1127C3.25528 19.0439 2.7705 19.4564 2.42422 19.4564C2.07795 19.4564 2.00869 19.9377 1.80093 20.0064C1.52391 20.0752 1.52391 20.9002 1.59316 21.1752C1.66242 21.4502 1.87018 21.1752 2.21646 21.2439C2.56273 21.3127 2.83975 22.7564 2.56273 22.9627C2.21646 23.1689 1.93944 23.1002 2.00869 23.3064C2.07795 23.5127 2.35497 23.5127 2.70124 23.8564C3.04752 24.2002 3.25528 24.2002 3.25528 24.5439C3.25528 24.8877 2.97826 25.0252 3.11677 25.2314C3.25528 25.5064 3.46305 25.3689 3.87858 25.6439C4.36336 25.9189 4.29411 26.1252 4.70964 26.2627C5.19442 26.3314 5.33293 26.3314 5.33293 26.3314C5.33293 26.3314 5.19442 26.8127 5.40219 27.1564C5.60995 27.5002 6.09474 27.6377 6.16399 27.8439C6.23325 27.9814 5.95623 27.9127 5.95623 28.1877C5.95623 28.4627 6.02548 28.7377 5.81772 28.8752C5.67921 29.0127 5.74846 28.9439 5.88697 29.3564C6.02548 29.8377 6.16399 30.3189 5.74846 30.4564C5.33293 30.5252 5.12517 30.3189 5.12517 30.1814C5.12517 30.0439 4.77889 30.1814 4.84815 30.3877C4.9174 30.6627 5.05591 30.5939 5.05591 31.0064C4.98666 31.4189 4.9174 31.6939 5.05591 31.8314C5.19442 31.9689 5.40219 32.0377 5.5407 32.3814C5.67921 32.6564 6.09474 33.2064 6.37176 33.3439C6.57952 33.4814 6.78729 33.2752 6.9258 33.5502C7.06431 33.8252 7.13356 34.3064 7.34133 34.2377C7.54909 34.1689 7.6876 33.5502 7.96462 33.8939C8.24164 34.1689 8.03388 34.2377 8.38015 34.4439C8.72643 34.6502 8.79568 34.5127 9.00345 34.7877C9.21121 35.0627 9.0727 34.9252 9.28047 35.0627C9.48823 35.2002 9.62674 34.9939 9.76525 35.2689C9.83451 35.5439 9.76525 35.8877 10.1115 35.8877C10.4578 35.8877 10.4578 36.2314 10.7348 36.4377C11.0118 36.6439 11.0118 36.8502 11.2196 36.8502C11.4966 36.9189 11.2889 36.5752 11.5659 36.9877C11.8429 37.4002 11.8429 37.4002 12.1199 37.5377C12.3969 37.6752 12.3969 37.8127 12.5354 37.8814C12.674 37.9502 12.674 37.7439 12.951 37.8127C13.228 37.8814 13.0202 37.8127 14.0591 38.1564C15.0286 38.5002 15.4442 38.2252 15.6519 38.3627C15.8597 38.5002 16.0675 38.7752 15.9982 39.0502C15.9289 39.3252 15.7904 39.4627 15.9289 39.5314C16.0675 39.6002 16.9678 38.6377 17.2448 38.3627C17.5911 38.1564 18.0758 38.1564 18.0758 38.2252C18.0758 38.2939 18.0758 38.8439 18.1451 38.8439C18.2144 38.8439 18.9762 38.7752 19.2532 39.0502C19.5302 39.3252 19.4609 39.5314 19.5995 39.5314C19.738 39.5314 20.569 39.4627 20.846 39.1877C21.1231 38.9127 21.4001 38.8439 21.4693 38.7064C21.5386 38.5689 21.4001 38.5002 21.6079 38.5002C21.8156 38.5002 21.8156 38.7752 22.0234 38.6377C22.2311 38.5002 22.6467 37.9502 22.9237 37.8127C23.2007 37.6752 23.2007 37.7439 23.547 38.0189C23.8933 38.2939 23.9625 38.5002 24.101 38.4314C24.2395 38.2939 24.1703 38.0877 24.3781 37.8814C24.5858 37.7439 24.8628 37.6752 25.0706 37.8814C25.2091 38.0877 25.0013 38.2939 25.0706 38.3627C25.1399 38.4314 25.3476 38.2939 25.4169 38.5689C25.4169 38.8439 25.0013 39.1877 25.1399 39.3252C25.2091 39.4627 26.0402 39.6689 26.3172 39.6689C26.5942 39.6689 26.525 39.3939 26.6635 39.1877C26.802 38.9814 26.802 39.0502 27.079 39.1877C27.356 39.3252 27.356 39.1189 27.4253 39.3939C27.4945 39.6002 27.356 39.8752 27.7023 40.0814C27.9793 40.2877 28.3256 41.8689 28.2563 41.9377C28.1871 42.0064 28.2563 42.1439 28.1178 42.4189C27.9793 42.6939 27.9793 42.7627 27.7023 42.7627C27.4253 42.8314 27.7023 43.0377 27.4253 43.2439C26.1787 43.8627 26.4557 45.1002 26.7327 45.1689C27.0097 45.1689 27.1483 45.3064 27.4945 45.0314C27.8408 44.7564 28.0486 44.5502 28.0486 44.6877C28.1178 44.8252 27.8408 44.9627 27.9101 45.1002C27.9793 45.2377 28.1178 45.3064 28.1871 45.7189C28.2563 46.1314 28.3256 46.2002 28.5333 46.2689C28.7411 46.2689 28.6719 46.5439 28.6026 46.8877C28.5333 47.1627 28.4641 47.5064 28.6719 47.5752C28.8796 47.6439 29.5029 48.3314 29.7107 48.4689C29.9185 48.5377 29.9184 48.6752 30.1955 48.5377C30.4725 48.4002 30.611 48.0564 30.8188 48.1939C31.0265 48.2627 30.888 48.5377 31.165 48.7439C31.4421 48.9502 31.4421 48.8814 31.6498 49.0189C31.8576 49.1564 31.8576 49.1564 31.8576 48.9502C31.8576 48.7439 31.7191 47.9877 31.7883 47.7127C31.8576 47.4377 31.9268 47.2314 32.1346 47.2314C32.3424 47.2314 32.1346 47.3002 32.4809 47.3689C32.8272 47.4377 32.6886 47.1627 32.9657 47.3002C33.2427 47.4377 33.2427 47.5752 33.4505 47.5064C33.6582 47.4377 34.0045 47.2314 34.0737 47.2314C34.143 47.3002 34.2815 47.4377 34.42 47.4377C34.5585 47.4377 34.4893 47.5752 34.7663 47.5064C35.0433 47.4377 34.8356 47.3689 35.2511 47.3002C35.6666 47.2314 36.3592 46.4064 36.4977 46.4752C36.7054 46.5439 36.6362 46.5439 36.8439 46.6814C37.0517 46.7502 37.4672 47.0252 37.8135 46.9564C38.1598 46.8877 38.0213 47.1627 38.0213 47.5064C38.0213 47.8502 38.6446 48.4002 38.8523 48.6064C39.0601 48.7439 39.4756 48.8127 39.9604 48.8127C40.4452 48.8127 40.0989 48.6752 40.5837 48.6752C41.0685 48.6752 41.0685 48.6752 41.4148 48.8127C41.7611 48.9502 41.8996 48.6752 42.1073 48.8127C42.3151 48.9502 42.1073 49.1564 42.1766 49.5002C42.2458 49.9127 42.3151 50.3252 42.6614 50.3939C43.0076 50.4627 43.1462 50.2564 43.2154 49.9814C43.2847 49.7064 43.2847 49.0877 43.3539 48.9502C43.4924 48.8127 43.5617 48.6752 43.9772 48.7439C44.3927 48.8127 44.2542 48.7439 44.462 48.6064C44.6698 48.5377 44.5312 48.3314 45.016 48.2627C45.5701 48.1939 45.6393 47.9877 46.0549 47.9189C46.4704 47.8502 46.4011 47.3689 46.6089 47.3002C46.8167 47.2314 46.7474 46.9564 46.8859 46.8189C46.9552 46.7502 47.2322 46.8877 47.3707 46.9564C47.5785 47.0252 47.6477 47.0252 47.7862 46.9564C47.9247 46.8877 48.6173 46.5439 49.1021 46.5439C49.5869 46.5439 49.7946 46.5439 49.9331 46.4064C50.0024 46.2689 50.2102 45.9939 50.4872 45.9939C50.7642 45.9939 50.7642 45.8564 50.7642 45.7189C50.7642 45.5814 50.7642 45.2377 51.1797 45.0314C51.5953 44.8252 51.7338 45.1002 52.0108 44.8939C52.2186 44.6877 52.2186 43.6564 52.3571 43.5189C52.5648 43.3814 52.7033 43.5877 52.9111 43.5189C53.1189 43.4502 53.6037 42.3502 53.8807 42.2814C54.0884 42.2127 54.1577 42.0752 54.1577 41.9377C54.1577 41.8002 54.2269 40.5627 54.1577 40.4939C54.0884 40.4252 54.3655 40.4939 54.4347 40.4252C54.504 40.3564 54.6425 40.0814 54.781 39.8752C54.9888 39.6689 54.9195 39.3939 54.9195 39.3939C54.9195 39.3939 54.9195 38.9814 54.9195 38.7064C54.9195 38.4314 55.1273 38.0877 55.335 37.9502C55.4735 37.8127 55.6813 37.9502 55.7506 37.8814C55.8198 37.8127 55.6813 36.8502 55.9583 36.7127C56.1661 36.5752 56.3046 36.5752 56.3739 36.5064C56.3739 36.4377 56.3739 35.7502 56.1661 35.5439C55.9583 35.3377 55.6813 35.1314 55.335 35.1314C54.9888 35.1314 54.781 34.8564 55.058 34.6502C55.2658 34.5127 55.5428 34.3752 55.612 34.1689C55.6813 33.9627 55.8891 33.8939 55.5428 33.7564C55.1965 33.6189 55.1273 33.4814 54.9195 33.4127C54.7117 33.3439 54.4347 33.3439 54.2962 33.2064C54.1577 33.0689 54.2962 32.9314 54.4347 32.9314C54.504 32.9314 54.9195 32.9314 55.1273 33.0002C55.335 33.0689 55.4043 33.1377 55.5428 33.1377C55.6813 33.1377 55.6813 32.9314 55.5428 32.7939C55.4043 32.6564 55.1273 32.5189 54.9888 32.3127C54.8502 32.1064 54.7117 32.1064 54.504 32.0377C54.2269 31.9689 54.0192 31.5564 53.9499 31.2127C53.9499 30.8689 53.9499 30.7314 53.6729 30.5939C53.3959 30.3877 53.3266 30.3877 53.3266 30.2502C53.3266 30.0439 53.4651 29.9064 53.3266 29.7689C53.1881 29.6314 52.9111 29.8377 52.6341 29.6314C52.3571 29.4252 52.1493 29.3564 52.0108 29.1502C51.8723 29.0127 51.803 29.0127 51.8723 28.8752C51.9415 28.7377 52.08 28.6689 52.2186 28.5314C52.3571 28.3939 52.4263 28.3252 52.4263 28.0502C52.4263 27.7752 52.2186 27.7752 52.6341 27.5002C52.9804 27.2252 53.1881 27.4314 53.2574 27.1564C53.3266 26.8814 53.8114 26.3314 54.0884 26.1252C54.3655 25.9189 54.3655 25.8502 54.5732 25.7814C54.781 25.7814 54.6425 26.0564 54.9888 25.7814C55.2658 25.5064 55.2658 25.2314 55.1273 25.0939C54.9888 24.9564 54.7117 24.8189 54.2962 24.8877C53.9499 24.9564 53.8807 25.1627 53.7422 24.9564C53.6037 24.7502 53.7422 24.7502 53.3266 24.6814C52.9111 24.6127 52.7726 24.6814 52.6341 24.7502C52.5648 24.8877 52.7033 25.0252 52.4956 25.1627C52.2186 25.3002 52.2186 25.3689 51.9415 25.5752C51.7338 25.7814 51.8723 25.7814 51.526 25.7127C51.1797 25.6439 51.3182 25.4377 51.249 25.1627C51.1797 24.8877 51.1105 24.8189 50.972 24.7502C50.8335 24.6814 50.6257 24.5439 50.4872 24.6814C50.3487 24.8189 50.2102 25.1627 50.0717 25.0252C49.9331 24.8877 49.9331 24.8189 49.7946 24.6127C49.6561 24.4064 49.4484 24.3377 49.5176 24.1314C49.5869 23.9252 49.5869 23.5127 49.7254 23.4439C49.8639 23.3752 49.7946 23.3752 50.2102 23.3752C50.6257 23.3752 50.6257 23.2377 50.8335 23.0314C51.0412 22.8252 51.1797 23.0314 51.1797 22.7564C51.1797 22.4814 51.0412 22.3439 51.3182 22.1377C51.5953 22.0002 51.7338 21.7939 51.9415 21.5189C52.2186 21.2439 52.1493 20.8314 52.7033 20.6939C53.3266 20.5564 53.3266 20.6252 53.4651 20.4189C53.6037 20.2814 54.0192 20.4189 54.0192 20.7627C54.0192 21.1064 53.8807 20.9689 53.8114 21.3814C53.7422 21.7939 53.2574 21.8627 53.3959 22.2752C53.4651 22.3439 53.0496 23.1689 53.0496 23.2377C53.1189 23.3064 53.1881 23.5127 53.3266 23.3752C53.5344 23.2377 53.8807 23.2377 54.0192 23.0314C54.1577 22.8252 55.335 21.7252 55.9583 21.5189C56.5124 21.2439 56.4431 21.0377 56.5124 20.7627C56.5816 20.4877 58.036 19.3877 58.2437 19.2502C58.4515 19.1127 58.313 18.8377 58.5208 18.5627C58.7285 18.2877 59.0055 18.4252 59.0748 18.5627C59.1441 18.7002 59.2826 18.7002 59.4211 18.6314C59.5596 18.5627 59.9751 18.2189 60.1136 18.0814C60.2521 17.9439 60.5984 17.1877 60.8062 17.0502C61.0139 16.9127 61.1524 17.0502 61.1524 16.7752C61.2217 16.5689 61.0832 16.0877 61.291 16.0189C61.4987 15.9502 61.6372 16.0189 61.7065 16.1564C61.7757 16.2939 61.9142 16.6377 62.0528 16.5689C62.2605 16.5689 62.5375 15.8127 62.5375 15.5377C62.5375 15.2627 62.7453 15.2627 62.6068 15.1252C62.4683 14.9877 62.5375 14.3689 62.399 13.8877C62.2605 13.4752 61.9143 13.4752 61.9143 13.1314C61.9143 12.7877 62.122 12.5127 62.3298 12.4439C62.5375 12.3752 62.9531 12.3064 63.0916 12.3752C63.2301 12.4439 63.3686 12.6502 63.5071 12.4439C63.6456 12.3064 63.7841 11.8939 63.7841 11.5502C63.7841 11.2064 63.8534 10.7939 63.9226 10.3814C63.9919 10.0377 63.9226 9.76268 64.0612 9.62518C64.1997 9.41893 64.5459 8.86893 64.4767 8.59393C64.4074 8.31893 64.4074 7.35643 64.1997 7.21893C63.9919 7.15018 63.8534 7.28768 63.5071 7.56268C63.1608 7.83768 63.1608 7.90643 62.8146 8.04393C62.4683 8.11268 62.4683 7.97518 62.2605 8.18143C62.0528 8.38768 61.9835 8.80018 61.7757 8.86893C61.568 8.93768 60.9447 9.14393 60.6677 8.93768C60.3214 8.80018 60.6677 8.25018 59.9059 7.76893C59.1441 7.21893 58.59 7.21893 58.1745 7.28768C57.759 7.35643 57.3434 7.63143 57.0664 7.49393C56.7894 7.35643 55.8198 5.91268 55.8198 5.63768C55.8198 5.36268 55.9583 5.01893 55.8198 4.74393C55.6813 4.46893 55.335 4.26268 55.058 3.78143C54.781 3.30018 54.8502 3.09393 54.227 3.02518C53.6037 2.95643 53.4651 3.09393 53.0496 2.88768C52.6341 2.81893 52.6341 2.68143 52.2878 2.75018C51.9415 2.81893 52.2878 3.09393 51.5953 3.02518C50.9027 3.02518 50.5564 3.16268 50.4179 3.30018C50.2794 3.43768 49.7946 3.43768 49.5869 3.64393Z" fill="#7F140E"/>
</g>
<g id="Group_6">
<path id="Vector_4" d="M10.7349 11.0005V13.7505H11.4967C11.4967 13.7505 11.6352 12.9255 11.6352 12.8567C11.6352 12.788 11.2196 11.138 11.2196 11.138L10.7349 11.0005Z" fill="#7F140E"/>
</g>
<path id="Vector_5" d="M13.5049 10.4501V11.4813C13.5049 11.4813 14.1282 11.3438 14.1282 11.2751C14.1282 11.2063 14.1282 10.8626 14.1282 10.7938C14.1282 10.7251 13.7126 10.3813 13.7126 10.3813L13.5049 10.4501Z" fill="#7F140E"/>
<path id="Vector_6" d="M22.0926 10.313V13.2005L20.9153 11.963C20.9153 11.963 20.7768 11.5505 20.8461 11.413C20.9846 11.2755 22.0926 10.313 22.0926 10.313Z" fill="#7F140E"/>
<g id="Group_7">
<path id="Vector_7" d="M43.9081 50.6689V47.9189L40.8608 49.0189V51.7689C40.8608 52.0439 40.9994 52.0439 41.1379 52.3877C41.2764 52.7314 41.3456 52.5939 41.8304 52.8002C42.3152 53.0064 42.1767 53.1439 42.3844 53.0752C42.5922 53.0064 42.3844 52.8002 42.6615 52.8002C42.9385 52.8002 43.2155 52.3877 43.2848 52.1127C43.354 51.8377 43.2155 51.9752 43.354 51.7002C43.4925 51.4252 43.8388 51.1502 43.9081 50.9439C43.9081 50.8064 43.9081 50.7377 43.9081 50.6689Z" fill="#7F140E"/>
</g>
<g id="Group_8">
<g id="Group_9">
<path id="Vector_8" d="M1.52393 17.8066V20.5566C1.52393 20.5566 3.11679 19.8004 3.18605 19.8004C3.2553 19.7316 3.32456 18.2879 3.32456 18.2879L2.42424 17.8754H1.52393V17.8066Z" fill="#7F140E"/>
<path id="Vector_9" d="M1.93945 20.4878V23.1003H2.83977C2.83977 23.1003 3.18604 22.5503 3.18604 22.344C3.18604 22.1378 2.97828 21.3128 2.90902 21.3128C2.83977 21.244 1.93945 20.4878 1.93945 20.4878Z" fill="#7F140E"/>
<g id="Group_10">
<path id="Vector_10" d="M28.2561 42.0065C28.1869 41.9378 27.6328 41.4565 27.5636 41.4565C27.4943 41.4565 26.3862 41.6628 26.3862 41.6628V44.4815C26.3862 44.4815 28.1176 44.069 28.1869 43.794C28.2561 43.519 28.4639 42.8315 28.3946 42.694C28.3946 42.4878 28.3254 42.0753 28.2561 42.0065Z" fill="#7F140E"/>
</g>
<path id="Vector_11" d="M4.84814 27.6377V30.3877L6.09473 31.1439C6.09473 31.1439 6.64877 31.0064 6.71803 30.8689C6.78728 30.7314 6.85654 29.7689 6.78728 29.6314C6.64877 29.3564 4.84814 27.6377 4.84814 27.6377Z" fill="#7F140E"/>
<path id="Vector_12" d="M54.8502 34.719C54.7117 34.8565 54.781 35.4753 54.781 35.544C54.781 35.6128 56.3046 36.4378 56.3046 36.4378V33.6878L55.8891 33.5503C55.8891 33.5503 54.9888 34.5815 54.8502 34.719Z" fill="#7F140E"/>
<path id="Vector_13" d="M55.6814 30.2502L54.8503 30.0439H54.2963C54.2963 30.0439 54.2271 30.4564 54.2271 30.5939C54.2963 30.7314 55.6814 31.1439 55.6814 31.1439V30.2502Z" fill="#7F140E"/>
<path id="Vector_14" d="M55.6814 32.5189V31.0752L54.7118 31.7627L54.6426 31.9689L54.9196 32.2439L55.6814 32.5189Z" fill="#7F140E"/>
<path id="Vector_15" d="M55.1272 25.3691V22.6191L54.4347 22.6879C54.4347 22.6879 53.4651 22.7566 53.3958 22.7566C53.3266 22.7566 52.4263 23.7879 52.4263 23.7879C52.4263 23.7879 51.5952 25.6441 51.5952 25.7129C51.5952 25.7816 52.7033 25.9191 52.7033 25.9191L54.0191 25.0254C54.0191 25.0254 54.1576 25.0941 54.3654 25.0941C54.6424 25.2316 55.1272 25.3691 55.1272 25.3691Z" fill="#7F140E"/>
<path id="Vector_16" d="M46.8165 8.04395C46.7472 8.04395 45.6392 8.59395 45.6392 8.59395V11.3439L47.3705 10.3127L47.509 9.00645C47.4398 8.9377 46.8857 8.04395 46.8165 8.04395Z" fill="#7F140E"/>
<path id="Vector_17" d="M63.784 6.66895C63.784 6.66895 63.3685 7.21895 63.2992 7.35645C63.23 7.49395 63.23 8.1127 63.23 8.1127C63.23 8.18145 64.4766 8.6627 64.4766 8.6627V5.98145L63.784 6.66895Z" fill="#7F140E"/>
<path id="Vector_18" d="M61.9144 13.9565C61.8452 14.094 61.9144 14.9878 61.9837 15.1253C62.0529 15.2628 62.607 15.3315 62.607 15.3315V12.5815L62.2607 13.0628C62.1914 13.1315 61.9837 13.7503 61.9144 13.9565Z" fill="#7F140E"/>
<path id="Vector_19" d="M54.3655 20.9692C54.3655 20.9005 54.227 20.0755 54.0885 20.0755C53.95 20.0755 53.3959 20.0067 53.3959 20.0755C53.3959 20.1442 52.9111 20.763 52.9111 20.763V23.0317L53.8807 21.7942C53.8807 21.7255 54.3655 21.038 54.3655 20.9692Z" fill="#7F140E"/>
<path id="Vector_20" d="M50.0717 1.23779C49.8639 1.23779 49.1714 1.37529 49.1714 1.37529V3.98779C49.1714 3.98779 50.5565 3.43779 50.5565 3.36904C50.5565 3.30029 50.5565 1.85654 50.4872 1.78779C50.4872 1.71904 50.2795 1.23779 50.0717 1.23779Z" fill="#7F140E"/>
<path id="Vector_21" d="M55.8198 2.26904C55.8198 2.26904 55.6121 2.61279 55.5428 2.61279C55.4735 2.68154 55.4043 2.88779 55.4043 2.88779L55.8198 3.36904V2.26904Z" fill="#7F140E"/>
</g>
</g>
<path id="Vector_22" d="M48.2017 7.9751C48.2017 7.9751 46.9551 8.6626 47.5091 8.8001C48.1324 8.9376 48.548 9.14385 48.7557 8.9376C48.9635 8.73135 49.1713 8.45635 49.102 8.31885C49.0327 8.31885 48.2017 7.9751 48.2017 7.9751Z" fill="#7F140E"/>
</g>
</g>
<g id="Group_11">
<path id="Vector_23" d="M49.5869 0.893933C49.5869 0.893933 49.2406 1.10018 49.2406 1.37518C49.2406 1.65018 49.2406 1.92518 49.4484 1.92518C49.6561 1.92518 49.6561 1.65018 49.7946 1.78768C49.9331 1.92518 49.9331 2.26893 49.7254 2.61268C49.5176 2.95643 49.2406 3.50643 48.8943 4.05643C48.548 4.53768 48.8251 5.29393 48.6866 5.50018C48.548 5.70643 47.994 6.05018 47.7862 6.11893C47.5785 6.18768 47.3707 6.11893 47.2322 6.05018C47.0937 5.98143 46.8859 5.98143 46.6782 6.11893C46.4704 6.25643 46.4704 6.80643 46.1934 7.08143C45.9163 7.35643 45.8471 7.63143 45.8471 7.90643C45.8471 8.18143 45.9856 8.31893 45.6393 8.45643C45.3623 8.59393 45.7086 9.14393 46.0549 9.14393C46.4011 9.14393 46.0549 8.93768 46.6782 9.00643C47.3015 9.07518 47.6477 9.07518 47.8555 8.93768C48.0633 8.73143 48.2018 8.31893 48.6173 8.52518C49.0328 8.73143 48.7558 10.1064 48.6173 10.1064C48.4788 10.1064 47.9247 10.3127 47.7862 10.4502C47.6477 10.5877 47.0937 10.7939 47.0244 11.0002C46.9552 11.2064 46.8859 11.6877 46.7474 11.6877C46.5396 11.6877 46.4704 11.6877 46.3319 11.8252C46.2626 11.9627 45.5008 12.1002 45.2931 12.2377C45.016 12.3752 44.8775 13.4064 44.3927 13.4064C43.908 13.4064 42.8691 13.1314 42.6614 13.3377C42.4536 13.5439 42.3843 13.6814 42.3843 14.1627C42.3843 14.6439 42.4536 15.6064 41.6918 16.0877C40.9992 16.5689 40.8607 16.4314 40.5145 16.6377C40.1682 16.8439 40.0989 16.9127 39.6834 16.8439C39.2679 16.8439 38.9909 16.7064 38.229 17.0502C37.5365 17.3252 36.2207 18.0814 35.8051 18.0127C35.4588 17.9439 35.3896 17.7377 34.8356 17.6689C34.2815 17.5314 33.9352 17.7377 33.6582 17.5314C33.3812 17.3252 33.1042 16.9127 32.6194 16.8439C32.1346 16.7752 31.5113 16.7064 30.888 16.5689C30.334 16.5002 30.057 16.6377 29.9184 16.6377C29.7799 16.6377 28.1871 16.7752 27.633 16.5689C27.079 16.3627 26.8712 16.0877 26.5942 15.5377C26.3172 14.9877 26.1094 14.9189 26.1094 14.7814C26.1094 14.5752 26.0402 14.0939 25.8324 14.0252C25.5554 13.9564 25.4169 14.0252 24.8628 13.6127C24.3088 13.1314 24.1703 12.9939 23.824 12.9939C23.4777 12.9939 22.993 13.0627 22.2311 12.7189C21.4693 12.3752 21.4001 12.1002 21.4693 11.9627C21.5386 11.8252 21.8849 11.6877 21.8849 11.5502C21.8849 11.4127 21.6771 11.3439 21.8156 11.0689C21.8849 10.7252 22.1619 10.5189 22.0234 10.3127C21.8849 10.1752 21.6079 10.1752 21.5386 9.90018C21.4693 9.62518 21.6771 9.55643 21.4001 9.21268C21.1231 8.86893 20.9846 9.00643 20.7768 8.86893C20.6383 8.73143 20.7075 8.59393 20.3613 8.52518C20.015 8.45643 19.8765 8.66268 19.8072 8.38768C19.6687 8.11268 19.9457 7.97518 19.738 7.76893C19.5302 7.56268 19.4609 7.70018 19.3224 7.42518C19.1839 7.08143 19.3917 7.15018 18.9762 6.94393C18.5606 6.73768 18.4914 6.66893 18.2836 6.94393C18.0758 7.15018 18.0758 7.49393 17.5218 7.49393C16.9678 7.42518 17.037 7.90643 16.8985 8.18143C16.6907 8.45643 17.037 8.80018 16.8985 9.00643C16.76 9.21268 16.4137 9.62518 16.206 9.41893C15.9982 9.28143 16.206 9.00643 15.9982 9.00643C15.7904 9.00643 15.2364 9.14393 15.0979 8.93768C14.9594 8.73143 15.0286 8.59393 14.7516 8.59393C14.4746 8.66268 14.2668 9.07518 14.1283 9.41893C13.9205 9.76268 14.1283 9.83143 13.9206 10.1064C13.6435 10.3814 13.4358 10.4502 13.505 10.7252C13.5743 11.0002 13.8513 11.0002 13.782 11.2064C13.7128 11.4127 13.7128 11.4814 13.1587 11.1377C12.6047 10.8627 12.6047 10.6564 12.3969 10.7939C12.1892 10.9314 12.3277 10.9314 11.7736 10.9314C11.2196 10.9314 10.7348 10.9314 10.7348 11.1377C10.7348 11.3439 11.0811 11.2752 11.1503 11.4814C11.2196 11.6877 11.1503 12.0314 11.1503 12.4439C11.1503 12.8564 11.3581 13.2002 11.2889 13.4752C11.2196 13.7502 10.8733 13.8877 10.6656 14.1627C10.4578 14.4377 10.8041 14.5752 10.4578 14.7814C10.1115 14.9877 10.25 15.0564 9.76525 15.1252C9.28047 15.1939 9.28047 14.9877 9.00345 15.1939C8.72643 15.4002 8.65717 15.6064 8.38015 15.6064C8.10313 15.6064 7.82611 15.4002 7.6876 15.6064C7.54909 15.8127 7.6876 15.8127 7.34133 15.8127C6.99505 15.8127 6.71803 15.5377 6.3025 15.8814C5.81772 16.1564 6.02548 16.3627 5.67921 16.4314C5.33293 16.5002 4.98666 16.7064 5.05591 16.3627C5.12517 16.0877 5.05591 16.1564 4.64038 16.0189C4.29411 15.8814 4.29411 16.0877 4.08634 16.0877C3.87858 16.0877 3.80932 16.4314 3.5323 16.3627C3.25528 16.2939 2.7705 16.7064 2.42422 16.7064C2.07795 16.7064 2.00869 17.1877 1.80093 17.2564C1.52391 17.3252 1.52391 18.1502 1.59316 18.4252C1.66242 18.7002 1.87018 18.4252 2.21646 18.4939C2.56273 18.5627 2.83975 20.0064 2.56273 20.2127C2.28571 20.4189 1.93944 20.3502 2.00869 20.5564C2.07795 20.7627 2.35497 20.7627 2.70124 21.1064C3.04752 21.4502 3.25528 21.4502 3.25528 21.7939C3.25528 22.1377 2.97826 22.2752 3.11677 22.4814C3.25528 22.7564 3.46305 22.6189 3.87858 22.8939C4.36336 23.1689 4.29411 23.3752 4.70964 23.5127C5.19442 23.5814 5.33293 23.5814 5.33293 23.5814C5.33293 23.5814 5.19442 24.0627 5.40219 24.4064C5.60995 24.7502 6.09474 24.8877 6.16399 25.0939C6.23325 25.2314 5.95623 25.1627 5.95623 25.4377C5.95623 25.7127 6.02548 25.9877 5.81772 26.1252C5.67921 26.2627 5.74846 26.1939 5.88697 26.6064C6.02548 27.0877 6.16399 27.5689 5.74846 27.7064C5.33293 27.7752 5.12517 27.5689 5.12517 27.4314C5.05591 27.3627 4.77889 27.3627 4.84815 27.6377C4.9174 27.9127 5.05591 27.8439 5.05591 28.2564C4.98666 28.6689 4.9174 28.9439 5.05591 29.0814C5.19442 29.2189 5.40219 29.2877 5.5407 29.6314C5.67921 29.9064 6.09474 30.4564 6.37176 30.5939C6.57952 30.7314 6.78729 30.5252 6.9258 30.8002C7.06431 31.0752 7.13356 31.5564 7.34133 31.4877C7.54909 31.4189 7.6876 30.8002 7.96462 31.1439C8.24164 31.4189 8.03388 31.4877 8.38015 31.6939C8.72643 31.9002 8.79568 31.7627 9.00345 32.0377C9.21121 32.3127 9.0727 32.1752 9.28047 32.3127C9.48823 32.4502 9.62674 32.2439 9.76525 32.5189C9.83451 32.7939 9.76525 33.1377 10.1115 33.1377C10.4578 33.1377 10.4578 33.4814 10.7348 33.6877C11.0118 33.8939 11.0118 34.1002 11.2196 34.1002C11.4966 34.1689 11.2889 33.8252 11.5659 34.2377C11.8429 34.6502 11.8429 34.6502 12.1199 34.7877C12.3969 34.9252 12.3969 35.0627 12.5354 35.1314C12.674 35.2002 12.674 34.9939 12.951 35.0627C13.228 35.1314 13.0202 35.0627 14.0591 35.4064C15.0286 35.7502 15.4442 35.4752 15.6519 35.6127C15.8597 35.7502 16.0675 36.0252 15.9982 36.3002C15.9289 36.5752 15.7904 36.7127 15.9289 36.7814C16.0675 36.8502 16.9678 35.8877 17.2448 35.6127C17.5911 35.4064 18.0758 35.4064 18.0758 35.4752C18.0758 35.5439 18.0758 36.0939 18.1451 36.0939C18.2144 36.0939 18.9762 36.0252 19.2532 36.3002C19.5302 36.5752 19.4609 36.7814 19.5995 36.7814C19.738 36.7814 20.569 36.7127 20.846 36.4377C21.1231 36.1627 21.4001 36.0939 21.4693 35.9564C21.5386 35.8189 21.4001 35.7502 21.6079 35.7502C21.8156 35.7502 21.8156 36.0252 22.0234 35.8877C22.2311 35.7502 22.6467 35.2002 22.9237 35.0627C23.2007 34.9252 23.2007 34.9939 23.547 35.2689C23.8933 35.5439 23.9625 35.7502 24.101 35.6814C24.2395 35.5439 24.1703 35.3377 24.3781 35.1314C24.5858 34.9939 24.8628 34.9252 25.0706 35.1314C25.2091 35.3377 25.0013 35.5439 25.0706 35.6127C25.1399 35.6814 25.3476 35.5439 25.4169 35.8189C25.4169 36.0939 25.0013 36.4377 25.1399 36.5752C25.2091 36.7127 26.0402 36.9189 26.3172 36.9189C26.5942 36.9189 26.525 36.6439 26.6635 36.4377C26.802 36.2314 26.802 36.3002 27.079 36.4377C27.356 36.5752 27.356 36.3689 27.4253 36.6439C27.4945 36.8502 27.356 37.1252 27.7023 37.3314C27.9793 37.5377 28.3256 39.1189 28.2563 39.1877C28.1871 39.2564 28.2563 39.3939 28.1178 39.6689C27.9793 39.9439 27.9793 40.0127 27.7023 40.0127C27.4253 40.0814 27.7023 40.2877 27.4253 40.4939C26.1787 41.1127 26.4557 42.3502 26.7327 42.4189C27.0097 42.4189 27.1483 42.5564 27.4945 42.2814C27.8408 42.0064 28.0486 41.8002 28.0486 41.9377C28.1178 42.0752 27.8408 42.2127 27.9101 42.3502C27.9793 42.4877 28.1178 42.5564 28.1871 42.9689C28.2563 43.3814 28.3256 43.4502 28.5333 43.5189C28.7411 43.5189 28.6719 43.7939 28.6026 44.1377C28.5333 44.4127 28.4641 44.7564 28.6719 44.8252C28.8796 44.8939 29.5029 45.5814 29.7107 45.7189C29.9185 45.7877 29.9184 45.9252 30.1955 45.7877C30.4725 45.6502 30.611 45.3064 30.8188 45.4439C31.0265 45.5127 30.888 45.7877 31.165 45.9939C31.4421 46.2002 31.4421 46.1314 31.6498 46.2689C31.8576 46.4064 31.8576 46.4064 31.8576 46.2002C31.8576 45.9939 31.7191 45.2377 31.7883 44.9627C31.8576 44.6877 31.9268 44.4814 32.1346 44.4814C32.3424 44.4814 32.1346 44.5502 32.4809 44.6189C32.8272 44.6877 32.6886 44.4127 32.9657 44.5502C33.2427 44.6877 33.2427 44.8252 33.4505 44.7564C33.6582 44.6877 34.0045 44.4814 34.0737 44.4814C34.143 44.5502 34.2815 44.6877 34.42 44.6877C34.5585 44.6877 34.4893 44.8252 34.7663 44.7564C35.0433 44.6877 34.8356 44.6189 35.2511 44.5502C35.6666 44.4814 36.3592 43.6564 36.4977 43.7252C36.7054 43.7939 36.6362 43.7939 36.8439 43.9314C37.0517 44.0002 37.4672 44.2752 37.8135 44.2064C38.1598 44.1377 38.0213 44.4127 38.0213 44.7564C38.0213 45.1002 38.6446 45.6502 38.8523 45.8564C39.0601 45.9939 39.4756 46.0627 39.9604 46.0627C40.4452 46.0627 40.0989 45.9252 40.5837 45.9252C41.0685 45.9252 41.0685 45.9252 41.4148 46.0627C41.7611 46.2002 41.8996 45.9252 42.1073 46.0627C42.3151 46.2002 42.1073 46.4064 42.1766 46.7502C42.2458 47.1627 42.3151 47.5752 42.6614 47.6439C43.0076 47.7127 43.1462 47.5064 43.2154 47.2314C43.2847 46.9564 43.2847 46.3377 43.3539 46.2002C43.4924 46.0627 43.5617 45.9252 43.9772 45.9939C44.3927 46.0627 44.2542 45.9939 44.462 45.8564C44.6698 45.7877 44.5312 45.5814 45.016 45.5127C45.5701 45.4439 45.6393 45.2377 46.0549 45.1689C46.4704 45.1002 46.4011 44.6189 46.6089 44.5502C46.8167 44.4814 46.7474 44.2064 46.8859 44.0689C46.9552 44.0002 47.2322 44.1377 47.3707 44.2064C47.5785 44.2752 47.6477 44.2752 47.7862 44.2064C47.9247 44.1377 48.6173 43.7939 49.1021 43.7939C49.5869 43.7939 49.7946 43.7939 49.9331 43.6564C50.0024 43.5189 50.2102 43.2439 50.4872 43.2439C50.7642 43.2439 50.7642 43.1064 50.7642 42.9689C50.7642 42.8314 50.7642 42.4877 51.1797 42.2814C51.5953 42.1439 51.7338 42.3502 52.0108 42.1439C52.2186 41.9377 52.2186 40.9064 52.3571 40.7689C52.5648 40.6314 52.7033 40.8377 52.9111 40.7689C53.1189 40.7002 53.6037 39.6002 53.8807 39.5314C54.0884 39.4627 54.1577 39.3252 54.1577 39.1877C54.1577 39.0502 54.2269 37.8127 54.1577 37.7439C54.0884 37.6752 54.3655 37.7439 54.4347 37.6752C54.5732 37.6064 54.6425 37.3314 54.781 37.1252C54.9888 36.9189 54.9195 36.6439 54.9195 36.6439C54.9195 36.6439 54.9195 36.2314 54.9195 35.9564C54.9195 35.6814 55.1273 35.3377 55.335 35.2002C55.4735 35.0627 55.6813 35.2002 55.7506 35.1314C55.8198 35.0627 55.6813 34.1002 55.9583 33.9627C56.1661 33.8252 56.3046 33.8252 56.3739 33.7564C56.3739 33.6877 56.3739 33.0002 56.1661 32.7939C55.9583 32.5877 55.6813 32.3814 55.335 32.3814C54.9888 32.3814 54.781 32.1064 55.058 31.9002C55.2658 31.7627 55.5428 31.6252 55.612 31.4189C55.6813 31.2127 55.8891 31.1439 55.5428 31.0064C55.1965 30.8689 55.1273 30.7314 54.9195 30.6627C54.7117 30.5939 54.4347 30.5939 54.2962 30.4564C54.1577 30.3189 54.2962 30.1814 54.4347 30.1814C54.504 30.1814 54.9195 30.1814 55.1273 30.2502C55.335 30.3189 55.4043 30.3877 55.5428 30.3877C55.6813 30.3877 55.6813 30.1814 55.5428 30.0439C55.4043 29.9064 55.1273 29.7689 54.9888 29.5627C54.8502 29.3564 54.7117 29.3564 54.504 29.2877C54.2269 29.2189 54.0192 28.8064 53.9499 28.4627C53.9499 28.1189 53.9499 27.9814 53.6729 27.8439C53.3959 27.7064 53.3266 27.7064 53.3266 27.5002C53.3266 27.2939 53.4651 27.1564 53.3266 27.0189C53.1881 26.8814 52.9111 27.0877 52.6341 26.8814C52.3571 26.6752 52.1493 26.6064 52.0108 26.4002C51.8723 26.2627 51.803 26.2627 51.8723 26.1252C51.9415 25.9877 52.08 25.9189 52.2186 25.7814C52.3571 25.6439 52.4263 25.5752 52.4263 25.3002C52.4263 25.0252 52.2186 25.0252 52.6341 24.7502C52.9804 24.4752 53.1881 24.6814 53.2574 24.4064C53.3266 24.1314 53.8114 23.5814 54.0884 23.3752C54.3655 23.1689 54.3655 23.1002 54.5732 23.0314C54.781 23.0314 54.6425 23.3064 54.9888 23.0314C55.2658 22.7564 55.2658 22.4814 55.1273 22.3439C54.9195 22.2064 54.7117 22.0689 54.2962 22.1377C53.9499 22.2064 53.8807 22.4127 53.7422 22.2064C53.6037 22.0002 53.7422 22.0002 53.3266 21.9314C52.9111 21.8627 52.7726 21.9314 52.6341 22.0002C52.5648 22.1377 52.7033 22.2752 52.4956 22.4127C52.2186 22.5502 52.2186 22.6189 51.9415 22.8252C51.7338 23.0314 51.8723 23.0314 51.526 22.9627C51.1797 22.8939 51.3182 22.6877 51.249 22.4127C51.1797 22.1377 51.1105 22.0689 50.972 22.0002C50.7642 21.9314 50.6257 21.7939 50.4872 21.9314C50.3487 22.0689 50.2102 22.4127 50.0717 22.2752C49.9331 22.1377 49.9331 22.0689 49.7946 21.8627C49.6561 21.6564 49.4484 21.5877 49.5176 21.3814C49.5869 21.1752 49.5869 20.7627 49.7254 20.6939C49.8639 20.6252 49.7946 20.6252 50.2102 20.6252C50.6257 20.6252 50.6257 20.4877 50.8335 20.2814C51.0412 20.0752 51.1797 20.2814 51.1797 20.0064C51.1797 19.7314 51.0412 19.5939 51.3182 19.3877C51.5953 19.2502 51.7338 19.0439 51.9415 18.7689C52.2186 18.4939 52.1493 18.0814 52.7033 17.9439C53.3266 17.8064 53.3266 17.8752 53.4651 17.6689C53.6037 17.5314 54.0192 17.6689 54.0192 18.0127C54.0192 18.3564 53.8807 18.2189 53.8114 18.6314C53.7422 19.0439 53.2574 19.1127 53.3959 19.5252C53.4651 19.5939 53.0496 20.4189 53.0496 20.4877C53.1189 20.5564 53.1881 20.7627 53.3266 20.6252C53.5344 20.4877 53.8807 20.4877 54.0192 20.2814C54.1577 20.0752 55.335 18.9752 55.9583 18.7689C56.5124 18.4939 56.4431 18.2877 56.5124 18.0127C56.6509 17.7377 58.036 16.6377 58.2437 16.5002C58.4515 16.3627 58.313 16.0877 58.5208 15.8127C58.7285 15.5377 59.0055 15.6752 59.0748 15.8127C59.1441 15.9502 59.2826 15.9502 59.4211 15.8814C59.5596 15.8127 59.9751 15.4689 60.1136 15.3314C60.2521 15.1939 60.5984 14.4377 60.8062 14.3002C61.0139 14.1627 61.1524 14.3002 61.1524 14.0252C61.2217 13.8189 61.0832 13.3377 61.291 13.2689C61.4987 13.2002 61.6372 13.2689 61.7065 13.4064C61.7757 13.5439 61.9142 13.8877 62.0528 13.8189C62.2605 13.8189 62.5375 13.0627 62.5375 12.7877C62.5375 12.5127 62.7453 12.5127 62.6068 12.3752C62.4683 12.2377 62.5375 11.6189 62.399 11.1377C62.2605 10.7252 61.9143 10.7252 61.9143 10.3814C61.9143 10.0377 62.122 9.76268 62.3298 9.69393C62.5375 9.62518 62.9531 9.55643 63.0916 9.62518C63.2301 9.69393 63.3686 9.90018 63.5071 9.69393C63.6456 9.55643 63.7841 9.14393 63.7841 8.80018C63.7841 8.45643 63.8534 8.04393 63.9226 7.63143C63.9919 7.28768 63.9226 7.01268 64.0612 6.87518C64.1997 6.66893 64.5459 6.11893 64.4767 5.84393C64.4074 5.56893 64.4074 4.60643 64.1997 4.46893C63.9919 4.40018 63.8534 4.53768 63.5071 4.81268C63.1608 5.08768 63.1608 5.15643 62.8146 5.29393C62.4683 5.36268 62.4683 5.22518 62.2605 5.43143C62.0528 5.63768 61.9835 6.05018 61.7757 6.11893C61.568 6.18768 60.9447 6.39393 60.6677 6.18768C60.3214 6.05018 60.6677 5.50018 59.9059 5.01893C59.1441 4.46893 58.59 4.46893 58.1745 4.53768C57.759 4.60643 57.3434 4.88143 57.0664 4.74393C56.7894 4.60643 55.8198 3.16268 55.8198 2.88768C55.8198 2.61268 55.9583 2.26893 55.8198 1.99393C55.6813 1.71893 55.335 1.51268 55.058 1.03143C54.781 0.550183 54.8502 0.343933 54.227 0.275183C53.6037 0.206433 53.4651 0.343933 53.0496 0.137683C52.6341 0.0689326 52.6341 -0.0685674 52.2878 0.00018261C51.9415 0.0689326 52.2878 0.343933 51.5953 0.275183C50.9027 0.275183 50.5564 0.412683 50.4179 0.550183C50.2794 0.687683 49.7946 0.756433 49.5869 0.893933Z" fill="url(#paint0_linear_478_25247)"/>
<path id="Vector_24" d="M42.7306 47.7815C42.7306 47.7815 42.7306 47.8503 42.2458 47.919C41.761 47.9878 41.6917 47.919 41.4147 48.2628C41.1377 48.6065 40.7222 48.8128 40.7222 49.019C40.7222 49.294 40.8607 49.294 40.9992 49.6378C41.1377 49.9815 41.207 49.844 41.6917 50.0503C42.1765 50.2565 42.038 50.394 42.2458 50.3253C42.4535 50.2565 42.2458 50.0503 42.5228 50.0503C42.7998 50.0503 43.0768 49.6378 43.1461 49.3628C43.2153 49.0878 43.0768 49.2253 43.2153 48.9503C43.3539 48.6753 43.7001 48.4003 43.7694 48.194C43.8386 47.9878 43.7694 47.8503 43.4924 47.7815C43.2846 47.644 42.9383 47.5753 42.7306 47.7815Z" fill="url(#paint1_linear_478_25247)"/>
</g>
<g id="Group_12">
<g id="Group_13">
<path id="Vector_25" d="M16.483 20.35H12.8125L11.7044 16.8438L10.527 20.35H6.92578L9.83449 22.4813L8.72641 25.9188L11.7044 23.8563L14.6823 25.9188L13.505 22.4813L16.483 20.35Z" fill="#FFDE00"/>
<path id="Vector_26" d="M21.8155 17.0502L20.6382 16.5689L20.7767 15.2627L19.9456 16.2252L18.7683 15.7439L19.3916 16.8439L18.5605 17.8064L19.8071 17.5314L20.4997 18.6314L20.5689 17.3252L21.8155 17.0502Z" fill="#FFDE00"/>
<path id="Vector_27" d="M25.0015 21.1064L24.1012 20.1439L24.7245 19.0439L23.5471 19.5939L22.6468 18.7002L22.8546 19.9377L21.6772 20.4877L22.9238 20.6939L23.1316 22.0002L23.7549 20.8314L25.0015 21.1064Z" fill="#FFDE00"/>
<path id="Vector_28" d="M21.8848 28.6688L20.6382 28.1876L20.7075 26.8813L19.8764 27.9126L18.6991 27.4313L19.3916 28.5313L18.5605 29.4938L19.8071 29.2188L20.5689 30.2501L20.6382 29.0126L21.8848 28.6688Z" fill="#FFDE00"/>
<path id="Vector_29" d="M25.1401 24.6813H23.8242L23.4087 23.4438L22.9932 24.6813H21.7466L22.7854 25.4376L22.3699 26.6751L23.4087 25.9188L24.4475 26.6751L24.1013 25.4376L25.1401 24.6813Z" fill="#FFDE00"/>
</g>
</g>
</g>
</g>
<defs>
<linearGradient id="paint0_linear_478_25247" x1="32.9851" y1="49.2696" x2="32.9851" y2="-4.75395" gradientUnits="userSpaceOnUse">
<stop stop-color="#DE2910"/>
<stop offset="1" stop-color="#C20022"/>
</linearGradient>
<linearGradient id="paint1_linear_478_25247" x1="42.3409" y1="49.2697" x2="42.3409" y2="-4.75346" gradientUnits="userSpaceOnUse">
<stop stop-color="#DE2910"/>
<stop offset="1" stop-color="#C20022"/>
</linearGradient>
<clipPath id="clip0_478_25247">
<rect width="66" height="55" fill="white"/>
</clipPath>
</defs>
</svg>
