<svg width="17" height="13" viewBox="0 0 17 13" fill="none" xmlns="http://www.w3.org/2000/svg">
<g id="&#208;&#190;&#208;&#186;&#208;&#190;">
<path id="Vector" d="M1.39258 8.004C1.19843 7.7376 1.10136 7.6044 1.03454 7.3467C0.988487 7.16909 0.988487 6.83091 1.03454 6.6533C1.10136 6.3956 1.19843 6.2624 1.39258 5.996C2.45644 4.5362 4.78758 2 8.14286 2C11.4981 2 13.8293 4.5362 14.8931 5.996C15.0873 6.2624 15.1844 6.3956 15.2512 6.6533C15.2972 6.83091 15.2972 7.16909 15.2512 7.3467C15.1844 7.6044 15.0873 7.7376 14.8931 8.004C13.8293 9.4638 11.4981 12 8.14286 12C4.78758 12 2.45644 9.4638 1.39258 8.004Z" stroke="#D9D9D9" stroke-width="1.5" stroke-linecap="round" stroke-linejoin="round"/>
<path id="Vector_2" d="M8 9C9.10457 9 10 8.10457 10 7C10 5.89543 9.10457 5 8 5C6.89543 5 6 5.89543 6 7C6 8.10457 6.89543 9 8 9Z" stroke="#D9D9D9" stroke-width="1.5" stroke-linecap="round" stroke-linejoin="round"/>
<path id="Vector 4 (Stroke)" d="M13.7006 2.31994C13.9753 2.04519 13.9194 1.59548 13.6419 1.31795C13.3644 1.04043 12.9147 0.984526 12.6399 1.25928L2.29942 11.5998C2.02467 11.8745 2.08057 12.3242 2.3581 12.6018C2.63562 12.8793 3.08533 12.9352 3.36008 12.6604L13.7006 2.31994Z" fill="#D9D9D9" stroke="white" stroke-width="0.3" stroke-linecap="round"/>
</g>
</svg>
