<svg width="78" height="75" viewBox="0 0 78 75" fill="none" xmlns="http://www.w3.org/2000/svg">
<g id="Frame 36">
<g id="Group">
<g id="Group_2">
<g id="Group_3">
<path id="XMLID_180_" d="M38.7291 9.0166H10.7578V28.074H38.7291V9.0166Z" fill="#70DECB"/>
<g id="XMLID_176_">
<path id="XMLID_179_" d="M32.8884 9.0166L21.9253 28.074H25.204L36.2696 9.0166H32.8884Z" fill="#B4B4B5"/>
<path id="XMLID_178_" d="M22.8479 9.0166L11.8848 28.074H15.1635L26.1266 9.0166H22.8479Z" fill="#B4B4B5"/>
<path id="XMLID_177_" d="M20.4914 28.074L31.557 9.0166H30.5324L19.4668 28.074H20.4914Z" fill="#B4B4B5"/>
</g>
</g>
<g id="Group_4">
<path id="XMLID_173_" d="M67.8281 1.63965H37.8076V28.0741H67.8281V1.63965Z" fill="#64C0B6"/>
<g id="XMLID_168_">
<path id="XMLID_171_" d="M61.5786 1.63965L49.6934 28.0741H53.2794L65.0622 1.63965H61.5786Z" fill="#B4B4B5"/>
<path id="XMLID_170_" d="M50.7174 1.63965L38.9346 28.0741H42.5206L54.3034 1.63965H50.7174Z" fill="#B4B4B5"/>
<path id="XMLID_169_" d="M48.2584 28.0741L60.0412 1.63965H59.0166L47.1313 28.0741H48.2584Z" fill="#B4B4B5"/>
</g>
</g>
</g>
<g id="Group_5">
<g id="Group_6">
<path id="Vector" d="M56.4541 17.8279H53.8926C53.8926 9.42623 47.0278 2.56148 38.6262 2.56148C30.2246 2.56148 23.3598 9.42623 23.3598 17.8279H20.7983C20.7983 7.9918 28.7901 0 38.6262 0C48.4623 0 56.4541 7.9918 56.4541 17.8279Z" fill="#C13A2B"/>
</g>
<g id="Group_7">
<g id="Group_8">
<path id="Vector_2" d="M3.07324 20.7991L7.37652 68.4426H39.1388V17.418L3.07324 20.7991Z" fill="#F99F10"/>
<path id="Vector_3" d="M75.2047 20.7991L70.9015 68.4426H39.1392V17.418L75.2047 20.7991Z" fill="#FDBC14"/>
</g>
<g id="Group_9">
<path id="Vector_4" d="M74.6926 24.0778H2.66393C1.22951 24.0778 0 22.8483 0 21.4139V20.0819C0 18.6475 1.22951 17.418 2.66393 17.418H74.6926C76.1271 17.418 77.3566 18.6475 77.3566 20.0819V21.3114C77.3566 22.8483 76.2295 24.0778 74.6926 24.0778Z" fill="#DA6426"/>
<path id="Vector_5" d="M71.1064 74.9998H7.47936C6.04494 74.9998 4.81543 73.7703 4.81543 72.3358V71.1063C4.81543 69.6719 6.04494 68.4424 7.47936 68.4424H71.2089C72.6433 68.4424 73.8728 69.6719 73.8728 71.1063V72.3358C73.7703 73.8727 72.6433 74.9998 71.1064 74.9998Z" fill="#DA6426"/>
</g>
<g id="Group_10">
<g id="Group_11">
<path id="Vector_6" d="M13.115 44.7744H12.6027C11.988 44.7744 11.5781 44.2621 11.5781 43.7498V28.2785C11.5781 27.6637 12.0904 27.2539 12.6027 27.2539H13.115C13.7298 27.2539 14.1396 27.7662 14.1396 28.2785V43.6473C14.1396 44.2621 13.7298 44.7744 13.115 44.7744Z" fill="#D4D3CA"/>
<path id="Vector_7" d="M13.115 65.3682H12.6027C11.988 65.3682 11.5781 64.8559 11.5781 64.3436V48.9748C11.5781 48.36 12.0904 47.9502 12.6027 47.9502H13.115C13.7298 47.9502 14.1396 48.4625 14.1396 48.9748V64.3436C14.1396 64.9584 13.7298 65.3682 13.115 65.3682Z" fill="#D4D3CA"/>
<path id="Vector_8" d="M18.4431 44.7744H17.9308C17.3161 44.7744 16.9062 44.2621 16.9062 43.7498V28.2785C16.9062 27.6637 17.4185 27.2539 17.9308 27.2539H18.4431C19.0579 27.2539 19.4677 27.7662 19.4677 28.2785V43.6473C19.4677 44.2621 18.9554 44.7744 18.4431 44.7744Z" fill="#D4D3CA"/>
<path id="Vector_9" d="M18.4431 65.3682H17.9308C17.3161 65.3682 16.9062 64.8559 16.9062 64.3436V48.9748C16.9062 48.36 17.4185 47.9502 17.9308 47.9502H18.4431C19.0579 47.9502 19.4677 48.4625 19.4677 48.9748V64.3436C19.4677 64.9584 18.9554 65.3682 18.4431 65.3682Z" fill="#D4D3CA"/>
<path id="Vector_10" d="M23.8733 44.7744H23.361C22.7463 44.7744 22.3364 44.2621 22.3364 43.7498V28.2785C22.3364 27.6637 22.8487 27.2539 23.361 27.2539H23.8733C24.4881 27.2539 24.8979 27.7662 24.8979 28.2785V43.6473C24.8979 44.2621 24.4881 44.7744 23.8733 44.7744Z" fill="#D4D3CA"/>
<path id="Vector_11" d="M23.8733 65.3682H23.361C22.7463 65.3682 22.3364 64.8559 22.3364 64.3436V48.9748C22.3364 48.36 22.8487 47.9502 23.361 47.9502H23.8733C24.4881 47.9502 24.8979 48.4625 24.8979 48.9748V64.3436C24.8979 64.9584 24.4881 65.3682 23.8733 65.3682Z" fill="#D4D3CA"/>
<path id="Vector_12" d="M29.2009 44.7744H28.6887C28.0739 44.7744 27.6641 44.2621 27.6641 43.7498V28.2785C27.6641 27.6637 28.1764 27.2539 28.6887 27.2539H29.2009C29.8157 27.2539 30.2255 27.7662 30.2255 28.2785V43.6473C30.2255 44.2621 29.8157 44.7744 29.2009 44.7744Z" fill="#D4D3CA"/>
<path id="Vector_13" d="M29.2009 65.3682H28.6887C28.0739 65.3682 27.6641 64.8559 27.6641 64.3436V48.9748C27.6641 48.36 28.1764 47.9502 28.6887 47.9502H29.2009C29.8157 47.9502 30.2255 48.4625 30.2255 48.9748V64.3436C30.2255 64.9584 29.8157 65.3682 29.2009 65.3682Z" fill="#D4D3CA"/>
<path id="Vector_14" d="M34.8367 44.7744H34.3244C33.7096 44.7744 33.2998 44.2621 33.2998 43.7498V28.2785C33.2998 27.6637 33.8121 27.2539 34.3244 27.2539H34.8367C35.4514 27.2539 35.8613 27.7662 35.8613 28.2785V43.6473C35.9637 44.2621 35.4514 44.7744 34.8367 44.7744Z" fill="#D4D3CA"/>
<path id="Vector_15" d="M34.8367 65.3682H34.3244C33.7096 65.3682 33.2998 64.8559 33.2998 64.3436V48.9748C33.2998 48.36 33.8121 47.9502 34.3244 47.9502H34.8367C35.4514 47.9502 35.8613 48.4625 35.8613 48.9748V64.3436C35.9637 64.9584 35.4514 65.3682 34.8367 65.3682Z" fill="#D4D3CA"/>
</g>
<g id="Group_12">
<path id="Vector_16" d="M42.8279 44.7744H42.3156C41.7009 44.7744 41.291 44.2621 41.291 43.7498V28.2785C41.291 27.6637 41.8033 27.2539 42.3156 27.2539H42.8279C43.4427 27.2539 43.8525 27.7662 43.8525 28.2785V43.6473C43.8525 44.2621 43.4427 44.7744 42.8279 44.7744Z" fill="#E6E9E1"/>
<path id="Vector_17" d="M42.8279 65.3682H42.3156C41.7009 65.3682 41.291 64.8559 41.291 64.3436V48.9748C41.291 48.36 41.8033 47.9502 42.3156 47.9502H42.8279C43.4427 47.9502 43.8525 48.4625 43.8525 48.9748V64.3436C43.8525 64.9584 43.4427 65.3682 42.8279 65.3682Z" fill="#E6E9E1"/>
<path id="Vector_18" d="M48.156 44.7744H47.6437C47.029 44.7744 46.6191 44.2621 46.6191 43.7498V28.2785C46.6191 27.6637 47.1314 27.2539 47.6437 27.2539H48.156C48.7708 27.2539 49.1806 27.7662 49.1806 28.2785V43.6473C49.1806 44.2621 48.6683 44.7744 48.156 44.7744Z" fill="#E6E9E1"/>
<path id="Vector_19" d="M48.156 65.3682H47.6437C47.029 65.3682 46.6191 64.8559 46.6191 64.3436V48.9748C46.6191 48.36 47.1314 47.9502 47.6437 47.9502H48.156C48.7708 47.9502 49.1806 48.4625 49.1806 48.9748V64.3436C49.1806 64.9584 48.6683 65.3682 48.156 65.3682Z" fill="#E6E9E1"/>
<path id="Vector_20" d="M53.5862 44.7744H53.0739C52.4592 44.7744 52.0493 44.2621 52.0493 43.7498V28.2785C52.0493 27.6637 52.5616 27.2539 53.0739 27.2539H53.5862C54.201 27.2539 54.6108 27.7662 54.6108 28.2785V43.6473C54.6108 44.2621 54.201 44.7744 53.5862 44.7744Z" fill="#E6E9E1"/>
<path id="Vector_21" d="M53.5862 65.3682H53.0739C52.4592 65.3682 52.0493 64.8559 52.0493 64.3436V48.9748C52.0493 48.36 52.5616 47.9502 53.0739 47.9502H53.5862C54.201 47.9502 54.6108 48.4625 54.6108 48.9748V64.3436C54.6108 64.9584 54.201 65.3682 53.5862 65.3682Z" fill="#E6E9E1"/>
<path id="Vector_22" d="M58.9138 44.7744H58.4015C57.7868 44.7744 57.377 44.2621 57.377 43.7498V28.2785C57.377 27.6637 57.8892 27.2539 58.4015 27.2539H58.9138C59.5286 27.2539 59.9384 27.7662 59.9384 28.2785V43.6473C59.9384 44.2621 59.4261 44.7744 58.9138 44.7744Z" fill="#E6E9E1"/>
<path id="Vector_23" d="M58.9138 65.3682H58.4015C57.7868 65.3682 57.377 64.8559 57.377 64.3436V48.9748C57.377 48.36 57.8892 47.9502 58.4015 47.9502H58.9138C59.5286 47.9502 59.9384 48.4625 59.9384 48.9748V64.3436C59.9384 64.9584 59.4261 65.3682 58.9138 65.3682Z" fill="#E6E9E1"/>
<path id="Vector_24" d="M64.5491 44.7744H64.0368C63.422 44.7744 63.0122 44.2621 63.0122 43.7498V28.2785C63.0122 27.6637 63.5245 27.2539 64.0368 27.2539H64.5491C65.1638 27.2539 65.5737 27.7662 65.5737 28.2785V43.6473C65.6761 44.2621 65.1638 44.7744 64.5491 44.7744Z" fill="#E6E9E1"/>
<path id="Vector_25" d="M64.5491 65.3682H64.0368C63.422 65.3682 63.0122 64.8559 63.0122 64.3436V48.9748C63.0122 48.36 63.5245 47.9502 64.0368 47.9502H64.5491C65.1638 47.9502 65.5737 48.4625 65.5737 48.9748V64.3436C65.6761 64.9584 65.1638 65.3682 64.5491 65.3682Z" fill="#E6E9E1"/>
</g>
</g>
</g>
</g>
</g>
</g>
</svg>
