<svg width="80" height="85" viewBox="0 0 80 85" fill="none" xmlns="http://www.w3.org/2000/svg">
<g id="Frame 34">
<g id="Group">
<g id="Group_2">
<g id="XMLID_826_">
<path id="XMLID_827_" d="M59.0161 53.5792H22.0536C12.9683 53.5792 5.59131 46.1594 5.59131 37.0213V35.1468C5.59131 26.0087 12.9683 18.5889 22.0536 18.5889H59.0937C68.179 18.5889 75.556 26.0087 75.556 35.1468V37.0213C75.4783 46.1594 68.1014 53.5792 59.0161 53.5792Z" fill="#F15B28"/>
</g>
<g id="XMLID_815_">
<path id="XMLID_95_" d="M76.099 13.6681C75.5555 14.9177 74.3907 15.9331 73.1482 16.4798L71.5175 16.1674L67.8679 15.3864L66.5478 15.074L65.9266 14.9177H71.3622C72.76 14.9177 74.2354 13.8243 74.6236 12.4965L77.1085 4.37379C77.1085 4.21758 77.1862 4.13948 77.1862 4.06138C77.1862 3.98327 77.1862 3.90517 77.1862 3.82707C77.2638 3.35845 77.1862 2.88983 76.9532 2.57741C76.9532 2.57741 76.9532 2.49931 76.8755 2.49931C76.5649 2.10879 76.099 1.87448 75.4778 1.87448H38.36H37.6612H5.12486L2.9506 1.40586L0.931641 1.01534C1.55286 0.312414 2.40703 0 3.49417 0H75.5555C76.7979 0 77.8074 0.546725 78.4286 1.48397C79.0498 2.3431 79.2051 3.51465 78.8945 4.76431C78.8945 4.84241 78.8168 4.92051 78.8168 5.07672L76.6426 12.2622L76.099 13.6681Z" fill="#FFFEF6"/>
<path id="XMLID_94_" d="M2.40722 12.1844L0.232957 4.92075C0.232957 4.84265 0.155304 4.76455 0.155304 4.60834C-0.155305 3.43679 2.31422e-07 2.26524 0.621218 1.328C0.69887 1.17179 0.854175 1.01558 0.931827 0.859375L2.87313 1.24989L5.0474 1.71851H3.4167C2.87313 1.71851 2.48487 1.87472 2.17426 2.18713C2.09661 2.26524 2.09661 2.26524 2.01896 2.34334C2.01896 2.34334 2.01896 2.42144 1.94131 2.42144C1.70835 2.73386 1.6307 3.20248 1.70835 3.6711C1.70835 3.7492 1.70835 3.8273 1.70835 3.90541C1.70835 3.98351 1.786 4.13972 1.786 4.21782L4.27087 12.3406C4.65914 13.6683 6.13453 14.7618 7.53227 14.7618H64.9949H65.1502H65.7715L66.3927 14.918L67.7128 15.2304L71.3624 16.0114L72.9931 16.3238C72.4496 16.5582 71.906 16.6363 71.3624 16.7144C71.2848 16.7144 71.2848 16.7144 71.2071 16.7144H64.4514H61.0347H17.5494H14.1327H7.53227C7.45462 16.7144 7.37696 16.7144 7.29931 16.7144C7.22166 16.7144 7.06636 16.7144 6.9887 16.7144C5.2027 16.4801 3.49435 15.2304 2.71783 13.5902L2.40722 12.1844Z" fill="#FFFEF6"/>
</g>
<g id="XMLID_759_">
<path id="XMLID_761_" d="M71.3615 16.0889C73.0698 16.0889 74.9335 14.8393 75.477 13.1991L77.9619 5.62305C78.5831 3.74857 77.496 2.1084 75.5547 2.1084H3.49338C3.10512 2.1084 2.71686 2.1865 2.40625 2.34271L71.2062 16.0889H71.3615Z" fill="#FFFEF6"/>
<path id="XMLID_760_" d="M2.32866 2.34277C1.08623 2.81139 0.542662 4.13915 1.00858 5.62312L3.49345 13.2772C4.03701 14.9174 5.82302 16.1671 7.60902 16.1671H71.1286L2.32866 2.34277Z" fill="#FFFEF6"/>
</g>
<g id="XMLID_757_">
<path id="XMLID_758_" d="M58.1621 52.7979H21.1219C12.0366 52.7979 4.65967 45.3781 4.65967 36.24V34.3655C4.65967 25.2274 12.0366 17.8076 21.1219 17.8076H58.1621C67.2474 17.8076 74.6244 25.2274 74.6244 34.3655V36.24C74.6244 45.3781 67.2474 52.7979 58.1621 52.7979Z" fill="#FFFEF6"/>
</g>
<path id="XMLID_756_" d="M63.0541 18.7451H62.8988C61.9669 18.7451 61.2681 18.0422 61.2681 17.105V16.9488C61.2681 16.0115 61.9669 15.3086 62.8988 15.3086H63.0541C63.9859 15.3086 64.6848 16.0115 64.6848 16.9488V17.105C64.6071 18.0422 63.9082 18.7451 63.0541 18.7451Z" fill="#213549"/>
<path id="XMLID_93_" d="M16.0741 18.7451H15.9188C15.0646 18.7451 14.2881 18.0422 14.2881 17.105V16.9488C14.2881 16.0115 14.987 15.3086 15.9188 15.3086H16.0741C17.0059 15.3086 17.7048 16.0115 17.7048 16.9488V17.105C17.7048 18.0422 17.0059 18.7451 16.0741 18.7451Z" fill="#213549"/>
<path id="XMLID_753_" d="M67.4014 15.3079H7.68679C6.28905 15.3079 4.736 14.2144 4.27009 12.9648L1.78521 5.38874C1.55226 4.68581 1.62991 4.06098 1.94052 3.59236C2.25113 3.12374 2.79469 2.88943 3.49356 2.88943H5.12426L1.24165 2.1084C1.00869 2.26461 0.853388 2.49892 0.698083 2.65512C0.0768649 3.51426 -0.0784396 4.68581 0.309822 5.85736L2.79469 13.4334C3.41591 15.3079 5.51252 16.7918 7.60913 16.7918H71.284C71.9052 16.7918 72.5264 16.6356 73.07 16.4013L67.4014 15.3079Z" fill="#213549"/>
<path id="XMLID_752_" d="M75.5554 2.89019C76.2543 2.89019 76.7978 3.1245 77.1084 3.59312C77.419 4.06174 77.4967 4.68657 77.2637 5.3895L74.7789 12.9655C74.3906 14.2152 72.8376 15.3086 71.3622 15.3086H67.4019L73.1482 16.4802C74.5459 15.9335 75.7107 14.7619 76.1766 13.4342L78.6615 5.85812C79.0497 4.68657 78.8944 3.51502 78.2732 2.65588C77.652 1.79675 76.7202 1.32812 75.4777 1.32812H3.4941C2.63993 1.32812 1.86341 1.56243 1.24219 2.03106L5.1248 2.81209H75.5554V2.89019Z" fill="#213549"/>
<g id="XMLID_728_">
<path id="XMLID_751_" d="M12.9681 28.7425H12.2693C11.6481 28.7425 11.1045 28.1957 11.1045 27.5709V27.4147C11.1045 26.7899 11.6481 26.2432 12.2693 26.2432H12.9681C13.5894 26.2432 14.1329 26.7899 14.1329 27.4147V27.5709C14.1329 28.1957 13.5894 28.7425 12.9681 28.7425Z" fill="#213549"/>
<path id="XMLID_750_" d="M16.3846 28.7425H15.6858C15.0646 28.7425 14.521 28.1957 14.521 27.5709V27.4147C14.521 26.7899 15.0646 26.2432 15.6858 26.2432H16.3846C17.0059 26.2432 17.5494 26.7899 17.5494 27.4147V27.5709C17.5494 28.1957 17.0059 28.7425 16.3846 28.7425Z" fill="#213549"/>
<path id="XMLID_749_" d="M19.8016 28.7425H19.1028C18.4816 28.7425 17.938 28.1957 17.938 27.5709V27.4147C17.938 26.7899 18.4816 26.2432 19.1028 26.2432H19.8016C20.4229 26.2432 20.9664 26.7899 20.9664 27.4147V27.5709C20.9664 28.1957 20.4229 28.7425 19.8016 28.7425Z" fill="#213549"/>
<path id="XMLID_748_" d="M23.2958 28.7425H22.5969C21.9757 28.7425 21.4321 28.1957 21.4321 27.5709V27.4147C21.4321 26.7899 21.9757 26.2432 22.5969 26.2432H23.2958C23.917 26.2432 24.4606 26.7899 24.4606 27.4147V27.5709C24.4606 28.1957 23.917 28.7425 23.2958 28.7425Z" fill="#213549"/>
<path id="XMLID_747_" d="M26.7123 28.7425H26.0134C25.3922 28.7425 24.8486 28.1957 24.8486 27.5709V27.4147C24.8486 26.7899 25.3922 26.2432 26.0134 26.2432H26.7123C27.3335 26.2432 27.8771 26.7899 27.8771 27.4147V27.5709C27.8771 28.1957 27.3335 28.7425 26.7123 28.7425Z" fill="#213549"/>
<path id="XMLID_741_" d="M30.1293 28.7425H29.4304C28.8092 28.7425 28.2656 28.1957 28.2656 27.5709V27.4147C28.2656 26.7899 28.8092 26.2432 29.4304 26.2432H30.1293C30.7505 26.2432 31.2941 26.7899 31.2941 27.4147V27.5709C31.2941 28.1957 30.7505 28.7425 30.1293 28.7425Z" fill="#213549"/>
<path id="XMLID_740_" d="M33.5458 28.7425H32.8469C32.2257 28.7425 31.6821 28.1957 31.6821 27.5709V27.4147C31.6821 26.7899 32.2257 26.2432 32.8469 26.2432H33.5458C34.167 26.2432 34.7106 26.7899 34.7106 27.4147V27.5709C34.7106 28.1957 34.167 28.7425 33.5458 28.7425Z" fill="#213549"/>
<path id="XMLID_739_" d="M36.9633 28.7425H36.2644C35.6432 28.7425 35.0996 28.1957 35.0996 27.5709V27.4147C35.0996 26.7899 35.6432 26.2432 36.2644 26.2432H36.9633C37.5845 26.2432 38.128 26.7899 38.128 27.4147V27.5709C38.128 28.1957 37.5845 28.7425 36.9633 28.7425Z" fill="#213549"/>
<path id="XMLID_732_" d="M40.3793 28.7425H39.6804C39.0592 28.7425 38.5156 28.1957 38.5156 27.5709V27.4147C38.5156 26.7899 39.0592 26.2432 39.6804 26.2432H40.3793C41.0005 26.2432 41.5441 26.7899 41.5441 27.4147V27.5709C41.5441 28.1957 41.0005 28.7425 40.3793 28.7425Z" fill="#213549"/>
<path id="XMLID_731_" d="M43.7958 28.7425H43.0969C42.4757 28.7425 41.9321 28.1957 41.9321 27.5709V27.4147C41.9321 26.7899 42.4757 26.2432 43.0969 26.2432H43.7958C44.417 26.2432 44.9606 26.7899 44.9606 27.4147V27.5709C44.9606 28.1957 44.417 28.7425 43.7958 28.7425Z" fill="#213549"/>
<path id="XMLID_730_" d="M47.2123 28.7425H46.5134C45.8922 28.7425 45.3486 28.1957 45.3486 27.5709V27.4147C45.3486 26.7899 45.8922 26.2432 46.5134 26.2432H47.2123C47.8335 26.2432 48.3771 26.7899 48.3771 27.4147V27.5709C48.3771 28.1957 47.8335 28.7425 47.2123 28.7425Z" fill="#213549"/>
<path id="XMLID_729_" d="M50.6293 28.7425H49.9304C49.3092 28.7425 48.7656 28.1957 48.7656 27.5709V27.4147C48.7656 26.7899 49.3092 26.2432 49.9304 26.2432H50.6293C51.2505 26.2432 51.7941 26.7899 51.7941 27.4147V27.5709C51.7941 28.1957 51.3282 28.7425 50.6293 28.7425Z" fill="#213549"/>
</g>
<g id="XMLID_656_">
<path id="XMLID_727_" d="M13.7445 31.7884H13.0456C12.4244 31.7884 11.8809 31.2416 11.8809 30.6168V30.4606C11.8809 29.8358 12.4244 29.2891 13.0456 29.2891H13.7445C14.3657 29.2891 14.9093 29.8358 14.9093 30.4606V30.6168C14.9093 31.3198 14.3657 31.7884 13.7445 31.7884Z" fill="#213549"/>
<path id="XMLID_726_" d="M17.2387 31.7884H16.5398C15.9186 31.7884 15.375 31.2416 15.375 30.6168V30.4606C15.375 29.8358 15.9186 29.2891 16.5398 29.2891H17.2387C17.8599 29.2891 18.4034 29.8358 18.4034 30.4606V30.6168C18.4034 31.3198 17.8599 31.7884 17.2387 31.7884Z" fill="#213549"/>
<path id="XMLID_725_" d="M20.6552 31.7884H19.9563C19.3351 31.7884 18.7915 31.2416 18.7915 30.6168V30.4606C18.7915 29.8358 19.3351 29.2891 19.9563 29.2891H20.6552C21.2764 29.2891 21.8199 29.8358 21.8199 30.4606V30.6168C21.8199 31.3198 21.2764 31.7884 20.6552 31.7884Z" fill="#213549"/>
<path id="XMLID_716_" d="M24.0722 31.7884H23.3733C22.7521 31.7884 22.2085 31.2416 22.2085 30.6168V30.4606C22.2085 29.8358 22.7521 29.2891 23.3733 29.2891H24.0722C24.6934 29.2891 25.2369 29.8358 25.2369 30.4606V30.6168C25.2369 31.3198 24.6934 31.7884 24.0722 31.7884Z" fill="#213549"/>
<path id="XMLID_714_" d="M27.4887 31.7884H26.7898C26.1686 31.7884 25.625 31.2416 25.625 30.6168V30.4606C25.625 29.8358 26.1686 29.2891 26.7898 29.2891H27.4887C28.1099 29.2891 28.6534 29.8358 28.6534 30.4606V30.6168C28.6534 31.3198 28.1099 31.7884 27.4887 31.7884Z" fill="#213549"/>
<path id="XMLID_712_" d="M30.9052 31.7884H30.2063C29.5851 31.7884 29.0415 31.2416 29.0415 30.6168V30.4606C29.0415 29.8358 29.5851 29.2891 30.2063 29.2891H30.9052C31.5264 29.2891 32.0699 29.8358 32.0699 30.4606V30.6168C32.0699 31.3198 31.5264 31.7884 30.9052 31.7884Z" fill="#213549"/>
<path id="XMLID_706_" d="M34.3222 31.7884H33.6233C33.0021 31.7884 32.4585 31.2416 32.4585 30.6168V30.4606C32.4585 29.8358 33.0021 29.2891 33.6233 29.2891H34.3222C34.9434 29.2891 35.4869 29.8358 35.4869 30.4606V30.6168C35.4869 31.3198 34.9434 31.7884 34.3222 31.7884Z" fill="#213549"/>
<path id="XMLID_664_" d="M37.7396 31.7884H37.0408C36.4195 31.7884 35.876 31.2416 35.876 30.6168V30.4606C35.876 29.8358 36.4195 29.2891 37.0408 29.2891H37.7396C38.3609 29.2891 38.9044 29.8358 38.9044 30.4606V30.6168C38.9044 31.3198 38.3609 31.7884 37.7396 31.7884Z" fill="#213549"/>
<path id="XMLID_663_" d="M41.1552 31.7884H40.4563C39.8351 31.7884 39.2915 31.2416 39.2915 30.6168V30.4606C39.2915 29.8358 39.8351 29.2891 40.4563 29.2891H41.1552C41.7764 29.2891 42.3199 29.8358 42.3199 30.4606V30.6168C42.3199 31.3198 41.7764 31.7884 41.1552 31.7884Z" fill="#213549"/>
<path id="XMLID_662_" d="M44.5722 31.7884H43.8733C43.2521 31.7884 42.7085 31.2416 42.7085 30.6168V30.4606C42.7085 29.8358 43.2521 29.2891 43.8733 29.2891H44.5722C45.1934 29.2891 45.7369 29.8358 45.7369 30.4606V30.6168C45.7369 31.3198 45.271 31.7884 44.5722 31.7884Z" fill="#213549"/>
<path id="XMLID_661_" d="M47.9887 31.7884H47.2898C46.6686 31.7884 46.125 31.2416 46.125 30.6168V30.4606C46.125 29.8358 46.6686 29.2891 47.2898 29.2891H47.9887C48.6099 29.2891 49.1534 29.8358 49.1534 30.4606V30.6168C49.1534 31.3198 48.6875 31.7884 47.9887 31.7884Z" fill="#213549"/>
<path id="XMLID_657_" d="M51.4828 31.7884H50.7839C50.1627 31.7884 49.6191 31.2416 49.6191 30.6168V30.4606C49.6191 29.8358 50.1627 29.2891 50.7839 29.2891H51.4828C52.104 29.2891 52.6476 29.8358 52.6476 30.4606V30.6168C52.6476 31.3198 52.1817 31.7884 51.4828 31.7884Z" fill="#213549"/>
</g>
<g id="XMLID_643_">
<path id="XMLID_655_" d="M15.5306 34.9124H14.8318C14.2106 34.9124 13.667 34.3657 13.667 33.7408V33.5846C13.667 32.9598 14.2106 32.4131 14.8318 32.4131H15.5306C16.1519 32.4131 16.6954 32.9598 16.6954 33.5846V33.7408C16.6954 34.3657 16.1519 34.9124 15.5306 34.9124Z" fill="#213549"/>
<path id="XMLID_654_" d="M18.9471 34.9124H18.2483C17.6271 34.9124 17.0835 34.3657 17.0835 33.7408V33.5846C17.0835 32.9598 17.6271 32.4131 18.2483 32.4131H18.9471C19.5684 32.4131 20.1119 32.9598 20.1119 33.5846V33.7408C20.1119 34.3657 19.5684 34.9124 18.9471 34.9124Z" fill="#213549"/>
<path id="XMLID_653_" d="M22.3641 34.9124H21.6653C21.0441 34.9124 20.5005 34.3657 20.5005 33.7408V33.5846C20.5005 32.9598 21.0441 32.4131 21.6653 32.4131H22.3641C22.9854 32.4131 23.5289 32.9598 23.5289 33.5846V33.7408C23.5289 34.3657 22.9854 34.9124 22.3641 34.9124Z" fill="#213549"/>
<path id="XMLID_652_" d="M25.7806 34.9124H25.0818C24.4606 34.9124 23.917 34.3657 23.917 33.7408V33.5846C23.917 32.9598 24.4606 32.4131 25.0818 32.4131H25.7806C26.4019 32.4131 26.9454 32.9598 26.9454 33.5846V33.7408C26.9454 34.3657 26.4019 34.9124 25.7806 34.9124Z" fill="#213549"/>
<path id="XMLID_651_" d="M29.1971 34.9124H28.4983C27.8771 34.9124 27.3335 34.3657 27.3335 33.7408V33.5846C27.3335 32.9598 27.8771 32.4131 28.4983 32.4131H29.1971C29.8184 32.4131 30.3619 32.9598 30.3619 33.5846V33.7408C30.3619 34.3657 29.8184 34.9124 29.1971 34.9124Z" fill="#213549"/>
<path id="XMLID_650_" d="M32.6141 34.9124H31.9153C31.2941 34.9124 30.7505 34.3657 30.7505 33.7408V33.5846C30.7505 32.9598 31.2941 32.4131 31.9153 32.4131H32.6141C33.2354 32.4131 33.7789 32.9598 33.7789 33.5846V33.7408C33.7789 34.3657 33.2354 34.9124 32.6141 34.9124Z" fill="#213549"/>
<path id="XMLID_649_" d="M36.0306 34.9124H35.3318C34.7106 34.9124 34.167 34.3657 34.167 33.7408V33.5846C34.167 32.9598 34.7106 32.4131 35.3318 32.4131H36.0306C36.6519 32.4131 37.1954 32.9598 37.1954 33.5846V33.7408C37.1954 34.3657 36.6519 34.9124 36.0306 34.9124Z" fill="#213549"/>
<path id="XMLID_648_" d="M39.4472 34.9124H38.7483C38.1271 34.9124 37.5835 34.3657 37.5835 33.7408V33.5846C37.5835 32.9598 38.1271 32.4131 38.7483 32.4131H39.4472C40.0684 32.4131 40.6119 32.9598 40.6119 33.5846V33.7408C40.6119 34.3657 40.0684 34.9124 39.4472 34.9124Z" fill="#213549"/>
<path id="XMLID_647_" d="M42.8641 34.9124H42.1653C41.5441 34.9124 41.0005 34.3657 41.0005 33.7408V33.5846C41.0005 32.9598 41.5441 32.4131 42.1653 32.4131H42.8641C43.4854 32.4131 44.0289 32.9598 44.0289 33.5846V33.7408C44.0289 34.3657 43.563 34.9124 42.8641 34.9124Z" fill="#213549"/>
<path id="XMLID_646_" d="M46.2806 34.9124H45.5818C44.9606 34.9124 44.417 34.3657 44.417 33.7408V33.5846C44.417 32.9598 44.9606 32.4131 45.5818 32.4131H46.2806C46.9019 32.4131 47.4454 32.9598 47.4454 33.5846V33.7408C47.4454 34.3657 46.9795 34.9124 46.2806 34.9124Z" fill="#213549"/>
<path id="XMLID_645_" d="M49.6971 34.9124H48.9983C48.3771 34.9124 47.8335 34.3657 47.8335 33.7408V33.5846C47.8335 32.9598 48.3771 32.4131 48.9983 32.4131H49.6971C50.3184 32.4131 50.8619 32.9598 50.8619 33.5846V33.7408C50.8619 34.3657 50.396 34.9124 49.6971 34.9124Z" fill="#213549"/>
<path id="XMLID_644_" d="M53.1918 34.9124H52.4929C51.8717 34.9124 51.3281 34.3657 51.3281 33.7408V33.5846C51.3281 32.9598 51.8717 32.4131 52.4929 32.4131H53.1918C53.813 32.4131 54.3566 32.9598 54.3566 33.5846V33.7408C54.3566 34.3657 53.8906 34.9124 53.1918 34.9124Z" fill="#213549"/>
</g>
<g id="XMLID_630_">
<path id="XMLID_642_" d="M10.1727 37.802H9.47387C8.85265 37.802 8.30908 37.2553 8.30908 36.6305V36.4743C8.30908 35.8495 8.85265 35.3027 9.47387 35.3027H10.1727C10.794 35.3027 11.3375 35.8495 11.3375 36.4743V36.6305C11.3375 37.3334 10.794 37.802 10.1727 37.802Z" fill="#213549"/>
<path id="XMLID_641_" d="M13.5892 37.802H12.8904C12.2692 37.802 11.7256 37.2553 11.7256 36.6305V36.4743C11.7256 35.8495 12.2692 35.3027 12.8904 35.3027H13.5892C14.2105 35.3027 14.754 35.8495 14.754 36.4743V36.6305C14.754 37.3334 14.2105 37.802 13.5892 37.802Z" fill="#213549"/>
<path id="XMLID_640_" d="M17.0057 37.802H16.3069C15.6857 37.802 15.1421 37.2553 15.1421 36.6305V36.4743C15.1421 35.8495 15.6857 35.3027 16.3069 35.3027H17.0057C17.627 35.3027 18.1705 35.8495 18.1705 36.4743V36.6305C18.1705 37.3334 17.627 37.802 17.0057 37.802Z" fill="#213549"/>
<path id="XMLID_639_" d="M20.4227 37.802H19.7239C19.1026 37.802 18.5591 37.2553 18.5591 36.6305V36.4743C18.5591 35.8495 19.1026 35.3027 19.7239 35.3027H20.4227C21.044 35.3027 21.5875 35.8495 21.5875 36.4743V36.6305C21.5875 37.3334 21.044 37.802 20.4227 37.802Z" fill="#213549"/>
<path id="XMLID_638_" d="M23.8392 37.802H23.1404C22.5192 37.802 21.9756 37.2553 21.9756 36.6305V36.4743C21.9756 35.8495 22.5192 35.3027 23.1404 35.3027H23.8392C24.4605 35.3027 25.004 35.8495 25.004 36.4743V36.6305C25.004 37.3334 24.5381 37.802 23.8392 37.802Z" fill="#213549"/>
<path id="XMLID_637_" d="M27.2557 37.802H26.5569C25.9357 37.802 25.3921 37.2553 25.3921 36.6305V36.4743C25.3921 35.8495 25.9357 35.3027 26.5569 35.3027H27.2557C27.877 35.3027 28.4205 35.8495 28.4205 36.4743V36.6305C28.4205 37.3334 27.9546 37.802 27.2557 37.802Z" fill="#213549"/>
<path id="XMLID_636_" d="M30.6737 37.802H29.9748C29.3536 37.802 28.8101 37.2553 28.8101 36.6305V36.4743C28.8101 35.8495 29.3536 35.3027 29.9748 35.3027H30.6737C31.2949 35.3027 31.8385 35.8495 31.8385 36.4743V36.6305C31.8385 37.3334 31.3726 37.802 30.6737 37.802Z" fill="#213549"/>
<path id="XMLID_635_" d="M34.0892 37.802H33.3904C32.7692 37.802 32.2256 37.2553 32.2256 36.6305V36.4743C32.2256 35.8495 32.7692 35.3027 33.3904 35.3027H34.0892C34.7105 35.3027 35.254 35.8495 35.254 36.4743V36.6305C35.254 37.3334 34.7881 37.802 34.0892 37.802Z" fill="#213549"/>
<path id="XMLID_634_" d="M37.5834 37.802H36.8845C36.2633 37.802 35.7197 37.2553 35.7197 36.6305V36.4743C35.7197 35.8495 36.2633 35.3027 36.8845 35.3027H37.5834C38.2046 35.3027 38.7482 35.8495 38.7482 36.4743V36.6305C38.7482 37.3334 38.2823 37.802 37.5834 37.802Z" fill="#213549"/>
<path id="XMLID_633_" d="M41.0009 37.802H40.302C39.6808 37.802 39.1372 37.2553 39.1372 36.6305V36.4743C39.1372 35.8495 39.6808 35.3027 40.302 35.3027H41.0009C41.6221 35.3027 42.1656 35.8495 42.1656 36.4743V36.6305C42.1656 37.3334 41.6997 37.802 41.0009 37.802Z" fill="#213549"/>
<path id="XMLID_632_" d="M44.4169 37.802H43.718C43.0968 37.802 42.5532 37.2553 42.5532 36.6305V36.4743C42.5532 35.8495 43.0968 35.3027 43.718 35.3027H44.4169C45.0381 35.3027 45.5817 35.8495 45.5817 36.4743V36.6305C45.5817 37.3334 45.1157 37.802 44.4169 37.802Z" fill="#213549"/>
<path id="XMLID_631_" d="M47.8334 37.802H47.1345C46.5133 37.802 45.9697 37.2553 45.9697 36.6305V36.4743C45.9697 35.8495 46.5133 35.3027 47.1345 35.3027H47.8334C48.4546 35.3027 48.9982 35.8495 48.9982 36.4743V36.6305C49.0758 37.3334 48.5323 37.802 47.8334 37.802Z" fill="#213549"/>
</g>
<path id="XMLID_629_" d="M17.0057 41.0042H16.3069C15.6857 41.0042 15.1421 40.4575 15.1421 39.8326V39.6764C15.1421 39.0516 15.6857 38.5049 16.3069 38.5049H17.0057C17.627 38.5049 18.1705 39.0516 18.1705 39.6764V39.8326C18.1705 40.4575 17.627 41.0042 17.0057 41.0042Z" fill="#213549"/>
<path id="XMLID_627_" d="M20.4227 41.0042H19.7239C19.1026 41.0042 18.5591 40.4575 18.5591 39.8326V39.6764C18.5591 39.0516 19.1026 38.5049 19.7239 38.5049H20.4227C21.044 38.5049 21.5875 39.0516 21.5875 39.6764V39.8326C21.5875 40.4575 21.044 41.0042 20.4227 41.0042Z" fill="#213549"/>
<path id="XMLID_605_" d="M37.506 41.0042H23.1404C22.5192 41.0042 21.9756 40.4575 21.9756 39.8326V39.6764C21.9756 39.0516 22.5192 38.5049 23.1404 38.5049H37.506C38.1273 38.5049 38.6708 39.0516 38.6708 39.6764V39.8326C38.6708 40.4575 38.2049 41.0042 37.506 41.0042Z" fill="#213549"/>
<path id="XMLID_600_" d="M27.2557 41.0042H26.5569C25.9357 41.0042 25.3921 40.4575 25.3921 39.8326V39.6764C25.3921 39.0516 25.9357 38.5049 26.5569 38.5049H27.2557C27.877 38.5049 28.4205 39.0516 28.4205 39.6764V39.8326C28.4205 40.4575 27.9546 41.0042 27.2557 41.0042Z" fill="#213549"/>
<path id="XMLID_599_" d="M30.6727 41.0042H29.9739C29.3526 41.0042 28.8091 40.4575 28.8091 39.8326V39.6764C28.8091 39.0516 29.3526 38.5049 29.9739 38.5049H30.6727C31.294 38.5049 31.8375 39.0516 31.8375 39.6764V39.8326C31.8375 40.4575 31.3716 41.0042 30.6727 41.0042Z" fill="#213549"/>
<path id="XMLID_598_" d="M34.0892 41.0042H33.3904C32.7692 41.0042 32.2256 40.4575 32.2256 39.8326V39.6764C32.2256 39.0516 32.7692 38.5049 33.3904 38.5049H34.0892C34.7105 38.5049 35.254 39.0516 35.254 39.6764V39.8326C35.254 40.4575 34.7881 41.0042 34.0892 41.0042Z" fill="#213549"/>
<path id="XMLID_597_" d="M37.5834 41.0042H36.8845C36.2633 41.0042 35.7197 40.4575 35.7197 39.8326V39.6764C35.7197 39.0516 36.2633 38.5049 36.8845 38.5049H37.5834C38.2046 38.5049 38.7482 39.0516 38.7482 39.6764V39.8326C38.7482 40.4575 38.2823 41.0042 37.5834 41.0042Z" fill="#213549"/>
<path id="XMLID_596_" d="M41.0009 41.0042H40.302C39.6808 41.0042 39.1372 40.4575 39.1372 39.8326V39.6764C39.1372 39.0516 39.6808 38.5049 40.302 38.5049H41.0009C41.6221 38.5049 42.1656 39.0516 42.1656 39.6764V39.8326C42.1656 40.4575 41.6997 41.0042 41.0009 41.0042Z" fill="#213549"/>
<path id="XMLID_595_" d="M44.4169 41.0042H43.718C43.0968 41.0042 42.5532 40.4575 42.5532 39.8326V39.6764C42.5532 39.0516 43.0968 38.5049 43.718 38.5049H44.4169C45.0381 38.5049 45.5817 39.0516 45.5817 39.6764V39.8326C45.5817 40.4575 45.1157 41.0042 44.4169 41.0042Z" fill="#213549"/>
<path id="XMLID_594_" d="M47.8334 41.0042H47.1345C46.5133 41.0042 45.9697 40.4575 45.9697 39.8326V39.6764C45.9697 39.0516 46.5133 38.5049 47.1345 38.5049H47.8334C48.4546 38.5049 48.9982 39.0516 48.9982 39.6764V39.8326C49.0758 40.4575 48.5323 41.0042 47.8334 41.0042Z" fill="#213549"/>
<g id="XMLID_589_">
<path id="XMLID_593_" d="M54.2786 40.9264H53.1915C52.8809 40.9264 52.6479 40.6921 52.6479 40.3797V40.3016C52.6479 39.9892 52.8809 39.7549 53.1915 39.7549H54.2786C54.5893 39.7549 54.8222 39.9892 54.8222 40.3016V40.3797C54.8222 40.6921 54.5893 40.9264 54.2786 40.9264Z" fill="#213549"/>
<path id="XMLID_592_" d="M51.7938 40.9264H50.7066C50.396 40.9264 50.1631 40.6921 50.1631 40.3797V40.3016C50.1631 39.9892 50.396 39.7549 50.7066 39.7549H51.7938C52.1044 39.7549 52.3373 39.9892 52.3373 40.3016V40.3797C52.3373 40.6921 52.1044 40.9264 51.7938 40.9264Z" fill="#213549"/>
<path id="XMLID_591_" d="M56.6854 40.9264H55.5983C55.2876 40.9264 55.0547 40.6921 55.0547 40.3797V40.3016C55.0547 39.9892 55.2876 39.7549 55.5983 39.7549H56.6854C56.996 39.7549 57.229 39.9892 57.229 40.3016V40.3797C57.229 40.6921 56.996 40.9264 56.6854 40.9264Z" fill="#213549"/>
<path id="XMLID_590_" d="M54.2786 39.5983H53.1915C52.8809 39.5983 52.6479 39.364 52.6479 39.0516V38.9735C52.6479 38.6611 52.8809 38.4268 53.1915 38.4268H54.2786C54.5893 38.4268 54.8222 38.6611 54.8222 38.9735V39.0516C54.8222 39.364 54.5893 39.5983 54.2786 39.5983Z" fill="#213549"/>
</g>
<path id="XMLID_588_" d="M56.6864 28.7425H53.3474C52.7262 28.7425 52.1826 28.1957 52.1826 27.5709V27.4147C52.1826 26.7899 52.7262 26.2432 53.3474 26.2432H56.6864C57.3077 26.2432 57.8512 26.7899 57.8512 27.4147V27.5709C57.8512 28.1957 57.3853 28.7425 56.6864 28.7425Z" fill="#213549"/>
<path id="XMLID_587_" d="M63.286 41.0823H60.0246C59.4034 41.0823 58.8599 40.5356 58.8599 39.9108V39.7546C58.8599 39.1297 59.4034 38.583 60.0246 38.583H63.286C63.9073 38.583 64.4508 39.1297 64.4508 39.7546V39.9108C64.5285 40.5356 63.9849 41.0823 63.286 41.0823Z" fill="#213549"/>
<path id="XMLID_586_" d="M56.6865 37.802H50.7849C50.1637 37.802 49.6201 37.2553 49.6201 36.6305V36.4743C49.6201 35.8495 50.1637 35.3027 50.7849 35.3027H56.6865C57.3077 35.3027 57.8513 35.8495 57.8513 36.4743V36.6305C57.8513 37.3334 57.3853 37.802 56.6865 37.802Z" fill="#213549"/>
<path id="XMLID_585_" d="M56.6862 31.7884H54.3567C53.7355 31.7884 53.1919 31.2416 53.1919 30.6168V30.4606C53.1919 29.8358 53.7355 29.2891 54.3567 29.2891H56.6862C57.3075 29.2891 57.851 29.8358 57.851 30.4606V30.6168C57.851 31.3198 57.3851 31.7884 56.6862 31.7884Z" fill="#213549"/>
<path id="XMLID_584_" d="M56.4525 34.9118H56.2972C55.5206 34.9118 54.8218 34.287 54.8218 33.4278V31.7096C54.8218 30.9285 55.443 30.2256 56.2972 30.2256H56.4525C57.229 30.2256 57.9279 30.8504 57.9279 31.7096V33.4278C57.8502 34.2089 57.229 34.9118 56.4525 34.9118Z" fill="#213549"/>
<path id="XMLID_583_" d="M60.2576 28.7425H60.1022C59.5587 28.7425 59.0928 28.2739 59.0928 27.7271V27.3366C59.0928 26.7899 59.5587 26.3213 60.1022 26.3213H60.2576C60.8011 26.3213 61.267 26.7899 61.267 27.3366V27.7271C61.267 28.2739 60.8011 28.7425 60.2576 28.7425Z" fill="#213549"/>
<path id="XMLID_582_" d="M63.5193 28.7425H63.364C62.8204 28.7425 62.3545 28.2739 62.3545 27.7271V27.3366C62.3545 26.7899 62.8204 26.3213 63.364 26.3213H63.5193C64.0628 26.3213 64.5288 26.7899 64.5288 27.3366V27.7271C64.6064 28.2739 64.1405 28.7425 63.5193 28.7425Z" fill="#213549"/>
<path id="XMLID_581_" d="M66.7805 41.0823H66.6252C66.0816 41.0823 65.6157 40.6137 65.6157 40.067V39.5984C65.6157 39.0516 66.0816 38.583 66.6252 38.583H66.7805C67.3241 38.583 67.79 39.0516 67.79 39.5984V39.9889C67.8676 40.6137 67.4017 41.0823 66.7805 41.0823Z" fill="#213549"/>
<path id="XMLID_580_" d="M66.7805 28.7425H66.6252C66.0816 28.7425 65.6157 28.2739 65.6157 27.7271V27.3366C65.6157 26.7899 66.0816 26.3213 66.6252 26.3213H66.7805C67.3241 26.3213 67.79 26.7899 67.79 27.3366V27.7271C67.8676 28.2739 67.4017 28.7425 66.7805 28.7425Z" fill="#213549"/>
<path id="XMLID_579_" d="M69.887 28.7425H69.7316C69.1881 28.7425 68.7222 28.2739 68.7222 27.7271V27.3366C68.7222 26.7899 69.1881 26.3213 69.7316 26.3213H69.887C70.4305 26.3213 70.8964 26.7899 70.8964 27.3366V27.7271C70.8964 28.2739 70.4305 28.7425 69.887 28.7425Z" fill="#213549"/>
<path id="XMLID_578_" d="M60.2576 31.7884H60.1022C59.5587 31.7884 59.0928 31.3198 59.0928 30.773V30.3825C59.0928 29.8358 59.5587 29.3672 60.1022 29.3672H60.2576C60.8011 29.3672 61.267 29.8358 61.267 30.3825V30.773C61.267 31.3198 60.8011 31.7884 60.2576 31.7884Z" fill="#213549"/>
<path id="XMLID_577_" d="M63.5193 31.7884H63.364C62.8204 31.7884 62.3545 31.3198 62.3545 30.773V30.3825C62.3545 29.8358 62.8204 29.3672 63.364 29.3672H63.5193C64.0628 29.3672 64.5288 29.8358 64.5288 30.3825V30.773C64.6064 31.3198 64.1405 31.7884 63.5193 31.7884Z" fill="#213549"/>
<path id="XMLID_576_" d="M66.7805 31.7884H66.6252C66.0816 31.7884 65.6157 31.3198 65.6157 30.773V30.3825C65.6157 29.8358 66.0816 29.3672 66.6252 29.3672H66.7805C67.3241 29.3672 67.79 29.8358 67.79 30.3825V30.773C67.8676 31.3198 67.4017 31.7884 66.7805 31.7884Z" fill="#213549"/>
<path id="XMLID_575_" d="M60.2576 34.9124H60.1022C59.5587 34.9124 59.0928 34.4438 59.0928 33.8971V33.5066C59.0928 32.9598 59.5587 32.4912 60.1022 32.4912H60.2576C60.8011 32.4912 61.267 32.9598 61.267 33.5066V33.8971C61.267 34.4438 60.8011 34.9124 60.2576 34.9124Z" fill="#213549"/>
<path id="XMLID_574_" d="M63.5193 34.9124H63.364C62.8204 34.9124 62.3545 34.4438 62.3545 33.8971V33.5066C62.3545 32.9598 62.8204 32.4912 63.364 32.4912H63.5193C64.0628 32.4912 64.5288 32.9598 64.5288 33.5066V33.8971C64.6064 34.4438 64.1405 34.9124 63.5193 34.9124Z" fill="#213549"/>
<path id="XMLID_573_" d="M66.7805 34.9124H66.6252C66.0816 34.9124 65.6157 34.4438 65.6157 33.8971V33.5066C65.6157 32.9598 66.0816 32.4912 66.6252 32.4912H66.7805C67.3241 32.4912 67.79 32.9598 67.79 33.5066V33.8971C67.8676 34.4438 67.4017 34.9124 66.7805 34.9124Z" fill="#213549"/>
<path id="XMLID_572_" d="M60.2576 37.8021H60.1022C59.5587 37.8021 59.0928 37.3334 59.0928 36.7867V36.3962C59.0928 35.8495 59.5587 35.3809 60.1022 35.3809H60.2576C60.8011 35.3809 61.267 35.8495 61.267 36.3962V36.7867C61.267 37.3334 60.8011 37.8021 60.2576 37.8021Z" fill="#213549"/>
<path id="XMLID_571_" d="M63.5193 37.8021H63.364C62.8204 37.8021 62.3545 37.3334 62.3545 36.7867V36.3962C62.3545 35.8495 62.8204 35.3809 63.364 35.3809H63.5193C64.0628 35.3809 64.5288 35.8495 64.5288 36.3962V36.7867C64.6064 37.3334 64.1405 37.8021 63.5193 37.8021Z" fill="#213549"/>
<path id="XMLID_570_" d="M66.7805 37.8021H66.6252C66.0816 37.8021 65.6157 37.3334 65.6157 36.7867V36.3962C65.6157 35.8495 66.0816 35.3809 66.6252 35.3809H66.7805C67.3241 35.3809 67.79 35.8495 67.79 36.3962V36.7867C67.8676 37.3334 67.4017 37.8021 66.7805 37.8021Z" fill="#213549"/>
<path id="XMLID_569_" d="M69.887 34.9125H69.7316C69.1881 34.9125 68.7222 34.4439 68.7222 33.8972V30.3825C68.7222 29.8358 69.1881 29.3672 69.7316 29.3672H69.887C70.4305 29.3672 70.8964 29.8358 70.8964 30.3825V33.8972C70.8964 34.4439 70.4305 34.9125 69.887 34.9125Z" fill="#213549"/>
<path id="XMLID_565_" d="M69.887 40.9262H69.7316C69.1881 40.9262 68.7222 40.4576 68.7222 39.9109V36.3962C68.7222 35.8495 69.1881 35.3809 69.7316 35.3809H69.887C70.4305 35.3809 70.8964 35.8495 70.8964 36.3962V39.9109C70.8964 40.4576 70.4305 40.9262 69.887 40.9262Z" fill="#213549"/>
<path id="XMLID_563_" d="M18.87 25.4615H17.9381C17.5499 25.4615 17.2393 25.1491 17.2393 24.7586V24.6805C17.2393 24.29 17.5499 23.9775 17.9381 23.9775H18.87C19.2582 23.9775 19.5688 24.29 19.5688 24.6805V24.7586C19.6465 25.1491 19.2582 25.4615 18.87 25.4615Z" fill="#213549"/>
<path id="XMLID_562_" d="M21.6644 25.4615H20.7326C20.3443 25.4615 20.0337 25.1491 20.0337 24.7586V24.6805C20.0337 24.29 20.3443 23.9775 20.7326 23.9775H21.6644C22.0526 23.9775 22.3633 24.29 22.3633 24.6805V24.7586C22.3633 25.1491 22.0526 25.4615 21.6644 25.4615Z" fill="#213549"/>
<path id="XMLID_561_" d="M24.4603 25.4615H23.5285C23.1402 25.4615 22.8296 25.1491 22.8296 24.7586V24.6805C22.8296 24.29 23.1402 23.9775 23.5285 23.9775H24.4603C24.8486 23.9775 25.1592 24.29 25.1592 24.6805V24.7586C25.1592 25.1491 24.8486 25.4615 24.4603 25.4615Z" fill="#213549"/>
<path id="XMLID_560_" d="M27.179 25.4615H26.2472C25.859 25.4615 25.5483 25.1491 25.5483 24.7586V24.6805C25.5483 24.29 25.859 23.9775 26.2472 23.9775H27.179C27.5673 23.9775 27.8779 24.29 27.8779 24.6805V24.7586C27.8779 25.1491 27.5673 25.4615 27.179 25.4615Z" fill="#213549"/>
<path id="XMLID_559_" d="M29.9735 25.4615H29.0416C28.6534 25.4615 28.3428 25.1491 28.3428 24.7586V24.6805C28.3428 24.29 28.6534 23.9775 29.0416 23.9775H29.9735C30.3617 23.9775 30.6723 24.29 30.6723 24.6805V24.7586C30.6723 25.1491 30.3617 25.4615 29.9735 25.4615Z" fill="#213549"/>
<path id="XMLID_558_" d="M32.6917 25.4615H31.7599C31.3716 25.4615 31.061 25.1491 31.061 24.7586V24.6805C31.061 24.29 31.3716 23.9775 31.7599 23.9775H32.6917C33.08 23.9775 33.3906 24.29 33.3906 24.6805V24.7586C33.4683 25.1491 33.1576 25.4615 32.6917 25.4615Z" fill="#213549"/>
<path id="XMLID_557_" d="M35.4095 25.4615H34.4777C34.0894 25.4615 33.7788 25.1491 33.7788 24.7586V24.6805C33.7788 24.29 34.0894 23.9775 34.4777 23.9775H35.4095C35.7978 23.9775 36.1084 24.29 36.1084 24.6805V24.7586C36.1084 25.1491 35.7978 25.4615 35.4095 25.4615Z" fill="#213549"/>
<path id="XMLID_556_" d="M38.2049 25.4615H37.2731C36.8848 25.4615 36.5742 25.1491 36.5742 24.7586V24.6805C36.5742 24.29 36.8848 23.9775 37.2731 23.9775H38.2049C38.5932 23.9775 38.9038 24.29 38.9038 24.6805V24.7586C38.9038 25.1491 38.5932 25.4615 38.2049 25.4615Z" fill="#213549"/>
<path id="XMLID_555_" d="M41.0008 25.4615H40.069C39.6807 25.4615 39.3701 25.1491 39.3701 24.7586V24.6805C39.3701 24.29 39.6807 23.9775 40.069 23.9775H41.0008C41.3891 23.9775 41.6997 24.29 41.6997 24.6805V24.7586C41.6997 25.1491 41.3891 25.4615 41.0008 25.4615Z" fill="#213549"/>
<path id="XMLID_554_" d="M43.7962 25.4615H42.8644C42.4761 25.4615 42.1655 25.1491 42.1655 24.7586V24.6805C42.1655 24.29 42.4761 23.9775 42.8644 23.9775H43.7962C44.1845 23.9775 44.4951 24.29 44.4951 24.6805V24.7586C44.4951 25.1491 44.1845 25.4615 43.7962 25.4615Z" fill="#213549"/>
<path id="XMLID_553_" d="M46.5135 25.4615H45.5817C45.1934 25.4615 44.8828 25.1491 44.8828 24.7586V24.6805C44.8828 24.29 45.1934 23.9775 45.5817 23.9775H46.5135C46.9018 23.9775 47.2124 24.29 47.2124 24.6805V24.7586C47.2124 25.1491 46.9018 25.4615 46.5135 25.4615Z" fill="#213549"/>
<path id="XMLID_552_" d="M49.2313 25.4615H48.2995C47.9112 25.4615 47.6006 25.1491 47.6006 24.7586V24.6805C47.6006 24.29 47.9112 23.9775 48.2995 23.9775H49.2313C49.6195 23.9775 49.9302 24.29 49.9302 24.6805V24.7586C49.9302 25.1491 49.6195 25.4615 49.2313 25.4615Z" fill="#213549"/>
<path id="XMLID_551_" d="M52.0277 25.4615H51.0958C50.7076 25.4615 50.397 25.1491 50.397 24.7586V24.6805C50.397 24.29 50.7076 23.9775 51.0958 23.9775H52.0277C52.4159 23.9775 52.7265 24.29 52.7265 24.6805V24.7586C52.7265 25.1491 52.4159 25.4615 52.0277 25.4615Z" fill="#213549"/>
<path id="XMLID_550_" d="M54.745 25.4615H53.8131C53.4249 25.4615 53.1143 25.1491 53.1143 24.7586V24.6805C53.1143 24.29 53.4249 23.9775 53.8131 23.9775H54.745C55.1332 23.9775 55.4438 24.29 55.4438 24.6805V24.7586C55.4438 25.1491 55.1332 25.4615 54.745 25.4615Z" fill="#213549"/>
<path id="XMLID_549_" d="M57.1521 25.4615H56.5309C56.1426 25.4615 55.832 25.1491 55.832 24.7586V24.6805C55.832 24.29 56.1426 23.9775 56.5309 23.9775H57.1521C57.5404 23.9775 57.851 24.29 57.851 24.6805V24.7586C57.851 25.1491 57.5404 25.4615 57.1521 25.4615Z" fill="#213549"/>
<path id="XMLID_548_" d="M60.5682 25.4615H59.7916C59.4034 25.4615 59.0928 25.1491 59.0928 24.7586V24.6805C59.0928 24.29 59.4034 23.9775 59.7916 23.9775H60.5682C60.9564 23.9775 61.267 24.29 61.267 24.6805V24.7586C61.267 25.1491 60.9564 25.4615 60.5682 25.4615Z" fill="#213549"/>
<path id="XMLID_547_" d="M63.8299 25.4615H63.0534C62.6651 25.4615 62.3545 25.1491 62.3545 24.7586V24.6805C62.3545 24.29 62.6651 23.9775 63.0534 23.9775H63.8299C64.2181 23.9775 64.5288 24.29 64.5288 24.6805V24.7586C64.6064 25.1491 64.2181 25.4615 63.8299 25.4615Z" fill="#213549"/>
<path id="XMLID_546_" d="M67.1687 25.4615H66.3922C66.004 25.4615 65.6934 25.1491 65.6934 24.7586V24.6805C65.6934 24.29 66.004 23.9775 66.3922 23.9775H67.1687C67.557 23.9775 67.8676 24.29 67.8676 24.6805V24.7586C67.8676 25.1491 67.557 25.4615 67.1687 25.4615Z" fill="#213549"/>
<path id="XMLID_545_" d="M70.1976 25.4615H69.421C69.0328 25.4615 68.7222 25.1491 68.7222 24.7586V24.6805C68.7222 24.29 69.0328 23.9775 69.421 23.9775H70.1976C70.5858 23.9775 70.8964 24.29 70.8964 24.6805V24.7586C70.8964 25.1491 70.5858 25.4615 70.1976 25.4615Z" fill="#213549"/>
<path id="XMLID_544_" d="M43.8737 50.2207H34.3224C32.4588 50.2207 30.9834 48.7367 30.9834 46.8622V46.4717C30.9834 44.5972 32.4588 43.1133 34.3224 43.1133H43.8737C45.7373 43.1133 47.2127 44.5972 47.2127 46.4717V46.8622C47.2127 48.7367 45.7373 50.2207 43.8737 50.2207Z" fill="#B4B4B5"/>
<path id="XMLID_543_" d="M64.0629 21.557C64.0629 22.1818 63.597 22.6504 62.9758 22.6504C62.3546 22.6504 61.8887 22.1818 61.8887 21.557C61.8887 20.9321 62.3546 20.4635 62.9758 20.4635C63.597 20.3854 64.0629 20.9321 64.0629 21.557Z" fill="#213549"/>
<path id="XMLID_540_" d="M38.361 2.10922C38.361 2.42164 38.2057 2.65595 37.9727 2.65595C37.7398 2.65595 37.5845 2.42164 37.5845 2.10922C37.5845 1.79681 37.7398 1.5625 37.9727 1.5625C38.2057 1.5625 38.361 1.79681 38.361 2.10922Z" fill="#213549"/>
<path id="XMLID_535_" d="M38.0498 2.10838C38.0498 2.18648 38.0498 2.18648 37.9722 2.18648C37.8945 2.18648 37.8945 2.10838 37.8945 2.10838C37.8945 2.03027 37.8945 2.03027 37.9722 2.03027C38.0498 2.03027 38.0498 2.03027 38.0498 2.10838Z" fill="#788996"/>
<path id="XMLID_325_" d="M66.1595 8.20126H9.78395L8.46387 4.99902H67.5572L66.1595 8.20126Z" fill="#F99F10"/>
<path id="XMLID_321_" d="M63.9853 13.5115H40.0684V9.29392L66.3148 9.21582L63.9853 13.5115Z" fill="#E0E0E0"/>
<g id="XMLID_320_">
<path id="XMLID_1164_" d="M38.05 11.559H10.9494L10.0952 9.68457H38.05V11.559Z" fill="#FED054"/>
<path id="XMLID_1163_" d="M37.8169 14.2925H11.881L11.0269 12.4961H37.8169V14.2925Z" fill="#FED054"/>
</g>
</g>
<g id="Group_3">
<g id="Group_4">
<g id="Group_5">
<path id="XMLID_73_" d="M52.7257 59.0458L45.4264 49.2048C44.8828 48.4238 43.718 48.2676 42.9415 48.8924C42.165 49.4391 42.0097 50.6107 42.6309 51.3917L47.8336 58.3429C48.9984 59.905 51.1726 60.2174 52.7257 59.0458Z" fill="#F4C496"/>
<g id="XMLID_67_">
<path id="XMLID_72_" d="M53.0364 59.9057H53.7352C57.0743 59.9057 59.7921 57.1721 59.7921 53.8137V47.4092H46.9795V53.8918C46.9795 57.1721 49.6973 59.9057 53.0364 59.9057Z" fill="#F4C496"/>
<path id="XMLID_71_" d="M56.8418 51.9387H59.7149V40.067C59.7149 39.286 59.0937 38.7393 58.3948 38.7393H58.2395C57.463 38.7393 56.9194 39.3641 56.9194 40.067V51.9387H56.8418Z" fill="#F4C496"/>
<path id="XMLID_70_" d="M53.5801 49.6741H56.4532V37.8805C56.4532 37.0994 55.832 36.4746 55.0555 36.4746C54.2789 36.4746 53.6577 37.0994 53.6577 37.8805V49.6741H53.5801Z" fill="#F4C496"/>
<path id="XMLID_69_" d="M46.9795 49.6743H49.8526V38.5055C49.8526 37.7244 49.2314 37.0996 48.4549 37.0996C47.6784 37.0996 47.0571 37.7244 47.0571 38.5055V49.6743H46.9795Z" fill="#F4C496"/>
<path id="XMLID_68_" d="M50.2412 49.6739H53.1143V37.0992C53.1143 36.3182 52.4931 35.6934 51.7166 35.6934C50.9401 35.6934 50.3189 36.3182 50.3189 37.0992V49.6739H50.2412Z" fill="#F4C496"/>
</g>
</g>
<g id="Group_6">
<path id="XMLID_75_" d="M58.6274 59.9834H46.8242V64.2791H58.6274V59.9834Z" fill="#70DECB"/>
<path id="XMLID_74_" d="M53.0364 59.9834H46.8242V64.2791H53.0364V59.9834Z" fill="#64C0B6"/>
<path id="XMLID_66_" d="M56.0649 62.1707C56.0649 62.5612 56.3756 62.8736 56.7638 62.8736C57.1521 62.8736 57.4627 62.5612 57.4627 62.1707C57.4627 61.7802 57.1521 61.4678 56.7638 61.4678C56.3756 61.4678 56.0649 61.7802 56.0649 62.1707Z" fill="#EFEFEF"/>
<path id="XMLID_65_" d="M47.9551 85H57.4287V64.2245H47.9551V85Z" fill="#70DECB"/>
<path id="XMLID_64_" d="M47.9028 60.0264H57.6094V58.8548H47.9028V60.0264Z" fill="#FFFEF6"/>
</g>
</g>
<g id="Group_7">
<g id="Group_8">
<path id="XMLID_85_" d="M27.2549 50.6884L34.5542 40.8474C35.0978 40.0663 36.2625 39.9101 37.0391 40.535C37.8156 41.0817 37.9709 42.2532 37.3497 43.0343L32.147 49.9855C31.0598 51.5475 28.8079 51.86 27.2549 50.6884Z" fill="#F4C496"/>
<g id="XMLID_79_">
<path id="XMLID_84_" d="M27.0214 51.5483H26.3225C22.9835 51.5483 20.2656 48.8147 20.2656 45.4562V38.9736H33.0782V45.4562C33.0006 48.8147 30.3604 51.5483 27.0214 51.5483Z" fill="#F4C496"/>
<path id="XMLID_83_" d="M23.1388 43.5032H20.2656V31.6315C20.2656 30.8504 20.8868 30.3037 21.5857 30.3037H21.741C22.5175 30.3037 23.0611 30.9285 23.0611 31.6315V43.5032H23.1388Z" fill="#F4C496"/>
<path id="XMLID_82_" d="M26.4005 41.3167H23.5273V29.523C23.5273 28.742 24.1486 28.1172 24.9251 28.1172C25.7016 28.1172 26.3228 28.742 26.3228 29.523V41.3167H26.4005Z" fill="#F4C496"/>
<path id="XMLID_81_" d="M33.0011 41.3168H30.1279V30.0699C30.1279 29.2889 30.7491 28.6641 31.5257 28.6641C32.3022 28.6641 32.9234 29.2889 32.9234 30.0699V41.3168H33.0011Z" fill="#F4C496"/>
<path id="XMLID_80_" d="M29.7393 41.3164H26.8662V28.6637C26.8662 27.8826 27.4874 27.2578 28.264 27.2578C29.0405 27.2578 29.6617 27.8826 29.6617 28.6637V41.3164H29.7393Z" fill="#F4C496"/>
</g>
</g>
<g id="Group_9">
<path id="XMLID_78_" d="M33.1571 51.626H21.354V55.9217H33.1571V51.626Z" fill="#70DECB"/>
<path id="XMLID_77_" d="M33.1575 51.626H26.9453V55.9217H33.1575V51.626Z" fill="#64C0B6"/>
<path id="XMLID_76_" d="M23.9173 53.7342C23.9173 54.1247 23.6067 54.4371 23.2184 54.4371C22.8301 54.4371 22.5195 54.1247 22.5195 53.7342C22.5195 53.3437 22.8301 53.0312 23.2184 53.0312C23.6067 53.0313 23.9173 53.3437 23.9173 53.7342Z" fill="#EFEFEF"/>
<path id="XMLID_10_" d="M31.9931 55.8428H22.5195V84.9753H31.9931V55.8428Z" fill="#70DECB"/>
<path id="XMLID_9_" d="M32.1484 50.376H22.4419V51.5475H32.1484V50.376Z" fill="#FFFEF6"/>
</g>
</g>
</g>
</g>
</g>
</svg>
