<svg width="66" height="75" viewBox="0 0 66 75" fill="none" xmlns="http://www.w3.org/2000/svg">
<g id="Frame 35">
<g id="Group">
<g id="Group_2">
<path id="Vector" d="M39.0108 32.4346C39.0108 33.5413 38.1594 34.3926 37.0525 34.3926H16.9592C15.8524 34.3926 15.001 33.5413 15.001 32.4346V2.04296C15.001 0.936267 15.8524 0.0849609 16.9592 0.0849609H36.9674C38.0742 0.0849609 38.9257 0.936267 38.9257 2.04296V32.4346H39.0108Z" fill="#213549"/>
<path id="Vector_2" d="M36.1145 0H30.8364V34.3927H36.1145V0Z" fill="#FED054"/>
</g>
<g id="Group_3">
<g id="Group_4">
<g id="Group_5">
<g id="Group_6">
<path id="Vector_3" d="M40.3446 2.65056L30.9966 50.0908L56.6409 55.1427L65.9889 7.70248L40.3446 2.65056Z" fill="#64C0B6"/>
<path id="Vector_4" d="M41.8542 5.11864L33.3291 48.3828L55.2145 52.6942L63.7396 9.43004L41.8542 5.11864Z" fill="#70DECB"/>
<path id="Vector_5" d="M32.4528 42.5654L31.0054 50.142L38.5829 51.5893C39.3492 47.4179 36.6247 43.4167 32.4528 42.5654Z" fill="#64C0B6"/>
<path id="Vector_6" d="M38.8389 10.3011L40.2863 2.80957L47.8638 4.25679C47.0124 8.42819 43.0108 11.1524 38.8389 10.3011Z" fill="#64C0B6"/>
<path id="Vector_7" d="M64.5507 15.4086L65.9981 7.83199L58.4205 6.38477C57.6542 10.5562 60.3787 14.5573 64.5507 15.4086Z" fill="#64C0B6"/>
<path id="Vector_8" d="M58.1661 47.588L56.7187 55.1646L49.1411 53.7174C49.9925 49.546 53.9942 46.8218 58.1661 47.588Z" fill="#64C0B6"/>
</g>
<path id="Vector_9" d="M50.4185 19.4093C57.4852 20.7713 62.4234 26.2197 61.4017 31.4127C60.38 36.6908 53.8241 39.7555 46.6723 38.3934C39.6056 37.0313 34.6674 31.5829 35.6891 26.39C36.7107 21.197 43.2666 18.0472 50.4185 19.4093Z" fill="#64C0B6"/>
</g>
</g>
<path id="Vector_10" opacity="0.96" d="M31.0068 50.0568L65.9999 7.83203L56.7195 55.1646L31.0068 50.0568Z" fill="#EBEADE"/>
</g>
<g id="Group_7">
<path id="Vector_11" d="M34.8384 35.5843C35.2641 36.6059 34.8384 37.7977 33.9018 38.2234L15.7668 46.7364C14.7451 47.2472 13.5531 46.7364 13.1274 45.8L0.185914 18.3028C-0.239793 17.2813 0.185912 16.0894 1.12247 15.6638L19.2575 7.15074C20.2792 6.72508 21.4712 7.15074 21.8969 8.08717L34.8384 35.5843Z" fill="#F26E25"/>
<path id="Vector_12" opacity="0.96" d="M0.185451 18.3028L13.1269 45.7999C13.5526 46.8215 14.7446 47.2472 15.7663 46.7364L33.9014 38.2233C34.4974 37.9679 34.8379 37.4571 35.0082 36.8612L0.86658 15.834C0.100309 16.3448 -0.240255 17.4515 0.185451 18.3028Z" fill="#EBEADE"/>
<path id="Vector_13" d="M18.3428 7.58351L13.5645 9.82617L28.1798 40.9585L32.9581 38.7158L18.3428 7.58351Z" fill="#004346"/>
</g>
<g id="Group_8">
<g id="Group_9">
<path id="Vector_14" d="M63.1934 73.0423C63.1934 74.149 62.342 75.0003 61.2351 75.0003H8.87329C7.76645 75.0003 6.91504 74.149 6.91504 73.0423V32.1797C6.91504 31.073 7.76645 30.2217 8.87329 30.2217H61.2351C62.342 30.2217 63.1934 31.073 63.1934 32.1797V73.0423Z" fill="#C13A2B"/>
<path id="Vector_15" d="M61.4043 73.0423C61.4043 74.149 60.5529 75.0003 59.4461 75.0003H7.08422C5.97739 75.0003 5.12598 74.149 5.12598 73.0423V32.1797C5.12598 31.073 5.97739 30.2217 7.08422 30.2217H59.4461C60.5529 30.2217 61.4043 31.073 61.4043 32.1797V73.0423Z" fill="#F26E25"/>
<path id="Vector_16" opacity="0.3" d="M6.9143 30.1367C5.80747 30.1367 4.95605 30.988 4.95605 32.0947V72.9574C4.95605 74.0641 5.80747 74.9154 6.9143 74.9154H33.3932V30.1367H6.9143Z" fill="#541218"/>
<path id="Vector_17" d="M65.151 57.2079C65.151 58.3146 64.3847 59.1659 63.4482 59.1659H44.8874C43.9508 59.1659 43.1846 58.3146 43.1846 57.2079V47.9287C43.1846 46.822 43.9508 45.9707 44.8874 45.9707H63.4482C64.3847 45.9707 65.151 46.822 65.151 47.9287V57.2079Z" fill="#DA6426"/>
</g>
<g id="Group_10">
<path id="Vector_18" d="M54.2523 52.4409C54.2523 54.484 52.6346 56.1015 50.5912 56.1015C48.5479 56.1015 46.9302 54.484 46.9302 52.4409C46.9302 50.3978 48.5479 48.7803 50.5912 48.7803C52.6346 48.7803 54.2523 50.3978 54.2523 52.4409Z" fill="#FED054"/>
<g id="Group_11">
<g id="Clip path group">
<mask id="mask0_483_27165" style="mask-type:luminance" maskUnits="userSpaceOnUse" x="46" y="48" width="9" height="9">
<g id="SVGID_00000181056385231586370610000004225459806383307959_">
<path id="Vector_19" d="M54.2523 52.4409C54.2523 54.484 52.6346 56.1015 50.5912 56.1015C48.5479 56.1015 46.9302 54.484 46.9302 52.4409C46.9302 50.3978 48.5479 48.7803 50.5912 48.7803C52.6346 48.7803 54.2523 50.3978 54.2523 52.4409Z" fill="white"/>
</g>
</mask>
<g mask="url(#mask0_483_27165)">
<g id="Group_12">
<path id="Vector_20" d="M53.0799 46.6522L44.23 55.501L46.2167 57.4874L55.0666 48.6387L53.0799 46.6522Z" fill="#F99F10"/>
<path id="Vector_21" d="M55.5267 49.117L46.6768 57.9658L47.339 58.628L56.1889 49.7792L55.5267 49.117Z" fill="#F99F10"/>
</g>
</g>
</g>
</g>
</g>
</g>
</g>
</g>
</svg>
