<svg width="92" height="75" viewBox="0 0 92 75" fill="none" xmlns="http://www.w3.org/2000/svg">
<g id="Frame 37">
<g id="Group">
<g id="Group_2">
<g id="Group_3">
<path id="Vector" d="M56.8225 21.2211L28.5801 37.6583L0.0839844 21.2211L28.411 4.86816L56.8225 21.2211Z" fill="#FFB850"/>
</g>
<g id="Group_4">
<path id="Vector_2" d="M56.8211 21.2207L56.7366 50.3019L28.4941 66.6548L28.5787 37.6579L56.8211 21.2207Z" fill="#E17608"/>
</g>
<g id="Group_5">
<path id="Vector_3" d="M28.5807 37.6579L28.4961 66.6548L0 50.3019L0.0845585 21.2207L28.5807 37.6579Z" fill="#FFCE7B"/>
</g>
<g id="Group_6">
<path id="Vector_4" d="M33.4884 19.1978L43.0434 13.2973L38.1391 10.5156L28.584 16.2476L33.4884 19.1978Z" fill="#FFDD87"/>
<path id="Vector_5" d="M33.4861 19.1981L28.5817 16.2479L18.7729 10.4316L13.9531 13.2133L23.5928 19.1981L28.5817 22.1484L41.6036 30.072L46.7617 27.0374L33.4861 19.1981Z" fill="#FFEED0"/>
<path id="Vector_6" d="M23.5926 19.1982L10.2324 27.1218L15.475 30.1564L28.5815 22.1485L23.5926 19.1982Z" fill="#FFDD87"/>
<path id="Vector_7" d="M46.7596 27.0371L41.6016 30.0717V30.156L41.6861 58.9843L46.9287 55.9497L46.8442 27.1214L46.7596 27.0371Z" fill="#FFB850"/>
<path id="Vector_8" d="M15.4756 30.1566L10.233 27.1221L10.1484 56.119L15.391 59.1535L15.4756 30.1566Z" fill="#FFEED0"/>
</g>
<path id="Vector_9" d="M28.5812 27.7959L22.6621 31.4205L28.5812 34.8765L34.4157 31.4205L28.5812 27.7959Z" fill="#FFEED0"/>
</g>
<g id="Group_7">
<g id="Group_8">
<path id="Vector_10" d="M57.5841 21.6423C57.9223 21.6423 58.0914 21.3894 58.0914 21.1365V11.3585C58.0914 7.39674 60.2054 3.77213 63.6723 1.74909L64.0951 1.49621C65.0252 0.990447 66.1245 0.990447 67.0546 1.49621C67.9848 2.00197 68.5767 3.01349 68.5767 4.02501V14.3931C68.5767 14.7303 68.8303 14.8988 69.084 14.8988C69.4222 14.8988 69.5914 14.646 69.5914 14.3931V4.1093C69.5914 2.67631 68.8303 1.32762 67.562 0.56898C66.2936 -0.18966 64.7715 -0.18966 63.5032 0.56898L63.0804 0.821859C59.3598 3.01349 56.9922 6.97527 56.9922 11.3585V21.1365C57.0767 21.3894 57.3304 21.6423 57.5841 21.6423Z" fill="#BD4E5A"/>
</g>
<g id="Group_9">
<path id="Vector_11" d="M80.1631 6.63818L88.8726 9.08269L76.2734 16.3319L77.3727 2.50781L80.1631 6.63818Z" fill="#D46C67"/>
<path id="Vector_12" d="M77.3725 2.50781L76.2732 16.3319L58.9388 26.2785L55.4719 20.8838L47.5234 19.7036L77.3725 2.50781Z" fill="#BD4E5A"/>
</g>
<path id="Vector_13" d="M88.8711 9.08301L91.9997 57.8046L62.0661 75.0004L58.9375 26.2788L88.8711 9.08301Z" fill="#F68D6C"/>
<path id="Vector_14" d="M47.5215 19.7031L55.4699 20.8832L58.9368 26.278L62.0655 74.9995L44.6465 64.8001L47.5215 19.7031Z" fill="#D46C67"/>
<g id="Group_10">
<path id="Vector_15" d="M68.5763 28.6384C68.9145 28.6384 69.0836 28.3855 69.0836 28.1326V18.3546C69.0836 14.3928 71.1976 10.7682 74.6645 8.74518L75.0873 8.4923C76.0174 7.98654 77.1167 7.98654 78.0468 8.4923C78.9769 8.99806 79.5688 10.0096 79.5688 11.0211V21.5578C79.5688 21.8949 79.8225 22.0635 80.0762 22.0635C80.4144 22.0635 80.5835 21.8106 80.5835 21.5578V11.1054C80.5835 9.6724 79.8225 8.32371 78.5541 7.56507C77.2858 6.80643 75.7637 6.80643 74.4954 7.56507L74.0726 7.81795C70.352 10.0096 67.9844 13.9714 67.9844 18.3546V28.1326C67.9844 28.3855 68.238 28.6384 68.5763 28.6384Z" fill="#FFCE7B"/>
</g>
</g>
</g>
</g>
</svg>
