<svg width="96" height="80" viewBox="0 0 96 80" fill="none" xmlns="http://www.w3.org/2000/svg">
<g id="&#208;&#180;&#208;&#181;&#208;&#186;&#208;&#187;&#208;&#176;&#209;&#128;&#208;&#176;&#209;&#134;&#209;&#150;&#209;&#143; 1" clip-path="url(#clip0_478_25405)">
<g id="Group">
<g id="Group_2">
<path id="Vector" d="M76.7002 18.2996C78.3002 12.6996 80.8002 6.39961 85.6002 2.59961C86.6002 1.79961 87.9002 0.899609 88.7002 0.0996094C86.5002 0.199609 83.9002 0.399609 81.6002 0.499609C76.2002 0.799609 53.7002 2.19961 47.8002 2.59961C44.0002 2.79961 40.2002 2.99961 36.4002 3.19961C32.0002 3.49961 28.4002 8.39961 26.4002 11.8996C24.2002 15.8996 22.9002 20.3996 22.1002 24.7996C20.9002 30.8996 19.6002 60.2996 19.3002 62.9996C18.8002 67.7996 16.9002 75.4996 10.7002 75.5996C13.2002 75.5996 59.4002 75.8996 63.0002 75.8996C67.2002 75.8996 69.7002 72.5996 71.1002 68.9996C72.8002 64.5996 73.3002 45.5996 73.5002 40.6996C73.7002 35.8996 76.0002 20.7996 76.7002 18.2996Z" fill="url(#paint0_radial_478_25405)"/>
<path id="Vector_2" d="M76.7002 18.2996C78.3002 12.6996 80.8002 6.39961 85.6002 2.59961C86.6002 1.79961 87.9002 0.899609 88.7002 0.0996094C86.5002 0.199609 83.9002 0.399609 81.6002 0.499609C76.2002 0.799609 53.7002 2.19961 47.8002 2.59961C44.0002 2.79961 40.2002 2.99961 36.4002 3.19961C32.0002 3.49961 28.4002 8.39961 26.4002 11.8996C24.2002 15.8996 22.9002 20.3996 22.1002 24.7996C20.9002 30.8996 19.6002 60.2996 19.3002 62.9996C18.8002 67.7996 16.9002 75.4996 10.7002 75.5996C13.2002 75.5996 59.4002 75.8996 63.0002 75.8996C67.2002 75.8996 69.7002 72.5996 71.1002 68.9996C72.8002 64.5996 73.3002 45.5996 73.5002 40.6996C73.7002 35.8996 76.0002 20.7996 76.7002 18.2996Z" fill="url(#paint1_linear_478_25405)"/>
<path id="Vector_3" d="M61.8 79.3999C59.4 78.8999 57.8 77.3999 56.5 75.3999C55.5 73.8999 54.7 72.2999 54.4 70.4999C54.1 68.6999 54.5 67.3999 56.2 66.3999C54.5 66.3999 4.6 66.7999 3.9 66.7999C2.4 66.7999 1.6 68.3999 1.5 69.6999C1.5 71.0999 1.9 72.3999 2.4 73.5999C3.1 75.3999 4.3 76.9999 5.8 78.1999C7.2 79.1999 8.9 79.7999 10.7 79.7999C10.7 79.7999 63.3 79.8999 63.4 79.8999C62.7 79.7999 62.3 79.4999 61.8 79.3999Z" fill="url(#paint2_linear_478_25405)"/>
<path id="Vector_4" d="M90.8002 1.3998C90.4002 0.399803 89.2002 -0.300197 88.1002 0.0998026C86.2002 0.999803 84.4002 2.3998 82.9002 4.1998C79.5002 8.3998 77.4002 13.7998 76.0002 18.9998C74.8002 23.5998 74.1002 28.3998 73.6002 33.0998C73.3002 36.4998 73.1002 39.9998 73.0002 43.4998C72.8002 48.3998 72.7002 53.1998 72.5002 58.0998C72.3002 61.7998 72.0002 65.8998 70.5002 69.3998C68.8002 73.4998 62.4002 79.1998 59.1002 72.9998C58.3002 71.3998 58.3002 69.5998 57.7002 67.8998C57.5002 67.3998 57.2002 66.7998 56.7002 66.5998C55.3002 65.9998 54.0002 67.5998 53.8002 68.7998C53.4002 71.5998 55.0002 75.0998 56.8002 77.1998C58.0002 78.5998 59.8002 79.6998 61.7002 79.9998C63.3002 80.2998 65.1002 80.0998 66.6002 79.4998C70.1002 78.0998 72.6002 74.9998 74.1002 71.5998C75.3002 68.8998 75.9002 65.8998 76.2002 62.8998C77.0002 56.4998 77.0002 49.9998 77.2002 43.6998C77.3002 40.2998 77.5002 36.8998 77.8002 33.5998C78.2002 29.1998 78.8002 24.7998 79.8002 20.5998C80.8002 16.1998 82.4002 11.3998 85.3002 7.8998C86.6002 6.2998 88.1002 5.0998 89.9002 4.2998C91.0002 3.6998 91.2002 2.3998 90.8002 1.3998Z" fill="url(#paint3_linear_478_25405)"/>
<path id="Vector_5" d="M47.3002 16.7999C45.9002 16.7999 44.8002 15.6999 44.7002 14.2999C44.7002 12.8999 45.8002 11.6999 47.2002 11.6999L63.5002 11.3999C64.9002 11.3999 66.1002 12.4999 66.1002 13.8999C66.1002 15.2999 65.0002 16.4999 63.6002 16.4999L47.3002 16.7999Z" fill="url(#paint4_linear_478_25405)"/>
<path id="Vector_6" d="M38.1001 17.5996C40.0331 17.5996 41.6001 16.0326 41.6001 14.0996C41.6001 12.1666 40.0331 10.5996 38.1001 10.5996C36.1671 10.5996 34.6001 12.1666 34.6001 14.0996C34.6001 16.0326 36.1671 17.5996 38.1001 17.5996Z" fill="url(#paint5_radial_478_25405)"/>
<path id="Vector_7" d="M34.2998 29.5996C36.2328 29.5996 37.7998 28.0326 37.7998 26.0996C37.7998 24.1666 36.2328 22.5996 34.2998 22.5996C32.3668 22.5996 30.7998 24.1666 30.7998 26.0996C30.7998 28.0326 32.3668 29.5996 34.2998 29.5996Z" fill="url(#paint6_radial_478_25405)"/>
<path id="Vector_8" d="M32.8999 41.5996C34.8329 41.5996 36.3999 40.0326 36.3999 38.0996C36.3999 36.1666 34.8329 34.5996 32.8999 34.5996C30.9669 34.5996 29.3999 36.1666 29.3999 38.0996C29.3999 40.0326 30.9669 41.5996 32.8999 41.5996Z" fill="url(#paint7_radial_478_25405)"/>
<path id="Vector_9" d="M32.5 53.5C34.433 53.5 36 51.933 36 50C36 48.067 34.433 46.5 32.5 46.5C30.567 46.5 29 48.067 29 50C29 51.933 30.567 53.5 32.5 53.5Z" fill="url(#paint8_radial_478_25405)"/>
<path id="Vector_10" d="M43.4999 28.7999C42.0999 28.7999 40.9999 27.6999 40.8999 26.2999C40.8999 24.8999 41.9999 23.6999 43.3999 23.6999L59.6999 23.3999C61.0999 23.3999 62.2999 24.4999 62.2999 25.8999C62.2999 27.2999 61.1999 28.4999 59.7999 28.4999L43.4999 28.7999C43.5999 28.7999 43.5999 28.7999 43.4999 28.7999Z" fill="url(#paint9_linear_478_25405)"/>
<path id="Vector_11" d="M42.1 40.7999C40.7 40.7999 39.6 39.6999 39.5 38.2999C39.5 36.8999 40.6 35.6999 42 35.6999L58.3 35.3999C59.7 35.3999 60.9 36.4999 60.9 37.8999C60.9 39.2999 59.8 40.4999 58.4 40.4999L42.1 40.7999Z" fill="url(#paint10_linear_478_25405)"/>
<path id="Vector_12" d="M41.8002 52.6998C40.4002 52.6998 39.3002 51.5998 39.2002 50.1998C39.2002 48.7998 40.3002 47.5998 41.7002 47.5998L54.4002 47.2998C55.8002 47.2998 57.0002 48.3998 57.0002 49.7998C57.0002 51.1998 55.9002 52.3998 54.5002 52.3998L41.8002 52.6998Z" fill="url(#paint11_linear_478_25405)"/>
<path id="Vector_13" d="M88.1001 49.8997C92.5001 61.4997 86.9001 74.3997 75.6001 78.5997C64.3001 82.8997 51.6001 76.8997 47.2001 65.3997C42.8001 53.7997 48.4001 40.8997 59.7001 36.6997C71.0001 32.4997 83.7001 38.2997 88.1001 49.8997Z" fill="url(#paint12_radial_478_25405)"/>
<path id="Vector_14" d="M73.4 68.5998C84.6666 68.5998 93.8 59.4664 93.8 48.1998C93.8 36.9332 84.6666 27.7998 73.4 27.7998C62.1334 27.7998 53 36.9332 53 48.1998C53 59.4664 62.1334 68.5998 73.4 68.5998Z" fill="url(#paint13_radial_478_25405)"/>
<path id="Vector_15" d="M73.4 68.5998C84.6666 68.5998 93.8 59.4664 93.8 48.1998C93.8 36.9332 84.6666 27.7998 73.4 27.7998C62.1334 27.7998 53 36.9332 53 48.1998C53 59.4664 62.1334 68.5998 73.4 68.5998Z" fill="url(#paint14_radial_478_25405)"/>
<path id="Vector_16" opacity="0.18" d="M58.5998 43.5997C58.2998 44.2997 57.8998 44.8997 57.1998 44.7997C56.6998 44.6997 56.3998 44.1997 56.2998 43.7997C55.9998 42.5997 56.3998 41.3997 56.9998 40.3997C58.0998 38.1997 59.7998 36.0997 61.8998 34.6997C62.1998 34.4997 62.5998 34.2997 62.9998 34.1997C63.3998 34.1997 63.7998 34.2997 63.9998 34.6997C64.4998 35.6997 62.2998 37.5997 61.6998 38.2997C60.6998 39.3997 59.8998 40.5997 59.2998 41.9997C58.9998 42.2997 58.8998 42.9997 58.5998 43.5997Z" fill="white"/>
<path id="Vector_17" d="M71.3 56.6C70.6 56.6 70 56.3 69.5 55.8L62.8 48.9C61.8 47.9 61.8 46.2 62.9 45.2C63.9 44.2 65.6 44.2 66.6 45.3L71.5 50.4L81.5 40.8C82.5 39.8 84.2 39.8 85.2 40.9C86.2 41.9 86.2 43.6 85.1 44.6L73.2 55.8C72.7 56.3 72 56.6 71.3 56.6Z" fill="url(#paint15_linear_478_25405)"/>
</g>
</g>
</g>
<defs>
<radialGradient id="paint0_radial_478_25405" cx="0" cy="0" r="1" gradientUnits="userSpaceOnUse" gradientTransform="translate(-111.476 35.1311) scale(210.131)">
<stop offset="0.6262" stop-color="#BED8D9"/>
<stop offset="0.6284" stop-color="#C1DADB"/>
<stop offset="0.6485" stop-color="#D7E7E9"/>
<stop offset="0.6705" stop-color="#E7F1F3"/>
<stop offset="0.6955" stop-color="#F0F6F9"/>
<stop offset="0.7302" stop-color="#F3F8FB"/>
<stop offset="0.8171" stop-color="#F3F8FB"/>
<stop offset="0.8246" stop-color="#F3F8FB"/>
<stop offset="0.8491" stop-color="#EAF3F5"/>
<stop offset="0.8889" stop-color="#D2E4E6"/>
<stop offset="0.9152" stop-color="#BED8D9"/>
<stop offset="0.9464" stop-color="#B9D2D3"/>
<stop offset="0.9878" stop-color="#ABC1C4"/>
<stop offset="1" stop-color="#A6BBBE"/>
</radialGradient>
<linearGradient id="paint1_linear_478_25405" x1="49.6875" y1="0.0154779" x2="49.6875" y2="75.9977" gradientUnits="userSpaceOnUse">
<stop stop-color="#BED8D9"/>
<stop offset="0.2142" stop-color="#F3F8FB"/>
<stop offset="0.8243" stop-color="#BED8D9"/>
<stop offset="0.9143" stop-color="#B2CACC"/>
<stop offset="0.9878" stop-color="#A6BBBE"/>
</linearGradient>
<linearGradient id="paint2_linear_478_25405" x1="32.4294" y1="63.4727" x2="32.4294" y2="83.8418" gradientUnits="userSpaceOnUse">
<stop stop-color="#BED8D9"/>
<stop offset="0.026935" stop-color="#C2DBDC"/>
<stop offset="0.174" stop-color="#D6E7E9"/>
<stop offset="0.2746" stop-color="#DDEBEE"/>
<stop offset="0.3967" stop-color="#D4E6E8"/>
<stop offset="0.5844" stop-color="#BED8D9"/>
<stop offset="0.695" stop-color="#AECCD1"/>
<stop offset="0.9099" stop-color="#85ACBB"/>
<stop offset="0.9983" stop-color="#729EB1"/>
</linearGradient>
<linearGradient id="paint3_linear_478_25405" x1="103.82" y1="3.42271" x2="47.4882" y2="80.9906" gradientUnits="userSpaceOnUse">
<stop stop-color="#E3ECF1"/>
<stop offset="0.0364725" stop-color="#D5E4E8"/>
<stop offset="0.0911852" stop-color="#C8DDDF"/>
<stop offset="0.1616" stop-color="#C0D9DA"/>
<stop offset="0.3014" stop-color="#BED8D9"/>
<stop offset="0.3956" stop-color="#ABC9CF"/>
<stop offset="0.5863" stop-color="#79A3B5"/>
<stop offset="0.6111" stop-color="#729EB1"/>
<stop offset="0.6764" stop-color="#93B7C2"/>
<stop offset="0.7683" stop-color="#BED8D9"/>
<stop offset="0.8702" stop-color="#C0D9DB"/>
<stop offset="0.9269" stop-color="#C8DEE0"/>
<stop offset="0.9722" stop-color="#D6E5E9"/>
<stop offset="1" stop-color="#E3ECF1"/>
</linearGradient>
<linearGradient id="paint4_linear_478_25405" x1="55.4909" y1="9.867" x2="55.4909" y2="19.6422" gradientUnits="userSpaceOnUse">
<stop offset="0.1413" stop-color="#A6BBBE"/>
<stop offset="0.1587" stop-color="#A9BEC1"/>
<stop offset="0.2752" stop-color="#B8D1D3"/>
<stop offset="0.3567" stop-color="#BED8D9"/>
<stop offset="0.4731" stop-color="#BAD3D5"/>
<stop offset="0.6036" stop-color="#AFC6C8"/>
<stop offset="0.6766" stop-color="#A6BBBE"/>
<stop offset="0.7373" stop-color="#9CAFB2"/>
<stop offset="0.8458" stop-color="#809093"/>
<stop offset="0.8983" stop-color="#717F82"/>
</linearGradient>
<radialGradient id="paint5_radial_478_25405" cx="0" cy="0" r="1" gradientUnits="userSpaceOnUse" gradientTransform="translate(37.5287 13.501) scale(4.3375)">
<stop stop-color="#67BF67"/>
<stop offset="1" stop-color="#48A153"/>
</radialGradient>
<radialGradient id="paint6_radial_478_25405" cx="0" cy="0" r="1" gradientUnits="userSpaceOnUse" gradientTransform="translate(33.5558 25.4167) scale(4.6791)">
<stop stop-color="#67BF67"/>
<stop offset="1" stop-color="#48A153"/>
</radialGradient>
<radialGradient id="paint7_radial_478_25405" cx="0" cy="0" r="1" gradientUnits="userSpaceOnUse" gradientTransform="translate(32.1189 37.3952) scale(4.6791 4.6791)">
<stop stop-color="#67BF67"/>
<stop offset="1" stop-color="#48A153"/>
</radialGradient>
<radialGradient id="paint8_radial_478_25405" cx="0" cy="0" r="1" gradientUnits="userSpaceOnUse" gradientTransform="translate(31.7597 49.374) scale(4.6791)">
<stop stop-color="#67BF67"/>
<stop offset="1" stop-color="#48A153"/>
</radialGradient>
<linearGradient id="paint9_linear_478_25405" x1="51.7179" y1="20.7698" x2="51.7179" y2="31.5984" gradientUnits="userSpaceOnUse">
<stop offset="0.1413" stop-color="#A6BBBE"/>
<stop offset="0.1587" stop-color="#A9BEC1"/>
<stop offset="0.2752" stop-color="#B8D1D3"/>
<stop offset="0.3567" stop-color="#BED8D9"/>
<stop offset="0.4731" stop-color="#BAD3D5"/>
<stop offset="0.6036" stop-color="#AFC6C8"/>
<stop offset="0.6766" stop-color="#A6BBBE"/>
<stop offset="0.7373" stop-color="#9CAFB2"/>
<stop offset="0.8458" stop-color="#809093"/>
<stop offset="0.8983" stop-color="#717F82"/>
</linearGradient>
<linearGradient id="paint10_linear_478_25405" x1="50.2812" y1="33.4771" x2="50.2812" y2="42.9587" gradientUnits="userSpaceOnUse">
<stop offset="0.1413" stop-color="#A6BBBE"/>
<stop offset="0.1587" stop-color="#A9BEC1"/>
<stop offset="0.2752" stop-color="#B8D1D3"/>
<stop offset="0.3567" stop-color="#BED8D9"/>
<stop offset="0.4731" stop-color="#BAD3D5"/>
<stop offset="0.6036" stop-color="#AFC6C8"/>
<stop offset="0.6766" stop-color="#A6BBBE"/>
<stop offset="0.7373" stop-color="#9CAFB2"/>
<stop offset="0.8458" stop-color="#809093"/>
<stop offset="0.8983" stop-color="#717F82"/>
</linearGradient>
<linearGradient id="paint11_linear_478_25405" x1="48.1257" y1="44.831" x2="48.1257" y2="55.6976" gradientUnits="userSpaceOnUse">
<stop offset="0.1413" stop-color="#A6BBBE"/>
<stop offset="0.1587" stop-color="#A9BEC1"/>
<stop offset="0.2752" stop-color="#B8D1D3"/>
<stop offset="0.3567" stop-color="#BED8D9"/>
<stop offset="0.4731" stop-color="#BAD3D5"/>
<stop offset="0.6036" stop-color="#AFC6C8"/>
<stop offset="0.6766" stop-color="#A6BBBE"/>
<stop offset="0.7373" stop-color="#9CAFB2"/>
<stop offset="0.8458" stop-color="#809093"/>
<stop offset="0.8983" stop-color="#717F82"/>
</linearGradient>
<radialGradient id="paint12_radial_478_25405" cx="0" cy="0" r="1" gradientUnits="userSpaceOnUse" gradientTransform="translate(67.6035 57.6252) rotate(-20.7207) scale(21.872 22.4391)">
<stop offset="0.2813" stop-color="#729EB1"/>
<stop offset="1" stop-color="#ABC0C3"/>
</radialGradient>
<radialGradient id="paint13_radial_478_25405" cx="0" cy="0" r="1" gradientUnits="userSpaceOnUse" gradientTransform="translate(70.6841 47.0603) rotate(7.19822) scale(26.4238 26.4238)">
<stop offset="0.00581592" stop-color="#75D982"/>
<stop offset="0.1298" stop-color="#71D17A"/>
<stop offset="0.4658" stop-color="#67BF67"/>
<stop offset="0.7358" stop-color="#51AA59"/>
<stop offset="0.8379" stop-color="#48A153"/>
<stop offset="0.9301" stop-color="#4AA354"/>
<stop offset="0.9634" stop-color="#51A959"/>
<stop offset="0.987" stop-color="#5CB560"/>
<stop offset="1" stop-color="#67BF67"/>
</radialGradient>
<radialGradient id="paint14_radial_478_25405" cx="0" cy="0" r="1" gradientUnits="userSpaceOnUse" gradientTransform="translate(70.6841 47.0603) rotate(7.19822) scale(26.4238 26.4238)">
<stop offset="0.00581592" stop-color="#67BF67"/>
<stop offset="1" stop-color="#67BF67"/>
</radialGradient>
<linearGradient id="paint15_linear_478_25405" x1="69.4526" y1="39.4842" x2="78.8061" y2="50.5137" gradientUnits="userSpaceOnUse">
<stop stop-color="#FFFDA6"/>
<stop offset="0.4746" stop-color="#F5E37B"/>
<stop offset="0.6657" stop-color="#F5E278"/>
<stop offset="0.7865" stop-color="#F5DF70"/>
<stop offset="0.8877" stop-color="#F5DA61"/>
<stop offset="0.9777" stop-color="#F6D44C"/>
<stop offset="1" stop-color="#F6D246"/>
</linearGradient>
<clipPath id="clip0_478_25405">
<rect width="95.3" height="80" fill="white"/>
</clipPath>
</defs>
</svg>
