<svg width="207" height="127" viewBox="0 0 207 127" fill="none" xmlns="http://www.w3.org/2000/svg">
<g id="&#209;&#136;&#208;&#178;&#208;&#184;&#208;&#180;&#209;&#131;&#209;&#150;&#209;&#129;&#208;&#189;&#208;&#184;&#208;&#184;&#204;&#134; &#208;&#187;&#209;&#150;&#209;&#130;&#208;&#176;&#208;&#186; 1" clip-path="url(#clip0_478_25514)">
<g id="Group 31">
<path id="Vector (Stroke)" fill-rule="evenodd" clip-rule="evenodd" d="M113.326 10.9291C112.016 14.1528 110.987 18.759 111.034 23.9732L111.034 23.9866V24V46.4704L95.8338 55.8878V52H93.6338V57.0764L78.5338 66.3687V62H76.3338V67.7694L56.6338 79.9897V81.1963L80.4338 72.6658V72.5858L92.7141 68.2H110.934V79.4C110.934 84.9925 111.228 89.7967 111.62 93.9156L111.789 95.6826L94.7791 107.249L99.0338 106.37V106.348L111.434 103.829V103.837L112.815 103.518L113.541 106.358C114.13 108.666 114.736 110.487 115.289 111.894C115.831 110.489 116.424 108.668 117.031 106.343L117.767 103.521L122.491 104.611L131.534 106.448V106.47L135.788 107.349L118.739 95.7557L118.955 93.9454C119.435 89.9109 119.634 85.1422 119.634 79.5V68.3H137.853L150.134 72.6858V72.7658L173.934 81.2963V80.0919L154.234 67.977V62.2H152.034V66.5687L136.934 57.2764V52.2H134.734V55.8878L119.534 46.4704V24.0009C119.534 18.7696 118.502 14.1539 117.192 10.9291C116.532 9.30498 115.847 8.14633 115.278 7.45267C115.271 7.44329 115.263 7.43406 115.256 7.42499C115.25 7.43125 115.245 7.43758 115.24 7.44397C114.671 8.14243 113.985 9.30596 113.326 10.9291ZM144.254 76.9569L136.814 74.3H135.638L135.617 74.3416C135.496 74.5828 135.276 74.9755 134.905 75.3463C134.528 75.7233 133.76 76.3 132.634 76.3C130.95 76.3 129.999 75.1456 129.63 74.4598C129.601 74.4067 129.574 74.3534 129.549 74.3H125.634V79.5C125.634 84.4723 125.484 88.9027 125.108 92.8306L141.113 103.714C142.465 104.624 142.834 106.012 142.834 107V110C142.834 112.504 140.52 114.356 138.141 113.959L138.084 113.95L131.459 112.582C131.411 112.637 131.36 112.692 131.305 112.746C130.928 113.123 130.16 113.7 129.034 113.7C127.35 113.7 126.399 112.546 126.03 111.86C125.95 111.711 125.882 111.561 125.824 111.411L124.166 111.074C124.116 111.132 124.062 111.189 124.005 111.246C123.628 111.623 122.86 112.2 121.734 112.2C121.673 112.2 121.614 112.199 121.555 112.196C120.875 114.219 120.193 115.825 119.534 117.076V121.9C119.534 122.95 119.259 123.994 118.792 124.849C118.558 125.278 118.216 125.77 117.725 126.19C117.242 126.603 116.426 127.1 115.334 127.1C114.272 127.1 113.463 126.621 113.017 126.278C112.513 125.89 112.063 125.367 111.751 124.742C111.436 124.113 111.034 123.038 111.034 121.9V117.055C110.419 115.864 109.719 114.27 109.012 112.196C108.954 112.199 108.894 112.2 108.834 112.2C107.994 112.2 107.275 111.87 106.772 111.468C106.611 111.339 106.447 111.181 106.293 110.996L104.726 111.314C104.682 111.425 104.633 111.534 104.58 111.642C104.371 112.058 103.484 113.6 101.534 113.6C100.694 113.6 99.9753 113.27 99.4722 112.868C99.3388 112.761 99.2032 112.634 99.0731 112.489L92.484 113.85L92.427 113.859C90.2579 114.221 87.7338 112.708 87.7338 109.9V106.9C87.7338 105.403 88.6177 104.373 89.0125 103.979L89.2127 103.778L105.488 92.7111C105.163 88.8395 104.934 84.4234 104.934 79.4V74.2H101C100.993 74.2139 100.986 74.2278 100.98 74.2417C100.771 74.658 99.8838 76.2 97.9338 76.2C97.0941 76.2 96.3753 75.8701 95.8722 75.4676C95.5153 75.1821 95.1433 74.7557 94.9014 74.2H93.7534L86.3026 76.861C86.2282 77.1606 86.1213 77.4581 85.9796 77.7417C85.7714 78.158 84.8838 79.7 82.9338 79.7C82.0941 79.7 81.3753 79.3701 80.8722 78.9676C80.8483 78.9485 80.8243 78.9287 80.8002 78.9082L55.6825 87.911C52.9931 88.9363 50.6338 86.7319 50.6338 84.4V79.5C50.6338 77.7119 51.6084 76.1113 52.9697 75.2038L53.0106 75.1766L70.3338 64.4306V59.6C70.3338 58.4743 70.8664 57.5997 71.4 57.0662C71.9335 56.5326 72.8081 56 73.9338 56H80.9338C81.7368 56 82.4121 56.2711 82.9269 56.6202L87.6338 53.7236V49.6C87.6338 48.4743 88.1664 47.5997 88.7 47.0662C89.2335 46.5326 90.1081 46 91.2338 46H98.2338C98.8318 46 99.3589 46.1503 99.8017 46.3712L105.034 43.1296V24.0136C104.982 18.0332 106.153 12.6442 107.767 8.67087C108.57 6.69404 109.527 4.95757 110.587 3.65603C111.117 3.00546 111.734 2.38629 112.444 1.90961C113.143 1.44002 114.097 1 115.234 1C117.387 1 118.982 2.50672 119.917 3.64733C120.989 4.95367 121.948 6.69502 122.751 8.67087C124.366 12.6461 125.534 18.0313 125.534 24V43.1296L130.95 46.4855C131.353 46.3123 131.817 46.2 132.334 46.2H139.334C140.459 46.2 141.334 46.7326 141.868 47.2662C142.401 47.7997 142.934 48.6743 142.934 49.8V53.9236L147.641 56.8202C148.155 56.4711 148.831 56.2 149.634 56.2H156.634C157.759 56.2 158.634 56.7326 159.168 57.2662C159.701 57.7997 160.234 58.6743 160.234 59.8V64.623L177.552 75.2734L177.598 75.3039C178.959 76.2113 179.934 77.8119 179.934 79.6V84.5C179.934 86.8319 177.574 89.0363 174.885 88.011L149.742 78.999C149.326 79.3612 148.616 79.8 147.634 79.8C145.95 79.8 144.999 78.6456 144.63 77.9598C144.451 77.6271 144.331 77.2867 144.254 76.9569Z" fill="white"/>
</g>
<g id="objects">
<g id="Group">
<path id="Vector" d="M58.9597 16.6882C59.7659 14.7995 60.9183 13.1035 62.3885 11.6458C63.857 10.1897 65.5674 9.04548 67.4739 8.24609C69.4467 7.42007 71.5412 7 73.7006 7C75.86 7 77.9545 7.42007 79.9274 8.24766C81.8322 9.04704 83.5426 10.1897 85.0128 11.6474C86.4829 13.1051 87.6353 14.7995 88.4415 16.6882C89.2762 18.6443 89.6982 20.7211 89.6982 22.8622C89.6982 25.0033 89.2746 27.0801 88.4399 29.0363C87.6337 30.925 86.4813 32.621 85.0112 34.0787L84.3473 34.737L81.5002 31.9141L82.8265 30.599L84.3251 32.0849C85.321 30.9595 86.1209 29.6946 86.7105 28.3121C87.3255 26.8717 87.6875 25.3544 87.7886 23.7917H85.6704V21.9312H87.7886C87.6859 20.3685 87.3239 18.8528 86.7105 17.4108C86.1209 16.0283 85.321 14.7634 84.3251 13.6396L82.8281 15.1239L81.5018 13.8088L82.9988 12.3245C81.8638 11.337 80.5881 10.5439 79.1955 9.95928C77.7427 9.34955 76.2125 8.99062 74.6364 8.8903V10.9906H72.76V8.8903C71.184 8.99218 69.6554 9.35112 68.201 9.95928C66.8068 10.5439 65.5311 11.337 64.3976 12.3245L65.8947 13.8088L64.5684 15.1239L63.0714 13.6396C62.0755 14.765 61.2756 16.0299 60.6859 17.4108C60.071 18.8512 59.709 20.3685 59.6078 21.9312H61.7261V23.7917H59.6078C59.7106 25.3544 60.0726 26.8701 60.6859 28.3121C61.2756 29.6946 62.0755 30.9595 63.0714 32.0849L64.57 30.599L65.8962 31.9141L63.0492 34.737L62.3853 34.0787C60.9167 32.6225 59.7628 30.925 58.9566 29.0363C58.1219 27.0801 57.6982 25.0033 57.6982 22.8622C57.703 20.7211 58.1251 18.6443 58.9597 16.6882Z" fill="white"/>
<path id="Vector_2" d="M71.9615 22.8623C71.9615 22.0927 72.4689 21.4423 73.1708 21.2197L73.5802 13.624C73.5881 13.4704 73.8157 13.4704 73.8237 13.624L74.2331 21.2197C74.9334 21.4423 75.4424 22.0943 75.4424 22.8623C75.4424 23.4736 75.1215 24.0097 74.6393 24.3169L74.7958 27.237C74.8101 27.516 74.5872 27.7495 74.3058 27.7495H73.0996C72.8183 27.7495 72.5938 27.516 72.6096 27.237L72.7661 24.3169C72.2808 24.0097 71.9615 23.4736 71.9615 22.8623Z" fill="white"/>
<path id="Vector_3" d="M68.985 33.1787H78.416V37.0001H68.985V33.1787Z" fill="white"/>
</g>
</g>
</g>
<defs>
<clipPath id="clip0_478_25514">
<rect width="206.7" height="127" fill="white"/>
</clipPath>
</defs>
</svg>
