<svg width="207" height="127" viewBox="0 0 207 127" fill="none" xmlns="http://www.w3.org/2000/svg">
<g id="&#209;&#136;&#208;&#178;&#208;&#184;&#208;&#180;&#209;&#131;&#209;&#150;&#209;&#129;&#208;&#189;&#208;&#184;&#208;&#184;&#204;&#134; &#208;&#187;&#209;&#150;&#209;&#130;&#208;&#176;&#208;&#186; 2">
<path id="Vector (Stroke)" fill-rule="evenodd" clip-rule="evenodd" d="M101.392 10.4291C100.082 13.6528 99.0535 18.259 99.1001 23.4732L99.1002 23.4866V23.5V45.9704L83.9002 55.3878V51.5H81.7002V56.5764L66.6002 65.8687V61.5H64.4002V67.2694L44.7002 79.4897V80.6963L68.5002 72.1658V72.0858L80.7806 67.7H99.0002V78.9C99.0002 84.4925 99.2944 89.2967 99.6867 93.4156L99.855 95.1826L82.8455 106.749L87.1002 105.87V105.848L99.5002 103.329V103.337L100.882 103.018L101.607 105.858C102.196 108.166 102.803 109.987 103.355 111.394C103.898 109.989 104.491 108.168 105.097 105.843L105.833 103.021L110.558 104.111L119.6 105.948V105.97L123.855 106.849L106.806 95.2557L107.021 93.4454C107.502 89.4109 107.7 84.6422 107.7 79V67.8H125.92L138.2 72.1858V72.2658L162 80.7963V79.5919L142.3 67.477V61.7H140.1V66.0687L125 56.7764V51.7H122.8V55.3878L107.6 45.9704V23.5009C107.6 18.2696 106.568 13.6539 105.258 10.4291C104.598 8.80498 103.914 7.64633 103.345 6.95267C103.337 6.94329 103.329 6.93406 103.322 6.92499C103.317 6.93125 103.312 6.93758 103.306 6.94397C102.738 7.64243 102.052 8.80596 101.392 10.4291ZM132.32 76.4569L124.881 73.8H123.704L123.683 73.8416C123.563 74.0828 123.342 74.4755 122.972 74.8463C122.595 75.2233 121.826 75.8 120.7 75.8C119.017 75.8 118.066 74.6456 117.696 73.9598C117.668 73.9067 117.641 73.8534 117.615 73.8H113.7V79C113.7 83.9723 113.55 88.4027 113.174 92.3306L129.18 103.214C130.531 104.124 130.9 105.512 130.9 106.5V109.5C130.9 112.004 128.586 113.856 126.207 113.459L126.15 113.45L119.526 112.082C119.477 112.137 119.426 112.192 119.371 112.246C118.994 112.623 118.226 113.2 117.1 113.2C115.417 113.2 114.466 112.046 114.096 111.36C114.016 111.211 113.948 111.061 113.89 110.911L112.232 110.574C112.182 110.632 112.129 110.689 112.072 110.746C111.695 111.123 110.926 111.7 109.8 111.7C109.74 111.7 109.68 111.699 109.622 111.696C108.941 113.719 108.26 115.325 107.6 116.576V121.4C107.6 122.45 107.325 123.494 106.859 124.349C106.625 124.778 106.282 125.27 105.791 125.69C105.309 126.103 104.492 126.6 103.4 126.6C102.338 126.6 101.53 126.121 101.084 125.778C100.579 125.39 100.129 124.867 99.8169 124.242C99.5024 123.613 99.1002 122.538 99.1002 121.4V116.555C98.4854 115.364 97.7855 113.77 97.0786 111.696C97.0201 111.699 96.9607 111.7 96.9002 111.7C96.0605 111.7 95.3417 111.37 94.8386 110.968C94.6776 110.839 94.5134 110.681 94.3596 110.496L92.792 110.814C92.7483 110.925 92.6996 111.034 92.646 111.142C92.4378 111.558 91.5502 113.1 89.6002 113.1C88.7605 113.1 88.0417 112.77 87.5386 112.368C87.4052 112.261 87.2696 112.134 87.1395 111.989L80.5504 113.35L80.4934 113.359C78.3243 113.721 75.8002 112.208 75.8002 109.4V106.4C75.8002 104.903 76.6841 103.873 77.0789 103.479L77.2791 103.278L93.5546 92.2111C93.229 88.3395 93.0002 83.9234 93.0002 78.9V73.7H89.0665C89.0597 73.7139 89.0529 73.7278 89.046 73.7417C88.8378 74.158 87.9502 75.7 86.0002 75.7C85.1605 75.7 84.4417 75.3701 83.9386 74.9676C83.5817 74.6821 83.2097 74.2557 82.9678 73.7H81.8198L74.369 76.361C74.2947 76.6606 74.1877 76.9581 74.046 77.2417C73.8378 77.658 72.9502 79.2 71.0002 79.2C70.1605 79.2 69.4417 78.8701 68.9386 78.4676C68.9147 78.4485 68.8907 78.4287 68.8666 78.4082L43.7489 87.411C41.0595 88.4363 38.7002 86.2319 38.7002 83.9V79C38.7002 77.2119 39.6748 75.6113 41.0361 74.7038L41.077 74.6766L58.4002 63.9306V59.1C58.4002 57.9743 58.9328 57.0997 59.4664 56.5662C59.9999 56.0326 60.8745 55.5 62.0002 55.5H69.0002C69.8032 55.5 70.4785 55.7711 70.9933 56.1202L75.7002 53.2236V49.1C75.7002 47.9743 76.2329 47.0997 76.7664 46.5662C77.2999 46.0326 78.1745 45.5 79.3002 45.5H86.3002C86.8982 45.5 87.4253 45.6503 87.8681 45.8712L93.1002 42.6296V23.5136C93.0486 17.5332 94.2191 12.1442 95.8333 8.17087C96.6364 6.19404 97.5938 4.45757 98.6533 3.15603C99.1829 2.50546 99.8004 1.88629 100.51 1.40961C101.209 0.940017 102.164 0.5 103.3 0.5C105.454 0.5 107.048 2.00672 107.984 3.14733C109.055 4.45367 110.014 6.19502 110.817 8.17087C112.432 12.1461 113.6 17.5313 113.6 23.5V42.6296L119.017 45.9855C119.419 45.8123 119.883 45.7 120.4 45.7H127.4C128.526 45.7 129.4 46.2326 129.934 46.7662C130.468 47.2997 131 48.1743 131 49.3V53.4236L135.707 56.3202C136.222 55.9711 136.897 55.7 137.7 55.7H144.7C145.826 55.7 146.7 56.2326 147.234 56.7662C147.768 57.2997 148.3 58.1743 148.3 59.3V64.123L165.619 74.7734L165.664 74.8039C167.026 75.7113 168 77.3119 168 79.1V84C168 86.3319 165.641 88.5363 162.951 87.511L137.808 78.499C137.392 78.8612 136.683 79.3 135.7 79.3C134.017 79.3 133.066 78.1456 132.696 77.4598C132.517 77.1271 132.397 76.7867 132.32 76.4569Z" fill="white"/>
</g>
</svg>
