<svg width="260" height="55" viewBox="0 0 260 55" fill="none" xmlns="http://www.w3.org/2000/svg">
<path d="M61.6659 54.6479C61.6659 54.3955 61.689 54.143 61.689 53.8676C61.689 39.9832 61.689 26.0988 61.689 12.2144C61.689 11.9849 61.689 11.7784 61.689 11.5718C62.1282 11.4571 70.6569 11.4112 71.6739 11.503C71.7895 12.5357 71.6508 13.6143 71.7664 14.7618C71.9051 14.6012 71.9744 14.4864 72.0668 14.3946C72.4367 13.8897 72.7602 13.3619 73.1763 12.9029C74.1239 11.8013 75.3489 11.1587 76.7819 10.9063C78.1456 10.6539 79.5093 10.6309 80.8498 10.9063C82.93 11.3423 84.3168 12.5816 85.1951 14.4635C85.8192 15.8175 86.0734 17.2403 86.189 18.7091C86.2121 18.9615 86.2121 19.214 86.2121 19.4894C86.2121 25.9152 86.2352 32.364 86.2121 38.7899C86.2121 40.8094 85.8885 42.806 85.0796 44.6879C84.6173 45.7665 83.9701 46.7533 83.0687 47.5336C81.7281 48.704 80.1102 49.14 78.3536 49.0482C75.58 48.8876 73.4305 47.6713 72.09 45.1927C72.0206 45.055 71.9282 44.8944 71.7895 44.6649C71.7664 44.8714 71.7202 44.9862 71.7202 45.078C71.7202 48.1073 71.7202 51.1366 71.7202 54.166C71.7202 54.3266 71.7433 54.4643 71.7664 54.625C68.3919 54.6479 65.0173 54.6479 61.6659 54.6479ZM76.2041 29.8625C76.2041 26.8332 76.2041 23.8039 76.2041 20.7746C76.2041 20.4762 76.181 20.1779 76.1348 19.9025C75.9499 19.0533 75.4183 18.5255 74.5862 18.3649C73.7772 18.1813 73.0607 18.4337 72.5753 19.1222C72.3442 19.4435 72.2055 19.8107 72.0668 20.1779C71.7433 21.0958 71.7202 22.0597 71.7202 23.0236C71.7202 28.1643 71.7433 33.3049 71.7433 38.4456C71.7433 39.0882 71.8819 39.7078 72.1362 40.3045C72.5291 41.1536 73.1994 41.5667 74.147 41.5897C75.2334 41.6126 76.0192 40.9471 76.1348 39.8914C76.181 39.5242 76.2041 39.1341 76.2041 38.7669C76.2041 35.8294 76.2041 32.846 76.2041 29.8625Z" fill="#E31F25"/>
<path d="M260 40.8094C259.931 41.0159 259.861 41.2225 259.815 41.429C259.052 44.619 257.065 46.7533 254.06 48.0155C252.835 48.5434 251.564 48.7958 250.246 48.9335C248.235 49.14 246.225 49.1171 244.237 48.7499C242.087 48.3598 240.192 47.4647 238.574 45.996C237.303 44.8255 236.517 43.3797 236.078 41.7274C235.777 40.6258 235.639 39.5013 235.639 38.3538C235.639 32.6853 235.639 27.0397 235.639 21.3712C235.639 19.6959 235.939 18.0895 236.633 16.5518C237.742 14.0963 239.707 12.5357 242.203 11.5948C243.567 11.0669 244.976 10.8604 246.409 10.7915C248.166 10.6768 249.9 10.7227 251.633 11.0669C254.106 11.5718 256.302 12.6045 257.943 14.5782C259.006 15.8404 259.653 17.3092 259.884 18.9615C259.884 19.0074 259.954 19.0763 259.977 19.1222C259.977 23.2072 259.977 27.3151 259.977 31.4001C259.908 31.4001 259.838 31.3772 259.769 31.3772C255.239 31.3772 250.685 31.3772 246.155 31.3772C246.017 31.3772 245.878 31.4001 245.716 31.4001C245.716 31.5837 245.693 31.7673 245.693 31.928C245.693 34.5442 245.693 37.1604 245.693 39.7767C245.693 40.0062 245.716 40.2127 245.716 40.4422C245.808 41.3143 246.386 41.9798 247.265 42.1405C247.611 42.2093 247.981 42.2323 248.351 42.1864C249.322 42.0946 250.015 41.3602 250.108 40.3734C250.131 40.075 250.154 39.7996 250.154 39.5013C250.154 38.0784 250.154 36.6555 250.154 35.2097C250.154 35.0032 250.177 34.8196 250.2 34.5901C250.431 34.5901 250.593 34.5901 250.778 34.5901C252.303 34.5901 253.829 34.5901 255.354 34.5901C256.903 34.5901 258.428 34.5901 259.977 34.5671C260 36.6785 260 38.7439 260 40.8094ZM250.131 24.5382C250.154 24.3547 250.177 24.217 250.177 24.0793C250.177 22.7482 250.177 21.4401 250.177 20.109C250.177 19.8566 250.154 19.6041 250.131 19.3287C249.992 18.2731 249.252 17.6075 248.166 17.5616C247.958 17.5616 247.75 17.5616 247.542 17.5616C246.71 17.6305 246.132 18.0436 245.878 18.8238C245.762 19.1681 245.716 19.5582 245.716 19.9254C245.693 21.2794 245.716 22.6334 245.716 23.9875C245.716 24.1481 245.739 24.3088 245.739 24.4924C247.195 24.5382 248.628 24.5382 250.131 24.5382Z" fill="#E37523"/>
<path d="M201.339 0.647903C201.339 2.874 201.339 5.07714 201.362 7.30324C201.362 7.37209 201.339 7.44093 201.316 7.50978C198.01 7.50978 194.752 7.50978 191.4 7.50978C191.4 5.19189 191.377 2.9199 191.377 0.647903C194.682 0.647903 198.01 0.647903 201.339 0.647903Z" fill="#E37523"/>
<path d="M0.0924521 32.7312C0.300471 32.7083 0.508489 32.6624 0.716508 32.6624C3.74433 32.6624 6.77216 32.6624 9.82309 32.6624C10.0311 32.6624 10.2391 32.6853 10.4934 32.7083C10.5165 32.8919 10.5165 33.0525 10.5165 33.2361C10.5165 34.177 10.4934 35.1409 10.5165 36.0818C10.5396 36.7703 10.6089 37.4588 10.7014 38.1243C10.7476 38.4686 10.8863 38.7899 11.0019 39.1111C11.3948 40.075 12.1344 40.6029 13.1514 40.7865C13.9372 40.9242 14.7462 40.8783 15.5089 40.6488C16.757 40.2816 17.6585 39.0653 17.7509 37.7112C17.8665 35.99 17.3118 34.4983 16.2486 33.1672C15.4627 32.2034 14.5613 31.4001 13.5674 30.6428C11.5566 29.1281 9.49951 27.6594 7.48867 26.1447C6.19433 25.1808 4.9231 24.194 3.8599 22.9777C2.40377 21.2794 1.36368 19.3976 0.970752 17.1944C0.739621 15.9322 0.693394 14.67 0.739621 13.3848C0.80896 11.8931 1.01698 10.4473 1.45613 9.02445C2.45 5.83448 4.64575 3.76903 7.7198 2.59861C9.45328 1.93308 11.2792 1.61178 13.1514 1.54294C15.1622 1.47409 17.1731 1.51999 19.1377 1.95603C21.1254 2.39207 22.9745 3.1494 24.4537 4.59521C26.0254 6.10987 26.9962 7.94583 27.3891 10.0572C27.574 11.0899 27.6665 12.1456 27.7127 13.1783C27.7589 14.3717 27.7358 15.588 27.7127 16.7814C27.7127 16.9191 27.6896 17.0568 27.6665 17.2174C24.3613 17.2174 21.0792 17.2174 17.7278 17.2174C17.7278 17.0109 17.7047 16.8273 17.7047 16.6437C17.6816 15.5191 17.6816 14.3717 17.6122 13.2471C17.566 12.6964 17.4504 12.1226 17.2424 11.5948C16.8264 10.4473 15.9712 9.80473 14.7462 9.73588C14.1915 9.71293 13.6368 9.73588 13.1052 9.85063C11.2561 10.2408 10.6089 11.9849 10.7245 13.3619C10.7707 13.9356 10.9556 14.4405 11.3023 14.8766C11.8802 15.588 12.458 16.3224 13.1283 16.8961C14.7924 18.3419 16.5028 19.6959 18.1901 21.0958C20.5014 22.9777 22.6971 24.9743 24.8235 27.0398C26.0716 28.2561 27.1117 29.6101 27.7127 31.2624C28.1056 32.2952 28.2674 33.3967 28.3599 34.4983C28.5216 36.4261 28.4292 38.3538 27.8514 40.2127C26.8344 43.5863 24.6617 45.996 21.4952 47.5106C19.4844 48.4745 17.3349 48.8876 15.116 49.0023C12.5736 49.1171 10.0542 48.9565 7.65046 48.0385C3.81367 46.5697 1.45613 43.8387 0.531603 39.8685C0.300471 38.8587 0.231131 37.826 0.0924521 36.8162C-0.06934 35.6228 0.0462263 34.4295 0 33.2361C0.0693395 33.0984 0.0924521 32.9378 0.0924521 32.7312Z" fill="#E31F25"/>
<path d="M139.187 2.32321C139.326 2.30026 139.442 2.30026 139.557 2.30026C143.81 2.30026 148.086 2.27731 152.339 2.32321C154.812 2.34616 157.285 2.50681 159.712 3.12644C161.515 3.58543 163.133 4.41161 164.404 5.83447C165.49 7.05079 166.114 8.49661 166.484 10.0572C166.854 11.5259 166.993 13.0406 167.062 14.5553C167.178 16.8502 167.039 19.1222 166.6 21.3712C166.137 23.7121 165.167 25.7775 163.364 27.4069C161.862 28.761 160.105 29.5871 158.071 29.8396C157.123 29.9543 156.176 30.0232 155.228 30.0232C153.679 30.0461 152.154 30.0232 150.605 30.0232C150.374 30.0232 150.12 30.0232 149.843 30.0232C149.82 30.3674 149.796 30.6199 149.796 30.8952C149.796 36.472 149.796 42.0487 149.796 47.6254C149.796 47.8319 149.796 48.0385 149.796 48.268C146.214 48.268 142.724 48.268 139.211 48.268C139.118 47.9467 139.072 2.75925 139.187 2.32321ZM149.866 21.8073C150.028 21.8302 150.166 21.8761 150.282 21.8761C151.276 21.8532 152.27 21.8991 153.24 21.8073C154.327 21.6925 155.205 21.1417 155.69 20.132C155.852 19.7877 155.991 19.4435 156.083 19.0763C156.407 17.86 156.43 16.5978 156.361 15.3355C156.314 14.5553 156.199 13.752 155.991 12.9947C155.528 11.3423 154.419 10.5391 152.709 10.5162C151.877 10.4932 151.045 10.5162 150.212 10.5162C150.097 10.5162 149.981 10.5391 149.866 10.5621C149.773 11.021 149.75 21.2106 149.866 21.8073Z" fill="#E37523"/>
<path d="M57.182 48.3139C53.9692 48.3139 50.8027 48.3139 47.6131 48.3139C47.59 48.1303 47.5438 47.9237 47.5438 47.7401C47.5438 46.7992 47.5438 45.8583 47.5438 44.8944C47.5438 44.7338 47.5438 44.5502 47.5438 44.3895C47.5207 44.3666 47.4975 44.3666 47.4513 44.3436C47.3589 44.4584 47.2895 44.5731 47.1971 44.6879C46.6655 45.3993 46.157 46.1566 45.5792 46.8222C44.5853 47.9696 43.3141 48.6581 41.8117 48.9105C40.448 49.14 39.0844 49.1859 37.7438 48.8188C35.2707 48.1532 33.7683 46.5009 33.0749 44.0682C32.8207 43.1502 32.7051 42.2093 32.7051 41.2684C32.7051 31.5378 32.7051 21.8302 32.7051 12.0997C32.7051 11.9161 32.7051 11.7325 32.7051 11.503C36.0565 11.503 39.3386 11.503 42.6669 11.503C42.69 11.7095 42.7362 11.8931 42.7362 12.0767C42.7362 19.4664 42.7362 26.8332 42.7362 34.2229C42.7362 35.3933 42.7362 36.5638 42.7593 37.7342C42.7593 38.1932 42.8749 38.6063 43.0829 39.0193C43.6839 40.2357 44.8858 40.3504 45.8103 40.0062C46.0414 39.9144 46.2494 39.7308 46.4343 39.5472C46.9891 38.9505 47.174 38.1932 47.2202 37.4129C47.2433 37.1145 47.2433 36.8392 47.2433 36.5408C47.2433 28.4167 47.2433 20.2926 47.2433 12.1685C47.2433 11.962 47.2433 11.7554 47.2433 11.5718C47.6593 11.4571 56.1188 11.4112 57.1357 11.503C57.1589 11.5259 57.1588 11.5259 57.182 11.5489C57.182 11.5718 57.2051 11.5718 57.2051 11.5948C57.2051 23.6203 57.2282 35.6458 57.2282 47.6713C57.182 47.8549 57.182 48.0385 57.182 48.3139Z" fill="#E31F25"/>
<path d="M115.127 31.3772C110.342 31.3772 105.558 31.3772 100.75 31.3772C100.727 31.5608 100.704 31.6985 100.704 31.8362C100.704 34.5442 100.704 37.2752 100.704 39.9832C100.704 40.2816 100.75 40.6029 100.843 40.9012C101.074 41.5897 101.536 42.0716 102.276 42.1634C102.669 42.2093 103.085 42.2323 103.455 42.1864C104.472 42.0487 105.119 41.2913 105.142 40.2816C105.165 38.6063 105.165 36.9539 105.188 35.2786C105.188 35.072 105.211 34.8655 105.211 34.659C108.539 34.659 111.798 34.659 115.104 34.659C115.127 34.7508 115.173 34.8196 115.173 34.9114C115.15 36.5408 115.242 38.1932 115.104 39.7996C114.896 42.4159 113.902 44.7108 111.798 46.4091C110.319 47.6024 108.632 48.3827 106.76 48.727C104.079 49.2318 101.374 49.2318 98.7163 48.6581C96.5206 48.1762 94.6022 47.1434 93.0767 45.4681C91.8517 44.1141 91.1814 42.4847 90.9041 40.6947C90.7885 39.9603 90.7192 39.2029 90.7192 38.4456C90.6961 32.6394 90.6961 26.8103 90.7192 21.004C90.7423 19.0074 91.2045 17.1256 92.314 15.4273C93.5621 13.4766 95.4111 12.2833 97.5838 11.5259C98.9243 11.044 100.334 10.8604 101.767 10.8145C103.431 10.7457 105.096 10.7916 106.737 11.1128C108.863 11.5259 110.758 12.398 112.33 13.8897C113.74 15.2208 114.526 16.8731 114.942 18.7321C115.127 19.6041 115.219 20.4992 115.219 21.3942C115.219 23.735 115.242 26.0759 115.242 28.4167C115.242 29.2888 115.219 30.1609 115.219 31.0559C115.173 31.1018 115.15 31.2165 115.127 31.3772ZM105.119 24.5383C105.142 24.4235 105.165 24.3547 105.165 24.2858C105.165 22.6564 105.165 21.027 105.119 19.3976C105.096 18.4567 104.356 17.7223 103.408 17.6075C103.062 17.5616 102.715 17.5616 102.368 17.6075C101.513 17.7223 100.889 18.3419 100.75 19.191C100.704 19.4205 100.704 19.6271 100.704 19.8566C100.704 21.2794 100.704 22.7023 100.704 24.1252C100.704 24.2629 100.727 24.3776 100.75 24.5383C102.23 24.5383 103.663 24.5383 105.119 24.5383Z" fill="#E31F25"/>
<path d="M221.17 32.6624C224.521 32.6624 227.803 32.6624 231.109 32.6624C231.132 32.8001 231.155 32.9148 231.155 33.0295C231.155 35.0491 231.201 37.0686 231.132 39.0652C231.062 40.9241 230.669 42.7142 229.652 44.3207C228.381 46.3402 226.509 47.5795 224.29 48.3368C222.788 48.8646 221.216 49.0023 219.644 49.0712C217.726 49.14 215.808 49.0253 213.935 48.4516C212.318 47.9696 210.861 47.1893 209.636 46.0419C208.042 44.5502 207.163 42.6683 206.863 40.5111C206.747 39.6849 206.678 38.8358 206.678 37.9866C206.655 32.4329 206.655 26.8791 206.678 21.3024C206.678 19.9484 206.909 18.6403 207.348 17.3551C208.25 14.7618 210.052 12.9947 212.526 11.8702C213.843 11.2735 215.207 10.9751 216.64 10.8374C218.234 10.6768 219.829 10.6768 221.401 10.8374C223.181 11.021 224.868 11.4571 226.44 12.3292C228.843 13.6832 230.346 15.6798 230.901 18.3649C231.109 19.3517 231.224 20.3615 231.224 21.3942C231.224 22.4269 231.224 23.4596 231.224 24.4924C231.224 24.676 231.201 24.8595 231.201 25.0431C230.808 25.1579 222.164 25.2038 221.239 25.089C221.239 24.9284 221.216 24.7448 221.216 24.5612C221.216 23.1613 221.216 21.7843 221.216 20.3844C221.216 19.9943 221.193 19.6041 221.124 19.214C220.985 18.2731 220.268 17.6305 219.321 17.5846C219.09 17.5616 218.859 17.5616 218.651 17.5846C217.61 17.6305 216.825 18.3649 216.755 19.4205C216.732 19.9025 216.709 20.3844 216.709 20.8663C216.709 26.9709 216.709 33.0754 216.709 39.2029C216.709 39.639 216.732 40.0521 216.778 40.4881C216.871 41.3831 217.472 42.0716 218.373 42.2093C218.766 42.2782 219.205 42.2552 219.598 42.2093C220.43 42.0716 221.031 41.452 221.124 40.6029C221.17 40.1668 221.216 39.7537 221.216 39.3177C221.216 37.3211 221.216 35.3245 221.216 33.3279C221.17 33.1213 221.17 32.9148 221.17 32.6624Z" fill="#E37523"/>
<path d="M129.295 17.86C129.364 17.7223 129.434 17.5616 129.503 17.4239C129.85 16.6436 130.15 15.8404 130.52 15.0601C131.144 13.7061 131.976 12.4898 133.247 11.6177C134.195 10.9981 135.212 10.7456 136.321 10.7686C136.437 11.1817 136.46 22.2204 136.321 22.7482C135.536 22.7482 134.727 22.7252 133.918 22.7482C133.409 22.7711 132.924 22.84 132.438 22.9318C131.491 23.1383 130.797 23.6891 130.358 24.5612C129.942 25.4103 129.711 26.3054 129.711 27.2463C129.711 33.5803 129.711 39.9144 129.711 46.2484C129.711 46.891 129.711 47.5565 129.711 48.245C129.526 48.268 129.387 48.3139 129.226 48.3139C126.198 48.3139 123.17 48.3139 120.119 48.3139C120.004 48.3139 119.888 48.2909 119.726 48.268C119.726 36.013 119.726 23.7809 119.726 11.5718C120.073 11.4571 128.001 11.3882 129.133 11.5259C129.179 12.0308 129.156 12.5587 129.156 13.0865C129.156 13.6143 129.156 14.1422 129.156 14.6929C129.156 15.1978 129.156 15.7257 129.156 16.2306C129.156 16.7584 129.156 17.2862 129.156 17.8141C129.203 17.837 129.249 17.86 129.295 17.86Z" fill="#E31F25"/>
<path d="M171.292 11.503C174.435 11.503 177.532 11.503 180.699 11.503C180.745 12.2144 180.722 12.9258 180.722 13.6143C180.722 14.3258 180.722 15.0142 180.722 15.7257C180.722 16.4142 180.722 17.1256 180.722 17.8141C180.745 17.8141 180.791 17.837 180.814 17.837C180.884 17.6764 180.976 17.5157 181.045 17.3551C181.508 16.3453 181.901 15.2896 182.409 14.3028C183.033 13.1094 183.865 12.0997 185.067 11.4112C185.922 10.9292 186.847 10.6998 187.841 10.7456C187.979 11.2505 188.002 22.1974 187.841 22.7253C187.055 22.7253 186.246 22.7023 185.437 22.7253C184.928 22.7482 184.443 22.7941 183.958 22.9088C182.987 23.1383 182.294 23.6891 181.854 24.6071C181.461 25.4333 181.253 26.2824 181.253 27.2004C181.253 33.8328 181.253 40.4881 181.253 47.1205C181.253 47.4877 181.253 47.8319 181.253 48.1303C181.184 48.1991 181.161 48.2221 181.138 48.2221C181.115 48.2221 181.115 48.245 181.092 48.245C180.999 48.268 180.93 48.2909 180.837 48.2909C177.74 48.2909 174.643 48.2909 171.523 48.2909C171.477 48.2909 171.43 48.2909 171.361 48.268C171.338 48.268 171.292 48.2221 171.245 48.1991C171.292 36.0359 171.292 23.8039 171.292 11.503Z" fill="#E37523"/>
<path d="M191.446 11.5259C194.728 11.5259 197.987 11.5259 201.316 11.5259C201.316 23.7809 201.316 36.0359 201.316 48.2909C198.01 48.2909 194.728 48.2909 191.446 48.2909C191.331 47.8549 191.331 12.0079 191.446 11.5259Z" fill="#E37523"/>
</svg>
