<svg width="96" height="80" viewBox="0 0 96 80" fill="none" xmlns="http://www.w3.org/2000/svg">
<g id="&#208;&#190;&#208;&#191;&#208;&#187;&#208;&#176;&#209;&#130;&#208;&#176; 2" clip-path="url(#clip0_478_25313)">
<g id="Group">
<g id="Group_2">
<g id="Group_3">
<g id="Clip path group">
<mask id="mask0_478_25313" style="mask-type:luminance" maskUnits="userSpaceOnUse" x="7" y="-1" width="81" height="74">
<g id="SVGID_00000142141231971700177330000002796738841917370815_">
<path id="Vector" d="M74.8004 21.1002C76.7004 15.8002 78.9003 9.50021 83.7003 6.20021C84.2003 5.90021 85.3004 5.30021 86.5004 4.80021C87.7003 4.40021 88.1003 3.50021 87.6003 2.20021C87.3003 1.40021 86.4003 0.90021 85.7003 0.90021C78.2003 0.30021 71.8003 4.70021 69.2003 4.70021C66.7003 4.70021 67.7004 0.60021 64.8004 0.50021C62.0004 0.50021 56.7004 4.30021 54.2004 4.20021C51.7004 4.10021 51.9004 0.10021 48.9004 0.20021C46.0004 0.20021 41.1003 4.00021 39.0003 4.00021C36.8003 4.00021 37.4003 0.000209586 35.3003 0.000209586C31.0003 -0.0997904 27.2003 4.30021 25.1003 7.60021C22.7003 11.3002 21.1003 15.4002 19.9003 19.6002C18.3003 25.3002 14.8004 53.4002 14.3004 56.0002C13.7004 59.3002 11.0003 63.3002 8.20035 66.0002C7.20035 66.9002 7.80035 68.6002 9.10035 68.7002C10.8004 68.8002 19.6003 65.5002 21.9003 65.7002C24.1003 65.9002 23.1003 69.8002 25.6003 70.0002C27.6003 70.2002 34.6003 66.6002 36.7003 66.8002C38.9004 67.0002 38.4003 71.0002 40.6003 71.2002C44.2003 71.5002 50.0004 67.9002 53.3004 68.2002C57.1003 68.5002 53.4004 72.2002 58.9004 72.7002C62.1004 73.0002 65.2004 69.6002 66.8004 66.2002C68.8004 62.1002 70.5004 45.5002 71.1003 39.6002C71.8003 35.0002 73.9004 23.5002 74.8004 21.1002Z" fill="white"/>
</g>
</mask>
<g mask="url(#mask0_478_25313)">
<path id="Vector_2" d="M75.7004 19.6002C77.6004 14.3002 79.2004 9.70021 84.0005 6.40021C84.5005 6.00021 85.8004 5.30021 87.2004 4.70021C88.2004 4.20021 88.5005 2.80021 87.9005 1.80021C87.4005 1.10021 86.3005 0.70021 85.8005 0.60021C83.7005 0.50021 81.1004 0.70021 78.9005 0.70021C73.7005 0.70021 52.0004 0.30021 46.4004 0.20021C42.7004 0.10021 39.0005 0.10021 35.4004 0.000209586C31.1004 -0.0997904 27.3004 4.30021 25.2004 7.60021C22.8004 11.3002 21.2004 15.4002 20.0004 19.6002C18.4004 25.3002 14.9004 53.4002 14.4004 56.0002C13.8004 59.3002 11.1004 63.3002 8.30045 66.0002C7.30045 66.9002 7.90045 68.6002 9.20045 68.7002C21.3004 69.7002 56.2004 72.5002 59.1004 72.7002C63.1004 73.0002 65.1004 70.7002 66.7004 67.4002C69.7004 61.4002 71.5005 46.2002 71.8005 39.7002C72.1005 34.9002 74.8004 22.0002 75.7004 19.6002Z" fill="url(#paint0_linear_478_25313)"/>
</g>
</g>
<g id="Clip path group_2">
<mask id="mask1_478_25313" style="mask-type:luminance" maskUnits="userSpaceOnUse" x="7" y="-1" width="81" height="74">
<g id="SVGID_00000142141231971700177330000002796738841917370815__2">
<path id="Vector_3" d="M74.8004 21.1002C76.7004 15.8002 78.9003 9.50021 83.7003 6.20021C84.2003 5.90021 85.3004 5.30021 86.5004 4.80021C87.7003 4.40021 88.1003 3.50021 87.6003 2.20021C87.3003 1.40021 86.4003 0.90021 85.7003 0.90021C78.2003 0.30021 71.8003 4.70021 69.2003 4.70021C66.7003 4.70021 67.7004 0.60021 64.8004 0.50021C62.0004 0.50021 56.7004 4.30021 54.2004 4.20021C51.7004 4.10021 51.9004 0.10021 48.9004 0.20021C46.0004 0.20021 41.1003 4.00021 39.0003 4.00021C36.8003 4.00021 37.4003 0.000209586 35.3003 0.000209586C31.0003 -0.0997904 27.2003 4.30021 25.1003 7.60021C22.7003 11.3002 21.1003 15.4002 19.9003 19.6002C18.3003 25.3002 14.8004 53.4002 14.3004 56.0002C13.7004 59.3002 11.0003 63.3002 8.20035 66.0002C7.20035 66.9002 7.80035 68.6002 9.10035 68.7002C10.8004 68.8002 19.6003 65.5002 21.9003 65.7002C24.1003 65.9002 23.1003 69.8002 25.6003 70.0002C27.6003 70.2002 34.6003 66.6002 36.7003 66.8002C38.9004 67.0002 38.4003 71.0002 40.6003 71.2002C44.2003 71.5002 50.0004 67.9002 53.3004 68.2002C57.1003 68.5002 53.4004 72.2002 58.9004 72.7002C62.1004 73.0002 65.2004 69.6002 66.8004 66.2002C68.8004 62.1002 70.5004 45.5002 71.1003 39.6002C71.8003 35.0002 73.9004 23.5002 74.8004 21.1002Z" fill="white"/>
</g>
</mask>
<g mask="url(#mask1_478_25313)">
<path id="Vector_4" d="M73.4005 16.6002C75.3005 11.3002 77.7005 6.30015 82.5005 3.10015C83.5005 2.40015 85.2005 1.60015 86.1005 0.900152C82.4005 -0.499848 35.7005 -1.09985 33.6005 -1.09985C29.3005 -1.19985 27.5005 1.50015 25.3005 4.80015C22.9005 8.50015 21.3005 12.6002 20.1005 16.8002C18.5005 22.5002 15.0005 50.6002 14.5005 53.2002C13.9005 56.5002 11.2005 60.5001 8.40055 63.2001C7.40055 64.1002 8.00055 65.8002 9.30055 65.9002C11.0005 66.0002 19.8005 62.7002 22.1005 62.9002C24.3005 63.1002 23.3005 67.0002 25.8005 67.2001C27.8005 67.4001 34.8005 63.8002 36.9005 64.0002C39.1005 64.2001 38.6005 68.2002 40.8005 68.4002C44.4005 68.7002 50.2005 65.1002 53.5005 65.4002C57.3005 65.7002 56.1005 70.5002 59.1005 69.6002C61.2005 69.0002 62.8005 68.3002 64.5005 64.9002C66.5005 60.8002 68.0005 40.8002 68.6005 36.1002C69.3005 31.4002 72.5005 19.0002 73.4005 16.6002Z" fill="url(#paint1_linear_478_25313)"/>
</g>
</g>
<g id="Clip path group_3">
<mask id="mask2_478_25313" style="mask-type:luminance" maskUnits="userSpaceOnUse" x="7" y="-1" width="81" height="74">
<g id="SVGID_00000142141231971700177330000002796738841917370815__3">
<path id="Vector_5" d="M74.8004 21.1002C76.7004 15.8002 78.9003 9.50021 83.7003 6.20021C84.2003 5.90021 85.3004 5.30021 86.5004 4.80021C87.7003 4.40021 88.1003 3.50021 87.6003 2.20021C87.3003 1.40021 86.4003 0.90021 85.7003 0.90021C78.2003 0.30021 71.8003 4.70021 69.2003 4.70021C66.7003 4.70021 67.7004 0.60021 64.8004 0.50021C62.0004 0.50021 56.7004 4.30021 54.2004 4.20021C51.7004 4.10021 51.9004 0.10021 48.9004 0.20021C46.0004 0.20021 41.1003 4.00021 39.0003 4.00021C36.8003 4.00021 37.4003 0.000209586 35.3003 0.000209586C31.0003 -0.0997904 27.2003 4.30021 25.1003 7.60021C22.7003 11.3002 21.1003 15.4002 19.9003 19.6002C18.3003 25.3002 14.8004 53.4002 14.3004 56.0002C13.7004 59.3002 11.0003 63.3002 8.20035 66.0002C7.20035 66.9002 7.80035 68.6002 9.10035 68.7002C10.8004 68.8002 19.6003 65.5002 21.9003 65.7002C24.1003 65.9002 23.1003 69.8002 25.6003 70.0002C27.6003 70.2002 34.6003 66.6002 36.7003 66.8002C38.9004 67.0002 38.4003 71.0002 40.6003 71.2002C44.2003 71.5002 50.0004 67.9002 53.3004 68.2002C57.1003 68.5002 53.4004 72.2002 58.9004 72.7002C62.1004 73.0002 65.2004 69.6002 66.8004 66.2002C68.8004 62.1002 70.5004 45.5002 71.1003 39.6002C71.8003 35.0002 73.9004 23.5002 74.8004 21.1002Z" fill="white"/>
</g>
</mask>
<g mask="url(#mask2_478_25313)">
<path id="Vector_6" opacity="0.3" d="M42.1001 36.5C32.9001 37.1 22.0001 37.2 13.1001 36.2C9.80013 35.8 8.10013 33.5 8.40013 30.2C9.10013 25.2 10.8001 18.7 12.9001 13.7C14.3001 10.5 16.8001 8.19999 20.4001 8.19999C30.1001 7.99999 40.3001 7.69999 49.3001 7.39999C52.8001 7.29999 55.6001 10.9 55.2001 14.2C54.5001 19.5 52.8001 25.5 50.5001 30.8C49.0001 34.1 45.7001 36.2 42.1001 36.5Z" fill="#729EB1"/>
</g>
</g>
<g id="Clip path group_4">
<mask id="mask3_478_25313" style="mask-type:luminance" maskUnits="userSpaceOnUse" x="7" y="-1" width="81" height="74">
<g id="SVGID_00000142141231971700177330000002796738841917370815__4">
<path id="Vector_7" d="M74.8004 21.1002C76.7004 15.8002 78.9003 9.50021 83.7003 6.20021C84.2003 5.90021 85.3004 5.30021 86.5004 4.80021C87.7003 4.40021 88.1003 3.50021 87.6003 2.20021C87.3003 1.40021 86.4003 0.90021 85.7003 0.90021C78.2003 0.30021 71.8003 4.70021 69.2003 4.70021C66.7003 4.70021 67.7004 0.60021 64.8004 0.50021C62.0004 0.50021 56.7004 4.30021 54.2004 4.20021C51.7004 4.10021 51.9004 0.10021 48.9004 0.20021C46.0004 0.20021 41.1003 4.00021 39.0003 4.00021C36.8003 4.00021 37.4003 0.000209586 35.3003 0.000209586C31.0003 -0.0997904 27.2003 4.30021 25.1003 7.60021C22.7003 11.3002 21.1003 15.4002 19.9003 19.6002C18.3003 25.3002 14.8004 53.4002 14.3004 56.0002C13.7004 59.3002 11.0003 63.3002 8.20035 66.0002C7.20035 66.9002 7.80035 68.6002 9.10035 68.7002C10.8004 68.8002 19.6003 65.5002 21.9003 65.7002C24.1003 65.9002 23.1003 69.8002 25.6003 70.0002C27.6003 70.2002 34.6003 66.6002 36.7003 66.8002C38.9004 67.0002 38.4003 71.0002 40.6003 71.2002C44.2003 71.5002 50.0004 67.9002 53.3004 68.2002C57.1003 68.5002 53.4004 72.2002 58.9004 72.7002C62.1004 73.0002 65.2004 69.6002 66.8004 66.2002C68.8004 62.1002 70.5004 45.5002 71.1003 39.6002C71.8003 35.0002 73.9004 23.5002 74.8004 21.1002Z" fill="white"/>
</g>
</mask>
<g mask="url(#mask3_478_25313)">
<path id="Vector_8" d="M87.7002 2.20002C87.4002 1.20002 86.3002 0.400016 85.2002 0.800016C83.3002 1.50002 81.5002 2.70002 79.9002 4.30002C76.3002 8.00002 73.9002 13 72.2002 17.9C70.7002 22.2 69.6002 26.7 68.9002 31.2C68.3002 34.5 67.9002 37.8 67.5002 41.1C67.0002 45.8 66.5002 50.4 65.9002 55.1C65.5002 58.1 65.0002 61.1 63.9002 64C63.4002 65.4 62.7002 67.1 61.7002 68.1C60.7002 69.1 59.1002 69.4 58.5002 70.3C58.1002 71.1 58.3002 72.3 59.5002 72.5C62.1002 72.9 64.5002 70.9 65.9002 68.9C67.3002 66.8 68.1002 64.3 68.7002 61.9C68.8002 61.3 69.0002 60.6 69.1002 60C70.3002 54 70.7002 47.8 71.4002 41.7C71.8002 38.5 72.2002 35.2 72.7002 32C73.4002 27.8 74.3002 23.7 75.6002 19.7C76.9002 15.6 78.8002 11.1 81.9002 8.00002C83.3002 6.60002 84.8002 5.60002 86.5002 4.90002C87.8002 4.50002 88.1002 3.20002 87.7002 2.20002Z" fill="url(#paint2_linear_478_25313)"/>
</g>
</g>
</g>
<g id="Group_4">
<path id="Vector_9" d="M28.8005 49.1002C29.1005 49.4002 29.2005 49.8002 29.4005 50.2002C29.7005 50.8002 30.0005 51.4002 30.3005 52.0002L31.0005 53.3002L33.9005 59.1002C34.5005 60.2002 34.0005 61.1002 32.9005 61.6002C31.6005 62.2002 30.2005 62.7002 28.8005 63.2002C26.5005 64.1002 24.9005 65.0002 22.5005 65.5002C22.1005 65.6002 20.0005 65.6002 20.4005 64.7002C20.8005 63.6002 21.4005 62.4002 21.7005 61.3002C23.0005 57.2002 24.8005 52.8002 26.3005 48.8002C26.6005 48.0002 27.9005 48.5002 28.4005 48.8002C28.6005 48.8002 28.7005 49.0002 28.8005 49.1002Z" fill="#F0592A"/>
<g id="Group_5">
<g id="Clip path group_5">
<mask id="mask4_478_25313" style="mask-type:luminance" maskUnits="userSpaceOnUse" x="8" y="38" width="25" height="28">
<g id="SVGID_00000159469310206476362100000004959559922875892653_">
<path id="Vector_10" d="M27.5004 48.8004L29.0004 51.8004L29.9004 53.5004L32.8004 59.3004C33.1004 59.9004 32.8004 60.7004 32.2004 60.9004L21.3004 65.2004C20.7004 65.4004 20.1004 64.9004 20.4004 64.3004L21.7004 60.8004C21.7004 60.8004 21.7004 60.8004 21.6004 60.8004C19.6004 60.3004 17.6004 59.3004 15.8004 58.2004C14.4004 57.4004 13.1004 56.4004 12.0004 55.3004C10.1004 53.5004 8.70039 51.2004 8.40039 48.6004C8.40039 48.1004 8.40039 47.6004 8.40039 47.0004C8.50039 46.1004 8.70039 45.2004 9.00039 44.4004C9.50039 43.4004 10.0004 42.3004 10.6004 41.4004C11.1004 40.6004 11.7004 39.6004 12.5004 39.2004C12.8004 39.0004 13.0004 38.9004 13.4004 38.9004C14.0004 39.0004 14.1004 39.5004 13.9004 40.0004C13.7004 40.5004 13.7004 41.1004 13.7004 41.6004C13.8004 42.9004 14.3004 44.3004 14.9004 45.4004C14.9004 45.4004 14.9004 45.5004 15.0004 45.5004C16.3004 47.9004 18.3004 49.8004 20.7004 51.0004C22.0004 51.7004 23.4004 52.2004 24.7004 52.7004L25.0004 52.0004L25.5004 50.5004L26.1004 48.9004C26.2004 48.6004 26.5004 48.4004 26.7004 48.4004C27.1004 48.4004 27.4004 48.5004 27.5004 48.8004Z" fill="white"/>
</g>
</mask>
<g mask="url(#mask4_478_25313)">
<path id="Vector_11" d="M27.5004 48.8004L29.0004 51.8004L29.9004 53.5004L32.8004 59.3004C33.1004 59.9004 32.8004 60.7004 32.2004 60.9004L21.3004 65.2004C20.7004 65.4004 20.1004 64.9004 20.4004 64.3004L21.7004 60.8004C21.7004 60.8004 21.7004 60.8004 21.6004 60.8004C19.6004 60.3004 17.6004 59.3004 15.8004 58.2004C14.4004 57.4004 13.1004 56.4004 12.0004 55.3004C10.1004 53.5004 8.70039 51.2004 8.40039 48.6004C8.40039 48.1004 8.40039 47.6004 8.40039 47.0004C8.50039 46.1004 8.70039 45.2004 9.00039 44.4004C9.50039 43.4004 10.0004 42.3004 10.6004 41.4004C11.1004 40.6004 11.7004 39.6004 12.5004 39.2004C12.8004 39.0004 13.0004 38.9004 13.4004 38.9004C14.0004 39.0004 14.1004 39.5004 13.9004 40.0004C13.7004 40.5004 13.7004 41.1004 13.7004 41.6004C13.8004 42.9004 14.3004 44.3004 14.9004 45.4004C14.9004 45.4004 14.9004 45.5004 15.0004 45.5004C16.3004 47.9004 18.3004 49.8004 20.7004 51.0004C22.0004 51.7004 23.4004 52.2004 24.7004 52.7004L25.0004 52.0004L25.5004 50.5004L26.1004 48.9004C26.2004 48.6004 26.5004 48.4004 26.7004 48.4004C27.1004 48.4004 27.4004 48.5004 27.5004 48.8004Z" fill="url(#paint3_linear_478_25313)"/>
</g>
</g>
<g id="Clip path group_6">
<mask id="mask5_478_25313" style="mask-type:luminance" maskUnits="userSpaceOnUse" x="8" y="38" width="25" height="28">
<g id="SVGID_00000159469310206476362100000004959559922875892653__2">
<path id="Vector_12" d="M27.5004 48.8004L29.0004 51.8004L29.9004 53.5004L32.8004 59.3004C33.1004 59.9004 32.8004 60.7004 32.2004 60.9004L21.3004 65.2004C20.7004 65.4004 20.1004 64.9004 20.4004 64.3004L21.7004 60.8004C21.7004 60.8004 21.7004 60.8004 21.6004 60.8004C19.6004 60.3004 17.6004 59.3004 15.8004 58.2004C14.4004 57.4004 13.1004 56.4004 12.0004 55.3004C10.1004 53.5004 8.70039 51.2004 8.40039 48.6004C8.40039 48.1004 8.40039 47.6004 8.40039 47.0004C8.50039 46.1004 8.70039 45.2004 9.00039 44.4004C9.50039 43.4004 10.0004 42.3004 10.6004 41.4004C11.1004 40.6004 11.7004 39.6004 12.5004 39.2004C12.8004 39.0004 13.0004 38.9004 13.4004 38.9004C14.0004 39.0004 14.1004 39.5004 13.9004 40.0004C13.7004 40.5004 13.7004 41.1004 13.7004 41.6004C13.8004 42.9004 14.3004 44.3004 14.9004 45.4004C14.9004 45.4004 14.9004 45.5004 15.0004 45.5004C16.3004 47.9004 18.3004 49.8004 20.7004 51.0004C22.0004 51.7004 23.4004 52.2004 24.7004 52.7004L25.0004 52.0004L25.5004 50.5004L26.1004 48.9004C26.2004 48.6004 26.5004 48.4004 26.7004 48.4004C27.1004 48.4004 27.4004 48.5004 27.5004 48.8004Z" fill="white"/>
</g>
</mask>
<g mask="url(#mask5_478_25313)">
<path id="Vector_13" d="M27.5006 48.8003L29.0006 51.8003L29.9006 53.5003L32.8006 59.3003C33.1006 59.9003 32.8006 60.7003 32.2006 60.9003L21.3006 65.2003C20.7006 65.4003 20.1006 64.9003 20.4006 64.3003C21.2006 62.2003 22.2006 60.1003 23.0006 58.0003C24.2006 55.0003 25.1006 51.8003 26.2006 48.8003C26.3006 48.5003 26.6006 48.3003 26.8006 48.3003C27.1006 48.4003 27.4006 48.5003 27.5006 48.8003Z" fill="url(#paint4_linear_478_25313)"/>
</g>
</g>
<g id="Clip path group_7">
<mask id="mask6_478_25313" style="mask-type:luminance" maskUnits="userSpaceOnUse" x="8" y="38" width="25" height="28">
<g id="SVGID_00000159469310206476362100000004959559922875892653__3">
<path id="Vector_14" d="M27.5004 48.8004L29.0004 51.8004L29.9004 53.5004L32.8004 59.3004C33.1004 59.9004 32.8004 60.7004 32.2004 60.9004L21.3004 65.2004C20.7004 65.4004 20.1004 64.9004 20.4004 64.3004L21.7004 60.8004C21.7004 60.8004 21.7004 60.8004 21.6004 60.8004C19.6004 60.3004 17.6004 59.3004 15.8004 58.2004C14.4004 57.4004 13.1004 56.4004 12.0004 55.3004C10.1004 53.5004 8.70039 51.2004 8.40039 48.6004C8.40039 48.1004 8.40039 47.6004 8.40039 47.0004C8.50039 46.1004 8.70039 45.2004 9.00039 44.4004C9.50039 43.4004 10.0004 42.3004 10.6004 41.4004C11.1004 40.6004 11.7004 39.6004 12.5004 39.2004C12.8004 39.0004 13.0004 38.9004 13.4004 38.9004C14.0004 39.0004 14.1004 39.5004 13.9004 40.0004C13.7004 40.5004 13.7004 41.1004 13.7004 41.6004C13.8004 42.9004 14.3004 44.3004 14.9004 45.4004C14.9004 45.4004 14.9004 45.5004 15.0004 45.5004C16.3004 47.9004 18.3004 49.8004 20.7004 51.0004C22.0004 51.7004 23.4004 52.2004 24.7004 52.7004L25.0004 52.0004L25.5004 50.5004L26.1004 48.9004C26.2004 48.6004 26.5004 48.4004 26.7004 48.4004C27.1004 48.4004 27.4004 48.5004 27.5004 48.8004Z" fill="white"/>
</g>
</mask>
<g mask="url(#mask6_478_25313)">
<path id="Vector_15" d="M27.5006 48.8003L29.0006 51.8003L29.9006 53.5003L32.8006 59.3003C33.1006 59.9003 32.8006 60.7003 32.2006 60.9003L21.3006 65.2003C20.7006 65.4003 20.1006 64.9003 20.4006 64.3003C21.2006 62.2003 22.2006 60.1003 23.0006 58.0003C24.2006 55.0003 25.1006 51.8003 26.2006 48.8003C26.3006 48.5003 26.6006 48.3003 26.8006 48.3003C27.1006 48.4003 27.4006 48.5003 27.5006 48.8003Z" fill="url(#paint5_linear_478_25313)"/>
</g>
</g>
<g id="Clip path group_8">
<mask id="mask7_478_25313" style="mask-type:luminance" maskUnits="userSpaceOnUse" x="8" y="38" width="25" height="28">
<g id="SVGID_00000159469310206476362100000004959559922875892653__4">
<path id="Vector_16" d="M27.5004 48.8004L29.0004 51.8004L29.9004 53.5004L32.8004 59.3004C33.1004 59.9004 32.8004 60.7004 32.2004 60.9004L21.3004 65.2004C20.7004 65.4004 20.1004 64.9004 20.4004 64.3004L21.7004 60.8004C21.7004 60.8004 21.7004 60.8004 21.6004 60.8004C19.6004 60.3004 17.6004 59.3004 15.8004 58.2004C14.4004 57.4004 13.1004 56.4004 12.0004 55.3004C10.1004 53.5004 8.70039 51.2004 8.40039 48.6004C8.40039 48.1004 8.40039 47.6004 8.40039 47.0004C8.50039 46.1004 8.70039 45.2004 9.00039 44.4004C9.50039 43.4004 10.0004 42.3004 10.6004 41.4004C11.1004 40.6004 11.7004 39.6004 12.5004 39.2004C12.8004 39.0004 13.0004 38.9004 13.4004 38.9004C14.0004 39.0004 14.1004 39.5004 13.9004 40.0004C13.7004 40.5004 13.7004 41.1004 13.7004 41.6004C13.8004 42.9004 14.3004 44.3004 14.9004 45.4004C14.9004 45.4004 14.9004 45.5004 15.0004 45.5004C16.3004 47.9004 18.3004 49.8004 20.7004 51.0004C22.0004 51.7004 23.4004 52.2004 24.7004 52.7004L25.0004 52.0004L25.5004 50.5004L26.1004 48.9004C26.2004 48.6004 26.5004 48.4004 26.7004 48.4004C27.1004 48.4004 27.4004 48.5004 27.5004 48.8004Z" fill="white"/>
</g>
</mask>
<g mask="url(#mask7_478_25313)">
<path id="Vector_17" d="M24.2004 52.5004C24.4004 52.7004 24.6004 52.9004 24.8004 53.2004C25.2004 54.0004 25.0004 55.0004 24.5004 55.8004C23.7004 57.2004 22.3004 58.3004 20.7004 58.7004C17.3004 59.6004 14.3004 57.2004 12.0004 55.0004C10.1004 53.2004 8.70039 50.9004 8.40039 48.3004C8.40039 47.8004 8.40039 47.3004 8.40039 46.7004C8.50039 45.8004 8.70039 44.9004 9.00039 44.1004C9.90039 42.1004 10.8004 40.5004 11.9004 39.3004C13.0004 38.1004 14.1004 37.3004 15.8004 36.5004C17.5004 35.7004 17.9004 35.8004 17.9004 35.8004V37.2004C17.9004 37.2004 15.6004 37.5004 14.3004 38.8004C13.1004 40.1004 13.8004 43.0004 15.0004 45.2004C16.3004 47.6004 18.3004 49.5004 20.7004 50.7004C21.7004 51.4004 23.3004 51.7004 24.2004 52.5004Z" fill="url(#paint6_radial_478_25313)"/>
</g>
</g>
<g id="Clip path group_9">
<mask id="mask8_478_25313" style="mask-type:luminance" maskUnits="userSpaceOnUse" x="8" y="38" width="25" height="28">
<g id="SVGID_00000159469310206476362100000004959559922875892653__5">
<path id="Vector_18" d="M27.5004 48.8004L29.0004 51.8004L29.9004 53.5004L32.8004 59.3004C33.1004 59.9004 32.8004 60.7004 32.2004 60.9004L21.3004 65.2004C20.7004 65.4004 20.1004 64.9004 20.4004 64.3004L21.7004 60.8004C21.7004 60.8004 21.7004 60.8004 21.6004 60.8004C19.6004 60.3004 17.6004 59.3004 15.8004 58.2004C14.4004 57.4004 13.1004 56.4004 12.0004 55.3004C10.1004 53.5004 8.70039 51.2004 8.40039 48.6004C8.40039 48.1004 8.40039 47.6004 8.40039 47.0004C8.50039 46.1004 8.70039 45.2004 9.00039 44.4004C9.50039 43.4004 10.0004 42.3004 10.6004 41.4004C11.1004 40.6004 11.7004 39.6004 12.5004 39.2004C12.8004 39.0004 13.0004 38.9004 13.4004 38.9004C14.0004 39.0004 14.1004 39.5004 13.9004 40.0004C13.7004 40.5004 13.7004 41.1004 13.7004 41.6004C13.8004 42.9004 14.3004 44.3004 14.9004 45.4004C14.9004 45.4004 14.9004 45.5004 15.0004 45.5004C16.3004 47.9004 18.3004 49.8004 20.7004 51.0004C22.0004 51.7004 23.4004 52.2004 24.7004 52.7004L25.0004 52.0004L25.5004 50.5004L26.1004 48.9004C26.2004 48.6004 26.5004 48.4004 26.7004 48.4004C27.1004 48.4004 27.4004 48.5004 27.5004 48.8004Z" fill="white"/>
</g>
</mask>
<g mask="url(#mask8_478_25313)">
<path id="Vector_19" d="M28.8002 49.1002C28.7002 49.0002 28.6002 48.8002 28.4002 48.7002C28.0002 48.4002 27.1002 48.1002 26.6002 48.4002C26.4002 48.5002 26.2002 48.6002 26.2002 48.8002L25.6002 50.4002L25.0002 51.9002L24.7002 52.6002C24.4002 52.5002 24.1002 52.3002 23.7002 52.2002C22.8002 51.7002 21.7002 51.3002 20.9002 51.0002C20.8002 51.0002 20.7002 50.9002 20.7002 50.9002C20.4002 50.7002 20.1002 50.6002 19.8002 50.4002C19.4002 50.1002 19.0002 49.9002 18.6002 49.6002C18.3002 49.4002 18.1002 49.2002 17.8002 49.0002C16.7002 48.0002 15.7002 46.8002 15.0002 45.5002C13.8002 43.3002 13.1002 40.4002 14.3002 39.1002C15.5002 37.8002 17.9002 37.5002 17.9002 37.5002V36.1002C17.9002 36.1002 17.5002 36.0002 15.8002 36.8002C14.1002 37.6002 13.0002 38.4002 11.9002 39.6002C10.8002 40.8002 9.9002 42.4002 9.0002 44.4002C8.7002 45.3002 8.5002 46.1002 8.4002 47.0002C8.3002 47.5002 8.3002 48.1002 8.4002 48.6002C8.6002 51.2002 10.1002 53.5002 12.0002 55.3002C13.1002 56.3002 14.3002 57.4002 15.7002 58.2002L15.8002 58.3002C17.6002 59.4002 19.6002 60.4002 21.6002 60.9002C21.6002 60.9002 21.6002 60.9002 21.7002 60.9002L20.4002 64.4002C20.4002 64.4002 20.4002 64.4002 20.4002 64.5002C20.4002 64.5002 20.4002 64.5002 20.4002 64.6002C20.4002 64.6002 20.4002 64.6002 20.4002 64.7002C20.4002 64.7002 20.4002 64.7002 20.4002 64.8002C20.4002 64.8002 20.4002 64.8002 20.4002 64.9002C20.3002 65.7002 22.2002 65.7002 22.6002 65.6002C25.0002 65.1002 26.7002 64.2002 28.9002 63.3002C30.3002 62.8002 31.7002 62.3002 33.0002 61.7002C34.1002 61.2002 34.6002 60.3002 34.0002 59.2002L31.0002 53.3002L30.4002 52.0002C30.1002 51.4002 29.8002 50.8002 29.5002 50.2002C29.2002 49.8002 29.1002 49.4002 28.8002 49.1002Z" fill="url(#paint7_radial_478_25313)"/>
</g>
</g>
</g>
</g>
<g id="Group_6">
<path id="Vector_20" d="M41.2002 35.5004C32.0002 36.1004 21.1002 36.2004 12.2002 35.2004C8.90023 34.8004 7.20023 32.5004 7.50023 29.2004C8.20023 24.2004 9.90023 17.7004 12.0002 12.7004C13.4002 9.50041 15.9002 7.20041 19.5002 7.20041C29.2002 7.00041 39.3002 6.40041 48.4002 6.50041C51.9002 6.60041 54.7002 10.0004 54.3002 13.3004C53.6002 18.6004 51.9002 24.6004 49.6002 29.9004C48.1002 33.2004 44.8002 35.3004 41.2002 35.5004Z" fill="url(#paint8_linear_478_25313)"/>
<path id="Vector_21" d="M41.2002 35.5006C32.0002 36.1006 21.1002 36.2006 12.2002 35.2006C8.90023 34.8006 7.20023 32.5006 7.50023 29.2006C8.20023 24.2006 9.90023 17.7006 12.0002 12.7006C13.4002 9.50057 15.9002 7.20057 19.5002 7.20057C29.1002 7.00057 39.3002 6.80057 48.3002 6.50057C51.8002 6.40057 54.6002 10.0006 54.2002 13.3006C53.5002 18.6006 51.8002 24.6006 49.5002 29.9006C48.1002 33.2006 44.8002 35.3006 41.2002 35.5006Z" fill="url(#paint9_linear_478_25313)"/>
<path id="Vector_22" opacity="0.3" d="M42.7004 27.1004C42.6004 27.1004 42.5004 27.1004 42.4004 27.1004H39.7004C38.4004 27.1004 37.7004 26.0004 38.0004 24.6004C38.3004 23.3004 39.6004 22.2004 40.8004 22.2004H43.5004C44.8004 22.2004 45.5004 23.3004 45.2004 24.7004C44.9004 26.0004 43.8004 27.0004 42.7004 27.1004ZM34.5004 27.0004C34.4004 27.0004 34.3004 27.0004 34.2004 27.0004H31.5004C30.2004 27.0004 29.5004 25.9004 29.8004 24.5004C30.1004 23.2004 31.4004 22.1004 32.6004 22.1004H35.3004C36.6004 22.1004 37.3004 23.2004 37.0004 24.6004C36.7004 25.9004 35.6004 26.9004 34.5004 27.0004ZM26.2004 26.9004C26.1004 26.9004 26.0004 26.9004 25.9004 26.9004H23.2004C21.9004 26.9004 21.2004 25.8004 21.5004 24.4004C21.8004 23.1004 23.1004 22.0004 24.3004 22.0004H27.0004C28.3004 22.0004 29.0004 23.1004 28.7004 24.5004C28.5004 25.8004 27.4004 26.8004 26.2004 26.9004ZM18.0004 26.8004C17.9004 26.8004 17.8004 26.8004 17.7004 26.8004H15.0004C13.7004 26.8004 13.0004 25.7004 13.3004 24.3004C13.6004 23.0004 14.9004 21.9004 16.1004 21.9004H18.8004C20.1004 21.9004 20.8004 23.0004 20.5004 24.4004C20.3004 25.7004 19.2004 26.7004 18.0004 26.8004Z" fill="#432594"/>
<path id="Vector_23" opacity="0.3" d="M22.3 27.8002L16.6 27.7002H14.7C13.8 27.7002 13 28.4002 12.7 29.4002C12.5 30.3002 13 31.1002 13.9 31.1002C13.9 31.1002 21.6 31.2002 21.7 31.2002C22.5 31.1002 23.2 30.4002 23.4 29.6002C23.6 28.6002 23.1 27.8002 22.3 27.8002Z" fill="#402A69"/>
<path id="Vector_24" opacity="0.3" d="M31.2002 27.8003H28.3002H26.4002C25.5002 27.8003 24.7002 28.5003 24.4002 29.5003C24.2002 30.4003 24.7002 31.2003 25.6002 31.2003C25.6002 31.2003 30.5002 31.2003 30.6002 31.2003C31.4002 31.1003 32.1002 30.4003 32.3002 29.6003C32.6002 28.6003 32.1002 27.8003 31.2002 27.8003Z" fill="#402A69"/>
<path id="Vector_25" d="M42.6004 26.5003C42.5004 26.5003 42.4004 26.5003 42.3004 26.5003H39.6004C38.3004 26.5003 37.6004 25.4003 37.9004 24.0003C38.2004 22.7003 39.5004 21.6003 40.7004 21.6003H43.4004C44.7004 21.6003 45.4004 22.7003 45.1004 24.1003C44.8004 25.3003 43.7004 26.3003 42.6004 26.5003ZM34.4004 26.4003C34.3004 26.4003 34.2004 26.4003 34.1004 26.4003H31.4004C30.1004 26.4003 29.4004 25.3003 29.7004 23.9003C30.0004 22.6003 31.3004 21.5003 32.5004 21.5003H35.2004C36.5004 21.5003 37.2004 22.6003 36.9004 24.0003C36.6004 25.2003 35.5004 26.2003 34.4004 26.4003ZM26.2004 26.3003C26.1004 26.3003 26.0004 26.3003 25.9004 26.3003H23.2004C21.9004 26.3003 21.2004 25.2003 21.5004 23.8003C21.8004 22.5003 23.1004 21.4003 24.3004 21.4003H27.0004C28.3004 21.4003 29.0004 22.5003 28.7004 23.9003C28.4004 25.1003 27.3004 26.2003 26.2004 26.3003ZM18.0004 26.2003C17.9004 26.2003 17.8004 26.2003 17.7004 26.2003H15.0004C13.7004 26.2003 13.0004 25.1003 13.3004 23.7003C13.6004 22.4003 14.9004 21.3003 16.1004 21.3003H18.8004C20.1004 21.3003 20.8004 22.4003 20.5004 23.8003C20.2004 25.0003 19.1004 26.1003 18.0004 26.2003Z" fill="url(#paint10_linear_478_25313)"/>
<path id="Vector_26" opacity="0.3" d="M19.7001 18.7005H17.0001C16.2001 18.7005 15.7001 17.9005 16.0001 17.2005L17.0001 14.3005C17.3001 13.5005 18.0001 13.0005 18.8001 13.0005H21.7001C22.5001 13.0005 23.0001 13.7005 22.8001 14.5005L22.0001 17.2005C21.6001 18.1005 20.7001 18.8005 19.7001 18.7005Z" fill="#402A69"/>
<path id="Vector_27" opacity="0.3" d="M44.2001 18.7004L41.5001 18.6004C40.7001 18.6004 40.2001 17.8004 40.5001 17.1004L41.5001 14.2004C41.8001 13.4004 42.5001 12.9004 43.3001 12.9004H46.2001C47.0001 12.9004 47.5001 13.6004 47.3001 14.4004L46.5001 17.1004C46.1001 18.1004 45.2001 18.8004 44.2001 18.7004Z" fill="#402A69"/>
<path id="Vector_28" d="M19.4003 18.2004L16.7003 18.1004C15.9003 18.1004 15.4003 17.3004 15.7003 16.6004L16.7003 13.7004C17.0003 12.9004 17.7003 12.4004 18.5003 12.4004H21.4003C22.2003 12.4004 22.7003 13.1004 22.5003 13.9004L21.7003 16.6004C21.4003 17.6004 20.4003 18.3004 19.4003 18.2004Z" fill="url(#paint11_linear_478_25313)"/>
<path id="Vector_29" d="M19.7 17.5002C19.6 17.5002 19.5 17.5002 19.5 17.5002L16.8 17.4002C16.6 17.4002 16.5 17.3002 16.5 17.2002C16.5 17.1002 16.4 17.0002 16.5 16.9002L17.5 14.0002C17.6 13.6002 18 13.3002 18.4 13.2002H18.5H21.4C21.6 13.2002 21.7 13.3002 21.7 13.4002C21.7 13.5002 21.8 13.6002 21.8 13.7002L21 16.4002C20.8 17.0002 20.3 17.4002 19.7 17.5002Z" fill="url(#paint12_linear_478_25313)"/>
</g>
<path id="Vector_30" d="M65.0094 54.1547C67.351 46.4965 63.5548 38.5472 56.5304 36.3994C49.506 34.2516 41.9134 38.7186 39.5718 46.3768C37.2303 54.035 41.0264 61.9843 48.0508 64.1321C55.0752 66.2799 62.6678 61.8128 65.0094 54.1547Z" fill="#75A0B3"/>
<path id="Vector_31" d="M53.9001 45C53.9001 44.7 54.0001 44.4 53.9001 44.1L53.0001 43.5C53.0001 43.5 52.6001 44.6 52.5001 44.5C52.2001 44.2 51.8001 43.9 51.5001 43.7C51.7001 43 51.9001 42.3 52.1001 41.6L51.2001 41C51.2001 41 50.9001 41.4 50.6001 41.4C50.4001 42 50.2001 42.7 50.0001 43.3C46.7001 42.6 45.6001 48.6 45.8001 48.8C46.2001 49.2 46.5001 49.4 47.0001 49.7C47.3001 49.9 47.5001 50 47.8001 50.2C48.0001 50.4 47.8001 50.6 47.5001 51.7C47.4001 52.2 47.2001 52.6 47.1001 53.1C47.0001 53.3 46.8001 53 46.4001 52.6C45.8001 51.8 45.7001 50.7 45.5001 49.8C45.4001 49.7 44.7001 49.2 44.7001 49.2L44.0001 49.8C43.8001 51.2 42.6001 53.7 42.6001 53.7L43.4001 54.3C43.7001 54.3 43.9001 54.4 44.2001 54.4H44.3001C44.5001 54.1 44.7001 53.8 45.0001 53.5C45.2001 53.7 45.9001 54.4 45.4001 53.9C45.7001 54.1 46.1001 54.5 46.5001 54.7C46.7001 54.9 45.1001 56.3 45.1001 56.3L45.9001 56.9C46.6001 57 47.0001 57.1 47.2001 57.1C47.7001 57.2 47.4001 56.3 48.0001 55.1C49.9001 55.2 52.1001 54.2 52.7001 52.3C53.1001 51.1 52.7001 49.6 51.6001 48.8C51.0001 48.3 51.1001 48.5 50.1001 47.9C50.1001 47.9 50.0001 47.8 50.1001 47.8C50.3001 47 50.6001 46.3 50.8001 45.5C50.9001 45.3 51.7001 46.5 51.7001 46.7C51.8001 47 51.1001 47.4 51.1001 47.4L51.9001 48C52.2001 48 52.6001 47.9 52.9001 47.9C53.1001 47.9 53.4001 47.9 53.4001 47.8C53.8001 47 53.9001 46 53.9001 45ZM49.5001 45C49.3001 45.7 49.0001 46.5 48.8001 47.3C47.4001 46.6 47.7001 44.8 49.5001 45ZM50.2001 52.8C49.8001 53.3 49.2001 53.4 48.6001 53.4C48.6001 53.2 48.7001 53 48.7001 52.8C48.9001 52.1 49.1001 51.5 49.3001 50.8C49.4001 50.8 49.9001 51.2 49.6001 51C50.3001 51.5 50.6001 52.1 50.2001 52.8Z" fill="url(#paint13_linear_478_25313)"/>
<path id="Vector_32" d="M52 51.9001C51.4 53.7001 49.5 54.7001 47.7 54.7001C47.5 54.7001 47.4 54.7001 47.2 54.7001C47.1 54.7001 47.1 54.8001 47.1 54.9001C46.3 57.1001 47.2 56.9001 45 56.5001C45.8 53.5001 46 54.8001 44.6 53.5001C44.4 53.3001 44.3 53.1001 44.1 53.0001C44 53.0001 43.9 53.3001 43.8 53.4001C43.7 53.6001 43.5 53.7001 43.4 53.9001C43.4 53.9001 43.3 54.0001 43.3 53.9001C43 53.9001 42.7 53.8001 42.5 53.8001C42.5 53.7001 42.5 53.6001 42.5 53.4001C42.7 52.0001 42.8 50.6001 43 49.2001C43 49.2001 43 49.1001 43.1 49.1001C43.6 49.1001 44.1 49.0001 44.6 49.0001C44.7 49.0001 44.7 49.0001 44.7 49.1001C44.8 50.2001 45.1 51.3001 45.8 52.1001C45.9 52.2001 46.2 52.6001 46.3 52.4001C46.4 51.9001 46.6 51.5001 46.7 51.0001C47.2 49.2001 47.5 49.9001 46 48.8001C43.2 47.0001 44.5 43.3001 47.5 42.6001C48.1 42.4001 48.7 42.5001 49.3 42.5001C49.5 41.9001 49.7 41.2001 49.9 40.6001C50.3 40.7001 50.7 40.7001 51.1 40.8001C51.3 40.8001 51.4 40.8001 51.4 40.9001C51.2 41.6001 51 42.2001 50.8 42.9001C50.8 43.0001 50.8 43.0001 50.8 43.0001C51.2 43.2001 51.4 43.5001 51.7 43.7001C51.8 43.8001 52 43.4001 52.2 43.3001C52.4 43.1001 52.6 43.2001 52.7 43.3001C52.8 43.3001 53.1 43.3001 53.1 43.4001C53.1 44.7001 53 46.0001 52.9 47.3001C52.9 47.4001 52.5 47.4001 52.4 47.4001C52.1 47.4001 51.8 47.5001 51.5 47.5001C51.4 47.5001 51.4 47.5001 51.4 47.4001C51.3 47.0001 51.3 46.5001 51.1 46.1001C51 46.0001 50.2 44.8001 50.1 45.0001C49.9 45.8001 49.6 46.5001 49.4 47.3001C49.4 47.4001 49.4 47.4001 49.4 47.4001C49.8 47.7001 50.3 47.9001 50.7 48.2001C52 49.0001 52.4 50.5001 52 51.9001ZM49.4 52.2001C49.9 51.4001 49.4 50.6001 48.6 50.3001C48.4 51.2001 48 52.0001 47.9 52.9001C48.4 52.8001 49 52.7001 49.4 52.2001ZM48 46.6001C48.2 45.8001 48.5 45.0001 48.7 44.3001C46.9 44.2001 46.4 45.9001 48 46.6001Z" fill="url(#paint14_linear_478_25313)"/>
</g>
</g>
</g>
<defs>
<linearGradient id="paint0_linear_478_25313" x1="11.199" y1="27.781" x2="85.5296" y2="41.9525" gradientUnits="userSpaceOnUse">
<stop offset="0.00984585" stop-color="#B7DFED"/>
<stop offset="0.0382361" stop-color="#BCE1ED"/>
<stop offset="0.183" stop-color="#D4E8EE"/>
<stop offset="0.2727" stop-color="#DDEBEE"/>
<stop offset="0.5128" stop-color="#D3E8EE"/>
<stop offset="0.919" stop-color="#B8DFED"/>
<stop offset="0.939" stop-color="#B7DFED"/>
</linearGradient>
<linearGradient id="paint1_linear_478_25313" x1="49.8582" y1="-2.17093" x2="44.2022" y2="68.6566" gradientUnits="userSpaceOnUse">
<stop stop-color="#B7DFED"/>
<stop offset="0.00475382" stop-color="#BAE0EE"/>
<stop offset="0.0523036" stop-color="#D9EDF5"/>
<stop offset="0.0926917" stop-color="#ECF5F9"/>
<stop offset="0.1209" stop-color="#F3F8FB"/>
<stop offset="0.2739" stop-color="#D6ECF4"/>
<stop offset="0.4246" stop-color="#BFE2EF"/>
<stop offset="0.5206" stop-color="#B7DFED"/>
<stop offset="0.7134" stop-color="#A9D3E1"/>
<stop offset="0.835" stop-color="#9EC9D8"/>
<stop offset="0.8801" stop-color="#A2CCDB"/>
<stop offset="0.9218" stop-color="#ADD3E4"/>
<stop offset="0.9621" stop-color="#C0E0F2"/>
<stop offset="0.9868" stop-color="#CFEBFE"/>
</linearGradient>
<linearGradient id="paint2_linear_478_25313" x1="99.365" y1="5.76519" x2="44.2057" y2="70.2261" gradientUnits="userSpaceOnUse">
<stop offset="5e-08" stop-color="#729EB1"/>
<stop offset="0.0511963" stop-color="#99BED1"/>
<stop offset="0.0994193" stop-color="#B7D7EA"/>
<stop offset="0.1409" stop-color="#C9E6F9"/>
<stop offset="0.1707" stop-color="#CFEBFE"/>
<stop offset="0.3822" stop-color="#B8D8E9"/>
<stop offset="0.7274" stop-color="#8AB3C1"/>
<stop offset="0.7655" stop-color="#90B8C6"/>
<stop offset="0.8142" stop-color="#9FC4D4"/>
<stop offset="0.8684" stop-color="#B9DAEB"/>
<stop offset="0.9046" stop-color="#CFEBFE"/>
</linearGradient>
<linearGradient id="paint3_linear_478_25313" x1="5.80222" y1="46.8366" x2="31.5321" y2="58.4629" gradientUnits="userSpaceOnUse">
<stop offset="0.0342772" stop-color="#FFC39D"/>
<stop offset="0.6766" stop-color="#FB824C"/>
<stop offset="1" stop-color="#F0592A"/>
</linearGradient>
<linearGradient id="paint4_linear_478_25313" x1="27.0807" y1="63.3269" x2="25.7211" y2="59.7641" gradientUnits="userSpaceOnUse">
<stop offset="0.0364964" stop-color="#D35B36"/>
<stop offset="0.2792" stop-color="#FB824C"/>
<stop offset="0.4427" stop-color="#FD9867"/>
<stop offset="0.663" stop-color="#FEAF85"/>
<stop offset="0.8528" stop-color="#FFBE97"/>
<stop offset="0.9891" stop-color="#FFC39D"/>
</linearGradient>
<linearGradient id="paint5_linear_478_25313" x1="30.6197" y1="54.0317" x2="28.7115" y2="54.9762" gradientUnits="userSpaceOnUse">
<stop stop-color="#D35B36"/>
<stop offset="0.3562" stop-color="#FB824C"/>
<stop offset="0.5045" stop-color="#FD9867"/>
<stop offset="0.7043" stop-color="#FEAF85"/>
<stop offset="0.8765" stop-color="#FFBE97"/>
<stop offset="1" stop-color="#FFC39D"/>
</linearGradient>
<radialGradient id="paint6_radial_478_25313" cx="0" cy="0" r="1" gradientUnits="userSpaceOnUse" gradientTransform="translate(24.5667 39.7733) rotate(-31.9052) scale(31.1386)">
<stop offset="0.3604" stop-color="#F0592A"/>
<stop offset="0.3909" stop-color="#F66B36"/>
<stop offset="0.4233" stop-color="#FA763D"/>
<stop offset="0.4602" stop-color="#FB793F"/>
<stop offset="0.8241" stop-color="#FFC39D"/>
</radialGradient>
<radialGradient id="paint7_radial_478_25313" cx="0" cy="0" r="1" gradientUnits="userSpaceOnUse" gradientTransform="translate(29.4347 58.2622) rotate(-31.9052) scale(9.20534)">
<stop stop-color="#FFC39D"/>
<stop offset="0.2233" stop-color="#FFC099"/>
<stop offset="0.4461" stop-color="#FEB68D"/>
<stop offset="0.6688" stop-color="#FDA679"/>
<stop offset="0.8902" stop-color="#FC905D"/>
<stop offset="1" stop-color="#FB824C"/>
</radialGradient>
<linearGradient id="paint8_linear_478_25313" x1="31.189" y1="3.50299" x2="30.6744" y2="38.4071" gradientUnits="userSpaceOnUse">
<stop offset="1.7e-07" stop-color="#6945A8"/>
<stop offset="0.0126606" stop-color="#8256BD"/>
<stop offset="0.0303753" stop-color="#9E69D5"/>
<stop offset="0.0495019" stop-color="#B478E8"/>
<stop offset="0.0704772" stop-color="#C382F5"/>
<stop offset="0.0946937" stop-color="#CC88FD"/>
<stop offset="0.1296" stop-color="#CF8AFF"/>
<stop offset="0.1647" stop-color="#C383FC"/>
<stop offset="0.2364" stop-color="#B179F6"/>
<stop offset="0.3217" stop-color="#A471F3"/>
<stop offset="0.4329" stop-color="#9C6DF1"/>
<stop offset="0.6669" stop-color="#9A6CF0"/>
<stop offset="0.7124" stop-color="#9769EB"/>
<stop offset="0.7639" stop-color="#8D62DE"/>
<stop offset="0.8181" stop-color="#7E56C7"/>
<stop offset="0.8722" stop-color="#6945A9"/>
<stop offset="0.9569" stop-color="#4F3480"/>
<stop offset="1" stop-color="#402A69"/>
</linearGradient>
<linearGradient id="paint9_linear_478_25313" x1="10.9908" y1="14.6358" x2="51.2716" y2="27.5061" gradientUnits="userSpaceOnUse">
<stop offset="0.8016" stop-color="#6945A9"/>
<stop offset="0.85" stop-color="#6643A5"/>
<stop offset="0.9007" stop-color="#5E3E98"/>
<stop offset="0.9522" stop-color="#513583"/>
<stop offset="1" stop-color="#402A69"/>
</linearGradient>
<linearGradient id="paint10_linear_478_25313" x1="29.1832" y1="21.4202" x2="29.0583" y2="27.0154" gradientUnits="userSpaceOnUse">
<stop offset="0.029" stop-color="#CFEBFE"/>
<stop offset="0.0759141" stop-color="#E1F1FD"/>
<stop offset="0.1306" stop-color="#EEF6FB"/>
<stop offset="0.179" stop-color="#F3F8FB"/>
<stop offset="0.295" stop-color="#EFF6FB"/>
<stop offset="0.4148" stop-color="#E2F2FC"/>
<stop offset="0.5305" stop-color="#CFEBFE"/>
<stop offset="0.5996" stop-color="#C8E6FB"/>
<stop offset="0.7016" stop-color="#B4DAF3"/>
<stop offset="0.8236" stop-color="#93C5E6"/>
<stop offset="0.9333" stop-color="#70AED8"/>
</linearGradient>
<linearGradient id="paint11_linear_478_25313" x1="17.2485" y1="13.067" x2="21.0252" y2="17.7414" gradientUnits="userSpaceOnUse">
<stop stop-color="#F9D075"/>
<stop offset="0.1826" stop-color="#F9C870"/>
<stop offset="0.459" stop-color="#FAB463"/>
<stop offset="0.7931" stop-color="#FA924E"/>
<stop offset="1" stop-color="#FB793F"/>
</linearGradient>
<linearGradient id="paint12_linear_478_25313" x1="16.6504" y1="15.2778" x2="21.0155" y2="16.8934" gradientUnits="userSpaceOnUse">
<stop offset="1.1e-07" stop-color="#F29E50"/>
<stop offset="0.0370388" stop-color="#F4AC5A"/>
<stop offset="0.1089" stop-color="#F7C069"/>
<stop offset="0.1805" stop-color="#F8CC72"/>
<stop offset="0.251" stop-color="#F9D075"/>
<stop offset="0.3759" stop-color="#F9BF6A"/>
<stop offset="0.6237" stop-color="#FA914E"/>
<stop offset="0.7448" stop-color="#FB793F"/>
<stop offset="0.8604" stop-color="#FA7B40"/>
<stop offset="0.9213" stop-color="#F98344"/>
<stop offset="0.9692" stop-color="#F5914A"/>
<stop offset="1" stop-color="#F29E50"/>
</linearGradient>
<linearGradient id="paint13_linear_478_25313" x1="46.7988" y1="43.1984" x2="50.3735" y2="57.0593" gradientUnits="userSpaceOnUse">
<stop offset="1.1e-07" stop-color="#F29E50"/>
<stop offset="1" stop-color="#FB793F"/>
</linearGradient>
<linearGradient id="paint14_linear_478_25313" x1="46.3283" y1="41.8914" x2="49.6394" y2="56.4314" gradientUnits="userSpaceOnUse">
<stop offset="1.1e-07" stop-color="#F9D075"/>
<stop offset="0.1392" stop-color="#FCE88F"/>
<stop offset="0.2691" stop-color="#FEF7A0"/>
<stop offset="0.3659" stop-color="#FFFDA6"/>
<stop offset="0.4856" stop-color="#FDF29C"/>
<stop offset="0.6988" stop-color="#F9D380"/>
<stop offset="0.9791" stop-color="#F3A254"/>
<stop offset="1" stop-color="#F29E50"/>
</linearGradient>
<clipPath id="clip0_478_25313">
<rect width="95.3" height="80" fill="white"/>
</clipPath>
</defs>
</svg>
