<svg width="96" height="80" viewBox="0 0 96 80" fill="none" xmlns="http://www.w3.org/2000/svg">
<g id="&#209;&#143;&#208;&#186;&#209;&#150;&#209;&#129;&#209;&#130;&#209;&#140; 2" clip-path="url(#clip0_478_25378)">
<g id="Group">
<g id="Group_2">
<path id="Vector" d="M78.2999 44.5002C81.4998 35.1002 81.4998 24.8002 81.8998 15.0002C81.9998 12.0002 82.5998 7.60021 80.8998 5.00021C80.2999 4.10021 79.5999 3.60021 78.7999 3.50021C77.2999 3.00021 75.6998 2.60021 74.0998 2.20021C71.9998 1.70021 70.2998 2.30021 68.1998 2.80021C65.9998 3.30021 63.6998 3.80021 61.2998 3.80021C58.7998 3.80021 55.9998 2.90021 53.5998 2.20021C51.0998 1.50021 48.5998 0.800211 46.0998 0.200211C43.7998 0.000211284 41.5999 0.700211 39.3999 1.40021C36.3999 2.30021 33.4998 3.30021 30.3998 3.50021C27.8998 3.70021 25.3998 3.20021 22.8998 2.70021C20.1998 2.10021 16.6998 0.100211 14.6998 3.00021C12.8998 5.60021 13.1998 10.1002 13.0998 13.0002C12.9998 22.8002 12.3998 33.1002 14.9998 42.5002C17.2998 50.6002 20.3998 58.6002 25.4998 65.4002C29.5998 70.9002 35.4998 76.3002 42.0998 78.6002C44.6998 79.5002 47.9998 80.9002 50.6998 79.7002C55.1998 77.7002 59.5998 74.5002 63.0998 71.0002C70.5998 63.5002 75.0998 54.0002 78.2999 44.5002Z" fill="url(#paint0_radial_478_25378)"/>
<path id="Vector_2" opacity="0.2" d="M73.2001 6.2002C72.5001 5.1002 71.6001 4.7002 70.6001 4.7002C69.3001 4.7002 67.8001 5.3002 66.4001 5.6002C64.3001 6.1002 62.2001 6.5002 60.1001 6.5002C59.6001 6.5002 59.2001 6.5002 58.7001 6.4002C55.1001 6.0002 51.7001 4.6002 48.2001 3.6002C47.2001 3.3002 46.3001 3.2002 45.4001 3.2002C43.6001 3.2002 42.0001 3.7002 40.0001 4.3002C37.3001 5.1002 34.6001 6.0002 31.7001 6.3002C31.2001 6.3002 30.8001 6.4002 30.3001 6.4002C28.2001 6.4002 26.1001 5.9002 24.0001 5.4002C22.6001 5.1002 21.2001 4.4002 19.9001 4.4002C18.9001 4.4002 18.0001 4.7002 17.2001 5.8002C15.5001 8.2002 15.8001 12.3002 15.8001 15.0002C15.7001 24.0002 15.2001 33.5002 17.6001 42.2002C19.7001 49.6002 22.6001 57.0002 27.2001 63.2002C29.5001 66.3002 32.2001 69.1002 35.3001 71.3002C37.6001 72.9002 40.4001 75.3002 43.3001 75.3002C44.0001 75.3002 44.8001 75.2002 45.5001 74.9002C49.6001 73.1002 53.7001 70.1002 56.9001 66.9002C63.6001 60.2002 67.8001 51.4002 70.7001 42.6002C73.6001 34.0002 73.6001 24.4002 74.0001 15.5002C74.2001 12.7002 74.7001 8.7002 73.2001 6.2002Z" fill="#B5E69F"/>
<path id="Vector_3" opacity="0.3" d="M66.5 22.7002C65.6 21.7002 64.4 21.2002 63.1 21.2002C61.9 21.2002 60.6 21.7002 59.6 22.7002L40.9 41.9002L31.9 32.0002C31 31.0002 29.8 30.5002 28.5 30.5002C27.3 30.5002 26 31.0002 25 32.0002C23.1 34.0002 23 37.2002 24.8 39.2002L37.1 52.7002C38 53.7002 39.2 54.2002 40.5 54.2002C41.8 54.2002 43 53.7002 44 52.7002L66.3 30.0002C68.3 28.0002 68.4 24.8002 66.5 22.7002Z" fill="#1A8427"/>
<path id="Vector_4" d="M65.2998 21.5C64.3998 20.5 63.1998 20 61.8998 20C60.6998 20 59.3998 20.5 58.3998 21.5L39.6998 40.6L30.6998 30.7C29.7998 29.7 28.5998 29.2 27.2998 29.2C26.0998 29.2 24.7998 29.7 23.7998 30.7C21.8998 32.7 21.7998 35.9 23.5998 37.9L35.9998 51.5C36.8998 52.5 38.0998 53 39.3998 53C40.6998 53 41.8998 52.5 42.8998 51.5L65.1998 28.7C66.9998 26.7 67.0998 23.5 65.2998 21.5Z" fill="url(#paint1_linear_478_25378)"/>
</g>
</g>
</g>
<defs>
<radialGradient id="paint0_radial_478_25378" cx="0" cy="0" r="1" gradientUnits="userSpaceOnUse" gradientTransform="translate(7.32874 20.3735) scale(82.2633 82.2633)">
<stop offset="0.00581592" stop-color="#75D982"/>
<stop offset="0.1837" stop-color="#71D17A"/>
<stop offset="0.6659" stop-color="#67BF67"/>
<stop offset="0.7451" stop-color="#64BC65"/>
<stop offset="0.8101" stop-color="#5AB25E"/>
<stop offset="0.8699" stop-color="#48A153"/>
<stop offset="0.8714" stop-color="#48A153"/>
<stop offset="0.9209" stop-color="#50A958"/>
<stop offset="0.9983" stop-color="#66BE67"/>
<stop offset="1" stop-color="#67BF67"/>
</radialGradient>
<linearGradient id="paint1_linear_478_25378" x1="34.4127" y1="20.9758" x2="54.12" y2="39.8336" gradientUnits="userSpaceOnUse">
<stop stop-color="#FFFDA6"/>
<stop offset="0.4746" stop-color="#F5E37B"/>
<stop offset="0.6657" stop-color="#F5E278"/>
<stop offset="0.7865" stop-color="#F5DF70"/>
<stop offset="0.8877" stop-color="#F5DA61"/>
<stop offset="0.9777" stop-color="#F6D44C"/>
<stop offset="1" stop-color="#F6D246"/>
</linearGradient>
<clipPath id="clip0_478_25378">
<rect width="95.3" height="80" fill="white"/>
</clipPath>
</defs>
</svg>
