<svg width="138" height="80" viewBox="0 0 138 80" fill="none" xmlns="http://www.w3.org/2000/svg">
<g id="&#209;&#129;&#208;&#186;&#208;&#187;&#208;&#176;&#208;&#180; 2">
<g id="Group">
<g id="Group_2">
<g id="Group_3">
<g id="Group_4">
<path id="Vector" d="M86.1 51.7999L44 48.4999L15.2 60.4999L14 12.8999L42.2 4.3999L85.6 5.4999L86.1 51.7999Z" fill="#FFD073"/>
</g>
<g id="Group_5">
<path id="Vector_2" d="M42.2002 4.3999L44.0002 48.4999L86.1002 51.7999L85.6002 5.4999L42.2002 4.3999Z" fill="#E0962B"/>
</g>
<g id="Group_6">
<path id="Vector_3" d="M69.5 64.3L15.2 60.5L14 12.9L68.3 15.1L85.6 5.5L86.1 51.8L69.5 64.3Z" fill="#FFD073"/>
</g>
<g id="Group_7">
<path id="Vector_4" d="M85.5998 5.5L68.2998 15.1C68.5998 18.3 69.4998 64.3 69.4998 64.3L86.0998 51.8L85.5998 5.5Z" fill="#FFC257"/>
</g>
<g id="Group_8">
<path id="Vector_5" d="M68.3 15.0999L14 12.8999L42.2 3.8999L85.6 5.4999L68.3 15.0999Z" fill="#FEE5AE"/>
</g>
<g id="Group_9">
<path id="Vector_6" d="M37.4999 62.1L44.8999 62.6L44.6999 14.2L63.9999 4.7L58.8999 4.5L36.8999 13.8L37.4999 62.1Z" fill="white"/>
</g>
<g id="Group_10" opacity="0.27">
<path id="Vector_7" d="M36.8999 13.7998L37.3999 62.0998L44.7999 62.5998L44.5999 14.1998C44.6999 14.1998 38.4999 13.9998 36.8999 13.7998Z" fill="#FFD073"/>
</g>
</g>
<path id="Vector_8" d="M25.6999 22.7L15.0999 22.2L14.8999 14.5L28.3999 15V22.9L25.6999 22.7Z" fill="white"/>
</g>
<g id="Group_11">
<g id="Group_12">
<g id="Group_13">
<path id="Vector_9" d="M123.3 60.3001L85.7001 56.6001L60.1001 66.9001L59.1001 24.1001L84.2001 17.1001L122.8 18.8001L123.3 60.3001Z" fill="#FFD073"/>
</g>
<g id="Group_14">
<path id="Vector_10" d="M84.2002 17.1001L85.7002 56.6001L123.3 60.3001L122.8 18.8001L84.2002 17.1001Z" fill="#E0962B"/>
</g>
<g id="Group_15">
<path id="Vector_11" d="M108.5 71.2003L60.1001 66.9003L59.1001 24.1003L107.4 27.1003L122.8 18.8003L123.3 60.3003L108.5 71.2003Z" fill="#FFD073"/>
</g>
<g id="Group_16">
<path id="Vector_12" d="M122.8 18.8003L107.4 27.1003C107.7 30.0003 108.5 71.2003 108.5 71.2003L123.3 60.3003L122.8 18.8003Z" fill="#FFC257"/>
</g>
<g id="Group_17">
<path id="Vector_13" d="M107.4 27.1001L59.1001 24.1001L84.2001 16.6001L122.8 18.8001L107.4 27.1001Z" fill="#FEE5AE"/>
</g>
<g id="Group_18">
<path id="Vector_14" d="M79.9 68.7L86.5 69.3L86.4 25.9L103.6 17.7L99 17.5L79.5 25.4L79.9 68.7Z" fill="white"/>
</g>
<g id="Group_19" opacity="0.27">
<path id="Vector_15" d="M79.5 25.3999L80 68.6999L86.6 69.2999L86.4 25.8999C86.4 25.8999 80.8 25.4999 79.5 25.3999Z" fill="#FFD073"/>
</g>
</g>
<path id="Vector_16" d="M71.8999 33.3001L59.9999 32.4001L59.8999 25.6001L71.8999 26.3001V33.3001Z" fill="white"/>
</g>
<g id="Group_20">
<g id="Group_21">
<g id="Group_22">
<path id="Vector_17" d="M76.9 65.8001L53.4 64.1001L37.3 71.3001L37 43.3001L52.7 38.1001L76.9 38.6001V65.8001Z" fill="#FFD073"/>
</g>
<g id="Group_23">
<path id="Vector_18" d="M52.7002 38.1001L53.4002 64.1001L76.9002 65.8001V38.6001L52.7002 38.1001Z" fill="#E0962B"/>
</g>
<g id="Group_24">
<path id="Vector_19" d="M67.5 73.2001L37.3 71.3001L37 43.3001L67.2 44.3001L76.9 38.6001L77 65.9001L67.5 73.2001Z" fill="#FFD073"/>
</g>
<g id="Group_25">
<path id="Vector_20" d="M76.9002 38.6001L67.2002 44.3001C67.3002 46.2001 67.6002 73.2001 67.6002 73.2001L77.1002 65.9001L76.9002 38.6001Z" fill="#FFC257"/>
</g>
<g id="Group_26">
<path id="Vector_21" d="M67.2 44.2999L37 43.2999L52.7 37.8999L76.9 38.5999L67.2 44.2999Z" fill="#FEE5AE"/>
</g>
<g id="Group_27">
<path id="Vector_22" d="M49.7002 72.1001L53.8002 72.4001L54.0002 43.9001L64.8002 38.2001L62.0002 38.1001L49.7002 43.7001V72.1001Z" fill="white"/>
</g>
<g id="Group_28" opacity="0.27">
<path id="Vector_23" d="M49.7002 43.6997V72.0997L53.8002 72.3997L54.0002 43.8997C54.0002 43.8997 50.6002 43.7997 49.7002 43.6997Z" fill="#FFD073"/>
</g>
</g>
<path id="Vector_24" d="M45 48.4999L37.5 48.1999V43.8999L44.9 44.1999L45 48.4999Z" fill="white"/>
</g>
</g>
</g>
</svg>
