<svg width="96" height="80" viewBox="0 0 96 80" fill="none" xmlns="http://www.w3.org/2000/svg">
<g id="&#209;&#129;&#209;&#130;&#209;&#128;&#208;&#176;&#209;&#133;&#208;&#190;&#208;&#178;&#208;&#186;&#208;&#176;" clip-path="url(#clip0_478_25388)">
<g id="Group">
<g id="Group_2">
<path id="Vector" d="M84.1998 16.6003C84.1998 15.7003 83.7998 14.9003 83.2998 14.2003C82.5998 13.1003 81.9998 12.0003 81.2998 10.9003C80.2998 9.5003 78.5998 8.5003 76.6998 8.3003C76.5998 8.3003 76.4998 8.3003 76.3998 8.3003C62.3998 6.8003 45.9998 6.5003 31.7998 7.9003C28.8998 8.2003 26.8998 10.2003 27.1998 12.4003C29.5998 29.8003 24.9998 48.2003 16.9998 66.0003C16.3998 67.3003 16.5998 68.5003 17.2998 69.3003C18.5998 70.7003 19.8998 72.2003 21.0998 73.6003C21.5998 74.2003 22.4998 74.6003 23.4998 74.7003C35.9998 75.5003 48.2998 77.3003 60.2998 79.9003C60.4998 80.0003 60.7998 80.0003 61.0998 80.0003C63.3998 80.1003 66.0998 78.7003 67.2998 76.5003C78.0998 57.4003 85.2998 36.9003 84.1998 16.6003Z" fill="url(#paint0_radial_478_25388)"/>
<path id="Vector_2" d="M84.1998 16.6003C84.1998 15.7003 83.7998 14.9003 83.2998 14.2003C82.5998 13.1003 81.9998 12.0003 81.2998 10.9003C80.2998 9.5003 78.5998 8.5003 76.6998 8.3003C76.5998 8.3003 76.4998 8.3003 76.3998 8.3003C62.2998 6.8003 45.9998 6.5003 31.7998 7.9003C28.8998 8.2003 26.8998 10.2003 27.1998 12.4003C29.5998 29.8003 24.9998 48.2003 16.9998 66.0003C16.3998 67.3003 16.5998 68.5003 17.2998 69.3003C18.5998 70.7003 19.8998 72.2003 21.0998 73.6003C21.5998 74.2003 22.4998 74.6003 23.4998 74.7003C35.9998 75.5003 48.2998 77.3003 60.2998 79.9003C60.4998 80.0003 60.7998 80.0003 61.0998 80.0003C63.3998 80.1003 66.0998 78.7003 67.2998 76.5003C78.0998 57.4003 85.2998 36.9003 84.1998 16.6003Z" fill="url(#paint1_linear_478_25388)"/>
<path id="Vector_3" d="M72.4999 7.89994C72.3999 7.09994 72.0999 6.29994 71.5999 5.69994C70.9999 4.69994 70.2999 3.69994 69.6999 2.59994C68.7999 1.29994 67.2999 0.499943 65.6999 0.399944C65.5999 0.399944 65.4999 0.399944 65.3999 0.399944C53.3999 -0.100056 39.6999 -0.200056 27.6999 0.599944C25.1999 0.799944 23.4999 2.59994 23.6999 4.79994C24.9999 21.4999 20.4999 38.9999 11.4999 55.3999C10.7999 56.5999 10.8999 57.7999 11.4999 58.5999C12.5999 60.0999 13.7999 61.4999 14.8999 62.9999C15.3999 63.5999 16.1999 63.9999 17.1999 64.1999C29.3999 65.7999 41.5999 67.6 53.5999 69.7999C53.7999 69.7999 54.0999 69.8999 54.3999 69.8999C56.6999 69.8999 59.2999 68.4999 60.4999 66.2999C70.1999 47.3999 74.7999 27.1999 72.4999 7.89994Z" fill="url(#paint2_radial_478_25388)"/>
<path id="Vector_4" d="M72.4999 7.90014C72.3999 7.10014 72.0999 6.30014 71.5999 5.70014C70.9999 4.70014 70.2999 3.70014 69.6999 2.60014C68.7999 1.30014 67.2999 0.500139 65.6999 0.400139C65.5999 0.400139 65.4999 0.400139 65.3999 0.400139C53.3999 -0.199861 39.6999 -0.299861 27.6999 0.600139C25.1999 0.800139 23.4999 2.60014 23.6999 4.80014C24.9999 21.5001 20.4999 39.0001 11.4999 55.4001C10.7999 56.6001 10.8999 57.8001 11.4999 58.6001C12.5999 60.1001 13.7999 61.5001 14.8999 63.0001C15.3999 63.6001 16.1999 64.0001 17.1999 64.2001C29.3999 65.8001 41.5999 67.6001 53.5999 69.8001C53.7999 69.8001 54.0999 69.9001 54.3999 69.9001C56.6999 69.9001 59.2999 68.5001 60.4999 66.3001C70.1999 47.4001 74.7999 27.2001 72.4999 7.90014Z" fill="url(#paint3_linear_478_25388)"/>
<path id="Vector_5" d="M45.3001 10.2999C44.1001 10.1999 42.8001 10.3999 41.5001 10.7999C34.8001 12.7999 30.6001 19.9999 33.2001 26.7999C37.8001 38.7999 56.4001 32.3999 55.4001 20.4999C54.8001 14.7999 50.5001 10.5999 45.3001 10.2999Z" fill="url(#paint4_radial_478_25388)"/>
<path id="Vector_6" d="M54.0002 24.7004C51.7002 30.6004 45.2002 34.0004 39.5002 32.4004C33.8002 30.7004 31.1002 24.6004 33.5002 18.7004C35.8002 12.8004 42.3002 9.40038 48.0002 11.0004C53.7002 12.7004 56.4002 18.8004 54.0002 24.7004Z" fill="url(#paint5_radial_478_25388)"/>
<path id="Vector_7" opacity="0.18" d="M36 18.9003C35.8 19.2003 35.6 19.5003 35.3 19.5003C35.1 19.5003 34.9 19.2003 34.9 18.9003C34.8 18.3003 35.1 17.7003 35.4 17.2003C36.1 16.1003 37 15.1003 38.1 14.5003C38.3 14.4003 38.5 14.3003 38.7 14.3003C38.9 14.3003 39.1 14.4003 39.2 14.6003C39.4 15.2003 38.2 16.0003 37.9 16.3003C37.4 16.8003 36.9 17.4003 36.5 18.1003C36.3 18.3003 36.2 18.6003 36 18.9003Z" fill="white"/>
<path id="Vector_8" d="M53.9998 40.8003C45.0998 39.9003 36.2998 39.0003 27.4998 38.0003C26.2998 37.9003 25.0998 38.8003 24.7998 40.0003C24.4998 41.2003 25.1998 42.2003 26.3998 42.4003L53.1998 45.0003C54.3998 45.1003 55.5998 44.3003 55.7998 43.1003C55.9998 41.9003 55.1998 40.9003 53.9998 40.8003Z" fill="url(#paint6_linear_478_25388)"/>
<path id="Vector_9" d="M28.8001 52.7001C27.6001 52.5001 26.9001 51.5001 27.2001 50.4001C27.6001 49.2001 28.9001 48.4001 30.1001 48.5001C34.9001 49.0001 39.8001 49.5001 44.6001 50.0001C45.9001 50.1001 46.6001 51.2001 46.3001 52.3001C46.0001 53.5001 44.7001 54.3001 43.4002 54.2001C43.5002 54.1001 28.8001 52.7001 28.8001 52.7001Z" fill="url(#paint7_linear_478_25388)"/>
<path id="Vector_10" d="M48.4001 17.5C48.1001 17.5 47.7001 17.6 47.4001 17.8C45.5001 19.5 43.5001 21.2 41.5001 23C40.7001 22 39.8001 20.9 39.0001 19.9C38.7001 19.6 38.3001 19.4 38.0001 19.4C37.6001 19.4 37.3001 19.5 37.0001 19.8C36.4001 20.3 36.3001 21.3 36.8001 21.9C37.9001 23.3 39.1001 24.8 40.2001 26.2C40.4001 26.5 40.8001 26.7 41.2001 26.7C41.2001 26.7 41.2001 26.7 41.3001 26.7C41.7001 26.7 42.0001 26.6 42.3001 26.3C44.7001 24.2 47.1001 22.2 49.4001 20.2C50.0001 19.7 50.0001 18.7 49.5001 18.1C49.2001 17.7 48.8001 17.5 48.4001 17.5Z" fill="url(#paint8_linear_478_25388)"/>
</g>
</g>
</g>
<defs>
<radialGradient id="paint0_radial_478_25388" cx="0" cy="0" r="1" gradientUnits="userSpaceOnUse" gradientTransform="translate(-15.0113 19.4767) rotate(1.52989) scale(110.42 115.207)">
<stop offset="0.4279" stop-color="#C9B3F8"/>
<stop offset="0.6492" stop-color="#A389F0"/>
<stop offset="0.7882" stop-color="#9A6CF0"/>
<stop offset="0.8082" stop-color="#9669EA"/>
<stop offset="0.8343" stop-color="#8B60DA"/>
<stop offset="0.8637" stop-color="#7851BF"/>
<stop offset="0.8832" stop-color="#6945A9"/>
<stop offset="0.8989" stop-color="#724CB6"/>
<stop offset="0.9279" stop-color="#8A5FD9"/>
<stop offset="0.9447" stop-color="#9A6CF0"/>
</radialGradient>
<linearGradient id="paint1_linear_478_25388" x1="58.5657" y1="-1.56759" x2="44.1271" y2="86.0417" gradientUnits="userSpaceOnUse">
<stop offset="0.0554282" stop-color="#C9B3F8"/>
<stop offset="0.0570034" stop-color="#C9B3F8"/>
<stop offset="0.1964" stop-color="#C9B3F8"/>
<stop offset="0.5671" stop-color="#A389F0"/>
<stop offset="0.8189" stop-color="#6945A9"/>
<stop offset="0.9098" stop-color="#6945A9"/>
</linearGradient>
<radialGradient id="paint2_radial_478_25388" cx="0" cy="0" r="1" gradientUnits="userSpaceOnUse" gradientTransform="translate(-20.8449 19.8712) rotate(1.46689) scale(103.124 103.124)">
<stop offset="0.4279" stop-color="#F3F8FB"/>
<stop offset="0.6492" stop-color="#DFEEF0"/>
<stop offset="0.7882" stop-color="#ECFCFF"/>
<stop offset="0.8144" stop-color="#E6F7FA"/>
<stop offset="0.8485" stop-color="#D6EBED"/>
<stop offset="0.8832" stop-color="#BED8D9"/>
<stop offset="0.9447" stop-color="#BED8D9"/>
</radialGradient>
<linearGradient id="paint3_linear_478_25388" x1="50.1826" y1="-8.65487" x2="36.414" y2="74.8897" gradientUnits="userSpaceOnUse">
<stop offset="0.0554282" stop-color="#F3F8FB"/>
<stop offset="0.1434" stop-color="#E3ECF1"/>
<stop offset="0.5671" stop-color="#E3ECF1"/>
<stop offset="0.8483" stop-color="#BED8D9"/>
<stop offset="0.9098" stop-color="#BED8D9"/>
</linearGradient>
<radialGradient id="paint4_radial_478_25388" cx="0" cy="0" r="1" gradientUnits="userSpaceOnUse" gradientTransform="translate(42.0517 20.7108) scale(13.9005 13.9005)">
<stop offset="0.00581592" stop-color="#75D982"/>
<stop offset="0.1298" stop-color="#71D17A"/>
<stop offset="0.4658" stop-color="#67BF67"/>
<stop offset="0.7358" stop-color="#51AA59"/>
<stop offset="0.8379" stop-color="#48A153"/>
<stop offset="0.9301" stop-color="#4AA354"/>
<stop offset="0.9634" stop-color="#51A959"/>
<stop offset="0.987" stop-color="#5CB560"/>
<stop offset="1" stop-color="#67BF67"/>
</radialGradient>
<radialGradient id="paint5_radial_478_25388" cx="0" cy="0" r="1" gradientUnits="userSpaceOnUse" gradientTransform="translate(43.7866 21.6971) rotate(16.2991) scale(10.6858 11.4339)">
<stop offset="0.2031" stop-color="#67BF67"/>
<stop offset="1" stop-color="#67BF67"/>
</radialGradient>
<linearGradient id="paint6_linear_478_25388" x1="40.9065" y1="34.9922" x2="39.7791" y2="46.7687" gradientUnits="userSpaceOnUse">
<stop offset="0.2344" stop-color="#A6BBBE"/>
<stop offset="0.2534" stop-color="#A9BEC1"/>
<stop offset="0.3811" stop-color="#B8D1D3"/>
<stop offset="0.4704" stop-color="#BED8D9"/>
<stop offset="0.5454" stop-color="#BAD3D5"/>
<stop offset="0.6295" stop-color="#AFC6C8"/>
<stop offset="0.6766" stop-color="#A6BBBE"/>
<stop offset="0.7373" stop-color="#9CAFB2"/>
<stop offset="0.8458" stop-color="#809093"/>
<stop offset="0.8983" stop-color="#717F82"/>
</linearGradient>
<linearGradient id="paint7_linear_478_25388" x1="37.515" y1="45.5239" x2="36.201" y2="56.0466" gradientUnits="userSpaceOnUse">
<stop offset="0.2344" stop-color="#A6BBBE"/>
<stop offset="0.2534" stop-color="#A9BEC1"/>
<stop offset="0.3811" stop-color="#B8D1D3"/>
<stop offset="0.4704" stop-color="#BED8D9"/>
<stop offset="0.5454" stop-color="#BAD3D5"/>
<stop offset="0.6295" stop-color="#AFC6C8"/>
<stop offset="0.6766" stop-color="#A6BBBE"/>
<stop offset="0.7373" stop-color="#9CAFB2"/>
<stop offset="0.8458" stop-color="#809093"/>
<stop offset="0.8983" stop-color="#717F82"/>
</linearGradient>
<linearGradient id="paint8_linear_478_25388" x1="40.6397" y1="17.4662" x2="45.8916" y2="23.2433" gradientUnits="userSpaceOnUse">
<stop stop-color="#FFFDA6"/>
<stop offset="0.4746" stop-color="#F5E37B"/>
<stop offset="0.6657" stop-color="#F5E278"/>
<stop offset="0.7865" stop-color="#F5DF70"/>
<stop offset="0.8877" stop-color="#F5DA61"/>
<stop offset="0.9777" stop-color="#F6D44C"/>
<stop offset="1" stop-color="#F6D246"/>
</linearGradient>
<clipPath id="clip0_478_25388">
<rect width="95.3" height="80" fill="white"/>
</clipPath>
</defs>
</svg>
