<svg width="120" height="120" viewBox="0 0 120 120" fill="none" xmlns="http://www.w3.org/2000/svg">
<g id="Frame 32">
<g id="Group">
<path id="Vector" d="M40.7323 52.5125H79.6674C85.4577 52.5125 90.2497 47.7205 90.2497 41.9302V20.5658C90.2497 14.7754 85.4577 9.9834 79.6674 9.9834H40.7323C34.9419 9.9834 30.1499 14.7754 30.1499 20.5658V42.1298C30.1499 47.7205 34.9419 52.5125 40.7323 52.5125ZM35.1416 20.5658C35.1416 17.5708 37.5376 14.9751 40.7323 14.9751H79.6674C82.6624 14.9751 85.2581 17.3711 85.2581 20.5658V42.1298C85.2581 45.1248 82.8621 47.7205 79.6674 47.7205H40.7323C37.7373 47.7205 35.1416 45.3245 35.1416 42.1298V20.5658Z" fill="white"/>
<path id="Vector_2" d="M41.3313 82.4623C47.521 82.4623 52.5126 77.4707 52.5126 71.281C52.5126 65.0913 47.521 60.0996 41.3313 60.0996C35.1416 60.0996 30.1499 65.0913 30.1499 71.281C30.1499 77.4707 35.1416 82.4623 41.3313 82.4623ZM41.3313 64.8916C44.7256 64.8916 47.521 67.687 47.521 71.0813C47.521 74.4756 44.7256 77.271 41.3313 77.271C37.9369 77.271 35.1416 74.4756 35.1416 71.0813C35.1416 67.687 37.9369 64.8916 41.3313 64.8916Z" fill="white"/>
<path id="Vector_3" d="M78.8684 59.9004C72.6787 59.9004 67.687 64.8921 67.687 71.0818C67.687 77.2714 72.6787 82.2631 78.8684 82.2631C85.0581 82.2631 90.0497 77.2714 90.0497 71.0818C90.0497 64.8921 85.0581 59.9004 78.8684 59.9004ZM78.8684 77.4711C75.474 77.4711 72.6787 74.6758 72.6787 71.2814C72.6787 67.8871 75.474 65.0917 78.8684 65.0917C82.2627 65.0917 85.0581 67.8871 85.0581 71.2814C85.0581 74.6758 82.2627 77.4711 78.8684 77.4711Z" fill="white"/>
<path id="Vector_4" d="M117.604 114.809H103.827L95.0416 104.027C94.8419 103.428 94.4426 102.829 93.8436 102.629L85.4576 92.2463H89.6506C95.4409 92.2463 100.233 87.4542 100.233 81.6639V10.5824C100.233 4.79201 95.4409 0 89.6506 0H30.7488C24.9584 0 20.1664 4.79201 20.1664 10.5824V82.0632C20.1664 87.8536 24.9584 92.6456 30.7488 92.6456H32.5458L24.1597 103.028C23.5607 103.428 23.1614 103.827 22.9617 104.426L13.9767 114.809H2.59567C1.198 114.809 0 116.007 0 117.404C0 118.802 1.198 120 2.59567 120H117.404C118.802 120 120 118.802 120 117.404C120 116.007 118.802 114.809 117.604 114.809ZM25.1581 81.8636V10.5824C25.1581 7.58735 27.5541 4.99168 30.7488 4.99168H89.6506C92.6456 4.99168 95.2413 7.38769 95.2413 10.5824V82.0632C95.2413 85.0582 92.8453 87.6539 89.6506 87.6539C82.0632 87.6539 37.5374 87.6539 30.7488 87.6539C27.5541 87.4542 25.1581 84.8586 25.1581 81.8636ZM78.8686 92.4459L87.0549 102.429H30.7488L38.9351 92.4459H78.8686ZM26.5557 107.421H91.0483L97.2379 115.008H20.3661L26.5557 107.421Z" fill="white"/>
</g>
</g>
</svg>
