<?xml version="1.0" encoding="utf-8"?>
<!-- Generator: Adobe Illustrator 27.0.0, SVG Export Plug-In . SVG Version: 6.00 Build 0)  -->
<svg version="1.1" id="Шар_1" xmlns="http://www.w3.org/2000/svg" xmlns:xlink="http://www.w3.org/1999/xlink" x="0px" y="0px"
	 viewBox="0 0 15 15" style="enable-background:new 0 0 15 15;" xml:space="preserve">
<style type="text/css">
	.st0{fill:#6F3FA9;}
	.st1{fill:#BDA7D7;}
	.st2{fill:#B9A2D6;}
	.st3{fill:#FEFEFE;}
	.st4{fill:#FDFDFE;}
</style>
<g>
	<circle class="st0" cx="7.5" cy="7.5" r="7.5"/>
	<path class="st1" d="M6,5.6C5.9,5.6,5.9,5.6,6,5.6C6,5.6,6,5.6,6,5.6z"/>
	<path class="st2" d="M6,6.6C5.9,6.6,5.9,6.5,6,6.6C6,6.5,6,6.6,6,6.6z"/>
	<g>
		<path class="st3" d="M8.6,6.6c0,0.1,0,0.1-0.1,0.1c-0.1,0-0.1,0-0.1-0.1c0-0.1,0-0.1,0-0.2c0-0.2-0.2-0.4-0.4-0.4c0,0,0,0-0.1,0
			C7.7,6,7.7,6,7.7,5.9c0-0.1,0.1-0.1,0.2-0.1C8.3,5.8,8.6,6.1,8.6,6.6z"/>
		<path class="st3" d="M9.2,6.7C9.2,6.7,9.2,6.8,9.2,6.7c0,0.1-0.1,0.2-0.1,0.2c-0.1,0-0.1,0-0.1-0.1c0-0.1,0-0.2,0-0.3
			c-0.1-0.6-0.5-1-1.2-1.1c0,0,0,0-0.1,0c-0.1,0-0.2,0-0.2-0.1c0-0.1,0.1-0.1,0.2-0.1C8.5,5.2,9.1,5.9,9.2,6.7z"/>
		<path class="st3" d="M9.5,8.7C9.5,8.9,9.4,9,9.2,9.2C9,9.3,8.8,9.4,8.5,9.3C6.9,8.6,5.8,7.5,5.2,5.8c0,0,0-0.1,0-0.1
			c0-0.1,0-0.2,0.1-0.3C5.4,5.2,5.6,5,5.8,4.9c0.1-0.1,0.3,0,0.4,0.1c0.2,0.3,0.4,0.5,0.6,0.8C6.8,6,6.8,6.2,6.6,6.3
			C6.3,6.5,6.3,6.6,6.5,7C6.7,7.5,7.1,7.8,7.6,8C7.9,8.2,8,8.1,8.1,7.9c0.2-0.3,0.4-0.3,0.6-0.1C9,8,9.2,8.1,9.4,8.3
			C9.6,8.4,9.6,8.6,9.5,8.7z"/>
		<path class="st3" d="M9.8,7c0,0.1,0,0.2-0.1,0.2C9.5,7.2,9.5,7.1,9.5,7c0-0.2,0-0.4-0.1-0.6C9.3,5.6,8.6,5,7.7,4.9
			c-0.1,0-0.2,0-0.3,0c-0.1,0-0.2,0-0.2-0.1c0-0.1,0.1-0.1,0.2-0.1c0,0,0,0,0,0c0,0,0,0,0,0c1.2,0,2.1,0.9,2.2,2.1
			C9.7,6.8,9.7,6.9,9.8,7z"/>
		<path class="st3" d="M12,6.2c0-0.4-0.1-0.9-0.2-1.3c-0.2-0.6-0.6-1-1-1.4C10.2,3.1,9.6,3,8.9,2.9c-1-0.1-2-0.1-3.1,0
			C5.2,3,4.6,3.2,4.1,3.6c-0.5,0.4-0.8,0.9-1,1.5C3,6.1,2.9,7,3,7.9c0.1,0.4,0.1,0.9,0.3,1.2c0.4,0.8,1,1.3,1.7,1.6
			c0.1,0,0.1,0.1,0.1,0.2c0,0.3,0,0.5,0,0.8c0,0.2,0.1,0.4,0.3,0.4c0.2,0.1,0.3,0,0.5-0.1c0.3-0.3,0.6-0.6,0.9-0.9
			C6.8,11,6.9,11,7,11c0.2,0,0.5,0,0.7,0c0.5,0,1,0,1.5-0.1c0.6-0.1,1.2-0.3,1.7-0.7c0.5-0.4,0.8-0.9,1-1.6C12,7.9,12.1,7,12,6.2z
			 M11.1,8.5C11,8.8,10.9,9,10.7,9.2C10.4,9.6,10,9.9,9.5,10c-0.7,0.1-1.4,0.2-2.1,0.2c-0.1,0-0.2,0-0.3,0.1
			c-0.4,0.5-0.9,0.9-1.3,1.4c0,0-0.1,0.1-0.2,0.1c-0.1,0-0.1-0.1-0.1-0.2c0-0.2,0-0.5,0-0.7c0-0.2,0-0.5,0-0.7c0-0.1,0-0.1-0.1-0.1
			C4.6,9.7,4,9.1,3.9,8.2C3.7,7.2,3.8,6.3,4,5.3c0-0.2,0.1-0.4,0.3-0.6C4.4,4.4,4.7,4.2,5,4c0.3-0.2,0.7-0.2,1-0.3
			c1.2-0.2,2.3-0.1,3.5,0.1c0.2,0,0.4,0.1,0.6,0.3c0.3,0.2,0.5,0.4,0.7,0.6c0.2,0.3,0.3,0.6,0.4,1C11.3,6.6,11.2,7.6,11.1,8.5z"/>
		<path class="st0" d="M8.6,6.6c0,0.1,0,0.1-0.1,0.1c-0.1,0-0.1,0-0.1-0.1c0-0.1,0-0.1,0-0.2c0-0.2-0.2-0.4-0.4-0.4c0,0,0,0-0.1,0
			C7.7,6,7.7,6,7.7,5.9c0-0.1,0.1-0.1,0.2-0.1C8.3,5.8,8.6,6.1,8.6,6.6z"/>
		<path class="st0" d="M9.2,6.7C9.2,6.7,9.2,6.8,9.2,6.7c0,0.1-0.1,0.2-0.1,0.2c-0.1,0-0.1,0-0.1-0.1c0-0.1,0-0.2,0-0.3
			c-0.1-0.6-0.5-1-1.2-1.1c0,0,0,0-0.1,0c-0.1,0-0.2,0-0.2-0.1c0-0.1,0.1-0.1,0.2-0.1C8.5,5.2,9.1,5.9,9.2,6.7z"/>
		<path class="st0" d="M9.5,8.7C9.5,8.9,9.4,9,9.2,9.2C9,9.3,8.8,9.4,8.5,9.3C6.9,8.6,5.8,7.5,5.2,5.8c0,0,0-0.1,0-0.1
			c0-0.1,0-0.2,0.1-0.3C5.4,5.2,5.6,5,5.8,4.9c0.1-0.1,0.3,0,0.4,0.1c0.2,0.3,0.4,0.5,0.6,0.8C6.8,6,6.8,6.2,6.6,6.3
			C6.3,6.5,6.3,6.6,6.5,7C6.7,7.5,7.1,7.8,7.6,8C7.9,8.2,8,8.1,8.1,7.9c0.2-0.3,0.4-0.3,0.6-0.1C9,8,9.2,8.1,9.4,8.3
			C9.6,8.4,9.6,8.6,9.5,8.7z"/>
		<path class="st0" d="M9.6,7.2C9.5,7.2,9.5,7.1,9.5,7c0-0.2,0-0.4-0.1-0.6C9.3,5.6,8.6,5,7.7,4.9c-0.1,0-0.2,0-0.3,0
			c-0.1,0-0.2,0-0.2-0.1c0-0.1,0.1-0.1,0.2-0.1c0,0,0,0,0,0c0,0,0,0,0,0c1.2,0,2.1,0.9,2.2,2.1c0,0.1,0,0.2,0,0.3
			C9.8,7.1,9.7,7.1,9.6,7.2z"/>
		<path class="st3" d="M9.5,8.7C9.5,8.9,9.4,9,9.2,9.2C9,9.3,8.8,9.4,8.5,9.3C6.9,8.6,5.8,7.5,5.2,5.8c0,0,0-0.1,0-0.1
			c0-0.1,0-0.2,0.1-0.3C5.4,5.2,5.6,5,5.8,4.9c0.1-0.1,0.3,0,0.4,0.1c0.2,0.3,0.4,0.5,0.6,0.8C6.8,6,6.8,6.2,6.6,6.3
			C6.3,6.5,6.3,6.6,6.5,7C6.7,7.5,7.1,7.8,7.6,8C7.9,8.2,8,8.1,8.1,7.9c0.2-0.3,0.4-0.3,0.6-0.1C9,8,9.2,8.1,9.4,8.3
			C9.6,8.4,9.6,8.6,9.5,8.7z"/>
		<path class="st3" d="M9.6,7.2C9.5,7.2,9.5,7.1,9.5,7c0-0.2,0-0.4-0.1-0.6C9.3,5.6,8.6,5,7.7,4.9c-0.1,0-0.2,0-0.3,0
			c-0.1,0-0.2,0-0.2-0.1c0-0.1,0.1-0.1,0.2-0.1c0,0,0,0,0,0c0,0,0,0,0,0c1.2,0,2.1,0.9,2.2,2.1c0,0.1,0,0.2,0,0.3
			C9.8,7.1,9.7,7.1,9.6,7.2z"/>
		<path class="st3" d="M9.2,6.8c0,0.1-0.1,0.1-0.1,0.1c-0.1,0-0.1,0-0.1-0.1c0-0.1,0-0.2,0-0.3c-0.1-0.6-0.5-1-1.2-1.1
			c0,0,0,0-0.1,0c-0.1,0-0.2,0-0.2-0.1c0-0.1,0.1-0.1,0.2-0.1C8.5,5.2,9.1,5.9,9.2,6.8C9.2,6.7,9.2,6.8,9.2,6.8z"/>
		<path class="st4" d="M8.5,6.7c-0.1,0-0.1,0-0.1-0.1c0-0.1,0-0.1,0-0.2c0-0.2-0.2-0.4-0.4-0.4c0,0,0,0-0.1,0C7.7,6,7.7,6,7.7,5.9
			c0-0.1,0.1-0.1,0.2-0.1c0.4,0,0.7,0.3,0.7,0.8C8.6,6.7,8.6,6.7,8.5,6.7z"/>
	</g>
</g>
</svg>
