<svg width="207" height="127" fill="none" xmlns="http://www.w3.org/2000/svg"><g fill="#fff"><path d="M177.7 114.7h-11.8c.3-1.5 14.3-63.3 14.8-65.3s-1-3.8-3-3.8h-6.3V29.8c0-1.8-1.5-3.3-3.3-3.3h-56.5c-1.8 0-3.3 1.5-3.3 3.3v15.8H102V29.8c0-1.8-1.5-3.3-3.3-3.3h-9.5V4.7c0-1.8-1.5-3.3-3.3-3.3H55.1c-1.8 0-3.3 1.5-3.3 3.3v22.1h-9.5c-1.8 0-3.3 1.5-3.3 3.3v15.8h-6.3c-2 0-3.5 1.8-3 3.8.5 2.5 14.3 63 14.8 65.3H32.8c-1.8 0-3.3 1.5-3.3 3.3 0 1.8 1.5 3.3 3.3 3.3h144.4c1.8 0 3.3-1.5 3.3-3.3.2-2.4-1.3-3.6-2.8-3.6Zm-62.8-81.6h50.2v12.6h-50.2V33.1Zm-69 0h9.5c1.8 0 3.3-1.5 3.3-3.3V7.7h25.1v22.1c0 1.8 1.5 3.3 3.3 3.3h9.5v12.6H46.4V33.1h-.5Zm127.7 18.8-3.3 14.6h-130L37 51.9h136.6ZM51.4 114.7l-9.5-42.2h127l-9.5 42.2h-108Z"/><path d="M75.5 83.3c-6 0-11 5-11 11s5 11 11 11 11-5 11-11-5-11-11-11Zm0 15.6c-2.5 0-4.8-2-4.8-4.8s2-4.8 4.8-4.8 4.8 2 4.8 4.8c-.1 2.8-2.1 4.8-4.8 4.8Zm31.4-15.6c-6 0-11 5-11 11s5 11 11 11 11-5 11-11-5-11-11-11Zm0 15.6c-2.5 0-4.8-2-4.8-4.8s2-4.8 4.8-4.8 4.8 2 4.8 4.8c-.1 2.8-2.1 4.8-4.8 4.8Zm31.3-15.6c-6 0-11 5-11 11s5 11 11 11 11-5 11-11c.1-6-4.9-11-11-11Zm0 15.6c-2.5 0-4.8-2-4.8-4.8s2-4.8 4.8-4.8 4.8 2 4.8 4.8-2 4.8-4.8 4.8Z"/></g></svg>