<svg width="66" height="55" fill="none" xmlns="http://www.w3.org/2000/svg"><g clip-path="url(#a)"><path d="M49.587 5.569s-.347.206-.347.481 0 .55.208.55c.208.069.208-.275.346-.137.208.137.14.481-.069.825-.208.344-.485.894-.83 1.444-.347.48-.07 1.237-.209 1.443-.138.207-.692.55-.9.619-.208.069-.415 0-.554-.069-.138-.069-.346-.069-.554.069-.208.137-.208.688-.485.963-.277.274-.346.55-.346.825 0 .274.139.412-.208.55-.277.137.07.687.416.687s0-.206.623-.138c.623.07.97.07 1.177-.068.208-.207.347-.619.762-.413.416.207.139 1.582 0 1.582-.138 0-.692.206-.83.343-.14.138-.763.413-.832.619-.07.206-.138.688-.277.688-.208 0-.277 0-.415.137-.07.137-.831.275-1.04.413-.276.137-.415 1.168-.9 1.168-.484 0-1.523-.275-1.731-.069-.208.207-.277.344-.277.826 0 .48.07 1.443-.692 1.924-.693.482-.832.344-1.178.55-.346.207-.415.276-.83.207-.416 0-.694-.138-1.455.206-.693.275-2.009 1.031-2.424.962-.346-.068-.416-.274-.97-.343-.554-.138-.9.069-1.177-.138-.277-.206-.554-.618-1.039-.687-.485-.069-1.108-.138-1.731-.275-.554-.069-.831.069-.97.069-.138 0-1.731.137-2.285-.07-.554-.206-.762-.48-1.04-1.03-.276-.55-.484-.62-.484-.757 0-.206-.07-.687-.277-.756-.277-.069-.416 0-.97-.412-.553-.482-.692-.62-1.038-.62-.347 0-.831.07-1.593-.274-.762-.344-.831-.619-.762-.757.07-.137.416-.274.416-.412 0-.137-.208-.206-.07-.481.07-.344.347-.55.208-.757-.139-.137-.416-.137-.485-.412-.069-.275.139-.344-.138-.688-.277-.343-.416-.206-.623-.343-.14-.138-.07-.275-.416-.344-.346-.069-.485.137-.554-.137-.139-.275.138-.413-.07-.62-.207-.206-.276-.068-.415-.343-.138-.344.07-.275-.346-.481-.416-.207-.485-.275-.693 0-.207.206-.207.55-.761.55-.555-.069-.485.412-.624.687-.208.275.139.619 0 .825-.138.207-.485.619-.692.413-.208-.138 0-.413-.208-.413s-.762.138-.9-.069c-.139-.206-.07-.343-.347-.343-.277.069-.485.481-.623.825-.208.344 0 .412-.208.687-.277.275-.485.344-.415.619.069.275.346.275.277.481-.07.207-.07.275-.624-.068-.554-.275-.554-.482-.761-.344-.208.137-.07.137-.624.137s-1.039 0-1.039.207c0 .206.347.137.416.343.07.206 0 .55 0 .963 0 .412.208.756.139 1.031-.07.275-.416.412-.624.688-.207.274.139.412-.207.618-.347.207-.208.275-.693.344-.485.069-.485-.137-.762.069-.277.206-.346.412-.623.412s-.554-.206-.693 0c-.138.138 0 .206-.346.206s-.623-.274-1.039.07c-.485.274-.277.48-.623.55-.346.068-.693.274-.623-.07.069-.275 0-.206-.416-.343-.346-.138-.346.068-.554.068-.208 0-.277.344-.554.276-.208-.207-.693.206-1.108.206-.416 0-.416.481-.623.55-.277.069-.277.893-.208 1.169.07.274.277 0 .623.068.346.069.623 1.513.346 1.719-.346.206-.623.137-.554.344.07.206.347.206.693.55.346.343.554.343.554.687 0 .344-.277.482-.139.688.139.275.347.137.762.412.485.275.416.482.831.619.485.069.624.069.624.069s-.139.481.069.825c.208.343.692.481.762.687.069.207-.208.138-.208.413 0 .275.07.55-.139.687-.138.138-.069.069.07.482.138.48.277.962-.139 1.1-.415.068-.623-.138-.623-.276-.07-.068-.346-.068-.277.207.07.275.208.206.208.618-.07.413-.139.688 0 .826.138.137.346.206.484.55.139.274.554.825.831.962.208.138.416-.069.554.206.139.275.208.756.416.688.208-.069.346-.688.623-.344.277.275.07.344.416.55.346.206.415.069.623.344.208.275.07.137.277.275.208.137.346-.069.485.206.07.275 0 .619.346.619.347 0 .347.343.623.55.278.206.278.412.485.412.277.069.07-.275.346.138.278.412.278.412.555.55.277.137.277.275.415.343.139.07.139-.137.416-.068.277.069.069 0 1.108.343.97.344 1.385.07 1.593.207.207.137.415.412.346.687-.07.275-.208.413-.07.481.14.07 1.04-.893 1.316-1.168.347-.206.831-.206.831-.138 0 .069 0 .619.07.619.069 0 .83-.069 1.108.206.277.275.208.481.346.481.139 0 .97-.068 1.247-.343.277-.275.554-.344.623-.481.07-.138-.07-.207.139-.207.207 0 .207.275.415.138.208-.138.623-.688.9-.825.277-.138.277-.069.624.206.346.275.415.481.554.412.138-.137.069-.343.277-.55.207-.137.485-.206.692 0 .139.207-.069.413 0 .482.07.069.277-.069.346.206 0 .275-.415.619-.277.756.07.138.9.344 1.178.344.277 0 .208-.275.346-.481.139-.206.139-.138.416 0 .277.137.277-.069.346.206.07.206-.07.481.277.688.277.206.623 1.787.554 1.856-.07.069 0 .206-.139.481-.138.275-.138.344-.415.344-.277.069 0 .275-.277.481-1.247.619-.97 1.856-.693 1.925.277 0 .416.137.762-.138.346-.275.554-.48.554-.343.07.137-.207.275-.138.412.069.138.207.206.277.619.069.413.138.481.346.55.208 0 .139.275.07.619-.07.275-.14.618.069.687.207.069.83.757 1.038.894.208.069.208.206.485.069.277-.138.416-.482.623-.344.208.069.07.344.347.55.277.206.277.138.485.275.207.137.207.137.207-.069 0-.206-.138-.962-.069-1.237.07-.275.139-.481.346-.481.208 0 0 .068.346.137.347.069.208-.206.485-.069.277.138.277.275.485.206.208-.068.554-.274.623-.274.07.068.208.206.347.206.138 0 .069.137.346.069.277-.07.07-.138.485-.207.415-.069 1.108-.894 1.246-.825.208.069.139.069.347.206.207.07.623.344.97.276.346-.07.207.206.207.55 0 .343.623.893.831 1.1.208.137.623.206 1.108.206.485 0 .139-.138.623-.138.485 0 .485 0 .831.138.347.137.485-.138.693 0 .208.137 0 .343.07.687.069.413.138.825.484.894.346.069.485-.138.554-.413.07-.274.07-.893.139-1.03.138-.138.207-.276.623-.207.415.069.277 0 .485-.137.207-.07.069-.275.554-.344.554-.069.623-.275 1.038-.344.416-.069.347-.55.555-.619.207 0 .138-.343.277-.481.069-.069.346.069.484.138.208.068.277.068.416 0 .138-.07.831-.413 1.316-.413.484 0 .692 0 .83-.138.07-.137.278-.412.555-.412s.277-.137.277-.275c0-.137 0-.481.415-.688.416-.137.554.07.831-.137.208-.206.208-1.238.347-1.375.208-.138.346.069.554 0 .208-.069.692-1.169.97-1.238.207-.068.276-.206.276-.343 0-.138.07-1.375 0-1.444-.069-.069.208 0 .277-.069.139-.069.208-.343.347-.55.207-.206.138-.481.138-.481v-.688c0-.275.208-.618.416-.756.138-.137.346 0 .415-.069.07-.068-.069-1.03.208-1.168.277-.138.346-.138.415-.206 0-.07 0-.757-.207-.963-.208-.206-.485-.413-.831-.413-.347 0-.554-.274-.277-.48.207-.138.485-.276.554-.482.069-.206.277-.275-.07-.413-.346-.137-.415-.274-.623-.343-.208-.069-.485-.069-.623-.206-.139-.138 0-.276.138-.276.07 0 .485 0 .693.07.208.068.277.137.416.137.138 0 .138-.207 0-.344-.14-.138-.416-.275-.555-.481-.138-.206-.277-.206-.484-.275-.277-.069-.485-.482-.554-.825 0-.344 0-.481-.277-.619-.277-.137-.347-.137-.347-.344 0-.206.139-.343 0-.481-.138-.137-.415.069-.692-.137-.277-.207-.485-.275-.623-.482-.14-.137-.208-.137-.14-.275.07-.137.209-.206.347-.344.139-.137.208-.206.208-.48 0-.276-.208-.276.208-.55.346-.276.554-.07.623-.345.07-.274.554-.825.831-1.03.277-.207.277-.276.485-.345.208 0 .07.276.415 0 .277-.274.277-.55.139-.687-.208-.137-.416-.275-.831-.206-.346.069-.416.275-.554.069-.139-.207 0-.207-.416-.276-.415-.068-.554 0-.692.07-.07.137.069.274-.139.412-.277.137-.277.206-.554.412-.208.206-.07.206-.415.138-.347-.069-.208-.275-.277-.55-.07-.275-.139-.344-.277-.413-.208-.069-.347-.206-.485-.069-.139.138-.277.482-.416.344-.138-.137-.138-.206-.277-.412-.138-.207-.346-.275-.277-.482.07-.137.07-.618.208-.687.139-.069.07-.069.485-.069s.415-.137.623-.344c.208-.206.346 0 .346-.274 0-.275-.138-.413.139-.62.277-.137.415-.343.623-.618.277-.275.208-.688.762-.825.623-.137.623-.069.762-.275.138-.138.554 0 .554.344s-.139.206-.208.619c-.07.412-.554.48-.415.893.069.069-.347.894-.347.963.07.069.139.275.277.137.208-.137.554-.137.693-.344.138-.206 1.316-1.306 1.939-1.512.554-.275.485-.481.554-.756.139-.275 1.524-1.375 1.731-1.513.208-.206.07-.412.277-.687.208-.275.485-.138.554 0 .07.137.208.137.347.069.138-.07.554-.413.692-.55.139-.138.485-.894.693-1.032.208-.137.346 0 .346-.275.07-.206-.07-.687.139-.756.207-.069.346 0 .415.137.07.138.208.482.346.413.208 0 .485-.756.485-1.031 0-.275.208-.275.07-.413-.139-.137-.07-.756-.208-1.237-.139-.413-.485-.413-.485-.757 0-.343.208-.618.415-.687.208-.069.624-.137.762-.069.139.069.277.275.416.069.138-.137.277-.55.277-.894 0-.343.069-.756.138-1.168.07-.344 0-.62.139-.757.138-.206.485-.756.415-1.031-.069-.275-.069-1.237-.277-1.375-.207-.069-.346.069-.692.344-.346.275-.346.344-.693.481-.346.069-.346-.069-.554.138-.208.206-.277.618-.485.687-.069.206-.692.412-1.038.206-.347-.137 0-.687-.762-1.168-.762-.55-1.316-.55-1.732-.482-.415.069-.83.344-1.108.207-.277-.138-1.246-1.582-1.246-1.857 0-.275.138-.618 0-.893-.139-.275-.485-.482-.762-.963s-.208-.687-.831-.756c-.623-.069-.762.069-1.177-.138-.416-.137-.416-.275-.762-.275-.346.069 0 .344-.693.275-.692 0-1.039.138-1.177.275-.139.138-.623.207-.831.344ZM42.73 52.457s0 .068-.484.137c-.485.069-.554 0-.831.344-.277.344-.693.55-.693.756 0 .275.139.275.277.619.139.344.208.206.693.412.484.207.346.344.554.275.207-.068 0-.275.277-.275s.554-.412.623-.687c.07-.275-.07-.138.07-.413.138-.275.484-.55.553-.756 0-.206 0-.344-.277-.412-.207-.07-.554-.207-.761 0Z" fill="#171756"/><path d="M49.587 3.644s-.346.206-.346.481 0 .55.207.55c.208 0 .208-.275.347-.137.207.137.138.48-.07.825-.207.343-.484.893-.83 1.443-.347.482-.07 1.238-.208 1.444-.139.206-.693.55-.9.619-.209.069-.416 0-.555-.069-.138-.069-.346-.069-.554.069-.208.137-.208.687-.485.962-.277.275-.346.55-.346.825 0 .275.139.413-.208.55-.277.138.07.688.416.688s0-.206.623-.138c.623.07.97.07 1.178-.068.207-.207.346-.62.761-.413.416.206.139 1.581 0 1.581-.138 0-.692.207-.83.344-.14.138-.693.344-.763.55-.069.206-.138.688-.277.688-.207 0-.277 0-.415.137-.07.138-.831.275-1.039.413-.277.137-.416 1.168-.9 1.168-.485 0-1.524-.275-1.732-.068-.207.206-.277.343-.277.825 0 .48.07 1.443-.692 1.925-.693.48-.831.343-1.178.55-.346.206-.415.275-.83.206-.416 0-.693-.138-1.455.206-.693.275-2.008 1.031-2.424.963-.346-.07-.415-.275-.97-.344-.553-.138-.9.069-1.177-.138-.277-.206-.554-.618-1.039-.687-.484-.069-1.108-.138-1.731-.275-.554-.069-.831.069-.97.069-.138 0-1.73.137-2.285-.07-.554-.205-.762-.48-1.039-1.03-.277-.55-.485-.62-.485-.757 0-.206-.069-.687-.277-.756-.277-.069-.415 0-.97-.412-.553-.482-.692-.62-1.038-.62-.346 0-.831.07-1.593-.274-.762-.344-.83-.619-.762-.756.07-.138.416-.275.416-.413 0-.137-.208-.206-.07-.481.07-.344.347-.55.208-.756-.138-.138-.415-.138-.484-.413-.07-.275.138-.344-.139-.687-.277-.344-.415-.207-.623-.344-.139-.138-.07-.275-.416-.344-.346-.069-.485.138-.554-.137-.138-.275.139-.413-.069-.62-.208-.205-.277-.068-.416-.343-.138-.344.07-.275-.346-.481-.415-.206-.485-.275-.692 0-.208.206-.208.55-.762.55-.554-.069-.485.412-.623.687-.208.275.138.62 0 .825-.139.207-.485.62-.693.413-.208-.138 0-.413-.208-.413s-.762.138-.9-.068c-.139-.207-.07-.344-.346-.344-.277.069-.485.481-.624.825-.207.344 0 .412-.207.687-.277.275-.485.344-.416.62.07.274.346.274.277.48-.07.207-.07.275-.623-.068-.554-.275-.554-.482-.762-.344-.208.137-.07.137-.623.137-.554 0-1.04 0-1.04.207 0 .206.347.137.416.343.07.207 0 .55 0 .963 0 .412.208.756.139 1.031-.07.275-.416.413-.623.688-.208.275.138.412-.208.618-.347.207-.208.275-.693.344-.485.069-.485-.137-.762.069-.277.206-.346.412-.623.412s-.554-.206-.692 0c-.139.207 0 .207-.347.207-.346 0-.623-.275-1.038.068-.485.275-.278.482-.624.55-.346.07-.692.275-.623-.068.07-.275 0-.207-.416-.344-.346-.138-.346.069-.554.069-.207 0-.277.343-.554.275-.277-.07-.761.343-1.108.343-.346 0-.415.482-.623.55-.277.07-.277.894-.208 1.17.07.274.277 0 .623.068.347.069.624 1.512.347 1.719-.347.206-.624.137-.554.343.069.207.346.207.692.55.347.344.554.344.554.688s-.277.481-.138.687c.138.275.346.138.762.413.484.275.415.481.83.619.485.068.624.068.624.068s-.139.482.07.825c.207.344.692.482.761.688.07.137-.208.069-.208.344 0 .275.07.55-.138.687-.139.138-.07.069.069.481.138.482.277.963-.139 1.1-.415.07-.623-.137-.623-.275 0-.137-.346 0-.277.207.07.275.208.206.208.618-.07.413-.139.688 0 .825.138.138.346.207.485.55.138.275.554.825.83.963.209.137.416-.069.555.206.138.275.208.756.415.688.208-.07.347-.688.624-.344.277.275.069.344.415.55.346.206.416.069.623.344.208.275.07.137.277.275.208.137.347-.07.485.206.07.275 0 .619.346.619.347 0 .347.343.624.55.277.206.277.412.485.412.277.069.069-.275.346.138.277.412.277.412.554.55.277.137.277.275.415.343.139.07.139-.137.416-.068.277.068.07 0 1.108.343.97.344 1.385.07 1.593.207.208.137.415.412.346.687-.07.275-.208.413-.07.481.14.07 1.04-.893 1.317-1.168.346-.207.83-.207.83-.138 0 .069 0 .619.07.619s.831-.069 1.108.206c.277.275.208.481.346.481.139 0 .97-.068 1.247-.343.277-.275.554-.344.623-.482.07-.137-.069-.206.139-.206.208 0 .208.275.415.138.208-.138.624-.688.9-.825.278-.138.278-.07.624.206.346.275.415.481.554.412.139-.137.07-.343.277-.55.208-.137.485-.206.693 0 .138.207-.07.413 0 .482.069.068.277-.07.346.206 0 .275-.416.619-.277.756.07.138.9.344 1.177.344s.208-.275.346-.481c.139-.207.139-.138.416 0 .277.137.277-.07.346.206.07.206-.069.481.277.687.277.207.624 1.788.554 1.857-.069.068 0 .206-.138.48-.139.276-.139.345-.416.345-.277.068 0 .275-.277.48-1.246.62-.97 1.857-.692 1.926.277 0 .415.137.761-.138.347-.275.555-.48.555-.343.069.137-.208.275-.139.412.07.138.208.206.277.619.07.412.139.481.346.55.208 0 .139.275.07.619-.07.275-.139.618.069.687.208.069.83.756 1.039.894.208.069.207.206.485.069.276-.138.415-.482.623-.344.207.069.069.344.346.55.277.206.277.137.485.275.208.137.208.137.208-.069 0-.206-.139-.962-.07-1.237.07-.275.139-.482.347-.482.207 0 0 .07.346.138.346.069.208-.206.485-.069.277.138.277.275.484.206.208-.068.554-.275.624-.275.069.07.208.207.346.207.139 0 .07.137.346.068.277-.068.07-.137.485-.206.416-.069 1.108-.894 1.247-.825.207.069.138.069.346.206.208.07.623.344.97.275.346-.068.207.207.207.55 0 .344.624.894.831 1.1.208.138.624.207 1.108.207.485 0 .139-.138.624-.138.484 0 .484 0 .83.138.347.137.486-.138.693 0 .208.137 0 .343.07.687.069.413.138.825.484.894.347.069.485-.138.554-.413.07-.275.07-.893.139-1.03.138-.138.208-.276.623-.207.416.069.277 0 .485-.138.208-.068.07-.275.554-.343.554-.07.623-.275 1.039-.344.415-.069.346-.55.554-.619.208-.069.138-.344.277-.481.07-.069.346.069.485.137.207.07.277.07.415 0 .139-.068.831-.412 1.316-.412.485 0 .693 0 .831-.138.07-.137.277-.412.554-.412s.277-.138.277-.275c0-.138 0-.481.416-.688.415-.206.554.07.83-.137.209-.206.209-1.238.347-1.375.208-.138.346.069.554 0 .208-.069.693-1.169.97-1.238.207-.068.277-.206.277-.343 0-.138.069-1.375 0-1.444-.07-.069.207 0 .277-.069.069-.069.207-.344.346-.55.208-.206.139-.481.139-.481v-.688c0-.275.207-.618.415-.756.139-.137.346 0 .416-.069.069-.068-.07-1.03.207-1.168.208-.138.347-.138.416-.207 0-.068 0-.756-.208-.962-.208-.206-.485-.413-.831-.413s-.554-.275-.277-.48c.208-.138.485-.276.554-.482.07-.206.277-.275-.07-.413-.346-.137-.415-.275-.623-.343-.207-.07-.484-.07-.623-.207-.138-.137 0-.275.139-.275.069 0 .484 0 .692.07.208.068.277.137.416.137.138 0 .138-.207 0-.344-.139-.138-.416-.275-.554-.481-.139-.207-.277-.207-.485-.275-.277-.07-.485-.482-.554-.825 0-.344 0-.482-.277-.62-.277-.205-.346-.205-.346-.343 0-.206.138-.344 0-.481-.139-.138-.416.069-.693-.138-.277-.206-.485-.275-.623-.48-.139-.138-.208-.138-.139-.276.07-.137.208-.206.347-.344.138-.137.207-.206.207-.48 0-.276-.207-.276.208-.55.346-.276.554-.07.623-.345.07-.275.554-.825.831-1.03.277-.207.277-.276.485-.345.208 0 .07.275.416 0 .277-.275.277-.55.138-.687-.138-.138-.415-.275-.83-.206-.347.068-.416.275-.555.068-.138-.206 0-.206-.415-.275-.416-.068-.554 0-.693.07-.07.137.07.274-.138.412-.277.137-.277.206-.555.412-.207.206-.069.206-.415.138-.346-.07-.208-.275-.277-.55-.07-.275-.139-.344-.277-.413-.139-.069-.346-.206-.485-.069-.138.138-.277.482-.415.344-.139-.137-.139-.206-.277-.412-.139-.207-.347-.275-.277-.482.069-.206.069-.618.207-.687.139-.069.07-.069.485-.069.416 0 .416-.137.623-.344.208-.206.347 0 .347-.275s-.139-.412.138-.618c.277-.138.416-.344.623-.62.278-.274.208-.687.762-.824.624-.138.624-.069.762-.275.139-.138.554 0 .554.344 0 .343-.138.206-.208.618-.069.413-.554.482-.415.894.07.069-.346.894-.346.963.069.068.138.275.277.137.207-.137.554-.137.692-.344.139-.206 1.316-1.306 1.94-1.512.553-.275.484-.481.553-.756.07-.275 1.524-1.375 1.732-1.513.208-.137.069-.412.277-.687.207-.275.484-.138.554 0 .07.137.208.137.346.068.139-.068.554-.412.693-.55.138-.137.484-.893.692-1.03.208-.138.346 0 .346-.276.07-.206-.069-.687.139-.756.208-.069.346 0 .416.137.069.138.207.482.346.413.208 0 .485-.756.485-1.031 0-.275.207-.275.069-.413-.139-.137-.07-.756-.208-1.237-.139-.413-.485-.413-.485-.757 0-.343.208-.618.416-.687.208-.069.623-.138.762-.069.138.069.277.275.415.069.139-.138.277-.55.277-.894s.07-.756.139-1.169c.069-.343 0-.618.138-.756.139-.206.485-.756.416-1.031-.07-.275-.07-1.238-.277-1.375-.208-.069-.347.069-.693.344-.346.275-.346.343-.692.48-.347.07-.347-.068-.554.138-.208.207-.278.62-.485.688-.208.069-.831.275-1.108.069-.347-.138 0-.688-.762-1.17-.762-.55-1.316-.55-1.731-.48-.416.068-.832.343-1.109.206-.277-.138-1.246-1.581-1.246-1.856 0-.275.138-.62 0-.894-.139-.275-.485-.481-.762-.963-.277-.48-.208-.687-.831-.756-.623-.069-.762.069-1.177-.137-.416-.07-.416-.207-.762-.138-.346.069 0 .344-.693.275-.692 0-1.039.138-1.177.275-.139.138-.623.138-.831.344Z" fill="#7F140E"/><path d="M10.735 11v2.75h.762s.138-.825.138-.893c0-.069-.415-1.719-.415-1.719l-.485-.137Zm2.77-.55v1.031s.623-.137.623-.206v-.481c0-.069-.415-.413-.415-.413l-.208.07Zm8.588-.137V13.2l-1.178-1.237s-.138-.412-.069-.55c.139-.138 1.247-1.1 1.247-1.1Zm21.815 40.356v-2.75l-3.047 1.1v2.75c0 .275.138.275.277.619.138.343.208.206.692.412.485.206.347.344.554.275.208-.069 0-.275.277-.275s.554-.412.624-.687c.069-.275-.07-.138.069-.413.139-.275.485-.55.554-.756v-.275ZM1.524 17.807v2.75s1.593-.757 1.662-.757c.07-.068.139-1.512.139-1.512l-.9-.413h-.901v-.068Zm.416 2.681V23.1h.9s.346-.55.346-.756c0-.206-.208-1.031-.277-1.031-.07-.069-.97-.825-.97-.825Zm26.316 21.519c-.07-.07-.623-.55-.692-.55-.07 0-1.178.206-1.178.206v2.819s1.732-.413 1.8-.688c.07-.275.278-.962.209-1.1 0-.206-.07-.619-.139-.688ZM4.848 27.638v2.75l1.247.756s.554-.138.623-.275c.07-.138.139-1.1.07-1.238-.14-.275-1.94-1.993-1.94-1.993Zm50.002 7.081c-.138.137-.069.756-.069.825 0 .069 1.524.894 1.524.894v-2.75l-.416-.138s-.9 1.032-1.039 1.169Zm.831-4.469-.83-.206h-.555s-.069.412-.069.55c.07.137 1.454.55 1.454.55v-.894Z" fill="#7F140E"/><path d="M55.681 32.519v-1.444l-.97.688-.068.206.277.275.761.275Zm-.554-7.149v-2.75l-.692.068s-.97.069-1.04.069c-.068 0-.969 1.03-.969 1.03s-.83 1.857-.83 1.926c0 .069 1.107.206 1.107.206l1.316-.894s.139.07.346.07c.277.137.762.274.762.274ZM46.816 8.044c-.069 0-1.177.55-1.177.55v2.75l1.731-1.031.139-1.307c-.07-.068-.623-.962-.693-.962Zm16.968-1.375s-.416.55-.485.687c-.069.138-.069.757-.069.757 0 .068 1.247.55 1.247.55V5.98l-.693.688Zm-1.87 7.288c-.069.137 0 1.03.07 1.168.069.138.623.207.623.207v-2.75l-.346.48c-.07.07-.277.688-.347.895Zm-7.549 7.013c0-.07-.138-.894-.276-.894-.139 0-.693-.07-.693 0 0 .068-.485.687-.485.687v2.269l.97-1.238c0-.069.484-.756.484-.825ZM50.072 1.238c-.208 0-.9.137-.9.137v2.613s1.385-.55 1.385-.619c0-.069 0-1.512-.07-1.581 0-.069-.208-.55-.415-.55Zm5.748 1.031s-.208.344-.277.344c-.07.069-.139.275-.139.275l.416.481v-1.1Z" fill="#7F140E"/><path d="M48.202 7.975s-1.247.688-.693.825c.623.138 1.039.344 1.247.138.208-.207.415-.482.346-.62-.07 0-.9-.343-.9-.343Z" fill="#7F140E"/><path d="M49.587.894s-.346.206-.346.481 0 .55.207.55c.208 0 .208-.275.347-.137.138.137.138.48-.07.825-.207.343-.484.893-.83 1.443-.347.482-.07 1.238-.208 1.444-.139.206-.693.55-.9.619-.209.069-.416 0-.555-.069-.138-.069-.346-.069-.554.069-.208.137-.208.687-.485.962-.277.275-.346.55-.346.825 0 .275.139.413-.208.55-.277.138.07.688.416.688s0-.206.623-.138c.623.07.97.07 1.178-.068.207-.207.346-.62.761-.413.416.206.139 1.581 0 1.581-.138 0-.692.207-.83.344-.14.138-.693.344-.763.55-.069.206-.138.688-.277.688-.207 0-.277 0-.415.137-.07.138-.831.275-1.039.413-.277.137-.416 1.168-.9 1.168-.485 0-1.524-.275-1.732-.068-.207.206-.277.343-.277.825 0 .48.07 1.443-.692 1.925-.693.48-.831.343-1.178.55-.346.206-.415.275-.83.206-.416 0-.693-.138-1.455.206-.693.275-2.008 1.031-2.424.963-.346-.07-.415-.275-.97-.344-.553-.138-.9.069-1.177-.138-.277-.206-.554-.618-1.039-.687-.484-.069-1.108-.138-1.731-.275-.554-.069-.831.069-.97.069-.138 0-1.73.137-2.285-.07-.554-.205-.762-.48-1.039-1.03-.277-.55-.485-.62-.485-.757 0-.206-.069-.687-.277-.756-.277-.069-.415 0-.97-.412-.553-.482-.692-.62-1.038-.62-.346 0-.831.07-1.593-.274-.762-.344-.83-.619-.762-.756.07-.138.416-.275.416-.413 0-.137-.208-.206-.07-.481.07-.344.347-.55.208-.756-.138-.138-.415-.138-.484-.413-.07-.275.138-.344-.139-.687-.277-.344-.415-.207-.623-.344-.139-.138-.07-.275-.416-.344-.346-.069-.485.138-.554-.137-.138-.275.139-.413-.069-.62-.208-.205-.277-.068-.416-.343-.138-.344.07-.275-.346-.481-.415-.206-.485-.275-.692 0-.208.206-.208.55-.762.55-.554-.069-.485.412-.623.687-.208.275.138.62 0 .825-.139.207-.485.62-.693.413-.208-.138 0-.413-.208-.413s-.762.138-.9-.068c-.139-.207-.07-.344-.346-.344-.277.069-.485.481-.624.825-.207.344 0 .412-.207.687-.277.275-.485.344-.416.62.07.274.346.274.277.48-.07.207-.07.275-.623-.068-.554-.275-.554-.482-.762-.344-.208.137-.07.137-.623.137-.554 0-1.04 0-1.04.207 0 .206.347.137.416.343.07.207 0 .55 0 .963 0 .412.208.756.139 1.031-.07.275-.416.413-.623.688-.208.275.138.412-.208.618-.347.207-.208.275-.693.344-.485.069-.485-.137-.762.069-.277.206-.346.412-.623.412s-.554-.206-.692 0c-.139.207 0 .207-.347.207-.346 0-.623-.275-1.038.068-.485.275-.278.482-.624.55-.346.07-.692.275-.623-.068.07-.275 0-.207-.416-.344-.346-.138-.346.069-.554.069-.207 0-.277.343-.554.275-.277-.07-.761.343-1.108.343-.346 0-.415.482-.623.55-.277.07-.277.894-.208 1.17.07.274.277 0 .623.068.347.069.624 1.512.347 1.719-.277.206-.624.137-.554.343.069.207.346.207.692.55.347.344.554.344.554.688s-.277.481-.138.687c.138.275.346.138.762.413.484.275.415.481.83.619.485.068.624.068.624.068s-.139.482.07.825c.207.344.692.482.761.688.07.137-.208.069-.208.344 0 .275.07.55-.138.687-.139.138-.07.069.069.481.138.482.277.963-.139 1.1-.415.07-.623-.137-.623-.275-.07-.068-.346-.068-.277.207.07.275.208.206.208.618-.07.413-.139.688 0 .825.138.138.346.207.485.55.138.275.554.825.83.963.209.137.416-.069.555.206.138.275.208.756.415.688.208-.07.347-.688.624-.344.277.275.069.344.415.55.346.206.416.069.623.344.208.275.07.137.277.275.208.137.347-.07.485.206.07.275 0 .619.346.619.347 0 .347.343.624.55.277.206.277.412.485.412.277.069.069-.275.346.138.277.412.277.412.554.55.277.137.277.275.415.343.139.07.139-.137.416-.068.277.068.07 0 1.108.343.97.344 1.385.07 1.593.207.208.137.415.412.346.687-.07.275-.208.413-.07.481.14.07 1.04-.893 1.317-1.168.346-.207.83-.207.83-.138 0 .069 0 .619.07.619s.831-.069 1.108.206c.277.275.208.481.346.481.139 0 .97-.068 1.247-.343.277-.275.554-.344.623-.482.07-.137-.069-.206.139-.206.208 0 .208.275.415.138.208-.138.624-.688.9-.825.278-.138.278-.07.624.206.346.275.415.481.554.412.139-.137.07-.343.277-.55.208-.137.485-.206.693 0 .138.207-.07.413 0 .482.069.068.277-.07.346.206 0 .275-.416.619-.277.756.07.138.9.344 1.177.344s.208-.275.346-.481c.139-.207.139-.138.416 0 .277.137.277-.07.346.206.07.206-.069.481.277.687.277.207.624 1.788.554 1.857-.069.068 0 .206-.138.48-.139.276-.139.345-.416.345-.277.068 0 .275-.277.48-1.246.62-.97 1.857-.692 1.926.277 0 .415.137.761-.138.347-.275.555-.48.555-.343.069.137-.208.275-.139.412.07.138.208.206.277.619.07.412.139.481.346.55.208 0 .139.275.07.619-.07.275-.139.618.069.687.208.069.83.756 1.039.894.208.069.207.206.485.069.276-.138.415-.482.623-.344.207.069.069.344.346.55.277.206.277.137.485.275.208.137.208.137.208-.069 0-.206-.139-.962-.07-1.237.07-.275.139-.482.347-.482.207 0 0 .07.346.138.346.069.208-.206.485-.069.277.138.277.275.484.206.208-.068.554-.275.624-.275.069.07.208.207.346.207.139 0 .07.137.346.068.277-.068.07-.137.485-.206.416-.069 1.108-.894 1.247-.825.207.069.138.069.346.206.208.07.623.344.97.275.346-.068.207.207.207.55 0 .344.624.894.831 1.1.208.138.624.207 1.108.207.485 0 .139-.138.624-.138.484 0 .484 0 .83.138.347.137.486-.138.693 0 .208.137 0 .343.07.687.069.413.138.825.484.894.347.069.485-.138.554-.413.07-.275.07-.893.139-1.03.138-.138.208-.276.623-.207.416.069.277 0 .485-.138.208-.068.07-.275.554-.343.554-.07.623-.275 1.039-.344.415-.069.346-.55.554-.619.208-.069.138-.344.277-.481.07-.069.346.069.485.137.207.07.277.07.415 0 .139-.068.831-.412 1.316-.412.485 0 .693 0 .831-.138.07-.137.277-.412.554-.412s.277-.138.277-.275c0-.138 0-.481.416-.688.415-.137.554.07.83-.137.209-.206.209-1.238.347-1.375.208-.138.346.069.554 0 .208-.069.693-1.169.97-1.238.207-.068.277-.206.277-.343 0-.138.069-1.375 0-1.444-.07-.069.207 0 .277-.069.138-.069.207-.344.346-.55.208-.206.139-.481.139-.481v-.688c0-.275.207-.618.415-.756.139-.137.346 0 .416-.069.069-.068-.07-1.03.207-1.168.208-.138.347-.138.416-.207 0-.068 0-.756-.208-.962-.208-.206-.485-.413-.831-.413s-.554-.275-.277-.48c.208-.138.485-.276.554-.482.07-.206.277-.275-.07-.413-.346-.137-.415-.275-.623-.343-.207-.07-.484-.07-.623-.207-.138-.137 0-.275.139-.275.069 0 .484 0 .692.07.208.068.277.137.416.137.138 0 .138-.207 0-.344-.139-.138-.416-.275-.554-.481-.139-.207-.277-.207-.485-.275-.277-.07-.485-.482-.554-.825 0-.344 0-.482-.277-.62-.277-.137-.346-.137-.346-.343 0-.206.138-.344 0-.481-.139-.138-.416.069-.693-.138-.277-.206-.485-.275-.623-.48-.139-.138-.208-.138-.139-.276.07-.137.208-.206.347-.344.138-.137.207-.206.207-.48 0-.276-.207-.276.208-.55.346-.276.554-.07.623-.345.07-.275.554-.825.831-1.03.277-.207.277-.276.485-.345.208 0 .07.275.416 0 .277-.275.277-.55.138-.687-.208-.138-.415-.275-.83-.206-.347.068-.416.275-.555.068-.138-.206 0-.206-.415-.275-.416-.068-.554 0-.693.07-.07.137.07.274-.138.412-.277.137-.277.206-.555.412-.207.206-.069.206-.415.138-.346-.07-.208-.275-.277-.55-.07-.275-.139-.344-.277-.413-.208-.069-.346-.206-.485-.069-.138.138-.277.482-.415.344-.139-.137-.139-.206-.277-.412-.139-.207-.347-.275-.277-.482.069-.206.069-.618.207-.687.139-.069.07-.069.485-.069.416 0 .416-.137.623-.344.208-.206.347 0 .347-.275s-.139-.412.138-.618c.277-.138.416-.344.623-.62.278-.274.208-.687.762-.824.624-.138.624-.069.762-.275.139-.138.554 0 .554.344 0 .343-.138.206-.208.618-.069.413-.554.482-.415.894.07.069-.346.894-.346.963.069.068.138.275.277.137.207-.137.554-.137.692-.344.139-.206 1.316-1.306 1.94-1.512.553-.275.484-.481.553-.756.139-.275 1.524-1.375 1.732-1.513.208-.137.069-.412.277-.687.207-.275.484-.138.554 0 .07.137.208.137.346.068.139-.068.554-.412.693-.55.138-.137.484-.893.692-1.03.208-.138.346 0 .346-.276.07-.206-.069-.687.139-.756.208-.069.346 0 .416.137.069.138.207.482.346.413.208 0 .485-.756.485-1.031 0-.275.207-.275.069-.413-.139-.137-.07-.756-.208-1.237-.139-.413-.485-.413-.485-.757 0-.343.208-.618.416-.687.208-.069.623-.138.762-.069.138.069.277.275.415.069.139-.138.277-.55.277-.894s.07-.756.139-1.169c.069-.343 0-.618.138-.756.139-.206.485-.756.416-1.031-.07-.275-.07-1.238-.277-1.375-.208-.069-.347.069-.693.344-.346.275-.346.343-.692.48-.347.07-.347-.068-.554.138-.208.207-.278.62-.485.688-.208.069-.831.275-1.108.069-.347-.138 0-.688-.762-1.17-.762-.55-1.316-.55-1.731-.48-.416.068-.832.343-1.109.206-.277-.138-1.246-1.581-1.246-1.856 0-.275.138-.62 0-.894-.139-.275-.485-.481-.762-.963-.277-.48-.208-.687-.831-.756-.623-.069-.762.069-1.177-.137-.416-.07-.416-.207-.762-.138-.346.069 0 .344-.693.275-.692 0-1.039.138-1.177.275-.139.138-.623.206-.831.344Z" fill="url(#b)"/><path d="M42.73 47.782s0 .068-.484.137c-.485.069-.554 0-.831.344-.277.343-.693.55-.693.756 0 .275.139.275.277.619.139.343.208.206.693.412.484.207.346.344.554.275.207-.069 0-.275.277-.275s.554-.412.623-.687c.07-.275-.07-.138.07-.413.138-.275.484-.55.553-.756.07-.206 0-.344-.277-.413-.207-.137-.554-.206-.761 0Z" fill="url(#c)"/><path d="M16.483 20.35h-3.67l-1.109-3.506-1.177 3.506H6.926l2.908 2.131-1.108 3.438 2.978-2.063 2.978 2.063-1.177-3.438 2.978-2.131Zm5.333-3.3-1.178-.481.139-1.306-.831.962-1.178-.481.624 1.1-.831.962 1.246-.275.693 1.1.069-1.306 1.247-.275Zm3.186 4.056-.9-.962.622-1.1-1.177.55-.9-.894.208 1.238-1.178.55 1.247.206.208 1.306.623-1.169 1.247.275Zm-3.117 7.563-1.247-.481.07-1.307-.832 1.032-1.177-.482.693 1.1-.831.963 1.246-.275.762 1.031.07-1.237 1.246-.344Zm3.255-3.988h-1.316l-.415-1.237-.416 1.237h-1.246l1.038.757-.415 1.237 1.039-.756 1.039.756-.347-1.237 1.04-.757Z" fill="#FFDE00"/></g><defs><linearGradient id="b" x1="32.985" y1="49.27" x2="32.985" y2="-4.754" gradientUnits="userSpaceOnUse"><stop stop-color="#DE2910"/><stop offset="1" stop-color="#C20022"/></linearGradient><linearGradient id="c" x1="42.341" y1="49.27" x2="42.341" y2="-4.753" gradientUnits="userSpaceOnUse"><stop stop-color="#DE2910"/><stop offset="1" stop-color="#C20022"/></linearGradient><clipPath id="a"><path fill="#fff" d="M0 0h66v55H0z"/></clipPath></defs></svg>