<svg width="17" height="13" fill="none" xmlns="http://www.w3.org/2000/svg"><g stroke-linecap="round"><path d="M1.393 8.004c-.195-.266-.292-.4-.358-.657a1.757 1.757 0 0 1 0-.694c.066-.257.163-.39.358-.657C2.456 4.536 4.788 2 8.143 2s5.686 2.536 6.75 3.996c.194.266.291.4.358.657a1.76 1.76 0 0 1 0 .694c-.067.257-.164.39-.358.657C13.83 9.464 11.498 12 8.143 12s-5.687-2.536-6.75-3.996Z" stroke="#D9D9D9" stroke-width="1.5" stroke-linejoin="round"/><path d="M8 9a2 2 0 1 0 0-4 2 2 0 0 0 0 4Z" stroke="#D9D9D9" stroke-width="1.5" stroke-linejoin="round"/><path d="M13.7 2.32c.275-.275.22-.725-.058-1.002-.278-.278-.727-.333-1.002-.059L2.3 11.6c-.275.275-.22.725.058 1.003.278.277.727.333 1.002.058L13.7 2.32Z" fill="#D9D9D9" stroke="#fff" stroke-width=".3"/></g></svg>