<svg width="92" height="75" fill="none" xmlns="http://www.w3.org/2000/svg"><path d="M56.822 21.221 28.58 37.658.084 21.221 28.411 4.868l28.411 16.353Z" fill="#FFB850"/><path d="m56.821 21.22-.084 29.082-28.243 16.353.085-28.997L56.82 21.22Z" fill="#E17608"/><path d="m28.58 37.658-.084 28.997L0 50.302.085 21.22 28.58 37.658Z" fill="#FFCE7B"/><path d="m33.488 19.198 9.555-5.9-4.904-2.782-9.555 5.732 4.904 2.95Z" fill="#FFDD87"/><path d="m33.486 19.198-4.904-2.95-9.81-5.816-4.819 2.781 9.64 5.985 4.989 2.95 13.022 7.924 5.158-3.035-13.276-7.839Z" fill="#FFEED0"/><path d="m23.593 19.198-13.36 7.924 5.242 3.034 13.106-8.008-4.988-2.95Z" fill="#FFDD87"/><path d="m46.76 27.037-5.158 3.035v.084l.084 28.828 5.243-3.034-.085-28.829-.084-.084Z" fill="#FFB850"/><path d="m15.476 30.157-5.243-3.035-.085 28.997 5.243 3.035.085-28.997Zm13.105-2.361-5.919 3.625 5.92 3.456 5.834-3.457-5.835-3.624Z" fill="#FFEED0"/><path d="M57.584 21.642c.338 0 .507-.253.507-.505v-9.779c0-3.961 2.114-7.586 5.581-9.609l.423-.253a3.076 3.076 0 0 1 2.96 0c.93.506 1.522 1.517 1.522 2.529v10.368c0 .337.253.506.507.506.338 0 .507-.253.507-.506V4.11A4.135 4.135 0 0 0 67.562.57a3.904 3.904 0 0 0-4.059 0l-.423.253c-3.72 2.191-6.088 6.153-6.088 10.537v9.778c.085.252.338.505.592.505Z" fill="#BD4E5A"/><path d="m80.163 6.638 8.71 2.445-12.6 7.249 1.1-13.824 2.79 4.13Z" fill="#D46C67"/><path d="m77.373 2.508-1.1 13.824-17.334 9.947-3.467-5.395-7.949-1.18 29.85-17.196Z" fill="#BD4E5A"/><path d="M88.871 9.083 92 57.805 62.066 75l-3.129-48.72L88.871 9.083Z" fill="#F68D6C"/><path d="m47.522 19.703 7.948 1.18 3.467 5.395 3.129 48.721L44.645 64.8l2.876-45.097Z" fill="#D46C67"/><path d="M68.576 28.638c.339 0 .508-.253.508-.505v-9.778c0-3.962 2.114-7.587 5.58-9.61l.423-.253a3.076 3.076 0 0 1 2.96 0c.93.506 1.522 1.518 1.522 2.53v10.536c0 .337.254.506.507.506.338 0 .508-.253.508-.506V11.105a4.135 4.135 0 0 0-2.03-3.54 3.903 3.903 0 0 0-4.059 0l-.422.253c-3.721 2.192-6.089 6.153-6.089 10.537v9.778c0 .253.254.505.592.505Z" fill="#FFCE7B"/></svg>