<svg width="80" height="85" fill="none" xmlns="http://www.w3.org/2000/svg"><path d="M59.016 53.58H22.054c-9.086 0-16.463-7.42-16.463-16.559v-1.874c0-9.138 7.377-16.558 16.463-16.558h37.04c9.085 0 16.462 7.42 16.462 16.558v1.874c-.078 9.138-7.455 16.558-16.54 16.558Z" fill="#F15B28"/><g fill="#FFFEF6"><path d="M76.099 13.668c-.544 1.25-1.708 2.265-2.95 2.812l-1.632-.313-3.65-.78-1.32-.313-.62-.156h5.435c1.398 0 2.873-1.094 3.262-2.421l2.485-8.123c0-.156.077-.235.077-.313v-.234c.078-.469 0-.937-.233-1.25 0 0 0-.078-.078-.078-.31-.39-.776-.625-1.397-.625H5.125L2.95 1.406l-2.02-.39C1.554.311 2.408 0 3.495 0h72.061c1.243 0 2.252.547 2.874 1.484.62.86.776 2.03.465 3.28 0 .078-.077.157-.077.313l-2.174 7.185-.544 1.406Z"/><path d="M2.407 12.184.233 4.921c0-.078-.078-.156-.078-.313-.31-1.171-.155-2.343.466-3.28.078-.156.233-.312.31-.469l1.942.39 2.174.47h-1.63c-.544 0-.932.156-1.243.468l-.155.156s0 .078-.078.078c-.233.313-.31.781-.233 1.25v.234c0 .079.078.235.078.313l2.485 8.123c.388 1.327 1.864 2.42 3.261 2.42h58.239l.622.157 1.32.312 3.65.781 1.63.313c-.543.234-1.087.312-1.63.39H6.988c-1.786-.234-3.495-1.484-4.271-3.124l-.31-1.406Z"/></g><path d="M71.362 16.089c1.708 0 3.572-1.25 4.115-2.89l2.485-7.576c.621-1.874-.466-3.515-2.407-3.515H3.493c-.388 0-.776.079-1.087.235l68.8 13.746h.156ZM2.329 2.343c-1.243.468-1.786 1.796-1.32 3.28l2.484 7.654c.544 1.64 2.33 2.89 4.116 2.89h63.52L2.329 2.343Zm55.833 50.455h-37.04c-9.085 0-16.462-7.42-16.462-16.558v-1.875c0-9.138 7.377-16.557 16.462-16.557h37.04c9.085 0 16.462 7.42 16.462 16.557v1.875c0 9.138-7.377 16.558-16.462 16.558Z" fill="#FFFEF6"/><path d="M63.054 18.745H62.9c-.932 0-1.63-.703-1.63-1.64v-.156c0-.938.698-1.64 1.63-1.64h.155c.932 0 1.63.703 1.63 1.64v.156c-.077.937-.776 1.64-1.63 1.64Zm-46.98 0h-.155c-.854 0-1.63-.703-1.63-1.64v-.156c0-.938.698-1.64 1.63-1.64h.155c.932 0 1.63.703 1.63 1.64v.156c0 .937-.698 1.64-1.63 1.64Z" fill="#213549"/><path d="M67.401 15.308H7.687c-1.398 0-2.951-1.094-3.417-2.343L1.785 5.389c-.233-.703-.155-1.328.156-1.797.31-.468.854-.703 1.553-.703h1.63l-3.882-.78c-.233.156-.389.39-.544.546-.621.86-.776 2.03-.388 3.202l2.485 7.576c.62 1.875 2.718 3.359 4.814 3.359h63.675c.621 0 1.242-.156 1.786-.39l-5.669-1.094Z" fill="#213549"/><path d="M75.555 2.89c.7 0 1.243.234 1.553.703.311.469.389 1.094.156 1.796l-2.485 7.577c-.388 1.25-1.941 2.343-3.417 2.343h-3.96l5.746 1.171c1.398-.546 2.563-1.718 3.029-3.046l2.484-7.576c.389-1.171.233-2.343-.388-3.202-.621-.86-1.553-1.328-2.795-1.328H3.494c-.854 0-1.63.234-2.252.703l3.883.781h70.43v.078ZM12.968 28.742h-.699c-.62 0-1.165-.546-1.165-1.171v-.156c0-.625.544-1.172 1.165-1.172h.7c.62 0 1.164.547 1.164 1.172v.156c0 .625-.544 1.171-1.165 1.171Zm3.417 0h-.7c-.62 0-1.164-.546-1.164-1.171v-.156c0-.625.544-1.172 1.165-1.172h.699c.62 0 1.164.547 1.164 1.172v.156c0 .625-.543 1.171-1.164 1.171Zm3.417 0h-.7c-.62 0-1.164-.546-1.164-1.171v-.156c0-.625.544-1.172 1.165-1.172h.699c.62 0 1.164.547 1.164 1.172v.156c0 .625-.543 1.171-1.164 1.171Zm3.494 0h-.7c-.62 0-1.164-.546-1.164-1.171v-.156c0-.625.544-1.172 1.165-1.172h.699c.621 0 1.165.547 1.165 1.172v.156c0 .625-.544 1.171-1.165 1.171Zm3.416 0h-.699c-.62 0-1.164-.546-1.164-1.171v-.156c0-.625.543-1.172 1.164-1.172h.7c.62 0 1.164.547 1.164 1.172v.156c0 .625-.543 1.171-1.165 1.171Zm3.418 0h-.7c-.62 0-1.164-.546-1.164-1.171v-.156c0-.625.543-1.172 1.164-1.172h.7c.62 0 1.164.547 1.164 1.172v.156c0 .625-.544 1.171-1.165 1.171Zm3.416 0h-.7c-.62 0-1.164-.546-1.164-1.171v-.156c0-.625.544-1.172 1.165-1.172h.699c.621 0 1.165.547 1.165 1.172v.156c0 .625-.544 1.171-1.165 1.171Zm3.417 0h-.699c-.62 0-1.164-.546-1.164-1.171v-.156c0-.625.543-1.172 1.164-1.172h.7c.62 0 1.164.547 1.164 1.172v.156c0 .625-.544 1.171-1.165 1.171Zm3.417 0h-.7c-.62 0-1.164-.546-1.164-1.171v-.156c0-.625.543-1.172 1.164-1.172h.7c.62 0 1.164.547 1.164 1.172v.156c0 .625-.543 1.171-1.165 1.171Zm3.416 0h-.7c-.62 0-1.164-.546-1.164-1.171v-.156c0-.625.544-1.172 1.165-1.172h.699c.621 0 1.165.547 1.165 1.172v.156c0 .625-.544 1.171-1.165 1.171Zm3.416 0h-.699c-.62 0-1.164-.546-1.164-1.171v-.156c0-.625.543-1.172 1.164-1.172h.7c.62 0 1.164.547 1.164 1.172v.156c0 .625-.544 1.171-1.165 1.171Zm3.418 0h-.7c-.62 0-1.164-.546-1.164-1.171v-.156c0-.625.543-1.172 1.164-1.172h.7c.62 0 1.164.547 1.164 1.172v.156c0 .625-.466 1.171-1.165 1.171Zm-36.885 3.046h-.7c-.62 0-1.164-.546-1.164-1.171v-.156c0-.625.543-1.172 1.165-1.172h.699c.62 0 1.164.547 1.164 1.172v.156c0 .703-.543 1.171-1.165 1.171Zm3.494 0h-.7c-.62 0-1.164-.546-1.164-1.171v-.156c0-.625.544-1.172 1.165-1.172h.699c.62 0 1.164.547 1.164 1.172v.156c0 .703-.543 1.171-1.164 1.171Zm3.416 0h-.699c-.62 0-1.165-.546-1.165-1.171v-.156c0-.625.544-1.172 1.165-1.172h.7c.62 0 1.164.547 1.164 1.172v.156c0 .703-.544 1.171-1.165 1.171Zm3.417 0h-.699c-.62 0-1.165-.546-1.165-1.171v-.156c0-.625.544-1.172 1.165-1.172h.7c.62 0 1.164.547 1.164 1.172v.156c0 .703-.544 1.171-1.165 1.171Zm3.417 0h-.7c-.62 0-1.164-.546-1.164-1.171v-.156c0-.625.544-1.172 1.165-1.172h.699c.62 0 1.164.547 1.164 1.172v.156c0 .703-.543 1.171-1.164 1.171Zm3.416 0h-.699c-.62 0-1.165-.546-1.165-1.171v-.156c0-.625.544-1.172 1.165-1.172h.7c.62 0 1.164.547 1.164 1.172v.156c0 .703-.544 1.171-1.165 1.171Zm3.417 0h-.699c-.62 0-1.164-.546-1.164-1.171v-.156c0-.625.543-1.172 1.164-1.172h.7c.62 0 1.164.547 1.164 1.172v.156c0 .703-.544 1.171-1.165 1.171Zm3.418 0h-.7c-.62 0-1.164-.546-1.164-1.171v-.156c0-.625.544-1.172 1.165-1.172h.699c.62 0 1.164.547 1.164 1.172v.156c0 .703-.543 1.171-1.164 1.171Zm3.415 0h-.699c-.62 0-1.165-.546-1.165-1.171v-.156c0-.625.544-1.172 1.165-1.172h.7c.62 0 1.164.547 1.164 1.172v.156c0 .703-.544 1.171-1.165 1.171Zm3.417 0h-.699c-.62 0-1.164-.546-1.164-1.171v-.156c0-.625.543-1.172 1.164-1.172h.7c.62 0 1.164.547 1.164 1.172v.156c0 .703-.466 1.171-1.165 1.171Zm3.417 0h-.7c-.62 0-1.164-.546-1.164-1.171v-.156c0-.625.544-1.172 1.165-1.172h.699c.62 0 1.164.547 1.164 1.172v.156c0 .703-.465 1.171-1.164 1.171Zm3.494 0h-.7c-.62 0-1.164-.546-1.164-1.171v-.156c0-.625.544-1.172 1.165-1.172h.699c.621 0 1.165.547 1.165 1.172v.156c0 .703-.466 1.171-1.165 1.171ZM15.53 34.912h-.698c-.621 0-1.165-.546-1.165-1.171v-.156c0-.625.544-1.172 1.165-1.172h.699c.62 0 1.164.547 1.164 1.172v.156c0 .625-.543 1.171-1.164 1.171Zm3.417 0h-.699c-.62 0-1.165-.546-1.165-1.171v-.156c0-.625.544-1.172 1.165-1.172h.7c.62 0 1.164.547 1.164 1.172v.156c0 .625-.544 1.171-1.165 1.171Zm3.417 0h-.699c-.62 0-1.165-.546-1.165-1.171v-.156c0-.625.544-1.172 1.165-1.172h.7c.62 0 1.164.547 1.164 1.172v.156c0 .625-.544 1.171-1.165 1.171Zm3.416 0h-.698c-.621 0-1.165-.546-1.165-1.171v-.156c0-.625.544-1.172 1.165-1.172h.699c.62 0 1.164.547 1.164 1.172v.156c0 .625-.543 1.171-1.164 1.171Zm3.417 0h-.699c-.62 0-1.165-.546-1.165-1.171v-.156c0-.625.544-1.172 1.165-1.172h.7c.62 0 1.164.547 1.164 1.172v.156c0 .625-.544 1.171-1.165 1.171Zm3.417 0h-.699c-.62 0-1.165-.546-1.165-1.171v-.156c0-.625.544-1.172 1.165-1.172h.7c.62 0 1.164.547 1.164 1.172v.156c0 .625-.544 1.171-1.165 1.171Zm3.416 0h-.698c-.621 0-1.165-.546-1.165-1.171v-.156c0-.625.544-1.172 1.165-1.172h.699c.62 0 1.164.547 1.164 1.172v.156c0 .625-.543 1.171-1.164 1.171Zm3.417 0h-.699c-.62 0-1.164-.546-1.164-1.171v-.156c0-.625.543-1.172 1.164-1.172h.7c.62 0 1.164.547 1.164 1.172v.156c0 .625-.544 1.171-1.165 1.171Zm3.417 0h-.699c-.62 0-1.164-.546-1.164-1.171v-.156c0-.625.543-1.172 1.164-1.172h.7c.62 0 1.164.547 1.164 1.172v.156c0 .625-.466 1.171-1.165 1.171Zm3.416 0h-.698c-.621 0-1.165-.546-1.165-1.171v-.156c0-.625.544-1.172 1.165-1.172h.699c.62 0 1.164.547 1.164 1.172v.156c0 .625-.465 1.171-1.164 1.171Zm3.417 0h-.699c-.62 0-1.164-.546-1.164-1.171v-.156c0-.625.543-1.172 1.164-1.172h.7c.62 0 1.164.547 1.164 1.172v.156c0 .625-.466 1.171-1.165 1.171Zm3.495 0h-.7c-.62 0-1.164-.546-1.164-1.171v-.156c0-.625.544-1.172 1.165-1.172h.699c.621 0 1.165.547 1.165 1.172v.156c0 .625-.466 1.171-1.165 1.171Zm-43.019 2.89h-.7c-.62 0-1.164-.547-1.164-1.172v-.156c0-.624.544-1.171 1.165-1.171h.699c.621 0 1.165.547 1.165 1.171v.157c0 .702-.544 1.171-1.165 1.171Zm3.417 0h-.7c-.62 0-1.164-.547-1.164-1.172v-.156c0-.624.543-1.171 1.164-1.171h.7c.62 0 1.164.547 1.164 1.171v.157c0 .702-.543 1.171-1.165 1.171Zm3.416 0h-.7c-.62 0-1.164-.547-1.164-1.172v-.156c0-.624.544-1.171 1.165-1.171h.699c.621 0 1.165.547 1.165 1.171v.157c0 .702-.544 1.171-1.165 1.171Zm3.417 0h-.7c-.62 0-1.164-.547-1.164-1.172v-.156c0-.624.544-1.171 1.165-1.171h.699c.621 0 1.165.547 1.165 1.171v.157c0 .702-.544 1.171-1.165 1.171Zm3.417 0h-.7c-.62 0-1.164-.547-1.164-1.172v-.156c0-.624.543-1.171 1.164-1.171h.7c.62 0 1.164.547 1.164 1.171v.157c0 .702-.466 1.171-1.165 1.171Zm3.416 0h-.7c-.62 0-1.164-.547-1.164-1.172v-.156c0-.624.544-1.171 1.165-1.171h.699c.621 0 1.165.547 1.165 1.171v.157c0 .702-.466 1.171-1.165 1.171Zm3.418 0h-.7c-.62 0-1.164-.547-1.164-1.172v-.156c0-.624.544-1.171 1.165-1.171h.699c.62 0 1.165.547 1.165 1.171v.157c0 .702-.466 1.171-1.165 1.171Zm3.416 0h-.7c-.62 0-1.164-.547-1.164-1.172v-.156c0-.624.543-1.171 1.164-1.171h.7c.62 0 1.164.547 1.164 1.171v.157c0 .702-.466 1.171-1.165 1.171Zm3.493 0h-.698c-.622 0-1.165-.547-1.165-1.172v-.156c0-.624.543-1.171 1.165-1.171h.698c.622 0 1.165.547 1.165 1.171v.157c0 .702-.466 1.171-1.165 1.171Zm3.417 0h-.698c-.621 0-1.165-.547-1.165-1.172v-.156c0-.624.544-1.171 1.165-1.171h.699c.621 0 1.165.547 1.165 1.171v.157c0 .702-.466 1.171-1.165 1.171Zm3.417 0h-.699c-.621 0-1.165-.547-1.165-1.172v-.156c0-.624.544-1.171 1.165-1.171h.699c.621 0 1.165.547 1.165 1.171v.157c0 .702-.466 1.171-1.165 1.171Zm3.416 0h-.698c-.622 0-1.165-.547-1.165-1.172v-.156c0-.624.543-1.171 1.165-1.171h.698c.622 0 1.165.547 1.165 1.171v.157c.078.702-.466 1.171-1.165 1.171Zm-30.827 3.202h-.7c-.62 0-1.164-.546-1.164-1.171v-.157c0-.624.544-1.171 1.165-1.171h.699c.621 0 1.165.547 1.165 1.171v.157c0 .625-.544 1.171-1.165 1.171Zm3.417 0h-.7c-.62 0-1.164-.546-1.164-1.171v-.157c0-.624.544-1.171 1.165-1.171h.699c.621 0 1.165.547 1.165 1.171v.157c0 .625-.544 1.171-1.165 1.171Zm17.083 0H23.14c-.62 0-1.164-.546-1.164-1.171v-.157c0-.624.543-1.171 1.164-1.171h14.366c.621 0 1.165.547 1.165 1.171v.157c0 .625-.466 1.171-1.165 1.171Z" fill="#213549"/><path d="M27.256 41.004h-.7c-.62 0-1.164-.546-1.164-1.171v-.157c0-.624.544-1.171 1.165-1.171h.699c.621 0 1.165.547 1.165 1.171v.157c0 .625-.466 1.171-1.165 1.171Zm3.417 0h-.7c-.62 0-1.164-.546-1.164-1.171v-.157c0-.624.544-1.171 1.165-1.171h.699c.621 0 1.165.547 1.165 1.171v.157c0 .625-.466 1.171-1.165 1.171Zm3.417 0h-.7c-.62 0-1.164-.546-1.164-1.171v-.157c0-.624.543-1.171 1.164-1.171h.7c.62 0 1.164.547 1.164 1.171v.157c0 .625-.466 1.171-1.165 1.171Zm3.493 0h-.698c-.622 0-1.165-.546-1.165-1.171v-.157c0-.624.543-1.171 1.165-1.171h.698c.622 0 1.165.547 1.165 1.171v.157c0 .625-.466 1.171-1.165 1.171Zm3.417 0h-.698c-.621 0-1.165-.546-1.165-1.171v-.157c0-.624.544-1.171 1.165-1.171h.699c.621 0 1.165.547 1.165 1.171v.157c0 .625-.466 1.171-1.165 1.171Zm3.417 0h-.699c-.621 0-1.165-.546-1.165-1.171v-.157c0-.624.544-1.171 1.165-1.171h.699c.621 0 1.165.547 1.165 1.171v.157c0 .625-.466 1.171-1.165 1.171Zm3.416 0h-.698c-.622 0-1.165-.546-1.165-1.171v-.157c0-.624.543-1.171 1.165-1.171h.698c.622 0 1.165.547 1.165 1.171v.157c.078.625-.466 1.171-1.165 1.171Zm6.446-.078H53.19a.532.532 0 0 1-.543-.546v-.078c0-.313.233-.547.543-.547h1.088c.31 0 .543.234.543.547v.078a.532.532 0 0 1-.543.546Zm-2.485 0h-1.087a.532.532 0 0 1-.544-.546v-.078c0-.313.233-.547.544-.547h1.087c.31 0 .543.234.543.547v.078a.532.532 0 0 1-.543.546Zm4.891 0h-1.087a.532.532 0 0 1-.543-.546v-.078c0-.313.233-.547.543-.547h1.087c.311 0 .544.234.544.547v.078a.532.532 0 0 1-.544.546Zm-2.406-1.328H53.19a.532.532 0 0 1-.543-.546v-.078c0-.313.233-.547.543-.547h1.088c.31 0 .543.234.543.547v.078a.532.532 0 0 1-.543.546Zm2.407-10.856h-3.339c-.62 0-1.164-.546-1.164-1.171v-.156c0-.625.543-1.172 1.164-1.172h3.34c.62 0 1.164.547 1.164 1.172v.156c0 .625-.466 1.171-1.165 1.171Zm6.6 12.34h-3.261c-.622 0-1.165-.546-1.165-1.171v-.156c0-.625.543-1.172 1.165-1.172h3.261c.621 0 1.165.547 1.165 1.172v.156c.078.625-.466 1.171-1.165 1.171Zm-6.599-3.28h-5.902c-.621 0-1.165-.547-1.165-1.172v-.156c0-.624.544-1.171 1.165-1.171h5.902c.62 0 1.164.547 1.164 1.171v.157c0 .702-.466 1.171-1.164 1.171Zm-.001-6.014h-2.33c-.62 0-1.164-.546-1.164-1.171v-.156c0-.625.544-1.172 1.165-1.172h2.33c.62 0 1.164.547 1.164 1.172v.156c0 .703-.466 1.171-1.165 1.171Z" fill="#213549"/><path d="M56.453 34.912h-.156a1.479 1.479 0 0 1-1.475-1.484V31.71c0-.782.621-1.484 1.475-1.484h.156c.776 0 1.475.624 1.475 1.484v1.718c-.078.78-.699 1.484-1.475 1.484Zm3.805-6.17h-.156a1.03 1.03 0 0 1-1.01-1.015v-.39a1.03 1.03 0 0 1 1.01-1.016h.156c.543 0 1.009.469 1.009 1.016v.39a1.03 1.03 0 0 1-1.01 1.015Zm3.262 0h-.156a1.03 1.03 0 0 1-1.01-1.015v-.39a1.03 1.03 0 0 1 1.01-1.016h.155c.544 0 1.01.469 1.01 1.016v.39c.077.547-.388 1.015-1.01 1.015Zm3.26 12.34h-.155a1.03 1.03 0 0 1-1.01-1.015v-.469a1.03 1.03 0 0 1 1.01-1.015h.156c.543 0 1.009.469 1.009 1.015v.39c.078.626-.388 1.094-1.01 1.094Zm0-12.34h-.155a1.03 1.03 0 0 1-1.01-1.015v-.39a1.03 1.03 0 0 1 1.01-1.016h.156c.543 0 1.009.469 1.009 1.016v.39c.078.547-.388 1.015-1.01 1.015Zm3.107 0h-.155a1.03 1.03 0 0 1-1.01-1.015v-.39a1.03 1.03 0 0 1 1.01-1.016h.155c.543 0 1.01.469 1.01 1.016v.39a1.03 1.03 0 0 1-1.01 1.015Zm-9.629 3.046h-.156a1.03 1.03 0 0 1-1.01-1.015v-.39a1.03 1.03 0 0 1 1.01-1.016h.156c.543 0 1.009.469 1.009 1.015v.391a1.03 1.03 0 0 1-1.01 1.015Zm3.262 0h-.156a1.03 1.03 0 0 1-1.01-1.015v-.39a1.03 1.03 0 0 1 1.01-1.016h.155c.544 0 1.01.469 1.01 1.015v.391c.077.547-.388 1.015-1.01 1.015Zm3.26 0h-.155a1.03 1.03 0 0 1-1.01-1.015v-.39a1.03 1.03 0 0 1 1.01-1.016h.156c.543 0 1.009.469 1.009 1.015v.391c.078.547-.388 1.015-1.01 1.015Zm-6.522 3.124h-.156a1.03 1.03 0 0 1-1.01-1.015v-.39a1.03 1.03 0 0 1 1.01-1.016h.156c.543 0 1.009.469 1.009 1.016v.39a1.03 1.03 0 0 1-1.01 1.015Zm3.262 0h-.156a1.03 1.03 0 0 1-1.01-1.015v-.39a1.03 1.03 0 0 1 1.01-1.016h.155c.544 0 1.01.469 1.01 1.016v.39c.077.547-.388 1.015-1.01 1.015Zm3.26 0h-.155a1.03 1.03 0 0 1-1.01-1.015v-.39a1.03 1.03 0 0 1 1.01-1.016h.156c.543 0 1.009.469 1.009 1.016v.39c.078.547-.388 1.015-1.01 1.015Zm-6.522 2.89h-.156a1.03 1.03 0 0 1-1.01-1.015v-.39a1.03 1.03 0 0 1 1.01-1.016h.156a1.03 1.03 0 0 1 1.009 1.015v.39a1.03 1.03 0 0 1-1.01 1.016Zm3.262 0h-.156c-.544 0-1.01-.469-1.01-1.015v-.39a1.03 1.03 0 0 1 1.01-1.016h.155c.544 0 1.01.468 1.01 1.015v.39c.077.547-.388 1.016-1.01 1.016Zm3.26 0h-.155c-.543 0-1.01-.469-1.01-1.015v-.39a1.03 1.03 0 0 1 1.01-1.016h.156a1.03 1.03 0 0 1 1.009 1.015v.39c.078.547-.388 1.016-1.01 1.016Zm3.107-2.889h-.155a1.03 1.03 0 0 1-1.01-1.016v-3.514a1.03 1.03 0 0 1 1.01-1.016h.155c.543 0 1.01.469 1.01 1.015v3.515a1.03 1.03 0 0 1-1.01 1.016Zm0 6.013h-.155a1.03 1.03 0 0 1-1.01-1.015v-3.515a1.03 1.03 0 0 1 1.01-1.015h.155c.543 0 1.01.468 1.01 1.015v3.515a1.03 1.03 0 0 1-1.01 1.015ZM18.87 25.462h-.932a.698.698 0 0 1-.699-.703v-.079c0-.39.31-.703.7-.703h.931c.388 0 .699.313.699.703v.079c.078.39-.31.703-.699.703Zm2.794 0h-.931a.698.698 0 0 1-.7-.703v-.079c0-.39.311-.703.7-.703h.931c.389 0 .7.313.7.703v.079c0 .39-.311.703-.7.703Zm2.796 0h-.931a.698.698 0 0 1-.7-.703v-.079c0-.39.311-.703.7-.703h.931c.389 0 .7.313.7.703v.079c0 .39-.311.703-.7.703Zm2.719 0h-.932a.698.698 0 0 1-.699-.703v-.079c0-.39.311-.703.7-.703h.931c.388 0 .699.313.699.703v.079c0 .39-.31.703-.699.703Zm2.795 0h-.932a.698.698 0 0 1-.7-.703v-.079c0-.39.311-.703.7-.703h.931c.389 0 .7.313.7.703v.079c0 .39-.311.703-.7.703Zm2.718 0h-.932a.698.698 0 0 1-.699-.703v-.079c0-.39.31-.703.699-.703h.932c.388 0 .699.313.699.703v.079c.077.39-.233.703-.7.703Zm2.718 0h-.932a.698.698 0 0 1-.7-.703v-.079c0-.39.311-.703.7-.703h.931c.389 0 .7.313.7.703v.079c0 .39-.311.703-.7.703Zm2.795 0h-.932a.698.698 0 0 1-.699-.703v-.079c0-.39.31-.703.7-.703h.93c.39 0 .7.313.7.703v.079c0 .39-.31.703-.7.703Zm2.795 0h-.931a.698.698 0 0 1-.699-.703v-.079c0-.39.31-.703.699-.703h.932c.388 0 .699.313.699.703v.079c0 .39-.31.703-.7.703Zm2.796 0h-.932a.698.698 0 0 1-.698-.703v-.079c0-.39.31-.703.698-.703h.932c.389 0 .7.313.7.703v.079a.7.7 0 0 1-.7.703Zm2.718 0h-.932a.698.698 0 0 1-.7-.703v-.079c0-.39.311-.703.7-.703h.931c.389 0 .7.313.7.703v.079c0 .39-.311.703-.7.703Zm2.717 0H48.3a.698.698 0 0 1-.7-.703v-.079c0-.39.311-.703.7-.703h.931c.389 0 .7.313.7.703v.079c0 .39-.311.703-.7.703Zm2.797 0h-.932a.698.698 0 0 1-.699-.703v-.079c0-.39.31-.703.699-.703h.932c.388 0 .699.313.699.703v.079c0 .39-.311.703-.7.703Zm2.717 0h-.932a.698.698 0 0 1-.699-.703v-.079c0-.39.31-.703.7-.703h.931c.388 0 .699.313.699.703v.079c0 .39-.31.703-.699.703Zm2.407 0h-.621a.698.698 0 0 1-.699-.703v-.079c0-.39.31-.703.699-.703h.621c.388 0 .699.313.699.703v.079c0 .39-.31.703-.699.703Zm3.416 0h-.776a.698.698 0 0 1-.7-.703v-.079c0-.39.311-.703.7-.703h.776c.388 0 .699.313.699.703v.079c0 .39-.31.703-.699.703Zm3.262 0h-.777a.698.698 0 0 1-.698-.703v-.079c0-.39.31-.703.698-.703h.777c.388 0 .699.313.699.703v.079c.077.39-.31.703-.7.703Zm3.339 0h-.777a.698.698 0 0 1-.699-.703v-.079c0-.39.311-.703.7-.703h.776c.388 0 .699.313.699.703v.079c0 .39-.311.703-.7.703Zm3.029 0h-.777a.698.698 0 0 1-.699-.703v-.079c0-.39.31-.703.699-.703h.777c.388 0 .698.313.698.703v.079c0 .39-.31.703-.698.703Z" fill="#213549"/><path d="M43.874 50.22h-9.552c-1.863 0-3.339-1.483-3.339-3.358v-.39c0-1.875 1.476-3.359 3.34-3.359h9.55c1.864 0 3.34 1.484 3.34 3.359v.39c0 1.875-1.476 3.359-3.34 3.359Z" fill="#B4B4B5"/><path d="M64.063 21.557c0 .625-.466 1.093-1.087 1.093a1.065 1.065 0 0 1-1.087-1.093c0-.625.466-1.093 1.087-1.093.621-.079 1.087.468 1.087 1.093ZM38.361 2.11c0 .312-.155.546-.388.546s-.389-.234-.389-.547c0-.312.156-.546.389-.546s.388.234.388.546Z" fill="#213549"/><path d="M38.05 2.108c0 .078 0 .078-.078.078s-.078-.078-.078-.078c0-.078 0-.078.078-.078s.078 0 .078.078Z" fill="#788996"/><path d="M66.16 8.201H9.783L8.464 5h59.093L66.16 8.201Z" fill="#F99F10"/><path d="M63.985 13.511H40.068V9.294l26.247-.078-2.33 4.296Z" fill="#E0E0E0"/><path d="M38.05 11.559h-27.1l-.855-1.874H38.05v1.874Zm-.233 2.734H11.88l-.854-1.797h26.79v1.796Z" fill="#FED054"/><g fill="#F4C496"><path d="m52.726 59.046-7.3-9.841c-.543-.781-1.708-.937-2.485-.313-.776.547-.931 1.719-.31 2.5l5.203 6.95a3.467 3.467 0 0 0 4.892.704Z"/><path d="M53.036 59.906h.7c3.338 0 6.056-2.734 6.056-6.092v-6.405H46.98v6.483c0 3.28 2.718 6.014 6.057 6.014Z"/><path d="M56.842 51.939h2.873V40.067c0-.781-.621-1.328-1.32-1.328h-.156c-.776 0-1.32.625-1.32 1.328v11.872h-.077Zm-3.262-2.265h2.873V37.88c0-.78-.621-1.405-1.398-1.405-.776 0-1.397.624-1.397 1.405v11.794h-.078Zm-6.6 0h2.873V38.505c0-.78-.622-1.405-1.398-1.405-.777 0-1.398.624-1.398 1.405v11.17h-.078Zm3.261 0h2.873V37.099c0-.78-.62-1.406-1.397-1.406s-1.398.625-1.398 1.406v12.575h-.078Z"/></g><path d="M58.627 59.983H46.824v4.296h11.803v-4.296Z" fill="#70DECB"/><path d="M53.036 59.983h-6.212v4.296h6.212v-4.296Z" fill="#64C0B6"/><path d="M56.065 62.17a.698.698 0 1 0 1.398 0 .698.698 0 1 0-1.398 0Z" fill="#EFEFEF"/><path d="M47.955 85h9.474V64.225h-9.474V85Z" fill="#70DECB"/><path d="M47.903 60.026h9.706v-1.171h-9.706v1.171Z" fill="#FFFEF6"/><g fill="#F4C496"><path d="m27.255 50.688 7.3-9.84c.543-.782 1.708-.938 2.484-.313.777.547.932 1.718.31 2.5l-5.202 6.95c-1.087 1.563-3.34 1.875-4.892.703Z"/><path d="M27.021 51.548h-.698c-3.34 0-6.057-2.733-6.057-6.092v-6.482h12.812v6.482c-.077 3.359-2.718 6.092-6.057 6.092Z"/><path d="M23.139 43.503h-2.873V31.631c0-.78.62-1.327 1.32-1.327h.155c.776 0 1.32.625 1.32 1.328v11.871h.078Zm3.261-2.186h-2.873V29.523c0-.781.622-1.406 1.398-1.406.777 0 1.398.625 1.398 1.406v11.794h.078Zm6.601 0h-2.873V30.07c0-.781.621-1.406 1.398-1.406.776 0 1.397.625 1.397 1.406v11.247h.078Zm-3.261-.001h-2.874V28.664c0-.781.621-1.406 1.398-1.406.777 0 1.398.625 1.398 1.406v12.652h.077Z"/></g><path d="M33.157 51.626H21.354v4.296h11.803v-4.296Z" fill="#70DECB"/><path d="M33.157 51.626h-6.212v4.296h6.212v-4.296Z" fill="#64C0B6"/><path d="M23.917 53.734a.698.698 0 1 1-1.398 0 .698.698 0 1 1 1.398 0Z" fill="#EFEFEF"/><path d="M31.993 55.843H22.52v29.132h9.473V55.843Z" fill="#70DECB"/><path d="M32.148 50.376h-9.706v1.172h9.706v-1.172Z" fill="#FFFEF6"/></svg>