<svg width="66" height="75" fill="none" xmlns="http://www.w3.org/2000/svg"><path d="M39.01 32.435a1.927 1.927 0 0 1-1.957 1.958H16.959a1.927 1.927 0 0 1-1.958-1.958V2.043c0-1.107.851-1.958 1.958-1.958h20.008c1.107 0 1.959.851 1.959 1.958v30.392h.085Z" fill="#213549"/><path d="M36.114 0h-5.278v34.393h5.279V0Z" fill="#FED054"/><path d="m40.345 2.65-9.348 47.44 25.644 5.053 9.348-47.44L40.345 2.65Z" fill="#64C0B6"/><path d="M41.854 5.119 33.33 48.383l21.886 4.311L63.74 9.43 41.854 5.119Z" fill="#70DECB"/><path d="m32.453 42.565-1.448 7.577 7.578 1.447c.766-4.171-1.958-8.172-6.13-9.024Zm6.386-32.264 1.447-7.491 7.578 1.447c-.852 4.171-4.853 6.895-9.025 6.044Zm25.711 5.108 1.448-7.577-7.578-1.447c-.766 4.171 1.959 8.172 6.13 9.024Zm-6.384 32.179-1.447 7.577-7.578-1.448c.852-4.171 4.853-6.895 9.025-6.129ZM50.419 19.41c7.066 1.361 12.004 6.81 10.983 12.003-1.022 5.278-7.578 8.342-14.73 6.98-7.066-1.362-12.005-6.81-10.983-12.003 1.022-5.193 7.578-8.343 14.73-6.98Z" fill="#64C0B6"/><path opacity=".96" d="M31.007 50.057 66 7.832l-9.28 47.333-25.713-5.108Z" fill="#EBEADE"/><path d="M34.838 35.584c.426 1.022 0 2.214-.936 2.64l-18.135 8.512c-1.022.511-2.214 0-2.64-.936L.186 18.303c-.426-1.022 0-2.214.936-2.64l18.136-8.512c1.021-.426 2.213 0 2.639.936l12.941 27.497Z" fill="#F26E25"/><path opacity=".96" d="M.185 18.303 13.127 45.8c.426 1.022 1.618 1.447 2.64.936L33.9 38.223c.596-.255.937-.766 1.107-1.362L.867 15.834c-.767.51-1.107 1.617-.682 2.469Z" fill="#EBEADE"/><path d="m18.343 7.584-4.778 2.242L28.18 40.96l4.778-2.243L18.343 7.584Z" fill="#004346"/><path d="M63.193 73.042A1.927 1.927 0 0 1 61.235 75H8.873a1.927 1.927 0 0 1-1.958-1.958V32.18c0-1.107.851-1.958 1.958-1.958h52.362c1.107 0 1.958.851 1.958 1.958v40.862Z" fill="#C13A2B"/><path d="M61.404 73.042A1.927 1.927 0 0 1 59.446 75H7.084a1.927 1.927 0 0 1-1.958-1.958V32.18c0-1.107.851-1.958 1.958-1.958h52.362c1.107 0 1.958.851 1.958 1.958v40.862Z" fill="#F26E25"/><path opacity=".3" d="M6.914 30.137a1.927 1.927 0 0 0-1.958 1.958v40.862c0 1.107.851 1.958 1.958 1.958h26.48V30.137H6.913Z" fill="#541218"/><path d="M65.151 57.208c0 1.107-.766 1.958-1.703 1.958h-18.56c-.937 0-1.703-.851-1.703-1.958v-9.28c0-1.106.766-1.957 1.702-1.957h18.561c.937 0 1.703.851 1.703 1.958v9.279Z" fill="#DA6426"/><path d="M54.252 52.44a3.634 3.634 0 0 1-3.66 3.662 3.634 3.634 0 0 1-3.662-3.661 3.634 3.634 0 0 1 3.661-3.66 3.634 3.634 0 0 1 3.661 3.66Z" fill="#FED054"/><mask id="a" style="mask-type:luminance" maskUnits="userSpaceOnUse" x="46" y="48" width="9" height="9"><path d="M54.252 52.44a3.634 3.634 0 0 1-3.66 3.662 3.634 3.634 0 0 1-3.662-3.661 3.634 3.634 0 0 1 3.661-3.66 3.634 3.634 0 0 1 3.661 3.66Z" fill="#fff"/></mask><g fill="#F99F10" mask="url(#a)"><path d="m53.08 46.652-8.85 8.849 1.987 1.986 8.85-8.848-1.987-1.987Zm2.447 2.465-8.85 8.849.662.662 8.85-8.849-.662-.662Z"/></g></svg>