<svg width="78" height="75" fill="none" xmlns="http://www.w3.org/2000/svg"><path d="M38.73 9.017H10.757v19.057h27.971V9.017Z" fill="#70DECB"/><path d="M32.888 9.017 21.925 28.074h3.279L36.27 9.017h-3.382Zm-10.04 0L11.885 28.074h3.279L26.127 9.017h-3.28Zm-2.357 19.057L31.557 9.017h-1.025L19.467 28.074h1.024Z" fill="#B4B4B5"/><path d="M67.828 1.64h-30.02v26.434h30.02V1.64Z" fill="#64C0B6"/><path d="M61.579 1.64 49.693 28.074h3.586L65.062 1.64H61.58Zm-10.862 0L38.935 28.074h3.586L54.303 1.64h-3.586Zm-2.459 26.434L60.041 1.64h-1.024L47.13 28.074h1.127Z" fill="#B4B4B5"/><path d="M56.454 17.828h-2.561c0-8.402-6.865-15.267-15.267-15.267-8.401 0-15.266 6.865-15.266 15.267h-2.562C20.798 7.992 28.79 0 38.626 0c9.836 0 17.828 7.992 17.828 17.828Z" fill="#C13A2B"/><path d="m3.073 20.8 4.304 47.643h31.762V17.418L3.073 20.799Z" fill="#F99F10"/><path d="m75.205 20.8-4.303 47.643H39.138V17.418l36.066 3.381Z" fill="#FDBC14"/><path d="M74.693 24.078H2.663C1.23 24.078 0 22.848 0 21.414v-1.332c0-1.434 1.23-2.664 2.664-2.664h72.029c1.434 0 2.664 1.23 2.664 2.664v1.23c0 1.536-1.127 2.766-2.664 2.766ZM71.106 75H7.48c-1.434 0-2.664-1.23-2.664-2.664v-1.23c0-1.434 1.23-2.664 2.664-2.664h63.73c1.434 0 2.664 1.23 2.664 2.664v1.23C73.77 73.873 72.643 75 71.106 75Z" fill="#DA6426"/><path d="M13.115 44.774h-.512a1.027 1.027 0 0 1-1.025-1.024V28.279c0-.615.512-1.025 1.025-1.025h.512c.615 0 1.025.512 1.025 1.024v15.37c0 .614-.41 1.126-1.025 1.126Zm0 20.594h-.512a1.027 1.027 0 0 1-1.025-1.024v-15.37c0-.614.512-1.024 1.025-1.024h.512c.615 0 1.025.512 1.025 1.025v15.369c0 .614-.41 1.024-1.025 1.024Zm5.328-20.594h-.512a1.027 1.027 0 0 1-1.025-1.024V28.279c0-.615.513-1.025 1.025-1.025h.512c.615 0 1.025.512 1.025 1.024v15.37c0 .614-.513 1.126-1.025 1.126Zm0 20.594h-.512a1.027 1.027 0 0 1-1.025-1.024v-15.37c0-.614.513-1.024 1.025-1.024h.512c.615 0 1.025.512 1.025 1.025v15.369c0 .614-.513 1.024-1.025 1.024Zm5.43-20.594h-.512a1.027 1.027 0 0 1-1.025-1.024V28.279c0-.615.513-1.025 1.025-1.025h.512c.615 0 1.025.512 1.025 1.024v15.37c0 .614-.41 1.126-1.025 1.126Zm0 20.594h-.512a1.027 1.027 0 0 1-1.025-1.024v-15.37c0-.614.513-1.024 1.025-1.024h.512c.615 0 1.025.512 1.025 1.025v15.369c0 .614-.41 1.024-1.025 1.024ZM29.2 44.774h-.511a1.027 1.027 0 0 1-1.025-1.024V28.279c0-.615.512-1.025 1.025-1.025h.512c.615 0 1.024.512 1.024 1.024v15.37c0 .614-.41 1.126-1.024 1.126Zm0 20.594h-.511a1.027 1.027 0 0 1-1.025-1.024v-15.37c0-.614.512-1.024 1.025-1.024h.512c.615 0 1.024.512 1.024 1.025v15.369c0 .614-.41 1.024-1.024 1.024Zm5.637-20.594h-.513A1.027 1.027 0 0 1 33.3 43.75V28.279c0-.615.512-1.025 1.024-1.025h.513c.614 0 1.024.512 1.024 1.024v15.37c.103.614-.41 1.126-1.024 1.126Zm0 20.594h-.513a1.027 1.027 0 0 1-1.024-1.024v-15.37c0-.614.512-1.024 1.024-1.024h.513c.614 0 1.024.512 1.024 1.025v15.369c.103.614-.41 1.024-1.024 1.024Z" fill="#D4D3CA"/><path d="M42.828 44.774h-.512a1.027 1.027 0 0 1-1.025-1.024V28.279c0-.615.512-1.025 1.025-1.025h.512c.615 0 1.024.512 1.024 1.024v15.37c0 .614-.41 1.126-1.024 1.126Zm0 20.594h-.512a1.027 1.027 0 0 1-1.025-1.024v-15.37c0-.614.512-1.024 1.025-1.024h.512c.615 0 1.024.512 1.024 1.025v15.369c0 .614-.41 1.024-1.024 1.024Zm5.328-20.594h-.512a1.027 1.027 0 0 1-1.025-1.024V28.279c0-.615.512-1.025 1.025-1.025h.512c.615 0 1.025.512 1.025 1.024v15.37c0 .614-.513 1.126-1.025 1.126Zm0 20.594h-.512a1.027 1.027 0 0 1-1.025-1.024v-15.37c0-.614.512-1.024 1.025-1.024h.512c.615 0 1.025.512 1.025 1.025v15.369c0 .614-.513 1.024-1.025 1.024Zm5.43-20.594h-.512a1.027 1.027 0 0 1-1.025-1.024V28.279c0-.615.513-1.025 1.025-1.025h.512c.615 0 1.025.512 1.025 1.024v15.37c0 .614-.41 1.126-1.025 1.126Zm0 20.594h-.512a1.027 1.027 0 0 1-1.025-1.024v-15.37c0-.614.513-1.024 1.025-1.024h.512c.615 0 1.025.512 1.025 1.025v15.369c0 .614-.41 1.024-1.025 1.024Zm5.328-20.594H58.4a1.027 1.027 0 0 1-1.024-1.024V28.279c0-.615.512-1.025 1.024-1.025h.513c.615 0 1.024.512 1.024 1.024v15.37c0 .614-.512 1.126-1.024 1.126Zm0 20.594H58.4a1.027 1.027 0 0 1-1.024-1.024v-15.37c0-.614.512-1.024 1.024-1.024h.513c.615 0 1.024.512 1.024 1.025v15.369c0 .614-.512 1.024-1.024 1.024Zm5.636-20.594h-.513a1.027 1.027 0 0 1-1.025-1.024V28.279c0-.615.513-1.025 1.025-1.025h.512c.615 0 1.025.512 1.025 1.024v15.37c.102.614-.41 1.126-1.025 1.126Zm0 20.594h-.513a1.027 1.027 0 0 1-1.025-1.024v-15.37c0-.614.513-1.024 1.025-1.024h.512c.615 0 1.025.512 1.025 1.025v15.369c.102.614-.41 1.024-1.025 1.024Z" fill="#E6E9E1"/></svg>