<svg width="96" height="80" fill="none" xmlns="http://www.w3.org/2000/svg"><g clip-path="url(#a)"><path d="M76.7 18.3c1.6-5.6 4.1-11.9 8.9-15.7 1-.8 2.3-1.7 3.1-2.5-2.2.1-4.8.3-7.1.4-5.4.3-27.9 1.7-33.8 2.1l-11.4.6c-4.4.3-8 5.2-10 8.7-2.2 4-3.5 8.5-4.3 12.9-1.2 6.1-2.5 35.5-2.8 38.2-.5 4.8-2.4 12.5-8.6 12.6 2.5 0 48.7.3 52.3.3 4.2 0 6.7-3.3 8.1-6.9 1.7-4.4 2.2-23.4 2.4-28.3.2-4.8 2.5-19.9 3.2-22.4Z" fill="url(#b)"/><path d="M76.7 18.3c1.6-5.6 4.1-11.9 8.9-15.7 1-.8 2.3-1.7 3.1-2.5-2.2.1-4.8.3-7.1.4-5.4.3-27.9 1.7-33.8 2.1l-11.4.6c-4.4.3-8 5.2-10 8.7-2.2 4-3.5 8.5-4.3 12.9-1.2 6.1-2.5 35.5-2.8 38.2-.5 4.8-2.4 12.5-8.6 12.6 2.5 0 48.7.3 52.3.3 4.2 0 6.7-3.3 8.1-6.9 1.7-4.4 2.2-23.4 2.4-28.3.2-4.8 2.5-19.9 3.2-22.4Z" fill="url(#c)"/><path d="M61.8 79.4c-2.4-.5-4-2-5.3-4-1-1.5-1.8-3.1-2.1-4.9-.3-1.8.1-3.1 1.8-4.1-1.7 0-51.6.4-52.3.4-1.5 0-2.3 1.6-2.4 2.9 0 1.4.4 2.7.9 3.9.7 1.8 1.9 3.4 3.4 4.6 1.4 1 3.1 1.6 4.9 1.6l52.7.1c-.7-.1-1.1-.4-1.6-.5Z" fill="url(#d)"/><path d="M90.8 1.4c-.4-1-1.6-1.7-2.7-1.3-1.9.9-3.7 2.3-5.2 4.1-3.4 4.2-5.5 9.6-6.9 14.8-1.2 4.6-1.9 9.4-2.4 14.1-.3 3.4-.5 6.9-.6 10.4-.2 4.9-.3 9.7-.5 14.6-.2 3.7-.5 7.8-2 11.3-1.7 4.1-8.1 9.8-11.4 3.6-.8-1.6-.8-3.4-1.4-5.1-.2-.5-.5-1.1-1-1.3-1.4-.6-2.7 1-2.9 2.2-.4 2.8 1.2 6.3 3 8.4 1.2 1.4 3 2.5 4.9 2.8 1.6.3 3.4.1 4.9-.5 3.5-1.4 6-4.5 7.5-7.9 1.2-2.7 1.8-5.7 2.1-8.7.8-6.4.8-12.9 1-19.2.1-3.4.3-6.8.6-10.1.4-4.4 1-8.8 2-13 1-4.4 2.6-9.2 5.5-12.7 1.3-1.6 2.8-2.8 4.6-3.6 1.1-.6 1.3-1.9.9-2.9Z" fill="url(#e)"/><path d="M47.3 16.8c-1.4 0-2.5-1.1-2.6-2.5 0-1.4 1.1-2.6 2.5-2.6l16.3-.3c1.4 0 2.6 1.1 2.6 2.5s-1.1 2.6-2.5 2.6l-16.3.3Z" fill="url(#f)"/><path d="M38.1 17.6a3.5 3.5 0 1 0 0-7 3.5 3.5 0 0 0 0 7Z" fill="url(#g)"/><path d="M34.3 29.6a3.5 3.5 0 1 0 0-7 3.5 3.5 0 0 0 0 7Z" fill="url(#h)"/><path d="M32.9 41.6a3.5 3.5 0 1 0 0-7 3.5 3.5 0 0 0 0 7Z" fill="url(#i)"/><path d="M32.5 53.5a3.5 3.5 0 1 0 0-7 3.5 3.5 0 0 0 0 7Z" fill="url(#j)"/><path d="M43.5 28.8c-1.4 0-2.5-1.1-2.6-2.5 0-1.4 1.1-2.6 2.5-2.6l16.3-.3c1.4 0 2.6 1.1 2.6 2.5s-1.1 2.6-2.5 2.6l-16.3.3c.1 0 .1 0 0 0Z" fill="url(#k)"/><path d="M42.1 40.8c-1.4 0-2.5-1.1-2.6-2.5 0-1.4 1.1-2.6 2.5-2.6l16.3-.3c1.4 0 2.6 1.1 2.6 2.5s-1.1 2.6-2.5 2.6l-16.3.3Z" fill="url(#l)"/><path d="M41.8 52.7c-1.4 0-2.5-1.1-2.6-2.5 0-1.4 1.1-2.6 2.5-2.6l12.7-.3c1.4 0 2.6 1.1 2.6 2.5s-1.1 2.6-2.5 2.6l-12.7.3Z" fill="url(#m)"/><path d="M88.1 49.9c4.4 11.6-1.2 24.5-12.5 28.7-11.3 4.3-24-1.7-28.4-13.2-4.4-11.6 1.2-24.5 12.5-28.7 11.3-4.2 24 1.6 28.4 13.2Z" fill="url(#n)"/><path d="M73.4 68.6c11.267 0 20.4-9.134 20.4-20.4 0-11.267-9.133-20.4-20.4-20.4S53 36.933 53 48.2c0 11.266 9.133 20.4 20.4 20.4Z" fill="url(#o)"/><path d="M73.4 68.6c11.267 0 20.4-9.134 20.4-20.4 0-11.267-9.133-20.4-20.4-20.4S53 36.933 53 48.2c0 11.266 9.133 20.4 20.4 20.4Z" fill="url(#p)"/><path opacity=".18" d="M58.6 43.6c-.3.7-.7 1.3-1.4 1.2-.5-.1-.8-.6-.9-1-.3-1.2.1-2.4.7-3.4 1.1-2.2 2.8-4.3 4.9-5.7.3-.2.7-.4 1.1-.5.4 0 .8.1 1 .5.5 1-1.7 2.9-2.3 3.6-1 1.1-1.8 2.3-2.4 3.7-.3.3-.4 1-.7 1.6Z" fill="#fff"/><path d="M71.3 56.6c-.7 0-1.3-.3-1.8-.8l-6.7-6.9c-1-1-1-2.7.1-3.7 1-1 2.7-1 3.7.1l4.9 5.1 10-9.6c1-1 2.7-1 3.7.1 1 1 1 2.7-.1 3.7L73.2 55.8c-.5.5-1.2.8-1.9.8Z" fill="url(#q)"/></g><defs><radialGradient id="b" cx="0" cy="0" r="1" gradientUnits="userSpaceOnUse" gradientTransform="translate(-111.476 35.131) scale(210.131)"><stop offset=".626" stop-color="#BED8D9"/><stop offset=".628" stop-color="#C1DADB"/><stop offset=".648" stop-color="#D7E7E9"/><stop offset=".67" stop-color="#E7F1F3"/><stop offset=".696" stop-color="#F0F6F9"/><stop offset=".73" stop-color="#F3F8FB"/><stop offset=".817" stop-color="#F3F8FB"/><stop offset=".825" stop-color="#F3F8FB"/><stop offset=".849" stop-color="#EAF3F5"/><stop offset=".889" stop-color="#D2E4E6"/><stop offset=".915" stop-color="#BED8D9"/><stop offset=".946" stop-color="#B9D2D3"/><stop offset=".988" stop-color="#ABC1C4"/><stop offset="1" stop-color="#A6BBBE"/></radialGradient><radialGradient id="g" cx="0" cy="0" r="1" gradientUnits="userSpaceOnUse" gradientTransform="translate(37.529 13.501) scale(4.3375)"><stop stop-color="#67BF67"/><stop offset="1" stop-color="#48A153"/></radialGradient><radialGradient id="h" cx="0" cy="0" r="1" gradientUnits="userSpaceOnUse" gradientTransform="translate(33.556 25.417) scale(4.6791)"><stop stop-color="#67BF67"/><stop offset="1" stop-color="#48A153"/></radialGradient><radialGradient id="i" cx="0" cy="0" r="1" gradientUnits="userSpaceOnUse" gradientTransform="translate(32.119 37.395) scale(4.6791)"><stop stop-color="#67BF67"/><stop offset="1" stop-color="#48A153"/></radialGradient><radialGradient id="j" cx="0" cy="0" r="1" gradientUnits="userSpaceOnUse" gradientTransform="translate(31.76 49.374) scale(4.6791)"><stop stop-color="#67BF67"/><stop offset="1" stop-color="#48A153"/></radialGradient><radialGradient id="n" cx="0" cy="0" r="1" gradientUnits="userSpaceOnUse" gradientTransform="rotate(-20.721 191.403 -156.08) scale(21.872 22.4391)"><stop offset=".281" stop-color="#729EB1"/><stop offset="1" stop-color="#ABC0C3"/></radialGradient><radialGradient id="o" cx="0" cy="0" r="1" gradientUnits="userSpaceOnUse" gradientTransform="rotate(7.198 -338.752 585.415) scale(26.4238)"><stop offset=".006" stop-color="#75D982"/><stop offset=".13" stop-color="#71D17A"/><stop offset=".466" stop-color="#67BF67"/><stop offset=".736" stop-color="#51AA59"/><stop offset=".838" stop-color="#48A153"/><stop offset=".93" stop-color="#4AA354"/><stop offset=".963" stop-color="#51A959"/><stop offset=".987" stop-color="#5CB560"/><stop offset="1" stop-color="#67BF67"/></radialGradient><radialGradient id="p" cx="0" cy="0" r="1" gradientUnits="userSpaceOnUse" gradientTransform="rotate(7.198 -338.752 585.415) scale(26.4238)"><stop offset=".006" stop-color="#67BF67"/><stop offset="1" stop-color="#67BF67"/></radialGradient><linearGradient id="c" x1="49.688" y1=".015" x2="49.688" y2="75.998" gradientUnits="userSpaceOnUse"><stop stop-color="#BED8D9"/><stop offset=".214" stop-color="#F3F8FB"/><stop offset=".824" stop-color="#BED8D9"/><stop offset=".914" stop-color="#B2CACC"/><stop offset=".988" stop-color="#A6BBBE"/></linearGradient><linearGradient id="d" x1="32.429" y1="63.473" x2="32.429" y2="83.842" gradientUnits="userSpaceOnUse"><stop stop-color="#BED8D9"/><stop offset=".027" stop-color="#C2DBDC"/><stop offset=".174" stop-color="#D6E7E9"/><stop offset=".275" stop-color="#DDEBEE"/><stop offset=".397" stop-color="#D4E6E8"/><stop offset=".584" stop-color="#BED8D9"/><stop offset=".695" stop-color="#AECCD1"/><stop offset=".91" stop-color="#85ACBB"/><stop offset=".998" stop-color="#729EB1"/></linearGradient><linearGradient id="e" x1="103.82" y1="3.423" x2="47.488" y2="80.991" gradientUnits="userSpaceOnUse"><stop stop-color="#E3ECF1"/><stop offset=".036" stop-color="#D5E4E8"/><stop offset=".091" stop-color="#C8DDDF"/><stop offset=".162" stop-color="#C0D9DA"/><stop offset=".301" stop-color="#BED8D9"/><stop offset=".396" stop-color="#ABC9CF"/><stop offset=".586" stop-color="#79A3B5"/><stop offset=".611" stop-color="#729EB1"/><stop offset=".676" stop-color="#93B7C2"/><stop offset=".768" stop-color="#BED8D9"/><stop offset=".87" stop-color="#C0D9DB"/><stop offset=".927" stop-color="#C8DEE0"/><stop offset=".972" stop-color="#D6E5E9"/><stop offset="1" stop-color="#E3ECF1"/></linearGradient><linearGradient id="f" x1="55.491" y1="9.867" x2="55.491" y2="19.642" gradientUnits="userSpaceOnUse"><stop offset=".141" stop-color="#A6BBBE"/><stop offset=".159" stop-color="#A9BEC1"/><stop offset=".275" stop-color="#B8D1D3"/><stop offset=".357" stop-color="#BED8D9"/><stop offset=".473" stop-color="#BAD3D5"/><stop offset=".604" stop-color="#AFC6C8"/><stop offset=".677" stop-color="#A6BBBE"/><stop offset=".737" stop-color="#9CAFB2"/><stop offset=".846" stop-color="#809093"/><stop offset=".898" stop-color="#717F82"/></linearGradient><linearGradient id="k" x1="51.718" y1="20.77" x2="51.718" y2="31.598" gradientUnits="userSpaceOnUse"><stop offset=".141" stop-color="#A6BBBE"/><stop offset=".159" stop-color="#A9BEC1"/><stop offset=".275" stop-color="#B8D1D3"/><stop offset=".357" stop-color="#BED8D9"/><stop offset=".473" stop-color="#BAD3D5"/><stop offset=".604" stop-color="#AFC6C8"/><stop offset=".677" stop-color="#A6BBBE"/><stop offset=".737" stop-color="#9CAFB2"/><stop offset=".846" stop-color="#809093"/><stop offset=".898" stop-color="#717F82"/></linearGradient><linearGradient id="l" x1="50.281" y1="33.477" x2="50.281" y2="42.959" gradientUnits="userSpaceOnUse"><stop offset=".141" stop-color="#A6BBBE"/><stop offset=".159" stop-color="#A9BEC1"/><stop offset=".275" stop-color="#B8D1D3"/><stop offset=".357" stop-color="#BED8D9"/><stop offset=".473" stop-color="#BAD3D5"/><stop offset=".604" stop-color="#AFC6C8"/><stop offset=".677" stop-color="#A6BBBE"/><stop offset=".737" stop-color="#9CAFB2"/><stop offset=".846" stop-color="#809093"/><stop offset=".898" stop-color="#717F82"/></linearGradient><linearGradient id="m" x1="48.126" y1="44.831" x2="48.126" y2="55.698" gradientUnits="userSpaceOnUse"><stop offset=".141" stop-color="#A6BBBE"/><stop offset=".159" stop-color="#A9BEC1"/><stop offset=".275" stop-color="#B8D1D3"/><stop offset=".357" stop-color="#BED8D9"/><stop offset=".473" stop-color="#BAD3D5"/><stop offset=".604" stop-color="#AFC6C8"/><stop offset=".677" stop-color="#A6BBBE"/><stop offset=".737" stop-color="#9CAFB2"/><stop offset=".846" stop-color="#809093"/><stop offset=".898" stop-color="#717F82"/></linearGradient><linearGradient id="q" x1="69.453" y1="39.484" x2="78.806" y2="50.514" gradientUnits="userSpaceOnUse"><stop stop-color="#FFFDA6"/><stop offset=".475" stop-color="#F5E37B"/><stop offset=".666" stop-color="#F5E278"/><stop offset=".786" stop-color="#F5DF70"/><stop offset=".888" stop-color="#F5DA61"/><stop offset=".978" stop-color="#F6D44C"/><stop offset="1" stop-color="#F6D246"/></linearGradient><clipPath id="a"><path fill="#fff" d="M0 0h95.3v80H0z"/></clipPath></defs></svg>