<svg width="207" height="127" fill="none" xmlns="http://www.w3.org/2000/svg"><g clip-path="url(#a)" fill="#fff"><path fill-rule="evenodd" clip-rule="evenodd" d="M113.326 10.93c-1.31 3.223-2.339 7.829-2.292 13.043V46.47l-15.2 9.418V52h-2.2v5.076l-15.1 9.293V62h-2.2v5.77l-19.7 12.22v1.206l23.8-8.53v-.08l12.28-4.386h18.22v11.2c0 5.593.294 10.397.686 14.516l.169 1.767-17.01 11.566 4.255-.879v-.022l12.4-2.519v.008l1.381-.319.726 2.84c.589 2.308 1.195 4.129 1.748 5.536.542-1.405 1.135-3.226 1.742-5.551l.736-2.822 4.724 1.09 9.043 1.837v.022l4.254.879-17.049-11.593.216-1.81c.48-4.035.679-8.804.679-14.446V68.3h18.219l12.281 4.386v.08l23.8 8.53v-1.204l-19.7-12.115V62.2h-2.2v4.369l-15.1-9.293V52.2h-2.2v3.688l-15.2-9.418V24c0-5.23-1.032-9.846-2.342-13.07-.66-1.625-1.345-2.784-1.914-3.477l-.022-.028a.242.242 0 0 0-.016.019c-.569.698-1.255 1.862-1.914 3.485Zm30.928 66.027-7.44-2.657h-1.176l-.021.042a3.851 3.851 0 0 1-.712 1.004 3.21 3.21 0 0 1-2.271.954c-1.684 0-2.635-1.154-3.004-1.84a2.89 2.89 0 0 1-.081-.16h-3.915v5.2c0 4.972-.15 9.403-.526 13.33l16.005 10.884c1.352.91 1.721 2.298 1.721 3.286v3c0 2.504-2.314 4.356-4.693 3.959l-.057-.009-6.625-1.368a3.21 3.21 0 0 1-2.425 1.118c-1.684 0-2.635-1.154-3.004-1.84a3.988 3.988 0 0 1-.206-.449l-1.658-.337a3.21 3.21 0 0 1-2.611 1.122c-.68 2.023-1.362 3.629-2.021 4.88v4.824a6.25 6.25 0 0 1-.742 2.949 4.754 4.754 0 0 1-1.067 1.341c-.483.413-1.299.91-2.391.91-1.062 0-1.871-.479-2.317-.822a4.472 4.472 0 0 1-1.266-1.536c-.315-.629-.717-1.704-.717-2.842v-4.845c-.615-1.191-1.315-2.785-2.022-4.859a3.327 3.327 0 0 1-2.719-1.2l-1.567.318c-.044.111-.093.22-.146.328-.209.416-1.096 1.958-3.046 1.958a3.326 3.326 0 0 1-2.46-1.111l-6.59 1.361-.057.009c-2.17.362-4.693-1.151-4.693-3.959v-3c0-1.497.884-2.527 1.279-2.921l.2-.201 16.275-11.067a158.2 158.2 0 0 1-.554-13.311v-5.2H101a.79.79 0 0 0-.02.042c-.209.416-1.096 1.958-3.046 1.958-.84 0-1.559-.33-2.062-.732a3.358 3.358 0 0 1-.97-1.268h-1.149l-7.45 2.661c-.075.3-.182.597-.323.88-.209.417-1.096 1.959-3.046 1.959a3.323 3.323 0 0 1-2.134-.792l-25.117 9.003c-2.69 1.025-5.05-1.18-5.05-3.511v-4.9c0-1.788.975-3.389 2.337-4.296l.04-.027L70.335 64.43V59.6c0-1.126.532-2 1.066-2.534.533-.533 1.408-1.066 2.534-1.066h7c.803 0 1.478.271 1.993.62l4.707-2.896V49.6c0-1.126.532-2 1.066-2.534.534-.533 1.408-1.066 2.534-1.066h7c.598 0 1.125.15 1.568.371l5.232-3.241V24.014c-.052-5.98 1.119-11.37 2.733-15.343.803-1.977 1.76-3.713 2.82-5.015.53-.65 1.147-1.27 1.857-1.746.699-.47 1.653-.91 2.79-.91 2.153 0 3.748 1.507 4.683 2.647 1.072 1.307 2.031 3.048 2.834 5.024 1.615 3.975 2.783 9.36 2.783 15.329v19.13l5.416 3.355a3.486 3.486 0 0 1 1.384-.285h7c1.125 0 2 .533 2.534 1.066.533.534 1.066 1.408 1.066 2.534v4.124l4.707 2.896a3.53 3.53 0 0 1 1.993-.62h7c1.125 0 2 .533 2.534 1.066.533.534 1.066 1.408 1.066 2.534v4.823l17.318 10.65.046.03c1.361.908 2.336 2.509 2.336 4.297v4.9c0 2.332-2.36 4.536-5.049 3.511l-25.143-9.012a3.19 3.19 0 0 1-2.108.801c-1.684 0-2.635-1.154-3.004-1.84a4.062 4.062 0 0 1-.376-1.003Z"/><path d="M58.96 16.688a15.809 15.809 0 0 1 3.428-5.042 15.95 15.95 0 0 1 5.086-3.4A16.036 16.036 0 0 1 73.7 7a16.01 16.01 0 0 1 11.312 4.647 15.803 15.803 0 0 1 3.428 5.041 15.64 15.64 0 0 1 1.257 6.174c0 2.141-.423 4.218-1.258 6.174a15.81 15.81 0 0 1-3.429 5.043l-.664.658-2.847-2.823 1.326-1.315 1.5 1.486a13.903 13.903 0 0 0 3.463-8.293H85.67v-1.86h2.119a13.87 13.87 0 0 0-3.463-8.292l-1.498 1.484-1.326-1.315 1.497-1.484a14.073 14.073 0 0 0-3.803-2.366 14.045 14.045 0 0 0-4.56-1.069v2.1H72.76v-2.1a14.135 14.135 0 0 0-8.362 3.434l1.497 1.485-1.327 1.315-1.497-1.484a13.922 13.922 0 0 0-2.385 3.77 13.732 13.732 0 0 0-1.078 4.521h2.118v1.86h-2.118a13.821 13.821 0 0 0 1.078 4.521 13.906 13.906 0 0 0 2.385 3.773l1.499-1.486 1.326 1.315-2.847 2.823-.664-.658a15.818 15.818 0 0 1-3.428-5.043 15.642 15.642 0 0 1-1.259-6.174 15.731 15.731 0 0 1 1.262-6.174Z"/><path d="M71.962 22.862c0-.77.507-1.42 1.209-1.642l.41-7.596c.007-.154.235-.154.243 0l.41 7.596c.7.222 1.208.874 1.208 1.642 0 .612-.32 1.148-.803 1.455l.157 2.92a.488.488 0 0 1-.49.513H73.1a.488.488 0 0 1-.49-.513l.156-2.92a1.718 1.718 0 0 1-.805-1.455Zm-2.977 10.317h9.431V37h-9.431v-3.82Z"/></g><defs><clipPath id="a"><path fill="#fff" d="M0 0h206.7v127H0z"/></clipPath></defs></svg>