<svg width="207" height="127" fill="none" xmlns="http://www.w3.org/2000/svg"><path fill-rule="evenodd" clip-rule="evenodd" d="M101.392 10.43c-1.31 3.223-2.338 7.829-2.292 13.043V45.97l-15.2 9.418V51.5h-2.2v5.076L66.6 65.87V61.5h-2.2v5.77L44.7 79.49v1.206l23.8-8.53v-.08L80.78 67.7H99v11.2c0 5.593.294 10.397.687 14.516l.168 1.767-17.01 11.566 4.255-.879v-.022l12.4-2.519v.008l1.382-.319.725 2.84c.589 2.308 1.196 4.129 1.748 5.536.543-1.405 1.136-3.226 1.742-5.551l.736-2.822 4.725 1.09 9.042 1.837v.022l4.255.879-17.049-11.593.215-1.81c.481-4.035.679-8.804.679-14.446V67.8h18.22l12.28 4.386v.08l23.8 8.53v-1.204l-19.7-12.115V61.7h-2.2v4.369L125 56.776V51.7h-2.2v3.688l-15.2-9.418V23.5c0-5.23-1.032-9.846-2.342-13.07-.66-1.625-1.344-2.784-1.913-3.477l-.023-.028-.016.019c-.568.698-1.254 1.862-1.914 3.485Zm30.928 66.027-7.439-2.657h-1.177l-.021.042c-.12.24-.341.633-.711 1.004a3.213 3.213 0 0 1-2.272.954c-1.683 0-2.634-1.154-3.004-1.84a5.574 5.574 0 0 1-.081-.16H113.7V79c0 4.972-.15 9.403-.526 13.33l16.006 10.884c1.351.91 1.72 2.298 1.72 3.286v3c0 2.504-2.314 4.356-4.693 3.959l-.057-.009-6.624-1.368c-.049.055-.1.11-.155.164a3.21 3.21 0 0 1-2.271.954c-1.683 0-2.634-1.154-3.004-1.84a3.988 3.988 0 0 1-.206-.449l-1.658-.337a3.213 3.213 0 0 1-2.61 1.122c-.681 2.023-1.362 3.629-2.022 4.88v4.824c0 1.05-.275 2.094-.741 2.949a4.759 4.759 0 0 1-1.068 1.341c-.482.413-1.299.91-2.391.91-1.062 0-1.87-.479-2.316-.822a4.465 4.465 0 0 1-1.267-1.536c-.315-.629-.717-1.704-.717-2.842v-4.845c-.615-1.191-1.314-2.785-2.021-4.859a3.326 3.326 0 0 1-2.719-1.2l-1.568.318c-.044.111-.092.22-.146.328-.208.416-1.096 1.958-3.046 1.958a3.326 3.326 0 0 1-2.46-1.111l-6.59 1.361-.057.009c-2.169.362-4.693-1.151-4.693-3.959v-3c0-1.497.884-2.527 1.279-2.921l.2-.201 16.276-11.067A157.933 157.933 0 0 1 93 78.9v-5.2h-3.933a8.02 8.02 0 0 1-.021.042C88.838 74.158 87.95 75.7 86 75.7c-.84 0-1.558-.33-2.061-.732a3.358 3.358 0 0 1-.971-1.268H81.82l-7.451 2.661c-.074.3-.181.597-.323.88-.208.417-1.096 1.959-3.046 1.959a3.323 3.323 0 0 1-2.133-.792l-25.118 9.003c-2.69 1.025-5.049-1.18-5.049-3.511V79c0-1.788.975-3.389 2.336-4.296l.041-.027L58.4 63.93V59.1c0-1.126.533-2 1.066-2.534C60 56.033 60.874 55.5 62 55.5h7c.803 0 1.478.271 1.993.62l4.707-2.896V49.1c0-1.126.533-2 1.066-2.534.534-.533 1.408-1.066 2.534-1.066h7c.598 0 1.125.15 1.568.371L93.1 42.63V23.514c-.051-5.98 1.12-11.37 2.733-15.343.803-1.977 1.76-3.713 2.82-5.015.53-.65 1.147-1.27 1.857-1.746.699-.47 1.654-.91 2.79-.91 2.154 0 3.748 1.507 4.684 2.647 1.071 1.307 2.03 3.048 2.833 5.024 1.615 3.975 2.783 9.36 2.783 15.329v19.13l5.417 3.355a3.477 3.477 0 0 1 1.383-.285h7c1.126 0 2 .533 2.534 1.066.534.534 1.066 1.408 1.066 2.534v4.124l4.707 2.896a3.533 3.533 0 0 1 1.993-.62h7c1.126 0 2 .533 2.534 1.066.534.534 1.066 1.408 1.066 2.534v4.823l17.319 10.65.045.03c1.362.908 2.336 2.509 2.336 4.297V84c0 2.332-2.359 4.536-5.049 3.511l-25.143-9.012a3.188 3.188 0 0 1-2.108.801c-1.683 0-2.634-1.154-3.004-1.84a4.062 4.062 0 0 1-.376-1.003Z" fill="#fff"/></svg>