<svg width="260" height="55" fill="none" xmlns="http://www.w3.org/2000/svg"><path d="M61.666 54.648c0-.253.023-.505.023-.78V11.572c.44-.115 8.968-.16 9.985-.069.115 1.033-.023 2.111.092 3.259.14-.16.208-.276.3-.367.37-.505.694-1.033 1.11-1.492.948-1.102 2.173-1.744 3.606-1.997 1.364-.252 2.727-.275 4.068 0 2.08.436 3.467 1.676 4.345 3.557.624 1.355.878 2.777.994 4.246.023.253.023.505.023.78 0 6.426.023 12.875 0 19.3 0 2.02-.324 4.017-1.132 5.899-.463 1.078-1.11 2.065-2.011 2.846-1.34 1.17-2.959 1.606-4.715 1.514-2.774-.16-4.924-1.377-6.264-3.855a8.144 8.144 0 0 0-.3-.528c-.024.206-.07.321-.07.413v9.088c0 .16.023.298.046.459-3.374.023-6.749.023-10.1.023Zm14.538-24.786v-9.087c0-.299-.023-.597-.07-.872-.184-.85-.716-1.377-1.548-1.538-.809-.184-1.525.069-2.01.757-.232.322-.37.689-.51 1.056-.323.918-.346 1.882-.346 2.846 0 5.14.023 10.28.023 15.422 0 .642.139 1.262.393 1.858.393.85 1.063 1.263 2.011 1.286 1.086.023 1.872-.643 1.988-1.699.046-.367.07-.757.07-1.124v-8.905Z" fill="#E31F25"/><path d="M260 40.81c-.069.206-.139.412-.185.619-.763 3.19-2.75 5.324-5.755 6.587-1.225.527-2.496.78-3.814.918-2.011.206-4.021.183-6.009-.184-2.15-.39-4.045-1.285-5.663-2.754-1.271-1.17-2.057-2.616-2.496-4.269a12.73 12.73 0 0 1-.439-3.373V21.37c0-1.675.3-3.281.994-4.82 1.109-2.455 3.074-4.015 5.57-4.956 1.364-.528 2.773-.735 4.206-.804 1.757-.114 3.491-.068 5.224.276 2.473.505 4.669 1.537 6.31 3.511a8.51 8.51 0 0 1 1.941 4.384c0 .045.07.114.093.16V31.4c-.069 0-.139-.023-.208-.023h-13.614c-.138 0-.277.023-.439.023 0 .184-.023.367-.023.528v7.849c0 .23.023.436.023.665.092.872.67 1.538 1.549 1.699.346.068.716.091 1.086.045.971-.091 1.664-.826 1.757-1.813.023-.298.046-.573.046-.872V35.21c0-.207.023-.39.046-.62h5.154c1.549 0 3.074 0 4.623-.023.023 2.111.023 4.177.023 6.242Zm-9.869-16.272c.023-.183.046-.321.046-.459v-3.97c0-.252-.023-.505-.046-.78-.139-1.056-.879-1.721-1.965-1.767h-.624c-.832.069-1.41.482-1.664 1.262a3.521 3.521 0 0 0-.162 1.101c-.023 1.354 0 2.708 0 4.063 0 .16.023.32.023.504 1.456.046 2.889.046 4.392.046ZM201.339.648c0 2.226 0 4.43.023 6.655 0 .07-.023.138-.046.207H191.4c0-2.318-.023-4.59-.023-6.862h9.962Z" fill="#E37523"/><path d="M.092 32.731c.208-.023.416-.069.625-.069h9.106c.208 0 .416.023.67.046.024.184.024.345.024.528 0 .941-.024 1.905 0 2.846.023.688.092 1.377.184 2.042.047.345.185.666.3.987.394.964 1.133 1.492 2.15 1.675a5.121 5.121 0 0 0 2.358-.137c1.248-.367 2.15-1.584 2.242-2.938.115-1.721-.44-3.213-1.502-4.544-.786-.964-1.688-1.767-2.682-2.524-2.01-1.515-4.067-2.984-6.078-4.498-1.295-.964-2.566-1.951-3.63-3.167-1.455-1.699-2.495-3.58-2.888-5.784C.74 15.932.693 14.67.74 13.384c.069-1.49.277-2.937.716-4.36C2.45 5.834 4.646 3.77 7.72 2.6c1.733-.666 3.56-.987 5.431-1.056 2.011-.069 4.022-.023 5.987.413 1.987.436 3.836 1.193 5.316 2.64 1.571 1.514 2.542 3.35 2.935 5.461.185 1.033.277 2.089.324 3.121.046 1.194.023 2.41 0 3.603 0 .138-.023.276-.047.436h-9.938c0-.206-.023-.39-.023-.573-.023-1.125-.023-2.272-.093-3.397a5.897 5.897 0 0 0-.37-1.652c-.416-1.148-1.27-1.79-2.496-1.86-.555-.022-1.11 0-1.64.116-1.85.39-2.497 2.134-2.381 3.51.046.575.23 1.08.577 1.516.578.711 1.156 1.445 1.826 2.02 1.664 1.445 3.375 2.799 5.062 4.199 2.311 1.882 4.507 3.878 6.633 5.944 1.249 1.216 2.289 2.57 2.89 4.222.393 1.033.554 2.135.647 3.236.162 1.928.07 3.856-.509 5.715-1.017 3.373-3.19 5.783-6.356 7.298-2.01.963-4.16 1.377-6.379 1.491-2.542.115-5.062-.046-7.466-.964-3.836-1.468-6.194-4.2-7.118-8.17-.232-1.01-.3-2.042-.44-3.052-.161-1.193-.046-2.387-.092-3.58.07-.138.092-.298.092-.505Z" fill="#E31F25"/><path d="M139.187 2.323c.139-.023.255-.023.37-.023 4.253 0 8.529-.023 12.782.023 2.473.023 4.946.184 7.373.803 1.803.46 3.421 1.286 4.692 2.708 1.086 1.217 1.71 2.663 2.08 4.223.37 1.469.509 2.984.578 4.498a28.042 28.042 0 0 1-.462 6.816c-.463 2.341-1.433 4.407-3.236 6.036-1.502 1.354-3.259 2.18-5.293 2.433-.948.114-1.895.183-2.843.183-1.549.023-3.074 0-4.623 0h-.762c-.023.344-.047.597-.047.872v17.373h-10.585c-.093-.321-.139-45.509-.024-45.945Zm10.679 19.484c.162.023.3.07.416.07.994-.024 1.988.022 2.958-.07 1.087-.114 1.965-.665 2.45-1.675.162-.344.301-.689.393-1.056.324-1.216.347-2.478.278-3.74a11.544 11.544 0 0 0-.37-2.341c-.463-1.653-1.572-2.456-3.282-2.479-.832-.023-1.664 0-2.497 0-.115 0-.231.023-.346.046-.093.459-.116 10.649 0 11.245Z" fill="#E37523"/><path d="M57.182 48.314h-9.569c-.023-.184-.07-.39-.07-.574v-3.35c-.022-.022-.045-.022-.092-.045-.092.114-.162.23-.254.344-.532.711-1.04 1.469-1.618 2.134-.994 1.148-2.265 1.836-3.767 2.088-1.364.23-2.728.276-4.068-.091-2.473-.666-3.976-2.318-4.67-4.75a10.473 10.473 0 0 1-.369-2.8V11.502h9.962c.023.207.07.39.07.574v22.146c0 1.17 0 2.34.022 3.511 0 .46.116.872.324 1.285.6 1.217 1.803 1.331 2.727.987.231-.092.44-.275.624-.459.555-.596.74-1.354.786-2.134.023-.298.023-.574.023-.872V11.572c.416-.115 8.876-.16 9.893-.069l.046.046c0 .023.023.023.023.046 0 12.025.023 24.05.023 36.076-.046.184-.046.367-.046.643Zm57.945-16.937H100.75c-.023.184-.046.322-.046.46v8.146c0 .299.046.62.139.918.231.689.693 1.17 1.433 1.262.393.046.809.07 1.179.023 1.017-.137 1.664-.895 1.687-1.904.023-1.676.023-3.328.046-5.003 0-.207.023-.414.023-.62h9.893c.023.092.069.16.069.252-.023 1.63.069 3.282-.069 4.889-.208 2.616-1.202 4.91-3.306 6.61a11.133 11.133 0 0 1-5.038 2.317c-2.681.505-5.386.505-8.044-.069-2.195-.482-4.114-1.515-5.64-3.19-1.224-1.354-1.895-2.983-2.172-4.773a14.52 14.52 0 0 1-.185-2.25c-.023-5.806-.023-11.635 0-17.441.023-1.997.486-3.878 1.595-5.577 1.248-1.95 3.097-3.144 5.27-3.901 1.34-.482 2.75-.666 4.183-.711 1.664-.07 3.329-.023 4.97.298 2.126.413 4.021 1.285 5.593 2.777 1.41 1.33 2.196 2.983 2.612 4.842.185.872.277 1.767.277 2.662 0 2.341.023 4.682.023 7.023 0 .872-.023 1.744-.023 2.639-.046.046-.069.16-.092.321Zm-10.008-6.839c.023-.114.046-.183.046-.252 0-1.63 0-3.259-.046-4.888-.023-.941-.763-1.676-1.711-1.79a3.945 3.945 0 0 0-1.04 0c-.855.114-1.479.734-1.618 1.583-.046.23-.046.436-.046.666v4.268c0 .138.023.253.046.413h4.369Z" fill="#E31F25"/><path d="M221.17 32.662h9.939c.023.138.046.253.046.367 0 2.02.046 4.04-.023 6.036-.07 1.86-.463 3.65-1.48 5.256-1.271 2.02-3.143 3.259-5.362 4.016-1.502.528-3.074.665-4.646.734-1.918.069-3.836-.046-5.709-.62-1.617-.481-3.074-1.262-4.299-2.41-1.594-1.49-2.473-3.373-2.773-5.53a18.218 18.218 0 0 1-.185-2.524 2017.32 2017.32 0 0 1 0-16.685c0-1.354.231-2.662.67-3.947.902-2.593 2.704-4.36 5.178-5.485 1.317-.596 2.681-.895 4.114-1.033 1.594-.16 3.189-.16 4.761 0 1.78.184 3.467.62 5.039 1.492 2.403 1.354 3.906 3.35 4.461 6.036.208.987.323 1.997.323 3.03v3.097c0 .184-.023.367-.023.551-.393.115-9.037.16-9.962.046 0-.16-.023-.344-.023-.528v-4.177c0-.39-.023-.78-.092-1.17-.139-.94-.856-1.583-1.803-1.63a3.26 3.26 0 0 0-.67 0c-1.041.047-1.826.78-1.896 1.837-.023.482-.046.963-.046 1.445v18.337c0 .436.023.85.069 1.285.093.895.694 1.584 1.595 1.721.393.07.832.046 1.225 0 .832-.137 1.433-.757 1.526-1.606.046-.436.092-.85.092-1.285v-5.99c-.046-.207-.046-.413-.046-.666Z" fill="#E37523"/><path d="M129.295 17.86c.069-.138.139-.298.208-.436.347-.78.647-1.584 1.017-2.364.624-1.354 1.456-2.57 2.727-3.442.948-.62 1.965-.872 3.074-.85.116.414.139 11.452 0 11.98-.785 0-1.594-.023-2.403 0a10.41 10.41 0 0 0-1.48.184c-.947.206-1.641.757-2.08 1.63-.416.848-.647 1.743-.647 2.684v20.999c-.185.023-.324.069-.485.069h-9.107c-.115 0-.231-.023-.393-.046V11.572c.347-.115 8.275-.184 9.407-.046.046.505.023 1.033.023 1.56v4.728c.047.023.093.046.139.046Z" fill="#E31F25"/><path d="M171.292 11.503h9.407c.046.711.023 1.423.023 2.111v4.2c.023 0 .069.023.092.023.07-.16.162-.321.231-.482.463-1.01.856-2.065 1.364-3.052.624-1.194 1.456-2.203 2.658-2.892a5.074 5.074 0 0 1 2.774-.665c.138.505.161 11.451 0 11.98-.786 0-1.595-.024-2.404 0a7.889 7.889 0 0 0-1.479.183c-.971.23-1.664.78-2.104 1.698a5.929 5.929 0 0 0-.601 2.593v20.93c-.069.07-.092.092-.115.092-.023 0-.023.023-.046.023-.093.023-.162.046-.255.046h-9.314c-.046 0-.093 0-.162-.023-.023 0-.069-.046-.116-.069.047-12.163.047-24.395.047-36.696Zm20.154.023h9.87V48.29h-9.87c-.115-.436-.115-36.283 0-36.765Z" fill="#E37523"/></svg>