<svg width="96" height="80" fill="none" xmlns="http://www.w3.org/2000/svg"><g clip-path="url(#a)"><mask id="b" style="mask-type:luminance" maskUnits="userSpaceOnUse" x="7" y="-1" width="81" height="74"><path d="M74.8 21.1c1.9-5.3 4.1-11.6 8.9-14.9.5-.3 1.6-.9 2.8-1.4 1.2-.4 1.6-1.3 1.1-2.6-.3-.8-1.2-1.3-1.9-1.3-7.5-.6-13.9 3.8-16.5 3.8-2.5 0-1.5-4.1-4.4-4.2-2.8 0-8.1 3.8-10.6 3.7-2.5-.1-2.3-4.1-5.3-4C46 .2 41.1 4 39 4c-2.2 0-1.6-4-3.7-4-4.3-.1-8.1 4.3-10.2 7.6-2.4 3.7-4 7.8-5.2 12-1.6 5.7-5.1 33.8-5.6 36.4-.6 3.3-3.3 7.3-6.1 10-1 .9-.4 2.6.9 2.7 1.7.1 10.5-3.2 12.8-3 2.2.2 1.2 4.1 3.7 4.3 2 .2 9-3.4 11.1-3.2 2.2.2 1.7 4.2 3.9 4.4 3.6.3 9.4-3.3 12.7-3 3.8.3.1 4 5.6 4.5 3.2.3 6.3-3.1 7.9-6.5 2-4.1 3.7-20.7 4.3-26.6.7-4.6 2.8-16.1 3.7-18.5Z" fill="#fff"/></mask><g mask="url(#b)"><path d="M75.7 19.6c1.9-5.3 3.5-9.9 8.3-13.2.5-.4 1.8-1.1 3.2-1.7 1-.5 1.3-1.9.7-2.9-.5-.7-1.6-1.1-2.1-1.2-2.1-.1-4.7.1-6.9.1C73.7.7 52 .3 46.4.2 42.7.1 39 .1 35.4 0c-4.3-.1-8.1 4.3-10.2 7.6-2.4 3.7-4 7.8-5.2 12-1.6 5.7-5.1 33.8-5.6 36.4-.6 3.3-3.3 7.3-6.1 10-1 .9-.4 2.6.9 2.7 12.1 1 47 3.8 49.9 4 4 .3 6-2 7.6-5.3 3-6 4.8-21.2 5.1-27.7.3-4.8 3-17.7 3.9-20.1Z" fill="url(#c)"/></g><mask id="d" style="mask-type:luminance" maskUnits="userSpaceOnUse" x="7" y="-1" width="81" height="74"><path d="M74.8 21.1c1.9-5.3 4.1-11.6 8.9-14.9.5-.3 1.6-.9 2.8-1.4 1.2-.4 1.6-1.3 1.1-2.6-.3-.8-1.2-1.3-1.9-1.3-7.5-.6-13.9 3.8-16.5 3.8-2.5 0-1.5-4.1-4.4-4.2-2.8 0-8.1 3.8-10.6 3.7-2.5-.1-2.3-4.1-5.3-4C46 .2 41.1 4 39 4c-2.2 0-1.6-4-3.7-4-4.3-.1-8.1 4.3-10.2 7.6-2.4 3.7-4 7.8-5.2 12-1.6 5.7-5.1 33.8-5.6 36.4-.6 3.3-3.3 7.3-6.1 10-1 .9-.4 2.6.9 2.7 1.7.1 10.5-3.2 12.8-3 2.2.2 1.2 4.1 3.7 4.3 2 .2 9-3.4 11.1-3.2 2.2.2 1.7 4.2 3.9 4.4 3.6.3 9.4-3.3 12.7-3 3.8.3.1 4 5.6 4.5 3.2.3 6.3-3.1 7.9-6.5 2-4.1 3.7-20.7 4.3-26.6.7-4.6 2.8-16.1 3.7-18.5Z" fill="#fff"/></mask><g mask="url(#d)"><path d="M73.4 16.6c1.9-5.3 4.3-10.3 9.1-13.5 1-.7 2.7-1.5 3.6-2.2-3.7-1.4-50.4-2-52.5-2-4.3-.1-6.1 2.6-8.3 5.9-2.4 3.7-4 7.8-5.2 12-1.6 5.7-5.1 33.8-5.6 36.4-.6 3.3-3.3 7.3-6.1 10-1 .9-.4 2.6.9 2.7 1.7.1 10.5-3.2 12.8-3 2.2.2 1.2 4.1 3.7 4.3 2 .2 9-3.4 11.1-3.2 2.2.2 1.7 4.2 3.9 4.4 3.6.3 9.4-3.3 12.7-3 3.8.3 2.6 5.1 5.6 4.2 2.1-.6 3.7-1.3 5.4-4.7 2-4.1 3.5-24.1 4.1-28.8.7-4.7 3.9-17.1 4.8-19.5Z" fill="url(#e)"/></g><mask id="f" style="mask-type:luminance" maskUnits="userSpaceOnUse" x="7" y="-1" width="81" height="74"><path d="M74.8 21.1c1.9-5.3 4.1-11.6 8.9-14.9.5-.3 1.6-.9 2.8-1.4 1.2-.4 1.6-1.3 1.1-2.6-.3-.8-1.2-1.3-1.9-1.3-7.5-.6-13.9 3.8-16.5 3.8-2.5 0-1.5-4.1-4.4-4.2-2.8 0-8.1 3.8-10.6 3.7-2.5-.1-2.3-4.1-5.3-4C46 .2 41.1 4 39 4c-2.2 0-1.6-4-3.7-4-4.3-.1-8.1 4.3-10.2 7.6-2.4 3.7-4 7.8-5.2 12-1.6 5.7-5.1 33.8-5.6 36.4-.6 3.3-3.3 7.3-6.1 10-1 .9-.4 2.6.9 2.7 1.7.1 10.5-3.2 12.8-3 2.2.2 1.2 4.1 3.7 4.3 2 .2 9-3.4 11.1-3.2 2.2.2 1.7 4.2 3.9 4.4 3.6.3 9.4-3.3 12.7-3 3.8.3.1 4 5.6 4.5 3.2.3 6.3-3.1 7.9-6.5 2-4.1 3.7-20.7 4.3-26.6.7-4.6 2.8-16.1 3.7-18.5Z" fill="#fff"/></mask><g mask="url(#f)"><path opacity=".3" d="M42.1 36.5c-9.2.6-20.1.7-29-.3-3.3-.4-5-2.7-4.7-6 .7-5 2.4-11.5 4.5-16.5 1.4-3.2 3.9-5.5 7.5-5.5 9.7-.2 19.9-.5 28.9-.8 3.5-.1 6.3 3.5 5.9 6.8-.7 5.3-2.4 11.3-4.7 16.6-1.5 3.3-4.8 5.4-8.4 5.7Z" fill="#729EB1"/></g><mask id="g" style="mask-type:luminance" maskUnits="userSpaceOnUse" x="7" y="-1" width="81" height="74"><path d="M74.8 21.1c1.9-5.3 4.1-11.6 8.9-14.9.5-.3 1.6-.9 2.8-1.4 1.2-.4 1.6-1.3 1.1-2.6-.3-.8-1.2-1.3-1.9-1.3-7.5-.6-13.9 3.8-16.5 3.8-2.5 0-1.5-4.1-4.4-4.2-2.8 0-8.1 3.8-10.6 3.7-2.5-.1-2.3-4.1-5.3-4C46 .2 41.1 4 39 4c-2.2 0-1.6-4-3.7-4-4.3-.1-8.1 4.3-10.2 7.6-2.4 3.7-4 7.8-5.2 12-1.6 5.7-5.1 33.8-5.6 36.4-.6 3.3-3.3 7.3-6.1 10-1 .9-.4 2.6.9 2.7 1.7.1 10.5-3.2 12.8-3 2.2.2 1.2 4.1 3.7 4.3 2 .2 9-3.4 11.1-3.2 2.2.2 1.7 4.2 3.9 4.4 3.6.3 9.4-3.3 12.7-3 3.8.3.1 4 5.6 4.5 3.2.3 6.3-3.1 7.9-6.5 2-4.1 3.7-20.7 4.3-26.6.7-4.6 2.8-16.1 3.7-18.5Z" fill="#fff"/></mask><g mask="url(#g)"><path d="M87.7 2.2c-.3-1-1.4-1.8-2.5-1.4-1.9.7-3.7 1.9-5.3 3.5-3.6 3.7-6 8.7-7.7 13.6-1.5 4.3-2.6 8.8-3.3 13.3-.6 3.3-1 6.6-1.4 9.9-.5 4.7-1 9.3-1.6 14-.4 3-.9 6-2 8.9-.5 1.4-1.2 3.1-2.2 4.1-1 1-2.6 1.3-3.2 2.2-.4.8-.2 2 1 2.2 2.6.4 5-1.6 6.4-3.6 1.4-2.1 2.2-4.6 2.8-7 .1-.6.3-1.3.4-1.9 1.2-6 1.6-12.2 2.3-18.3.4-3.2.8-6.5 1.3-9.7.7-4.2 1.6-8.3 2.9-12.3 1.3-4.1 3.2-8.6 6.3-11.7 1.4-1.4 2.9-2.4 4.6-3.1 1.3-.4 1.6-1.7 1.2-2.7Z" fill="url(#h)"/></g><path d="M28.8 49.1c.3.3.4.7.6 1.1l.9 1.8.7 1.3 2.9 5.8c.6 1.1.1 2-1 2.5-1.3.6-2.7 1.1-4.1 1.6-2.3.9-3.9 1.8-6.3 2.3-.4.1-2.5.1-2.1-.8.4-1.1 1-2.3 1.3-3.4 1.3-4.1 3.1-8.5 4.6-12.5.3-.8 1.6-.3 2.1 0 .2 0 .3.2.4.3Z" fill="#F0592A"/><mask id="i" style="mask-type:luminance" maskUnits="userSpaceOnUse" x="8" y="38" width="25" height="28"><path d="m27.5 48.8 1.5 3 .9 1.7 2.9 5.8c.3.6 0 1.4-.6 1.6l-10.9 4.3c-.6.2-1.2-.3-.9-.9l1.3-3.5h-.1c-2-.5-4-1.5-5.8-2.6-1.4-.8-2.7-1.8-3.8-2.9-1.9-1.8-3.3-4.1-3.6-6.7V47c.1-.9.3-1.8.6-2.6.5-1 1-2.1 1.6-3 .5-.8 1.1-1.8 1.9-2.2.3-.2.5-.3.9-.3.6.1.7.6.5 1.1-.2.5-.2 1.1-.2 1.6.1 1.3.6 2.7 1.2 3.8 0 0 0 .1.1.1 1.3 2.4 3.3 4.3 5.7 5.5 1.3.7 2.7 1.2 4 1.7l.3-.7.5-1.5.6-1.6c.1-.3.4-.5.6-.5.4 0 .7.1.8.4Z" fill="#fff"/></mask><g mask="url(#i)"><path d="m27.5 48.8 1.5 3 .9 1.7 2.9 5.8c.3.6 0 1.4-.6 1.6l-10.9 4.3c-.6.2-1.2-.3-.9-.9l1.3-3.5h-.1c-2-.5-4-1.5-5.8-2.6-1.4-.8-2.7-1.8-3.8-2.9-1.9-1.8-3.3-4.1-3.6-6.7V47c.1-.9.3-1.8.6-2.6.5-1 1-2.1 1.6-3 .5-.8 1.1-1.8 1.9-2.2.3-.2.5-.3.9-.3.6.1.7.6.5 1.1-.2.5-.2 1.1-.2 1.6.1 1.3.6 2.7 1.2 3.8 0 0 0 .1.1.1 1.3 2.4 3.3 4.3 5.7 5.5 1.3.7 2.7 1.2 4 1.7l.3-.7.5-1.5.6-1.6c.1-.3.4-.5.6-.5.4 0 .7.1.8.4Z" fill="url(#j)"/></g><mask id="k" style="mask-type:luminance" maskUnits="userSpaceOnUse" x="8" y="38" width="25" height="28"><path d="m27.5 48.8 1.5 3 .9 1.7 2.9 5.8c.3.6 0 1.4-.6 1.6l-10.9 4.3c-.6.2-1.2-.3-.9-.9l1.3-3.5h-.1c-2-.5-4-1.5-5.8-2.6-1.4-.8-2.7-1.8-3.8-2.9-1.9-1.8-3.3-4.1-3.6-6.7V47c.1-.9.3-1.8.6-2.6.5-1 1-2.1 1.6-3 .5-.8 1.1-1.8 1.9-2.2.3-.2.5-.3.9-.3.6.1.7.6.5 1.1-.2.5-.2 1.1-.2 1.6.1 1.3.6 2.7 1.2 3.8 0 0 0 .1.1.1 1.3 2.4 3.3 4.3 5.7 5.5 1.3.7 2.7 1.2 4 1.7l.3-.7.5-1.5.6-1.6c.1-.3.4-.5.6-.5.4 0 .7.1.8.4Z" fill="#fff"/></mask><g mask="url(#k)"><path d="m27.5 48.8 1.5 3 .9 1.7 2.9 5.8c.3.6 0 1.4-.6 1.6l-10.9 4.3c-.6.2-1.2-.3-.9-.9.8-2.1 1.8-4.2 2.6-6.3 1.2-3 2.1-6.2 3.2-9.2.1-.3.4-.5.6-.5.3.1.6.2.7.5Z" fill="url(#l)"/></g><mask id="m" style="mask-type:luminance" maskUnits="userSpaceOnUse" x="8" y="38" width="25" height="28"><path d="m27.5 48.8 1.5 3 .9 1.7 2.9 5.8c.3.6 0 1.4-.6 1.6l-10.9 4.3c-.6.2-1.2-.3-.9-.9l1.3-3.5h-.1c-2-.5-4-1.5-5.8-2.6-1.4-.8-2.7-1.8-3.8-2.9-1.9-1.8-3.3-4.1-3.6-6.7V47c.1-.9.3-1.8.6-2.6.5-1 1-2.1 1.6-3 .5-.8 1.1-1.8 1.9-2.2.3-.2.5-.3.9-.3.6.1.7.6.5 1.1-.2.5-.2 1.1-.2 1.6.1 1.3.6 2.7 1.2 3.8 0 0 0 .1.1.1 1.3 2.4 3.3 4.3 5.7 5.5 1.3.7 2.7 1.2 4 1.7l.3-.7.5-1.5.6-1.6c.1-.3.4-.5.6-.5.4 0 .7.1.8.4Z" fill="#fff"/></mask><g mask="url(#m)"><path d="m27.5 48.8 1.5 3 .9 1.7 2.9 5.8c.3.6 0 1.4-.6 1.6l-10.9 4.3c-.6.2-1.2-.3-.9-.9.8-2.1 1.8-4.2 2.6-6.3 1.2-3 2.1-6.2 3.2-9.2.1-.3.4-.5.6-.5.3.1.6.2.7.5Z" fill="url(#n)"/></g><mask id="o" style="mask-type:luminance" maskUnits="userSpaceOnUse" x="8" y="38" width="25" height="28"><path d="m27.5 48.8 1.5 3 .9 1.7 2.9 5.8c.3.6 0 1.4-.6 1.6l-10.9 4.3c-.6.2-1.2-.3-.9-.9l1.3-3.5h-.1c-2-.5-4-1.5-5.8-2.6-1.4-.8-2.7-1.8-3.8-2.9-1.9-1.8-3.3-4.1-3.6-6.7V47c.1-.9.3-1.8.6-2.6.5-1 1-2.1 1.6-3 .5-.8 1.1-1.8 1.9-2.2.3-.2.5-.3.9-.3.6.1.7.6.5 1.1-.2.5-.2 1.1-.2 1.6.1 1.3.6 2.7 1.2 3.8 0 0 0 .1.1.1 1.3 2.4 3.3 4.3 5.7 5.5 1.3.7 2.7 1.2 4 1.7l.3-.7.5-1.5.6-1.6c.1-.3.4-.5.6-.5.4 0 .7.1.8.4Z" fill="#fff"/></mask><g mask="url(#o)"><path d="M24.2 52.5c.2.2.4.4.6.7.4.8.2 1.8-.3 2.6-.8 1.4-2.2 2.5-3.8 2.9-3.4.9-6.4-1.5-8.7-3.7-1.9-1.8-3.3-4.1-3.6-6.7v-1.6c.1-.9.3-1.8.6-2.6.9-2 1.8-3.6 2.9-4.8 1.1-1.2 2.2-2 3.9-2.8 1.7-.8 2.1-.7 2.1-.7v1.4s-2.3.3-3.6 1.6c-1.2 1.3-.5 4.2.7 6.4 1.3 2.4 3.3 4.3 5.7 5.5 1 .7 2.6 1 3.5 1.8Z" fill="url(#p)"/></g><mask id="q" style="mask-type:luminance" maskUnits="userSpaceOnUse" x="8" y="38" width="25" height="28"><path d="m27.5 48.8 1.5 3 .9 1.7 2.9 5.8c.3.6 0 1.4-.6 1.6l-10.9 4.3c-.6.2-1.2-.3-.9-.9l1.3-3.5h-.1c-2-.5-4-1.5-5.8-2.6-1.4-.8-2.7-1.8-3.8-2.9-1.9-1.8-3.3-4.1-3.6-6.7V47c.1-.9.3-1.8.6-2.6.5-1 1-2.1 1.6-3 .5-.8 1.1-1.8 1.9-2.2.3-.2.5-.3.9-.3.6.1.7.6.5 1.1-.2.5-.2 1.1-.2 1.6.1 1.3.6 2.7 1.2 3.8 0 0 0 .1.1.1 1.3 2.4 3.3 4.3 5.7 5.5 1.3.7 2.7 1.2 4 1.7l.3-.7.5-1.5.6-1.6c.1-.3.4-.5.6-.5.4 0 .7.1.8.4Z" fill="#fff"/></mask><g mask="url(#q)"><path d="M28.8 49.1c-.1-.1-.2-.3-.4-.4-.4-.3-1.3-.6-1.8-.3-.2.1-.4.2-.4.4l-.6 1.6-.6 1.5-.3.7c-.3-.1-.6-.3-1-.4-.9-.5-2-.9-2.8-1.2-.1 0-.2-.1-.2-.1-.3-.2-.6-.3-.9-.5-.4-.3-.8-.5-1.2-.8-.3-.2-.5-.4-.8-.6-1.1-1-2.1-2.2-2.8-3.5-1.2-2.2-1.9-5.1-.7-6.4 1.2-1.3 3.6-1.6 3.6-1.6v-1.4s-.4-.1-2.1.7c-1.7.8-2.8 1.6-3.9 2.8-1.1 1.2-2 2.8-2.9 4.8-.3.9-.5 1.7-.6 2.6-.1.5-.1 1.1 0 1.6.2 2.6 1.7 4.9 3.6 6.7 1.1 1 2.3 2.1 3.7 2.9l.1.1c1.8 1.1 3.8 2.1 5.8 2.6h.1l-1.3 3.5v.5c-.1.8 1.8.8 2.2.7 2.4-.5 4.1-1.4 6.3-2.3 1.4-.5 2.8-1 4.1-1.6 1.1-.5 1.6-1.4 1-2.5l-3-5.9-.6-1.3-.9-1.8c-.3-.4-.4-.8-.7-1.1Z" fill="url(#r)"/></g><path d="M41.2 35.5c-9.2.6-20.1.7-29-.3-3.3-.4-5-2.7-4.7-6 .7-5 2.4-11.5 4.5-16.5 1.4-3.2 3.9-5.5 7.5-5.5 9.7-.2 19.8-.8 28.9-.7 3.5.1 6.3 3.5 5.9 6.8-.7 5.3-2.4 11.3-4.7 16.6-1.5 3.3-4.8 5.4-8.4 5.6Z" fill="url(#s)"/><path d="M41.2 35.5c-9.2.6-20.1.7-29-.3-3.3-.4-5-2.7-4.7-6 .7-5 2.4-11.5 4.5-16.5 1.4-3.2 3.9-5.5 7.5-5.5 9.6-.2 19.8-.4 28.8-.7 3.5-.1 6.3 3.5 5.9 6.8-.7 5.3-2.4 11.3-4.7 16.6-1.4 3.3-4.7 5.4-8.3 5.6Z" fill="url(#t)"/><path opacity=".3" d="M42.7 27.1h-3c-1.3 0-2-1.1-1.7-2.5.3-1.3 1.6-2.4 2.8-2.4h2.7c1.3 0 2 1.1 1.7 2.5-.3 1.3-1.4 2.3-2.5 2.4Zm-8.2-.1h-3c-1.3 0-2-1.1-1.7-2.5.3-1.3 1.6-2.4 2.8-2.4h2.7c1.3 0 2 1.1 1.7 2.5-.3 1.3-1.4 2.3-2.5 2.4Zm-8.3-.1h-3c-1.3 0-2-1.1-1.7-2.5.3-1.3 1.6-2.4 2.8-2.4H27c1.3 0 2 1.1 1.7 2.5-.2 1.3-1.3 2.3-2.5 2.4Zm-8.2-.1h-3c-1.3 0-2-1.1-1.7-2.5.3-1.3 1.6-2.4 2.8-2.4h2.7c1.3 0 2 1.1 1.7 2.5-.2 1.3-1.3 2.3-2.5 2.4Z" fill="#432594"/><path opacity=".3" d="m22.3 27.8-5.7-.1h-1.9c-.9 0-1.7.7-2 1.7-.2.9.3 1.7 1.2 1.7 0 0 7.7.1 7.8.1.8-.1 1.5-.8 1.7-1.6.2-1-.3-1.8-1.1-1.8Zm8.9 0h-4.8c-.9 0-1.7.7-2 1.7-.2.9.3 1.7 1.2 1.7h5c.8-.1 1.5-.8 1.7-1.6.3-1-.2-1.8-1.1-1.8Z" fill="#402A69"/><path d="M42.6 26.5h-3c-1.3 0-2-1.1-1.7-2.5.3-1.3 1.6-2.4 2.8-2.4h2.7c1.3 0 2 1.1 1.7 2.5-.3 1.2-1.4 2.2-2.5 2.4Zm-8.2-.1h-3c-1.3 0-2-1.1-1.7-2.5.3-1.3 1.6-2.4 2.8-2.4h2.7c1.3 0 2 1.1 1.7 2.5-.3 1.2-1.4 2.2-2.5 2.4Zm-8.2-.1h-3c-1.3 0-2-1.1-1.7-2.5.3-1.3 1.6-2.4 2.8-2.4H27c1.3 0 2 1.1 1.7 2.5-.3 1.2-1.4 2.3-2.5 2.4Zm-8.2-.1h-3c-1.3 0-2-1.1-1.7-2.5.3-1.3 1.6-2.4 2.8-2.4h2.7c1.3 0 2 1.1 1.7 2.5-.3 1.2-1.4 2.3-2.5 2.4Z" fill="url(#u)"/><path opacity=".3" d="M19.7 18.7H17c-.8 0-1.3-.8-1-1.5l1-2.9c.3-.8 1-1.3 1.8-1.3h2.9c.8 0 1.3.7 1.1 1.5l-.8 2.7c-.4.9-1.3 1.6-2.3 1.5Zm24.5 0-2.7-.1c-.8 0-1.3-.8-1-1.5l1-2.9c.3-.8 1-1.3 1.8-1.3h2.9c.8 0 1.3.7 1.1 1.5l-.8 2.7c-.4 1-1.3 1.7-2.3 1.6Z" fill="#402A69"/><path d="m19.4 18.2-2.7-.1c-.8 0-1.3-.8-1-1.5l1-2.9c.3-.8 1-1.3 1.8-1.3h2.9c.8 0 1.3.7 1.1 1.5l-.8 2.7c-.3 1-1.3 1.7-2.3 1.6Z" fill="url(#v)"/><path d="M19.7 17.5h-.2l-2.7-.1c-.2 0-.3-.1-.3-.2s-.1-.2 0-.3l1-2.9c.1-.4.5-.7.9-.8h3c.2 0 .3.1.3.2s.1.2.1.3l-.8 2.7c-.2.6-.7 1-1.3 1.1Z" fill="url(#w)"/><path d="M65.01 54.155c2.341-7.659-1.455-15.608-8.48-17.756-7.024-2.147-14.617 2.32-16.958 9.978-2.342 7.658 1.454 15.607 8.479 17.755 7.024 2.148 14.617-2.32 16.958-9.977Z" fill="#75A0B3"/><path d="M53.9 45c0-.3.1-.6 0-.9l-.9-.6s-.4 1.1-.5 1c-.3-.3-.7-.6-1-.8l.6-2.1-.9-.6s-.3.4-.6.4c-.2.6-.4 1.3-.6 1.9-3.3-.7-4.4 5.3-4.2 5.5.4.4.7.6 1.2.9.3.2.5.3.8.5.2.2 0 .4-.3 1.5-.1.5-.3.9-.4 1.4-.1.2-.3-.1-.7-.5-.6-.8-.7-1.9-.9-2.8-.1-.1-.8-.6-.8-.6l-.7.6c-.2 1.4-1.4 3.9-1.4 3.9l.8.6c.3 0 .5.1.8.1h.1c.2-.3.4-.6.7-.9l.4.4c.3.2.7.6 1.1.8.2.2-1.4 1.6-1.4 1.6l.8.6c.7.1 1.1.2 1.3.2.5.1.2-.8.8-2 1.9.1 4.1-.9 4.7-2.8.4-1.2 0-2.7-1.1-3.5-.6-.5-.5-.3-1.5-.9 0 0-.1-.1 0-.1.2-.8.5-1.5.7-2.3.1-.2.9 1 .9 1.2.1.3-.6.7-.6.7l.8.6c.3 0 .7-.1 1-.1.2 0 .5 0 .5-.1.4-.8.5-1.8.5-2.8Zm-4.4 0c-.2.7-.5 1.5-.7 2.3-1.4-.7-1.1-2.5.7-2.3Zm.7 7.8c-.4.5-1 .6-1.6.6 0-.2.1-.4.1-.6.2-.7.4-1.3.6-2 .1 0 .6.4.3.2.7.5 1 1.1.6 1.8Z" fill="url(#x)"/><path d="M52 51.9c-.6 1.8-2.5 2.8-4.3 2.8h-.5c-.1 0-.1.1-.1.2-.8 2.2.1 2-2.1 1.6.8-3 1-1.7-.4-3-.2-.2-.3-.4-.5-.5-.1 0-.2.3-.3.4-.1.2-.3.3-.4.5 0 0-.1.1-.1 0-.3 0-.6-.1-.8-.1v-.4c.2-1.4.3-2.8.5-4.2 0 0 0-.1.1-.1.5 0 1-.1 1.5-.1.1 0 .1 0 .1.1.1 1.1.4 2.2 1.1 3 .1.1.4.5.5.3.1-.5.3-.9.4-1.4.5-1.8.8-1.1-.7-2.2-2.8-1.8-1.5-5.5 1.5-6.2.6-.2 1.2-.1 1.8-.1.2-.6.4-1.3.6-1.9.4.1.8.1 1.2.2.2 0 .3 0 .3.1-.2.7-.4 1.3-.6 2v.1c.4.2.6.5.9.7.1.1.3-.3.5-.4.2-.2.4-.1.5 0 .1 0 .4 0 .4.1 0 1.3-.1 2.6-.2 3.9 0 .1-.4.1-.5.1-.3 0-.6.1-.9.1-.1 0-.1 0-.1-.1-.1-.4-.1-.9-.3-1.3-.1-.1-.9-1.3-1-1.1-.2.8-.5 1.5-.7 2.3v.1c.4.3.9.5 1.3.8 1.3.8 1.7 2.3 1.3 3.7Zm-2.6.3c.5-.8 0-1.6-.8-1.9-.2.9-.6 1.7-.7 2.6.5-.1 1.1-.2 1.5-.7ZM48 46.6c.2-.8.5-1.6.7-2.3-1.8-.1-2.3 1.6-.7 2.3Z" fill="url(#y)"/></g><defs><linearGradient id="c" x1="11.199" y1="27.781" x2="85.53" y2="41.953" gradientUnits="userSpaceOnUse"><stop offset=".01" stop-color="#B7DFED"/><stop offset=".038" stop-color="#BCE1ED"/><stop offset=".183" stop-color="#D4E8EE"/><stop offset=".273" stop-color="#DDEBEE"/><stop offset=".513" stop-color="#D3E8EE"/><stop offset=".919" stop-color="#B8DFED"/><stop offset=".939" stop-color="#B7DFED"/></linearGradient><linearGradient id="e" x1="49.858" y1="-2.171" x2="44.202" y2="68.657" gradientUnits="userSpaceOnUse"><stop stop-color="#B7DFED"/><stop offset=".005" stop-color="#BAE0EE"/><stop offset=".052" stop-color="#D9EDF5"/><stop offset=".093" stop-color="#ECF5F9"/><stop offset=".121" stop-color="#F3F8FB"/><stop offset=".274" stop-color="#D6ECF4"/><stop offset=".425" stop-color="#BFE2EF"/><stop offset=".521" stop-color="#B7DFED"/><stop offset=".713" stop-color="#A9D3E1"/><stop offset=".835" stop-color="#9EC9D8"/><stop offset=".88" stop-color="#A2CCDB"/><stop offset=".922" stop-color="#ADD3E4"/><stop offset=".962" stop-color="#C0E0F2"/><stop offset=".987" stop-color="#CFEBFE"/></linearGradient><linearGradient id="h" x1="99.365" y1="5.765" x2="44.206" y2="70.226" gradientUnits="userSpaceOnUse"><stop offset="0" stop-color="#729EB1"/><stop offset=".051" stop-color="#99BED1"/><stop offset=".099" stop-color="#B7D7EA"/><stop offset=".141" stop-color="#C9E6F9"/><stop offset=".171" stop-color="#CFEBFE"/><stop offset=".382" stop-color="#B8D8E9"/><stop offset=".727" stop-color="#8AB3C1"/><stop offset=".765" stop-color="#90B8C6"/><stop offset=".814" stop-color="#9FC4D4"/><stop offset=".868" stop-color="#B9DAEB"/><stop offset=".905" stop-color="#CFEBFE"/></linearGradient><linearGradient id="j" x1="5.802" y1="46.837" x2="31.532" y2="58.463" gradientUnits="userSpaceOnUse"><stop offset=".034" stop-color="#FFC39D"/><stop offset=".677" stop-color="#FB824C"/><stop offset="1" stop-color="#F0592A"/></linearGradient><linearGradient id="l" x1="27.081" y1="63.327" x2="25.721" y2="59.764" gradientUnits="userSpaceOnUse"><stop offset=".036" stop-color="#D35B36"/><stop offset=".279" stop-color="#FB824C"/><stop offset=".443" stop-color="#FD9867"/><stop offset=".663" stop-color="#FEAF85"/><stop offset=".853" stop-color="#FFBE97"/><stop offset=".989" stop-color="#FFC39D"/></linearGradient><linearGradient id="n" x1="30.62" y1="54.032" x2="28.712" y2="54.976" gradientUnits="userSpaceOnUse"><stop stop-color="#D35B36"/><stop offset=".356" stop-color="#FB824C"/><stop offset=".504" stop-color="#FD9867"/><stop offset=".704" stop-color="#FEAF85"/><stop offset=".876" stop-color="#FFBE97"/><stop offset="1" stop-color="#FFC39D"/></linearGradient><linearGradient id="s" x1="31.189" y1="3.503" x2="30.674" y2="38.407" gradientUnits="userSpaceOnUse"><stop offset="0" stop-color="#6945A8"/><stop offset=".013" stop-color="#8256BD"/><stop offset=".03" stop-color="#9E69D5"/><stop offset=".05" stop-color="#B478E8"/><stop offset=".07" stop-color="#C382F5"/><stop offset=".095" stop-color="#CC88FD"/><stop offset=".13" stop-color="#CF8AFF"/><stop offset=".165" stop-color="#C383FC"/><stop offset=".236" stop-color="#B179F6"/><stop offset=".322" stop-color="#A471F3"/><stop offset=".433" stop-color="#9C6DF1"/><stop offset=".667" stop-color="#9A6CF0"/><stop offset=".712" stop-color="#9769EB"/><stop offset=".764" stop-color="#8D62DE"/><stop offset=".818" stop-color="#7E56C7"/><stop offset=".872" stop-color="#6945A9"/><stop offset=".957" stop-color="#4F3480"/><stop offset="1" stop-color="#402A69"/></linearGradient><linearGradient id="t" x1="10.991" y1="14.636" x2="51.272" y2="27.506" gradientUnits="userSpaceOnUse"><stop offset=".802" stop-color="#6945A9"/><stop offset=".85" stop-color="#6643A5"/><stop offset=".901" stop-color="#5E3E98"/><stop offset=".952" stop-color="#513583"/><stop offset="1" stop-color="#402A69"/></linearGradient><linearGradient id="u" x1="29.183" y1="21.42" x2="29.058" y2="27.015" gradientUnits="userSpaceOnUse"><stop offset=".029" stop-color="#CFEBFE"/><stop offset=".076" stop-color="#E1F1FD"/><stop offset=".131" stop-color="#EEF6FB"/><stop offset=".179" stop-color="#F3F8FB"/><stop offset=".295" stop-color="#EFF6FB"/><stop offset=".415" stop-color="#E2F2FC"/><stop offset=".53" stop-color="#CFEBFE"/><stop offset=".6" stop-color="#C8E6FB"/><stop offset=".702" stop-color="#B4DAF3"/><stop offset=".824" stop-color="#93C5E6"/><stop offset=".933" stop-color="#70AED8"/></linearGradient><linearGradient id="v" x1="17.248" y1="13.067" x2="21.025" y2="17.741" gradientUnits="userSpaceOnUse"><stop stop-color="#F9D075"/><stop offset=".183" stop-color="#F9C870"/><stop offset=".459" stop-color="#FAB463"/><stop offset=".793" stop-color="#FA924E"/><stop offset="1" stop-color="#FB793F"/></linearGradient><linearGradient id="w" x1="16.65" y1="15.278" x2="21.015" y2="16.893" gradientUnits="userSpaceOnUse"><stop offset="0" stop-color="#F29E50"/><stop offset=".037" stop-color="#F4AC5A"/><stop offset=".109" stop-color="#F7C069"/><stop offset=".18" stop-color="#F8CC72"/><stop offset=".251" stop-color="#F9D075"/><stop offset=".376" stop-color="#F9BF6A"/><stop offset=".624" stop-color="#FA914E"/><stop offset=".745" stop-color="#FB793F"/><stop offset=".86" stop-color="#FA7B40"/><stop offset=".921" stop-color="#F98344"/><stop offset=".969" stop-color="#F5914A"/><stop offset="1" stop-color="#F29E50"/></linearGradient><linearGradient id="x" x1="46.799" y1="43.198" x2="50.373" y2="57.059" gradientUnits="userSpaceOnUse"><stop offset="0" stop-color="#F29E50"/><stop offset="1" stop-color="#FB793F"/></linearGradient><linearGradient id="y" x1="46.328" y1="41.891" x2="49.639" y2="56.431" gradientUnits="userSpaceOnUse"><stop offset="0" stop-color="#F9D075"/><stop offset=".139" stop-color="#FCE88F"/><stop offset=".269" stop-color="#FEF7A0"/><stop offset=".366" stop-color="#FFFDA6"/><stop offset=".486" stop-color="#FDF29C"/><stop offset=".699" stop-color="#F9D380"/><stop offset=".979" stop-color="#F3A254"/><stop offset="1" stop-color="#F29E50"/></linearGradient><radialGradient id="p" cx="0" cy="0" r="1" gradientUnits="userSpaceOnUse" gradientTransform="rotate(-31.905 81.854 -23.085) scale(31.1386)"><stop offset=".36" stop-color="#F0592A"/><stop offset=".391" stop-color="#F66B36"/><stop offset=".423" stop-color="#FA763D"/><stop offset=".46" stop-color="#FB793F"/><stop offset=".824" stop-color="#FFC39D"/></radialGradient><radialGradient id="r" cx="0" cy="0" r="1" gradientUnits="userSpaceOnUse" gradientTransform="rotate(-31.905 116.628 -22.355) scale(9.20534)"><stop stop-color="#FFC39D"/><stop offset=".223" stop-color="#FFC099"/><stop offset=".446" stop-color="#FEB68D"/><stop offset=".669" stop-color="#FDA679"/><stop offset=".89" stop-color="#FC905D"/><stop offset="1" stop-color="#FB824C"/></radialGradient><clipPath id="a"><path fill="#fff" d="M0 0h95.3v80H0z"/></clipPath></defs></svg>