<svg width="96" height="80" fill="none" xmlns="http://www.w3.org/2000/svg"><g clip-path="url(#a)"><path d="M78.3 44.5c3.2-9.4 3.2-19.7 3.6-29.5.1-3 .7-7.4-1-10-.6-.9-1.3-1.4-2.1-1.5-1.5-.5-3.1-.9-4.7-1.3-2.1-.5-3.8.1-5.9.6-2.2.5-4.5 1-6.9 1-2.5 0-5.3-.9-7.7-1.6-2.5-.7-5-1.4-7.5-2-2.3-.2-4.5.5-6.7 1.2-3 .9-5.9 1.9-9 2.1-2.5.2-5-.3-7.5-.8-2.7-.6-6.2-2.6-8.2.3-1.8 2.6-1.5 7.1-1.6 10-.1 9.8-.7 20.1 1.9 29.5 2.3 8.1 5.4 16.1 10.5 22.9 4.1 5.5 10 10.9 16.6 13.2 2.6.9 5.9 2.3 8.6 1.1 4.5-2 8.9-5.2 12.4-8.7 7.5-7.5 12-17 15.2-26.5Z" fill="url(#b)"/><path opacity=".2" d="M73.2 6.2c-.7-1.1-1.6-1.5-2.6-1.5-1.3 0-2.8.6-4.2.9-2.1.5-4.2.9-6.3.9-.5 0-.9 0-1.4-.1-3.6-.4-7-1.8-10.5-2.8-1-.3-1.9-.4-2.8-.4-1.8 0-3.4.5-5.4 1.1-2.7.8-5.4 1.7-8.3 2-.5 0-.9.1-1.4.1-2.1 0-4.2-.5-6.3-1-1.4-.3-2.8-1-4.1-1-1 0-1.9.3-2.7 1.4-1.7 2.4-1.4 6.5-1.4 9.2-.1 9-.6 18.5 1.8 27.2 2.1 7.4 5 14.8 9.6 21 2.3 3.1 5 5.9 8.1 8.1 2.3 1.6 5.1 4 8 4 .7 0 1.5-.1 2.2-.4 4.1-1.8 8.2-4.8 11.4-8 6.7-6.7 10.9-15.5 13.8-24.3 2.9-8.6 2.9-18.2 3.3-27.1.2-2.8.7-6.8-.8-9.3Z" fill="#B5E69F"/><path opacity=".3" d="M66.5 22.7c-.9-1-2.1-1.5-3.4-1.5-1.2 0-2.5.5-3.5 1.5L40.9 41.9l-9-9.9c-.9-1-2.1-1.5-3.4-1.5-1.2 0-2.5.5-3.5 1.5-1.9 2-2 5.2-.2 7.2l12.3 13.5c.9 1 2.1 1.5 3.4 1.5 1.3 0 2.5-.5 3.5-1.5L66.3 30c2-2 2.1-5.2.2-7.3Z" fill="#1A8427"/><path d="M65.3 21.5c-.9-1-2.1-1.5-3.4-1.5-1.2 0-2.5.5-3.5 1.5L39.7 40.6l-9-9.9c-.9-1-2.1-1.5-3.4-1.5-1.2 0-2.5.5-3.5 1.5-1.9 2-2 5.2-.2 7.2L36 51.5c.9 1 2.1 1.5 3.4 1.5 1.3 0 2.5-.5 3.5-1.5l22.3-22.8c1.8-2 1.9-5.2.1-7.2Z" fill="url(#c)"/></g><defs><radialGradient id="b" cx="0" cy="0" r="1" gradientUnits="userSpaceOnUse" gradientTransform="translate(7.329 20.373) scale(82.2633)"><stop offset=".006" stop-color="#75D982"/><stop offset=".184" stop-color="#71D17A"/><stop offset=".666" stop-color="#67BF67"/><stop offset=".745" stop-color="#64BC65"/><stop offset=".81" stop-color="#5AB25E"/><stop offset=".87" stop-color="#48A153"/><stop offset=".871" stop-color="#48A153"/><stop offset=".921" stop-color="#50A958"/><stop offset=".998" stop-color="#66BE67"/><stop offset="1" stop-color="#67BF67"/></radialGradient><linearGradient id="c" x1="34.413" y1="20.976" x2="54.12" y2="39.834" gradientUnits="userSpaceOnUse"><stop stop-color="#FFFDA6"/><stop offset=".475" stop-color="#F5E37B"/><stop offset=".666" stop-color="#F5E278"/><stop offset=".786" stop-color="#F5DF70"/><stop offset=".888" stop-color="#F5DA61"/><stop offset=".978" stop-color="#F6D44C"/><stop offset="1" stop-color="#F6D246"/></linearGradient><clipPath id="a"><path fill="#fff" d="M0 0h95.3v80H0z"/></clipPath></defs></svg>