<svg width="138" height="80" fill="none" xmlns="http://www.w3.org/2000/svg"><path d="M86.1 51.8 44 48.5l-28.8 12L14 12.9l28.2-8.5 43.4 1.1.5 46.3Z" fill="#FFD073"/><path d="M42.2 4.4 44 48.5l42.1 3.3-.5-46.3-43.4-1.1Z" fill="#E0962B"/><path d="m69.5 64.3-54.3-3.8L14 12.9l54.3 2.2 17.3-9.6.5 46.3-16.6 12.5Z" fill="#FFD073"/><path d="m85.6 5.5-17.3 9.6c.3 3.2 1.2 49.2 1.2 49.2l16.6-12.5-.5-46.3Z" fill="#FFC257"/><path d="M68.3 15.1 14 12.9l28.2-9 43.4 1.6-17.3 9.6Z" fill="#FEE5AE"/><path d="m37.5 62.1 7.4.5-.2-48.4L64 4.7l-5.1-.2-22 9.3.6 48.3Z" fill="#fff"/><path d="m36.9 13.8.5 48.3 7.4.5-.2-48.4c.1 0-6.1-.2-7.7-.4Z" fill="#FFD073" opacity=".27"/><path d="m25.7 22.7-10.6-.5-.2-7.7 13.5.5v7.9l-2.7-.2Z" fill="#fff"/><path d="m123.3 60.3-37.6-3.7-25.6 10.3-1-42.8 25.1-7 38.6 1.7.5 41.5Z" fill="#FFD073"/><path d="m84.2 17.1 1.5 39.5 37.6 3.7-.5-41.5-38.6-1.7Z" fill="#E0962B"/><path d="m108.5 71.2-48.4-4.3-1-42.8 48.3 3 15.4-8.3.5 41.5-14.8 10.9Z" fill="#FFD073"/><path d="m122.8 18.8-15.4 8.3c.3 2.9 1.1 44.1 1.1 44.1l14.8-10.9-.5-41.5Z" fill="#FFC257"/><path d="m107.4 27.1-48.3-3 25.1-7.5 38.6 2.2-15.4 8.3Z" fill="#FEE5AE"/><path d="m79.9 68.7 6.6.6-.1-43.4 17.2-8.2-4.6-.2-19.5 7.9.4 43.3Z" fill="#fff"/><path d="m79.5 25.4.5 43.3 6.6.6-.2-43.4s-5.6-.4-6.9-.5Z" fill="#FFD073" opacity=".27"/><path d="M71.9 33.3 60 32.4l-.1-6.8 12 .7v7Z" fill="#fff"/><path d="m76.9 65.8-23.5-1.7-16.1 7.2-.3-28 15.7-5.2 24.2.5v27.2Z" fill="#FFD073"/><path d="m52.7 38.1.7 26 23.5 1.7V38.6l-24.2-.5Z" fill="#E0962B"/><path d="m67.5 73.2-30.2-1.9-.3-28 30.2 1 9.7-5.7.1 27.3-9.5 7.3Z" fill="#FFD073"/><path d="m76.9 38.6-9.7 5.7c.1 1.9.4 28.9.4 28.9l9.5-7.3-.2-27.3Z" fill="#FFC257"/><path d="m67.2 44.3-30.2-1 15.7-5.4 24.2.7-9.7 5.7Z" fill="#FEE5AE"/><path d="m49.7 72.1 4.1.3.2-28.5 10.8-5.7-2.8-.1-12.3 5.6v28.4Z" fill="#fff"/><path d="M49.7 43.7v28.4l4.1.3.2-28.5s-3.4-.1-4.3-.2Z" fill="#FFD073" opacity=".27"/><path d="m45 48.5-7.5-.3v-4.3l7.4.3.1 4.3Z" fill="#fff"/></svg>