<svg width="96" height="80" fill="none" xmlns="http://www.w3.org/2000/svg"><g clip-path="url(#a)"><path d="M84.2 16.6c0-.9-.4-1.7-.9-2.4-.7-1.1-1.3-2.2-2-3.3-1-1.4-2.7-2.4-4.6-2.6h-.3c-14-1.5-30.4-1.8-44.6-.4-2.9.3-4.9 2.3-4.6 4.5C29.6 29.8 25 48.2 17 66c-.6 1.3-.4 2.5.3 3.3 1.3 1.4 2.6 2.9 3.8 4.3.5.6 1.4 1 2.4 1.1 12.5.8 24.8 2.6 36.8 5.2.2.1.5.1.8.1 2.3.1 5-1.3 6.2-3.5 10.8-19.1 18-39.6 16.9-59.9Z" fill="url(#b)"/><path d="M84.2 16.6c0-.9-.4-1.7-.9-2.4-.7-1.1-1.3-2.2-2-3.3-1-1.4-2.7-2.4-4.6-2.6h-.3C62.3 6.8 46 6.5 31.8 7.9c-2.9.3-4.9 2.3-4.6 4.5C29.6 29.8 25 48.2 17 66c-.6 1.3-.4 2.5.3 3.3 1.3 1.4 2.6 2.9 3.8 4.3.5.6 1.4 1 2.4 1.1 12.5.8 24.8 2.6 36.8 5.2.2.1.5.1.8.1 2.3.1 5-1.3 6.2-3.5 10.8-19.1 18-39.6 16.9-59.9Z" fill="url(#c)"/><path d="M72.5 7.9c-.1-.8-.4-1.6-.9-2.2-.6-1-1.3-2-1.9-3.1-.9-1.3-2.4-2.1-4-2.2h-.3c-12-.5-25.7-.6-37.7.2-2.5.2-4.2 2-4 4.2C25 21.5 20.5 39 11.5 55.4c-.7 1.2-.6 2.4 0 3.2 1.1 1.5 2.3 2.9 3.4 4.4.5.6 1.3 1 2.3 1.2 12.2 1.6 24.4 3.4 36.4 5.6.2 0 .5.1.8.1 2.3 0 4.9-1.4 6.1-3.6 9.7-18.9 14.3-39.1 12-58.4Z" fill="url(#d)"/><path d="M72.5 7.9c-.1-.8-.4-1.6-.9-2.2-.6-1-1.3-2-1.9-3.1-.9-1.3-2.4-2.1-4-2.2h-.3c-12-.6-25.7-.7-37.7.2-2.5.2-4.2 2-4 4.2C25 21.5 20.5 39 11.5 55.4c-.7 1.2-.6 2.4 0 3.2 1.1 1.5 2.3 2.9 3.4 4.4.5.6 1.3 1 2.3 1.2 12.2 1.6 24.4 3.4 36.4 5.6.2 0 .5.1.8.1 2.3 0 4.9-1.4 6.1-3.6 9.7-18.9 14.3-39.1 12-58.4Z" fill="url(#e)"/><path d="M45.3 10.3c-1.2-.1-2.5.1-3.8.5-6.7 2-10.9 9.2-8.3 16 4.6 12 23.2 5.6 22.2-6.3-.6-5.7-4.9-9.9-10.1-10.2Z" fill="url(#f)"/><path d="M54 24.7c-2.3 5.9-8.8 9.3-14.5 7.7-5.7-1.7-8.4-7.8-6-13.7 2.3-5.9 8.8-9.3 14.5-7.7 5.7 1.7 8.4 7.8 6 13.7Z" fill="url(#g)"/><path opacity=".18" d="M36 18.9c-.2.3-.4.6-.7.6-.2 0-.4-.3-.4-.6-.1-.6.2-1.2.5-1.7.7-1.1 1.6-2.1 2.7-2.7.2-.1.4-.2.6-.2.2 0 .4.1.5.3.2.6-1 1.4-1.3 1.7-.5.5-1 1.1-1.4 1.8-.2.2-.3.5-.5.8Z" fill="#fff"/><path d="M54 40.8c-8.9-.9-17.7-1.8-26.5-2.8-1.2-.1-2.4.8-2.7 2-.3 1.2.4 2.2 1.6 2.4L53.2 45c1.2.1 2.4-.7 2.6-1.9.2-1.2-.6-2.2-1.8-2.3Z" fill="url(#h)"/><path d="M28.8 52.7c-1.2-.2-1.9-1.2-1.6-2.3.4-1.2 1.7-2 2.9-1.9 4.8.5 9.7 1 14.5 1.5 1.3.1 2 1.2 1.7 2.3-.3 1.2-1.6 2-2.9 1.9.1-.1-14.6-1.5-14.6-1.5Z" fill="url(#i)"/><path d="M48.4 17.5c-.3 0-.7.1-1 .3-1.9 1.7-3.9 3.4-5.9 5.2-.8-1-1.7-2.1-2.5-3.1-.3-.3-.7-.5-1-.5-.4 0-.7.1-1 .4-.6.5-.7 1.5-.2 2.1 1.1 1.4 2.3 2.9 3.4 4.3.2.3.6.5 1 .5h.1c.4 0 .7-.1 1-.4 2.4-2.1 4.8-4.1 7.1-6.1.6-.5.6-1.5.1-2.1-.3-.4-.7-.6-1.1-.6Z" fill="url(#j)"/></g><defs><linearGradient id="c" x1="58.566" y1="-1.568" x2="44.127" y2="86.042" gradientUnits="userSpaceOnUse"><stop offset=".055" stop-color="#C9B3F8"/><stop offset=".057" stop-color="#C9B3F8"/><stop offset=".196" stop-color="#C9B3F8"/><stop offset=".567" stop-color="#A389F0"/><stop offset=".819" stop-color="#6945A9"/><stop offset=".91" stop-color="#6945A9"/></linearGradient><linearGradient id="e" x1="50.183" y1="-8.655" x2="36.414" y2="74.89" gradientUnits="userSpaceOnUse"><stop offset=".055" stop-color="#F3F8FB"/><stop offset=".143" stop-color="#E3ECF1"/><stop offset=".567" stop-color="#E3ECF1"/><stop offset=".848" stop-color="#BED8D9"/><stop offset=".91" stop-color="#BED8D9"/></linearGradient><linearGradient id="h" x1="40.907" y1="34.992" x2="39.779" y2="46.769" gradientUnits="userSpaceOnUse"><stop offset=".234" stop-color="#A6BBBE"/><stop offset=".253" stop-color="#A9BEC1"/><stop offset=".381" stop-color="#B8D1D3"/><stop offset=".47" stop-color="#BED8D9"/><stop offset=".545" stop-color="#BAD3D5"/><stop offset=".629" stop-color="#AFC6C8"/><stop offset=".677" stop-color="#A6BBBE"/><stop offset=".737" stop-color="#9CAFB2"/><stop offset=".846" stop-color="#809093"/><stop offset=".898" stop-color="#717F82"/></linearGradient><linearGradient id="i" x1="37.515" y1="45.524" x2="36.201" y2="56.047" gradientUnits="userSpaceOnUse"><stop offset=".234" stop-color="#A6BBBE"/><stop offset=".253" stop-color="#A9BEC1"/><stop offset=".381" stop-color="#B8D1D3"/><stop offset=".47" stop-color="#BED8D9"/><stop offset=".545" stop-color="#BAD3D5"/><stop offset=".629" stop-color="#AFC6C8"/><stop offset=".677" stop-color="#A6BBBE"/><stop offset=".737" stop-color="#9CAFB2"/><stop offset=".846" stop-color="#809093"/><stop offset=".898" stop-color="#717F82"/></linearGradient><linearGradient id="j" x1="40.64" y1="17.466" x2="45.892" y2="23.243" gradientUnits="userSpaceOnUse"><stop stop-color="#FFFDA6"/><stop offset=".475" stop-color="#F5E37B"/><stop offset=".666" stop-color="#F5E278"/><stop offset=".786" stop-color="#F5DF70"/><stop offset=".888" stop-color="#F5DA61"/><stop offset=".978" stop-color="#F6D44C"/><stop offset="1" stop-color="#F6D246"/></linearGradient><radialGradient id="b" cx="0" cy="0" r="1" gradientUnits="userSpaceOnUse" gradientTransform="matrix(110.38064 2.94804 -3.07585 115.16593 -15.011 19.477)"><stop offset=".428" stop-color="#C9B3F8"/><stop offset=".649" stop-color="#A389F0"/><stop offset=".788" stop-color="#9A6CF0"/><stop offset=".808" stop-color="#9669EA"/><stop offset=".834" stop-color="#8B60DA"/><stop offset=".864" stop-color="#7851BF"/><stop offset=".883" stop-color="#6945A9"/><stop offset=".899" stop-color="#724CB6"/><stop offset=".928" stop-color="#8A5FD9"/><stop offset=".945" stop-color="#9A6CF0"/></radialGradient><radialGradient id="d" cx="0" cy="0" r="1" gradientUnits="userSpaceOnUse" gradientTransform="rotate(1.467 -786.536 -804.208) scale(103.124)"><stop offset=".428" stop-color="#F3F8FB"/><stop offset=".649" stop-color="#DFEEF0"/><stop offset=".788" stop-color="#ECFCFF"/><stop offset=".814" stop-color="#E6F7FA"/><stop offset=".849" stop-color="#D6EBED"/><stop offset=".883" stop-color="#BED8D9"/><stop offset=".945" stop-color="#BED8D9"/></radialGradient><radialGradient id="f" cx="0" cy="0" r="1" gradientUnits="userSpaceOnUse" gradientTransform="translate(42.052 20.71) scale(13.9005)"><stop offset=".006" stop-color="#75D982"/><stop offset=".13" stop-color="#71D17A"/><stop offset=".466" stop-color="#67BF67"/><stop offset=".736" stop-color="#51AA59"/><stop offset=".838" stop-color="#48A153"/><stop offset=".93" stop-color="#4AA354"/><stop offset=".963" stop-color="#51A959"/><stop offset=".987" stop-color="#5CB560"/><stop offset="1" stop-color="#67BF67"/></radialGradient><radialGradient id="g" cx="0" cy="0" r="1" gradientUnits="userSpaceOnUse" gradientTransform="rotate(16.299 -53.863 163.731) scale(10.6858 11.4339)"><stop offset=".203" stop-color="#67BF67"/><stop offset="1" stop-color="#67BF67"/></radialGradient><clipPath id="a"><path fill="#fff" d="M0 0h95.3v80H0z"/></clipPath></defs></svg>