<svg width="120" height="120" fill="none" xmlns="http://www.w3.org/2000/svg"><g fill="#fff"><path d="M40.732 52.513h38.935c5.79 0 10.583-4.792 10.583-10.583V20.566c0-5.79-4.792-10.583-10.583-10.583H40.732c-5.79 0-10.582 4.792-10.582 10.583V42.13c0 5.59 4.792 10.383 10.582 10.383Zm-5.59-31.947c0-2.995 2.396-5.59 5.59-5.59h38.935c2.995 0 5.591 2.395 5.591 5.59V42.13c0 2.995-2.396 5.59-5.59 5.59H40.731c-2.995 0-5.59-2.395-5.59-5.59V20.566Zm6.189 61.896c6.19 0 11.182-4.991 11.182-11.181 0-6.19-4.992-11.181-11.182-11.181A11.163 11.163 0 0 0 30.15 71.28c0 6.19 4.992 11.181 11.181 11.181Zm0-17.57c3.395 0 6.19 2.795 6.19 6.19 0 3.394-2.795 6.189-6.19 6.189-3.394 0-6.19-2.795-6.19-6.19 0-3.394 2.796-6.19 6.19-6.19ZM78.868 59.9a11.163 11.163 0 0 0-11.181 11.182c0 6.19 4.992 11.181 11.181 11.181 6.19 0 11.182-4.992 11.182-11.181 0-6.19-4.992-11.182-11.182-11.182Zm0 17.571c-3.394 0-6.19-2.795-6.19-6.19 0-3.394 2.796-6.19 6.19-6.19 3.395 0 6.19 2.796 6.19 6.19 0 3.395-2.795 6.19-6.19 6.19Z"/><path d="M117.604 114.809h-13.777l-8.785-10.782c-.2-.599-.6-1.198-1.198-1.398l-8.386-10.383h4.193c5.79 0 10.582-4.792 10.582-10.582V10.582C100.233 4.792 95.441 0 89.651 0H30.749c-5.79 0-10.583 4.792-10.583 10.582v71.481c0 5.79 4.792 10.583 10.583 10.583h1.797l-8.386 10.382c-.6.4-.999.799-1.198 1.398l-8.985 10.383H2.596c-1.398 0-2.596 1.198-2.596 2.595C0 118.802 1.198 120 2.596 120h114.808c1.398 0 2.596-1.198 2.596-2.596 0-1.397-1.198-2.595-2.396-2.595ZM25.158 81.864V10.582c0-2.995 2.396-5.59 5.59-5.59h58.903c2.995 0 5.59 2.396 5.59 5.59v71.481c0 2.995-2.396 5.59-5.59 5.59H30.749c-3.195-.199-5.59-2.794-5.59-5.79Zm53.71 10.582 8.187 9.983H30.749l8.186-9.983H78.87ZM26.557 107.42h64.492l6.19 7.587H20.366l6.19-7.587Z"/></g></svg>