<svg width="72" height="41" fill="none" xmlns="http://www.w3.org/2000/svg"><path d="M70.015 29.98a.657.657 0 0 0-.025-.179c-.076-.305-.31-.526-.528-.73a1.992 1.992 0 0 1-.134-.128V27.61a.876.876 0 0 0-.16-.552c-.175-.271-.444-.433-.695-.611v-1.529a.721.721 0 0 0-.276-.577c-.093-.077-.235-.145-.36-.221v-1.461a.988.988 0 0 0-.034-.263 1.34 1.34 0 0 0-.277-.501c.017 0 .042-.008.06-.008.292-.085.443-.332.552-.603.1-.264.134-.586.31-.816.084-.11.176-.136.31-.161.21-.034.394-.076.536-.255a.701.701 0 0 0 .143-.399v-1.698a.875.875 0 0 0-.218-.629c-.302-.34-.813-.518-1.215-.696a2.9 2.9 0 0 0-1.441-.246c-.41.034-.804.06-1.08-.221.125-.255.234-.518.234-.798v-1.699c0-.06 0-.119-.009-.178-.067-.45-.36-.85-.594-1.223a7.733 7.733 0 0 0-.796-1.096 4.524 4.524 0 0 0-.964-.823c-.36-.23-.838-.297-1.173-.578-.31-.263-.276-.73-.603-.985-.327-.246-.754-.136-1.072.068-.335.212-.637.73-1.073.713-.402-.017-.737-.424-1.097-.56-.846-.314-1.877.365-2.53.866-.78.603-1.483 1.325-2.38 1.741-.452.212-.963.331-1.457.23-.495-.103-.922-.4-1.391-.578-.704-.28-1.508-.23-2.195.076-.578.136-1.156.272-1.76.247a4.09 4.09 0 0 1-1.776-.459c-.51-.272-.963-.747-1.575-.747-.268 0-.51.11-.745.229-.218.11-.461.263-.712.187-.352-.102-.604-.476-.838-.747-.268-.315-.57-.654-.98-.765a1.343 1.343 0 0 0-.662.009c-.118.025-.243.085-.352.008-.1-.068-.16-.22-.218-.314-.285-.459-.687-.67-1.206-.739-.545-.068-1.123.009-1.525-.433-.21-.23-.41-.501-.662-.662-.117-.204-.352-.374-.578-.382-.319-.009-.603.271-.897.365-.402.127-.795-.136-1.172-.247-.788-.229-1.617.017-2.397-.229-.31-.102-.611-.246-.938-.297-.31-.051-.62.008-.913.119-.612.238-1.123.705-1.751.874-.796.213-1.625-.127-2.405.17-.712.272-1.332.833-1.96 1.257-.578.4-1.424 1.172-2.178.875-.369-.144-.629-.484-.972-.671a2.319 2.319 0 0 0-1.09-.263 4.676 4.676 0 0 0-2.328.628.217.217 0 0 0-.076.077c-.31.059-.611-.11-.796-.408-.167-.28-.293-.552-.611-.696-.319-.145-.679-.153-1.006-.272-.326-.119-.62-.34-.863-.586a3.131 3.131 0 0 1-.88-1.707v-.977c.01-.348-.058-.67-.427-.849-.242-.119-.519-.127-.787-.178-.142-.026-.285-.051-.41-.119-.168-.085-.285-.238-.436-.348-.553-.416-1.257-.331-1.852-.068a4.928 4.928 0 0 0-.938.543c-.268.196-.57.4-.754.671-.218.323-.16.688-.176 1.053a2.125 2.125 0 0 1-.251.84c-.528 1.02-1.71 1.818-1.751 3.05v1.698c0 .085 0 .17.008.255.008.102.084.161.193.144.352-.06.695.23.754.578a5.442 5.442 0 0 0-1.064.857c-.335.348-.804.909-.771 1.444v1.698a.75.75 0 0 0 .109.391c.31.552.989.357 1.491.374.034 0 .059.008.084.008v1.741a.675.675 0 0 0 .084.382.91.91 0 0 0 .251.255v1.231a.727.727 0 0 1-.193-.161c-.243-.272-.368-.628-.603-.909-.335-.407-.997-.637-1.407-.212a.266.266 0 0 0-.059.153v1.367a.143.143 0 0 1-.05-.05.225.225 0 0 0-.26-.103c-.26.077-.36.28-.36.501v1.7a.859.859 0 0 0 .251.62c.201.195.503.229.737.373.294.17.201.552.344.816.251.458.78.373 1.24.407v1.146c0 .034 0 .068.025.11.251.51.41 1.053.503 1.614-.059.034-.1.084-.1.16v1.7c0 .026 0 .051.008.077.234.637.896.806 1.508.798.226 0 .51-.05.787-.068v1.367c0 .051.017.11.05.153.662.696 1.483-.68 2.153-.093.176.153.31.34.52.441.268.128.528.009.804.06.461.085.41.824.461 1.18.168 1.13 1.282 1.716 2.329 1.699.612-.009 1.274-.162 1.843-.383.503-.195.78-.56.997-1.044.193-.442.344-.926.871-1.045.537-.119 1.173.094 1.693.204 1.047.23 2.153.544 2.907 1.367.41.442.611 1.02.955 1.504.327.467.762.755 1.307.908 1.324.374 2.79.382 4.147.331.78-.034 1.575-.093 2.346-.237.276-.051.544-.162.712-.408.184-.263.176-.611.343-.883.319-.51.947-.654 1.475-.4.52.256.955.697 1.55.731.302.093.637.043.947-.085a2.24 2.24 0 0 0 .46-.263v1.093c-.008.094 0 .187.017.29.034.194.117.381.168.577V38.7c.033.348.352.747.737.628.377-.118.57-.628.72-.95.093-.18.168-.391.319-.527.21-.196.494-.187.762-.221.402-.051.855-.272.905-.739v-1.604c.235-.22.528-.373.763-.586a.583.583 0 0 1 .318.009c.276.085.52.237.813.28.661.085 1.105-.518 1.742-.552.679-.034 1.374.263 1.977.552.62.297 1.224.637 1.86.909 1.198.51 2.489.687 3.67.033.938-.518 1.717-1.46 2.798-1.68.586-.12 1.181.041 1.768.033.268 0 .536-.042.787-.144.285-.128.478-.331.696-.552.737-.782 1.91-.034 2.781-.51.109-.06.201-.136.285-.23.084-.092.16-.27.301-.288.193-.025.37.272.478.4.319.364.72.56 1.148.237.218-.17.394-.433.678-.492.344-.06.713.127 1.048.186.368.068.695.009 1.064-.05.234-.035.695-.085.796.22.067.204.351.331.51.136a1.57 1.57 0 0 1 .88-.543c.093.594.763 1.019 1.391.891.46-.093.838-.416 1.173-.73.251-.238.494-.51.486-.866v-1.665l.017-.305ZM9.283 11.603c.218-.204.452-.357.754-.34.369.017.704.11 1.08.076.612-.05 1.224-.246 1.844-.127.251.05.503.144.695.323.059.06.1.118.143.178a2.331 2.331 0 0 0-.595.17c-.21.093-.57.238-.603.492a.325.325 0 0 0 0 .128v.373c-.453.094-.939-.11-1.366-.28-.528-.204-1.09-.441-1.659-.331a1.665 1.665 0 0 0-.394.136c-.167.085-.326.246-.51.28-.16.026-.31-.034-.453-.127.419-.272.72-.62 1.064-.951Z" fill="#171756"/><path d="M70.015 28.703a.657.657 0 0 0-.025-.178c-.076-.306-.31-.527-.528-.73a2.071 2.071 0 0 1-.134-.128v-1.333a.876.876 0 0 0-.16-.552c-.175-.272-.444-.433-.695-.612v-1.528a.722.722 0 0 0-.276-.578c-.093-.076-.235-.144-.36-.22v-1.461a.989.989 0 0 0-.034-.263 1.34 1.34 0 0 0-.277-.501c.017 0 .042-.009.06-.009.292-.085.443-.331.552-.603.1-.263.134-.586.31-.815.084-.11.176-.136.31-.161.21-.034.394-.077.536-.255a.701.701 0 0 0 .143-.4v-1.697a.875.875 0 0 0-.218-.628c-.302-.34-.813-.518-1.215-.697a2.898 2.898 0 0 0-1.441-.246c-.41.034-.804.06-1.08-.22.125-.255.234-.519.234-.799V12.39c0-.06 0-.12-.009-.179-.067-.45-.36-.849-.594-1.222a7.733 7.733 0 0 0-.796-1.096 4.523 4.523 0 0 0-.964-.824c-.36-.229-.838-.297-1.173-.577-.31-.263-.276-.73-.603-.985-.327-.246-.754-.136-1.072.068-.335.212-.637.73-1.073.713-.402-.017-.737-.425-1.097-.56-.846-.315-1.877.365-2.53.866-.78.603-1.483 1.325-2.38 1.74-.452.213-.963.332-1.457.23-.495-.102-.922-.4-1.391-.577-.704-.28-1.508-.23-2.195.076-.578.136-1.156.272-1.76.246a4.09 4.09 0 0 1-1.776-.458c-.51-.272-.963-.748-1.575-.748-.268 0-.51.11-.745.23-.218.11-.461.263-.712.186-.352-.101-.604-.475-.838-.747-.268-.314-.57-.654-.98-.764a1.343 1.343 0 0 0-.662.008c-.118.026-.243.085-.352.009-.1-.068-.16-.221-.218-.314-.285-.459-.687-.671-1.206-.74-.545-.067-1.123.01-1.525-.432-.21-.23-.41-.501-.662-.663-.117-.203-.352-.373-.578-.382-.319-.008-.603.272-.897.365-.402.128-.795-.136-1.172-.246-.788-.23-1.617.017-2.397-.23-.31-.101-.611-.245-.938-.296-.31-.051-.62.008-.913.118-.612.238-1.123.705-1.751.875-.796.212-1.625-.127-2.405.17-.712.272-1.332.832-1.96 1.257-.578.399-1.424 1.172-2.178.875-.369-.145-.629-.485-.972-.671a2.319 2.319 0 0 0-1.09-.264 4.677 4.677 0 0 0-2.328.629.217.217 0 0 0-.076.076c-.31.06-.611-.11-.796-.407-.167-.28-.293-.552-.611-.697-.319-.144-.679-.153-1.006-.272-.326-.118-.62-.34-.863-.585a3.131 3.131 0 0 1-.88-1.707v-.977c.01-.348-.058-.67-.427-.85-.242-.118-.519-.127-.787-.178a1.348 1.348 0 0 1-.41-.118c-.168-.085-.285-.238-.436-.349-.553-.416-1.257-.33-1.852-.068a4.928 4.928 0 0 0-.938.544c-.268.195-.57.4-.754.67-.218.324-.16.689-.176 1.054a2.125 2.125 0 0 1-.251.84c-.528 1.02-1.71 1.818-1.751 3.05V9.8c0 .085 0 .17.008.255.008.101.084.16.193.144.352-.06.695.23.754.577a5.446 5.446 0 0 0-1.064.858c-.335.348-.804.909-.771 1.444v1.698c0 .136.034.263.109.39.31.553.989.357 1.491.374.034 0 .059.009.084.009v1.741a.675.675 0 0 0 .084.382.91.91 0 0 0 .251.255v1.231a.727.727 0 0 1-.193-.161c-.243-.272-.368-.629-.603-.909-.335-.408-.997-.637-1.407-.212a.267.267 0 0 0-.059.153v1.367a.143.143 0 0 1-.05-.051.225.225 0 0 0-.26-.102c-.26.076-.36.28-.36.501v1.698a.859.859 0 0 0 .251.62c.201.196.503.23.737.374.294.17.201.552.344.815.251.459.78.374 1.24.408v1.146c0 .034 0 .068.025.11.251.51.41 1.054.503 1.614-.059.034-.1.085-.1.162v1.698c0 .025 0 .05.008.076.234.637.896.807 1.508.799.226 0 .51-.051.787-.068v1.367c0 .05.017.11.05.153.662.696 1.483-.68 2.153-.094.176.153.31.34.52.442.268.127.528.009.804.06.461.084.41.823.461 1.18.168 1.13 1.282 1.715 2.329 1.698.612-.008 1.274-.161 1.843-.382.503-.195.78-.56.997-1.044.193-.442.344-.926.871-1.045.537-.119 1.173.094 1.693.204 1.047.23 2.153.543 2.907 1.367.41.442.611 1.02.955 1.503.327.467.762.756 1.307.909 1.324.373 2.79.382 4.147.331.78-.034 1.575-.093 2.346-.238.276-.05.544-.161.712-.407.184-.264.176-.612.343-.884.319-.51.947-.653 1.475-.399.52.255.955.697 1.55.73.302.094.637.043.947-.084.167-.068.318-.162.46-.264v1.097c-.008.093 0 .187.017.289.034.195.117.382.168.577v1.163c.033.348.352.747.737.628.377-.119.57-.628.72-.951.093-.178.168-.39.319-.527.21-.195.494-.187.762-.22.402-.051.855-.272.905-.74v-1.603c.235-.221.528-.374.763-.586a.583.583 0 0 1 .318.008c.276.085.52.238.813.28.661.085 1.105-.517 1.742-.552.679-.033 1.374.264 1.977.553.62.297 1.224.636 1.86.908 1.198.51 2.489.688 3.67.034.938-.518 1.717-1.46 2.798-1.681.586-.12 1.181.042 1.768.034.268 0 .536-.043.787-.145.285-.127.478-.33.696-.552.737-.781 1.91-.034 2.781-.51.109-.059.201-.135.285-.229.084-.093.16-.271.301-.288.193-.026.37.271.478.399.319.365.72.56 1.148.238.218-.17.394-.433.678-.493.344-.06.713.128 1.048.187.368.068.695.009 1.064-.051.234-.034.695-.085.796.22.067.205.351.332.51.137a1.57 1.57 0 0 1 .88-.544c.093.595.763 1.02 1.391.892.46-.094.838-.416 1.173-.73.251-.238.494-.51.486-.867V29.01l.017-.306ZM9.283 10.326c.218-.204.452-.356.754-.34.369.018.704.11 1.08.077.612-.051 1.224-.246 1.844-.127.251.05.503.144.695.322.059.06.1.12.143.179a2.335 2.335 0 0 0-.595.17c-.21.093-.57.237-.603.492a.325.325 0 0 0 0 .127v.374c-.453.093-.939-.11-1.366-.28-.528-.204-1.09-.442-1.659-.331a1.665 1.665 0 0 0-.394.135c-.167.085-.326.247-.51.28-.16.026-.31-.033-.453-.127.419-.271.72-.62 1.064-.95Z" fill="#7F140E"/><path d="M69.997 27.517c-.075-.306-.31-.527-.528-.73-.217-.204-.427-.357-.31-.663.16-.433.294-.832.017-1.257-.243-.365-.628-.526-.946-.807-.11-.093-.31-.297-.26-.467.042-.144.293-.263.385-.39.226-.323.143-.705-.15-.943-.21-.17-.67-.289-.612-.611.067-.434.352-.748.226-1.215-.193-.705-1.165-1.104-1.047-1.902.067-.459.52-.127.83-.212.292-.077.443-.332.552-.603.1-.264.134-.586.31-.816.084-.11.176-.135.31-.16.21-.035.394-.077.536-.256.235-.288.16-.73-.075-.993-.302-.34-.813-.518-1.215-.697a2.898 2.898 0 0 0-1.44-.246c-.487.043-.956.068-1.232-.416-.235-.408-.185-.756.025-1.163.192-.374.41-.748.343-1.19-.067-.45-.36-.848-.595-1.222a7.726 7.726 0 0 0-.796-1.096 4.523 4.523 0 0 0-.963-.823c-.36-.23-.838-.298-1.173-.578-.31-.263-.276-.73-.603-.985-.327-.246-.754-.136-1.072.068-.336.212-.637.73-1.073.713-.402-.017-.737-.424-1.097-.56-.847-.314-1.877.365-2.53.866-.78.603-1.483 1.325-2.38 1.741-.452.212-.963.331-1.458.23-.494-.103-.921-.4-1.39-.578-.704-.28-1.508-.23-2.195.076-.578.136-1.157.272-1.76.246a4.09 4.09 0 0 1-1.776-.458c-.51-.272-.963-.747-1.575-.747-.268 0-.511.11-.746.229-.217.11-.46.263-.712.187-.352-.102-.603-.476-.838-.748-.268-.314-.57-.653-.98-.764a1.344 1.344 0 0 0-.662.009c-.117.025-.242.085-.351.008-.101-.068-.16-.22-.218-.314-.285-.459-.687-.671-1.207-.739-.544-.068-1.122.009-1.525-.433-.209-.23-.41-.501-.661-.662-.118-.204-.352-.374-.578-.383-.319-.008-.604.272-.897.366-.402.127-.796-.136-1.173-.247-.787-.229-1.617.017-2.396-.229-.31-.102-.611-.246-.938-.297-.31-.051-.62.008-.913.119-.612.237-1.123.705-1.751.874-.796.213-1.626-.127-2.405.17-.712.272-1.332.832-1.96 1.257-.578.4-1.424 1.172-2.178.875-.37-.145-.629-.484-.972-.671a2.319 2.319 0 0 0-1.09-.263 4.677 4.677 0 0 0-2.329.628.218.218 0 0 0-.075.076c-.31.06-.612-.11-.796-.407-.167-.28-.293-.552-.611-.696-.319-.145-.68-.153-1.006-.272-.327-.12-.62-.34-.863-.586-.477-.476-.82-1.138-.896-1.818-.067-.568.243-1.333-.41-1.647-.244-.119-.52-.127-.788-.178a1.348 1.348 0 0 1-.41-.12c-.168-.084-.286-.237-.436-.347-.553-.416-1.257-.332-1.852-.068a4.928 4.928 0 0 0-.938.543c-.268.195-.57.4-.754.671-.218.323-.16.688-.176 1.053a2.125 2.125 0 0 1-.252.84c-.56 1.08-1.851 1.912-1.742 3.27.008.102.084.162.193.145.418-.068.829.348.754.78-.017.103.041.196.15.205 1.081.06 2.237.085 3.234-.408.478-.238.796-.62 1.182-.985.217-.204.452-.357.754-.34.368.017.703.11 1.08.077.612-.051 1.224-.247 1.843-.128.252.051.503.145.696.323.21.195.268.476.394.722.243.492.737.696 1.248.798.134.026.595.034.611.212.009.11-.134.23-.226.264-.184.068-.435-.026-.611-.085-.637-.204-1.24-.246-1.869.034-.209.093-.57.238-.603.492a.563.563 0 0 0 .117.433c-.485.17-1.022-.067-1.482-.246-.528-.204-1.09-.441-1.66-.331a1.667 1.667 0 0 0-.393.136c-.168.085-.327.246-.511.28-.369.06-.695-.348-.989-.518-.678-.382-1.516-.204-2.195.068a5.321 5.321 0 0 0-1.834 1.248c-.411.433-1.023 1.172-.67 1.81.31.551.988.356 1.49.373.771.034.31.815.16 1.24-.084.246-.126.526.008.764.076.136.201.22.327.306.243.17.059.399 0 .628-.193.722.025 1.512.452 2.115-.234.127-.544-.026-.72-.221-.243-.272-.369-.629-.603-.909-.336-.407-.997-.637-1.408-.212-.059.06-.084.187-.033.263.167.238.469.62.368.934-.05.145-.335.357-.444.17a.225.225 0 0 0-.26-.102c-.51.145-.41.79-.1 1.096.201.195.503.229.737.373.293.17.201.552.344.816.318.569 1.055.297 1.558.458.235.077.57.272.528.56-.025.204-.319.493-.495.298-.167-.187-.427.05-.326.255a5.49 5.49 0 0 1 .544 2.02.204.204 0 0 0 .252.196c.335-.068.729.246.653.611-.067.323-.477.518-.762.383-.134-.06-.344.042-.277.22.235.637.897.807 1.508.799.578-.009 1.45-.28 1.919.186l-1.08.892c-.076.068-.06.195 0 .263.661.697 1.482-.679 2.152-.093.176.153.31.34.52.442.268.127.527.008.804.06.46.084.41.823.46 1.18.168 1.129 1.282 1.715 2.33 1.698.611-.009 1.273-.161 1.843-.382.503-.196.78-.56.997-1.045.193-.441.343-.925.871-1.044.536-.12 1.173.093 1.693.203 1.047.23 2.153.544 2.907 1.368.41.441.611 1.019.955 1.503.326.467.762.756 1.307.909 1.323.373 2.79.382 4.147.33.779-.033 1.575-.093 2.346-.237.276-.051.544-.161.712-.408.184-.263.176-.611.343-.883.319-.51.947-.654 1.475-.399.52.255.955.696 1.55.73.301.094.636.043.946-.085.528-.22.888-.654 1.332-.993.21-.162.453-.306.721-.331h.142c-.042.297-.125.577-.351.78-.294.264-.713.35-1.023.587-.31.238-.418.594-.343.985.042.238.15.459.201.696.067.323-.059.637-.025.951.033.349.352.748.737.629.377-.12.57-.629.72-.951.093-.179.168-.39.319-.527.21-.195.494-.187.762-.22.402-.052.855-.272.905-.74.025-.28-.15-.382-.285-.585-.142-.221-.016-.518.118-.714.234-.33.636-.51.93-.781a.583.583 0 0 1 .318.008c.276.085.52.238.813.28.661.086 1.105-.517 1.742-.551.679-.034 1.374.263 1.977.552.62.297 1.224.637 1.86.908 1.198.51 2.489.688 3.67.034.938-.518 1.717-1.46 2.798-1.681.587-.119 1.181.042 1.768.034.268 0 .536-.043.787-.145.285-.127.478-.33.696-.552.737-.78 1.91-.033 2.781-.509.11-.06.201-.136.285-.23.084-.093.16-.271.302-.288.192-.026.368.272.477.4.319.364.72.56 1.148.237.218-.17.394-.433.679-.493.343-.06.712.128 1.047.187.368.068.695.009 1.064-.05.234-.035.695-.086.796.22.067.204.352.331.51.136a1.57 1.57 0 0 1 .88-.544c.093.595.763 1.02 1.391.892.461-.093.838-.416 1.173-.73.293-.204.57-.518.47-.951Z" fill="url(#a)"/><g fill="#FFDE00"><path d="M22.889 24.848c-3.05 0-5.53-2.505-5.53-5.605 0-3.09 2.472-5.604 5.53-5.604 1.633 0 3.1.721 4.113 1.86-1.223-1.962-3.384-3.262-5.84-3.262-3.82 0-6.911 3.134-6.911 7.006 0 3.873 3.091 7.006 6.912 7.006 2.463 0 4.616-1.299 5.84-3.26a5.498 5.498 0 0 1-4.114 1.86Z"/><path d="m30.437 17.97 2.388-.782-1.475 2.056 1.475 2.063-2.388-.79-1.475 2.055v-2.539l-2.387-.79 2.387-.78v-2.548l1.475 2.055Z"/></g><defs><linearGradient id="a" x1="1.984" y1="18.168" x2="70.018" y2="18.168" gradientUnits="userSpaceOnUse"><stop stop-color="#DE2910"/><stop offset="1" stop-color="#C20022"/></linearGradient></defs></svg>