<svg version="1.1" id="Шар_1" xmlns="http://www.w3.org/2000/svg" x="0" y="0" viewBox="0 0 15 15" style="enable-background:new 0 0 15 15" xml:space="preserve"><style>.st0{fill:#6f3fa9}.st3{fill:#fefefe}</style><circle class="st0" cx="7.5" cy="7.5" r="7.5"/><path d="M6 5.6c-.1 0-.1 0 0 0z" style="fill:#bda7d7"/><path d="M6 6.6c-.1 0-.1-.1 0 0 0-.1 0 0 0 0z" style="fill:#b9a2d6"/><path class="st3" d="M8.6 6.6c0 .1 0 .1-.1.1s-.1 0-.1-.1v-.2c0-.2-.2-.4-.4-.4h-.1c-.2 0-.2 0-.2-.1s.1-.1.2-.1c.4 0 .7.3.7.8z"/><path class="st3" d="M9.2 6.7s0 .1 0 0c0 .1-.1.2-.1.2-.1 0-.1 0-.1-.1v-.3c-.1-.6-.5-1-1.2-1.1h-.1c-.1 0-.2 0-.2-.1s.1-.1.2-.1c.8 0 1.4.7 1.5 1.5zm.3 2c0 .2-.1.3-.3.5-.2.1-.4.2-.7.1-1.6-.7-2.7-1.8-3.3-3.5v-.1c0-.1 0-.2.1-.3.1-.2.3-.4.5-.5.1-.1.3 0 .4.1.2.3.4.5.6.8 0 .2 0 .4-.2.5-.3.2-.3.3-.1.7.2.5.6.8 1.1 1 .3.2.4.1.5-.1.2-.3.4-.3.6-.1.3.2.5.3.7.5.2.1.2.3.1.4z"/><path class="st3" d="M9.8 7c0 .1 0 .2-.1.2-.2 0-.2-.1-.2-.2 0-.2 0-.4-.1-.6-.1-.8-.8-1.4-1.7-1.5h-.3c-.1 0-.2 0-.2-.1s.1-.1.2-.1c1.2 0 2.1.9 2.2 2.1.1 0 .1.1.2.2z"/><path class="st3" d="M12 6.2c0-.4-.1-.9-.2-1.3-.2-.6-.6-1-1-1.4-.6-.4-1.2-.5-1.9-.6-1-.1-2-.1-3.1 0-.6.1-1.2.3-1.7.7-.5.4-.8.9-1 1.5C3 6.1 2.9 7 3 7.9c.1.4.1.9.3 1.2.4.8 1 1.3 1.7 1.6.1 0 .1.1.1.2v.8c0 .2.1.4.3.4.2.1.3 0 .5-.1l.9-.9c0-.1.1-.1.2-.1h.7c.5 0 1 0 1.5-.1.6-.1 1.2-.3 1.7-.7.5-.4.8-.9 1-1.6.1-.7.2-1.6.1-2.4zm-.9 2.3c-.1.3-.2.5-.4.7-.3.4-.7.7-1.2.8-.7.1-1.4.2-2.1.2-.1 0-.2 0-.3.1-.4.5-.9.9-1.3 1.4 0 0-.1.1-.2.1s-.1-.1-.1-.2v-1.4c0-.1 0-.1-.1-.1-.8-.4-1.4-1-1.5-1.9-.2-1-.1-1.9.1-2.9 0-.2.1-.4.3-.6.1-.3.4-.5.7-.7.3-.2.7-.2 1-.3 1.2-.2 2.3-.1 3.5.1.2 0 .4.1.6.3.3.2.5.4.7.6.2.3.3.6.4 1 .1.9 0 1.9-.1 2.8z"/><path class="st0" d="M8.6 6.6c0 .1 0 .1-.1.1s-.1 0-.1-.1v-.2c0-.2-.2-.4-.4-.4h-.1c-.2 0-.2 0-.2-.1s.1-.1.2-.1c.4 0 .7.3.7.8z"/><path class="st0" d="M9.2 6.7s0 .1 0 0c0 .1-.1.2-.1.2-.1 0-.1 0-.1-.1v-.3c-.1-.6-.5-1-1.2-1.1h-.1c-.1 0-.2 0-.2-.1s.1-.1.2-.1c.8 0 1.4.7 1.5 1.5zm.3 2c0 .2-.1.3-.3.5-.2.1-.4.2-.7.1-1.6-.7-2.7-1.8-3.3-3.5v-.1c0-.1 0-.2.1-.3.1-.2.3-.4.5-.5.1-.1.3 0 .4.1.2.3.4.5.6.8 0 .2 0 .4-.2.5-.3.2-.3.3-.1.7.2.5.6.8 1.1 1 .3.2.4.1.5-.1.2-.3.4-.3.6-.1.3.2.5.3.7.5.2.1.2.3.1.4z"/><path class="st0" d="M9.6 7.2c-.1 0-.1-.1-.1-.2 0-.2 0-.4-.1-.6-.1-.8-.8-1.4-1.7-1.5h-.3c-.1 0-.2 0-.2-.1s.1-.1.2-.1c1.2 0 2.1.9 2.2 2.1v.3c.2 0 .1 0 0 .1z"/><path class="st3" d="M9.5 8.7c0 .2-.1.3-.3.5-.2.1-.4.2-.7.1-1.6-.7-2.7-1.8-3.3-3.5v-.1c0-.1 0-.2.1-.3.1-.2.3-.4.5-.5.1-.1.3 0 .4.1.2.3.4.5.6.8 0 .2 0 .4-.2.5-.3.2-.3.3-.1.7.2.5.6.8 1.1 1 .3.2.4.1.5-.1.2-.3.4-.3.6-.1.3.2.5.3.7.5.2.1.2.3.1.4zm.1-1.5c-.1 0-.1-.1-.1-.2 0-.2 0-.4-.1-.6-.1-.8-.8-1.4-1.7-1.5h-.3c-.1 0-.2 0-.2-.1s.1-.1.2-.1c1.2 0 2.1.9 2.2 2.1v.3c.2 0 .1 0 0 .1z"/><path class="st3" d="M9.2 6.8c0 .1-.1.1-.1.1-.1 0-.1 0-.1-.1v-.3c-.1-.6-.5-1-1.2-1.1h-.1c-.1 0-.2 0-.2-.1s.1-.1.2-.1c.8 0 1.4.7 1.5 1.6 0-.1 0 0 0 0z"/><path d="M8.5 6.7c-.1 0-.1 0-.1-.1v-.2c0-.2-.2-.4-.4-.4h-.1c-.2 0-.2 0-.2-.1s.1-.1.2-.1c.4 0 .7.3.7.8 0 .1 0 .1-.1.1z" style="fill:#fdfdfe"/></svg>